<svg width="246" height="243" viewBox="0 0 246 243" fill="none" xmlns="http://www.w3.org/2000/svg">
<path d="M31.8121 38.5578L21.237 36.8132L13.2144 43.9191L12.2873 34.0342L2.65216 28.8768L13.0492 25.8845L15.0425 15.3323L22.3492 23.2079L32.7477 20.2152L27.3332 29.6969L31.8121 38.5578Z" fill="#2A2AFF"/>
<g clip-path="url(#clip0_21_4680)">
<path d="M124.5 240.175C190.042 240.175 243.174 187.042 243.174 121.5C243.174 55.958 190.042 2.82568 124.5 2.82568C58.9579 2.82568 5.82556 55.958 5.82556 121.5C5.82556 187.042 58.9579 240.175 124.5 240.175Z" fill="#FFEA02" stroke="#3F47CB" stroke-width="4"/>
<mask id="mask0_21_4680" style="mask-type:alpha" maskUnits="userSpaceOnUse" x="10" y="7" width="234" height="234">
<path d="M127.238 240C191.172 240 243 188.172 243 124.238C243 60.305 191.172 8.47681 127.238 8.47681C63.305 8.47681 11.4768 60.305 11.4768 124.238C11.4768 188.172 63.305 240 127.238 240Z" fill="black" stroke="#3F47CB"/>
</mask>
<g mask="url(#mask0_21_4680)">
<path d="M37.8188 90.1732C35.7177 89.9451 31.5614 90.3925 28.6115 91.2208C25.7145 91.9964 22.9195 93.198 22.4414 93.8845C21.9632 94.5715 21.1674 95.5752 20.6908 96.0498C20.1075 96.7357 20.4067 98.9687 21.4855 102.429C23.2862 107.807 23.2863 107.807 26.6367 109.744C28.5222 110.714 30.9854 111.741 32.1404 111.962C33.2431 112.13 34.1862 112.561 34.1317 112.827C34.1294 113.145 32.9544 115.686 31.6197 118.491C30.2321 121.35 28.9979 124.793 28.8827 126.173C28.8197 127.607 29.1726 129.681 29.8478 130.801C30.418 131.921 32.2911 134.59 34.0107 136.675C36.2506 139.506 37.661 140.738 39.4444 141.283C40.7029 141.717 42.1172 142.418 42.4303 142.738C42.7956 143.113 45.0494 144.032 47.3048 144.739C49.6653 145.447 53.338 146.43 55.5957 146.818C57.8004 147.259 61.0557 147.814 62.7354 148.145C64.4684 148.424 68.2034 148.079 70.9424 147.356C74.4187 146.425 76.2587 146.385 76.9892 147.134C77.5633 147.723 78.8587 150.335 81.5907 157.738L77.9361 161.483C75.9236 163.593 72.9566 166.758 71.3134 168.605C69.6701 170.452 66.0659 174.462 63.3102 177.523C60.5543 180.584 56.0424 186.552 53.278 190.782C49.8758 195.962 47.6371 200.195 46.5065 203.852C45.4856 206.872 44.3612 209.679 43.9376 210.1C43.514 210.522 43.2998 211.052 43.5085 211.266C43.7695 211.534 43.5491 212.913 42.9596 214.449C42.4754 215.986 41.8337 217.468 41.5689 217.732C41.3041 217.995 39.0419 218.244 36.5186 218.226C33.9954 218.208 29.1109 217.587 25.5931 216.977C22.0761 216.261 17.9291 215.434 16.4074 215.051C14.8335 214.615 11.9987 214.063 10.0564 213.677C8.16633 213.344 4.59716 212.574 2.2351 212.079C-0.179115 211.53 -3.01231 210.766 -4.21791 210.279C-5.3713 209.846 -9.31032 209.339 -12.9893 209.206C-16.7211 209.125 -22.928 209.611 -26.719 210.433C-30.5622 211.202 -35.354 212.282 -37.3562 212.905C-39.3584 213.528 -41.9898 213.933 -43.1463 213.925C-44.355 213.863 -46.1415 213.743 -47.0869 213.631C-48.0845 213.464 -50.3952 213.128 -52.2853 212.795C-54.5959 212.46 -57.7539 212.968 -62.2327 214.369C-66.7648 215.93 -69.3497 217.132 -70.516 218.505C-71.4699 219.56 -73.0159 222.47 -73.8749 224.908C-75.0018 228.139 -75.227 230.156 -74.6123 232.392C-73.9987 234.733 -73.1149 236.067 -71.2853 237.515C-69.8741 238.64 -67.7262 239.665 -66.3602 239.782C-65.0475 239.951 -62.683 240.127 -61.0537 240.192C-59.4243 240.258 -56.8457 239.904 -55.3704 239.384C-53.1048 238.71 -51.4125 237.341 -41.032 226.794L-33.9181 224.456C-29.9137 223.21 -24.6492 222.187 -22.073 222.152C-19.4968 222.118 -15.7673 222.518 -13.8265 223.116C-11.885 223.608 -10.1523 223.887 -9.88745 223.623C-9.67567 223.412 -9.2037 223.575 -8.89062 223.896C-8.47243 224.218 -5.58702 225.035 -2.43762 225.696C0.711777 226.356 3.59717 227.174 3.96322 227.442C4.32848 227.817 5.8479 228.519 7.26452 228.901C8.68037 229.389 11.357 229.993 13.0898 230.271C14.8226 230.55 17.9191 231.263 19.9649 231.862C22.0108 232.461 25.2661 233.016 27.1577 233.136C29.0494 233.256 30.7822 233.535 30.9909 233.749C31.2518 234.016 32.0392 234.181 32.7229 234.133C33.4589 234.138 35.0873 234.31 36.2944 234.584C37.5015 234.858 38.7078 235.239 39.0209 235.56C39.2818 235.828 39.6908 237.424 39.7843 239.018C39.8778 240.612 40.589 244.017 41.2013 246.571C41.8665 249.072 42.6291 252.637 42.8262 254.444C43.0763 256.199 44.099 260.137 45.1809 263.173C46.3157 266.155 48.7512 271.007 50.7271 273.996C52.703 276.985 54.5745 279.867 54.886 280.4C55.1447 280.986 58.0115 284.353 61.1929 287.829C66.3565 293.444 67.6628 294.569 72.794 297.369C75.9878 299.145 79.2355 300.762 79.97 300.98C81.0709 301.36 81.2255 301.839 80.6901 303.11C80.2629 304.063 77.928 307.02 75.4368 309.818C72.9989 312.562 70.5059 315.571 69.9213 316.47C69.3367 317.368 68.6427 318.797 68.3209 319.645C67.9997 320.493 66.4016 323.349 64.7538 325.833C63.1053 328.424 60.1346 332.12 58.1752 334.071C56.163 336.075 52.6081 340.564 45.8061 350.606L42.7065 350.318C40.92 350.199 37.2932 350.119 34.6119 350.152C31.8777 350.239 28.0889 350.742 26.2456 351.206C24.3493 351.724 22.5044 352.401 22.1875 352.611C21.8183 352.767 20.4976 353.661 19.3349 354.502C18.1201 355.29 16.4294 356.446 15.5837 357.077C14.738 357.709 12.5707 359.339 10.7734 360.707C8.97609 362.075 7.12344 363.815 6.74966 364.608C6.32371 365.349 6.31059 367.155 6.72029 368.645C7.18296 370.082 8.47819 372.695 9.72743 374.403C10.9245 376.059 12.4883 377.876 13.1153 378.412C13.7952 378.895 15.9462 379.495 17.943 379.616C20.15 379.738 25.3616 378.767 30.7358 377.107C35.7401 375.709 41.3791 373.785 43.2785 372.843C46.0213 371.589 48.4548 369.482 56.1861 361.784C62.9641 355.034 66.834 350.654 69.5445 346.583C71.7226 343.466 73.4249 340.716 73.5314 340.504C73.5858 340.239 74.9668 338.337 76.6645 336.225C78.4142 334.166 80.9633 330.573 82.4525 328.247C83.8891 325.867 85.1695 323.327 85.1752 322.477C85.2337 321.681 85.7176 320.25 86.2501 319.298C86.7305 318.292 87.5895 315.855 88.1306 313.734C88.7239 311.667 89.7473 308.329 90.5506 306.263C91.3014 304.25 91.9444 302.555 92.0503 302.45C92.0509 302.345 96.8533 302.64 102.67 302.997L102.823 303.007C113.174 303.773 113.805 303.671 122.553 300.761C130.246 298.267 132.357 297.22 136.904 293.642C139.917 291.38 143.46 288.591 144.888 287.379C146.316 286.169 147.954 285.065 148.429 284.803C149.061 284.595 149.95 285.292 151.46 287.268C152.71 288.871 154.371 291.751 155.197 293.882C156.023 295.906 157.211 298.836 157.726 300.328C158.447 302.352 160.322 304.809 164.914 309.516C168.357 313.153 173.057 317.331 175.516 318.995C178.864 321.251 181.171 322.118 185.004 322.73C187.735 323.175 191.15 323.465 192.517 323.369C193.937 323.326 195.673 323.18 196.462 323.132C197.25 323.085 199.723 322.944 201.879 322.8C204.088 322.604 207.191 322.361 208.875 322.161C211.138 321.912 212.029 322.184 212.547 323.25C213.169 324.423 213.38 324.425 213.862 323.207C214.289 322.254 216.452 321.154 221.299 319.702C225.041 318.508 229.521 316.894 231.314 316.058C233.056 315.167 235.591 313.486 237.02 312.275C238.819 310.589 239.884 308.79 240.96 305.399C241.981 302.272 242.208 300.043 241.537 298.285C241.127 296.901 240.193 295.195 239.514 294.499C238.941 293.805 237.631 293.317 236.631 293.363C235.632 293.408 231.787 294.389 228.099 295.637C224.357 296.832 219.348 298.973 216.867 300.389C214.28 301.804 210.114 303.632 207.532 304.517C204.054 305.66 201.792 305.802 199.115 305.199C197.121 304.759 193.191 303.084 190.31 301.629C185.911 299.259 183.716 297.543 175.729 289.783C170.614 284.753 165.759 280.096 164.975 279.4C164.192 278.704 162.263 276.406 157.628 270.369L159.209 262.679C160.133 258.49 161.07 252.601 161.354 249.682C161.585 246.709 161.93 242.675 162.102 240.711C162.275 238.746 162.192 235.665 161.889 233.963C161.586 232.261 159.947 226.194 158.202 220.445C156.509 214.749 155.492 209.961 155.914 209.858C156.388 209.702 158.854 210.304 161.423 211.226C163.993 212.148 168.033 213.187 170.396 213.576C172.758 214.071 178.004 215.597 182.041 217.061C186.131 218.471 189.8 219.985 190.113 220.307C190.478 220.681 192.051 221.33 193.521 221.659C195.042 222.042 197.82 223.178 199.758 224.201C201.643 225.171 205.045 227.268 207.347 228.772C209.702 230.223 212.423 232.049 213.417 232.747C214.41 233.444 216.19 234.414 217.396 234.794C218.655 235.229 220.121 236.089 220.747 236.731C221.426 237.427 223.207 238.29 224.676 238.619C226.513 239.11 229.091 238.757 232.359 237.613C235.468 236.52 238.055 235.105 239.59 233.576C241.866 231.415 241.922 231.043 240.942 228.327C240.376 226.676 239.131 224.436 238.192 223.367C237.045 222.084 235.422 221.17 233.585 220.784C231.275 220.342 230.38 220.601 228.897 222.078C227.309 223.66 226.782 223.762 225.265 222.742C224.27 222.15 220.718 219.15 217.375 216.151C213.98 213.098 209.327 209.505 206.919 208.106C204.511 206.708 201.787 205.413 200.895 205.141C199.951 204.922 197.175 203.467 194.611 201.908C192.099 200.296 187.701 197.82 184.82 196.365C181.939 194.91 177.433 192.965 174.811 192.096C171.768 191.118 167.357 190.554 162.52 190.625C158.313 190.701 153.424 190.824 151.583 190.97C149.531 191.114 147.694 190.729 146.964 189.98C146.337 189.338 145.976 188.433 146.084 188.009C146.245 187.532 145.831 186.678 145.153 185.983C144.527 185.341 143.853 184.008 143.703 182.998C143.499 182.04 142.776 180.335 142.1 179.321C141.424 178.307 138.193 174.353 134.908 170.664C130.268 165.371 128.023 163.284 124.464 161.027C121.953 159.415 118.969 157.64 117.817 157.1C116.611 156.613 112.308 155.519 100.863 153.418L98.9538 148.464C97.8697 145.747 97.1508 143.404 97.4159 143.141C97.6277 142.93 98.258 142.934 98.8884 143.046C99.4654 143.209 101.359 143.01 103.097 142.545C104.783 142.133 106.413 141.985 106.727 142.306C106.988 142.574 109.937 141.851 113.257 140.654C116.525 139.51 120.268 138.103 121.48 137.634C122.64 137.111 124.803 136.118 126.175 135.49C127.546 134.863 130.342 133.555 132.293 132.667C135.721 131.152 136.037 131.154 137.549 132.918C138.435 133.933 141.666 137.781 144.636 141.468C147.605 145.155 152.089 150.287 154.594 152.855C157.151 155.476 160.024 157.887 161.02 158.373C162.068 158.805 165.725 161.913 169.223 165.179C172.774 168.497 176.744 172.032 178.051 173.051C179.305 174.123 182.597 176.75 185.315 179.001C188.085 181.198 191.169 183.611 192.163 184.309L192.299 184.404C193.383 185.166 195.922 186.949 198.126 188.389C200.375 189.946 204.459 192.207 207.235 193.555C210.012 194.903 213.263 195.99 214.472 196.052C215.733 196.167 216.786 195.962 216.946 195.591C217.054 195.274 216.696 193.837 216.181 192.346C215.666 190.961 214.277 186.755 212.989 183.081C211.755 179.353 209.899 174.347 208.812 171.948C207.726 169.55 206.025 164.81 204.998 161.51C203.97 158.209 202.331 152.355 201.307 148.522C200.336 144.744 199.574 141.18 199.683 140.649C199.791 140.119 199.335 137.832 198.721 135.596C198.054 133.308 197.234 130.327 196.982 128.891C196.73 127.455 195.596 124.366 194.508 122.074C193.473 119.835 191.513 114.616 190.176 110.569C188.788 106.257 188.179 103.278 188.757 103.335C189.282 103.445 194.209 105.394 199.659 107.771C205.109 110.147 210.452 112.736 211.499 113.381C212.493 114.079 214.427 115.527 215.734 116.546C217.094 117.512 219.605 119.23 221.49 120.307C223.322 121.329 225.676 122.886 226.67 123.584C227.664 124.282 229.233 125.356 230.123 125.946C230.959 126.59 232.528 127.664 233.522 128.362C234.516 129.06 238.387 131.637 242.155 134.002C245.87 136.419 251.049 139.804 253.718 141.47C256.335 143.189 261.622 146.255 265.445 148.248C269.215 150.295 273.511 152.344 274.874 152.779C276.343 153.215 279.171 154.723 281.16 156.012C283.253 157.302 286.762 159.081 288.912 159.893C291.113 160.759 293.738 161.203 294.739 160.945C295.793 160.634 296.637 160.215 296.639 159.896C296.695 159.525 294.814 157.918 292.461 156.148C288.696 153.358 287.55 151.969 282.505 144.443C279.332 139.798 275.012 133.871 272.928 131.306C270.791 128.794 267.558 125.159 265.679 123.232C263.748 121.359 254.98 112.584 246.108 103.702C237.236 94.8199 226.118 83.8497 221.314 79.3524C216.511 74.8556 211.34 70.3027 209.77 69.229C208.254 68.1026 204.907 65.7411 202.449 63.864C199.94 62.0396 194.34 58.5459 190.047 56.1776C185.753 53.8091 180.201 51.0064 177.738 49.9792C175.274 48.9519 172.706 47.9239 172.024 47.7596C171.341 47.5952 169.978 47.1603 169.035 46.7285C167.672 46.1873 167.049 45.1205 165.87 40.9157C165.102 38.0949 163.394 34.4174 162.197 32.7621C160.948 31.0532 159.647 29.1846 159.231 28.5442C158.867 27.9573 157.872 27.4719 157.03 27.5719C156.083 27.7775 154.232 29.1981 152.165 31.4669C150.311 33.4187 148.452 36.114 147.969 37.4383C147.592 38.7635 146.634 40.3499 145.998 40.9827C145.31 41.6681 143.624 42.0808 142.206 41.911C140.788 41.8475 138.317 41.7763 136.792 41.8183C135.268 41.8602 133.536 41.3695 132.962 40.781C132.388 40.1926 131.149 37.1028 130.331 33.9098C129.408 30.7161 127.962 27.0936 127.025 25.812C125.83 23.9442 125.307 23.6216 124.671 24.2544C124.248 24.6762 121.691 29.3317 119.077 34.571C115.61 41.3976 113.907 44.1472 113.118 44.1946C112.435 44.2427 109.698 44.7538 107.117 45.3192C104.538 45.8846 100.69 47.2905 98.6835 48.4444C96.6773 49.5983 93.616 51.2755 91.875 52.1658C90.1854 53.1095 87.8094 54.5262 86.5951 55.3141C85.3801 56.1019 83.5343 56.8852 82.5868 57.0907C81.5866 57.2427 79.0544 58.4991 76.889 59.8112C74.7243 61.1228 71.0246 63.8582 68.7493 65.913C66.2627 68.0725 63.1881 71.5558 61.3278 74.3572C59.574 76.9468 57.6607 79.8015 57.0237 80.6466C56.4389 81.5449 55.1633 83.448 54.2585 84.9818C53.2485 86.5145 52.075 88.8431 51.6452 90.1147C51.2154 91.3864 50.4686 92.8681 50.045 93.2901C49.5684 93.7647 47.7312 93.3792 45.426 92.3003C43.3825 91.3823 39.92 90.4007 37.8188 90.1732Z" fill="#161722"/>
<path d="M156.258 155.311C157.356 156.222 156.522 155.153 154.383 152.96C152.243 150.766 151.302 150.016 152.344 151.298C153.387 152.581 155.161 154.4 156.258 155.311Z" fill="#8D8389"/>
<path d="M111.403 70.3693C111.144 69.8889 110.248 70.1482 109.085 71.0957L109.032 71.1484C108.027 71.9379 106.598 73.2553 105.857 73.9933C105.116 74.7318 104.048 76.955 103.508 78.9693C102.64 82.5747 102.588 82.6273 104.482 82.3229C105.535 82.118 107.951 82.3478 109.947 82.6812C111.889 83.0672 113.887 83.0823 114.414 82.7674C114.89 82.3987 115.321 81.0211 115.383 79.6934C115.348 77.3029 115.348 77.3029 113.402 77.4482C112.298 77.4933 111.09 77.219 110.777 76.8977C110.359 76.5759 110.103 75.6712 110.161 74.9813C110.166 74.2375 110.647 73.1256 111.072 72.4913C111.551 71.8042 111.663 70.8492 111.403 70.3693Z" fill="white"/>
<path d="M236.187 224.416C235.509 223.614 234.095 223.019 233.043 223.012C231.992 223.004 230.727 223.42 230.197 223.947C229.615 224.527 229.242 225.215 229.345 225.534C229.5 225.907 228.382 227.758 226.949 229.713C225.41 231.667 223.975 233.834 223.707 234.523C223.387 235.158 223.171 235.9 223.222 236.166C223.273 236.431 224.323 236.652 225.531 236.714C226.688 236.722 229.531 236.106 231.796 235.432C234.062 234.652 236.807 233.184 237.813 232.182C239.454 230.548 239.51 230.07 238.474 228.045C237.904 226.819 236.813 225.164 236.187 224.416Z" fill="white"/>
<path d="M76.613 61.668C74.5525 63.0873 71.8043 65.0853 70.5871 66.192C69.3177 67.2448 67.8898 68.4563 67.414 68.8244C66.9377 69.1931 66.5551 71.2618 66.6448 73.3871C66.6818 75.4587 66.0851 78.057 65.4461 79.1145C64.542 80.5424 63.3276 81.3301 60.9048 81.9495C58.376 82.6747 57.32 83.3044 56.4152 84.8383C55.8288 85.9496 54.9286 86.8456 54.5073 86.9486C54.0867 86.9457 54.0322 87.2108 54.2931 87.4782C54.6062 87.7995 55.6046 87.8597 56.5524 87.6542C57.9744 87.293 58.4456 87.5622 59.43 89.5342C60.0523 90.7074 61.0414 92.0427 61.6178 92.3124C62.1411 92.6348 65.034 92.3906 68.0878 91.7753C71.0889 91.1068 77.6734 89.2963 82.6795 87.686C87.633 86.0225 93.744 84.2618 100.483 82.93L101.09 78.9507C101.474 76.7755 102.386 74.286 103.127 73.5475C103.869 72.703 106.195 70.9145 108.36 69.6023C110.525 68.2902 112.688 67.1904 113.319 67.1951C114.02 67.2003 114.923 68.3046 116.029 70.5082C117.065 72.6405 117.622 75.4599 117.6 78.5403C117.528 81.1426 117.039 83.4231 116.565 83.5788C115.932 83.7866 115.928 84.3179 116.502 84.906C116.919 85.4403 118.125 85.8211 119.124 85.7754C120.176 85.7829 122.169 86.3287 123.636 87.0829C125.417 87.9459 127.768 90.0348 130.322 92.9746C132.721 95.6481 135.476 99.8647 137.29 103.437C138.948 106.742 140.919 110.474 141.646 111.755C142.372 113.034 142.991 114.739 142.986 115.482C142.925 116.597 142.608 116.701 140.879 115.998C139.725 115.565 137.52 115.23 135.995 115.272C134.47 115.42 127.89 116.488 121.415 117.768C114.887 118.995 109.097 120.015 108.571 120.117C107.992 120.166 105.728 120.628 103.463 121.301C101.198 121.869 97.5109 122.904 95.2454 123.578C93.0848 124.253 88.6632 125.071 85.5591 125.42C82.4549 125.769 78.4536 126.589 76.6096 127.16C74.7122 127.784 72.7605 128.672 72.2841 129.147C71.7545 129.674 70.1721 130.406 68.8032 130.715C67.4343 131.024 62.1127 132.631 57.1069 134.241C51.7849 135.955 46.4137 137.19 44.2067 137.068C42.1569 137 39.7404 136.77 38.8487 136.497C37.9562 136.332 37.2187 136.539 37.2156 136.964C37.1596 137.442 38.3091 138.406 39.8285 139.107C41.2428 139.808 44.4919 141.213 46.9552 142.24C49.4185 143.268 53.6676 144.52 56.2921 145.071C58.9166 145.621 62.7506 146.127 64.8001 146.195C66.797 146.316 70.7445 145.655 73.5905 144.719C76.4359 143.784 79.5962 142.958 80.7006 142.912C81.8044 142.867 83.6473 142.509 84.754 142.145C85.9654 141.783 90.0165 141.334 93.7504 141.202C97.5364 141.017 102.427 140.788 104.531 140.59C106.688 140.447 109.899 139.886 111.638 139.315C113.377 138.743 116.751 137.387 119.125 136.289C121.498 135.191 125.559 133.361 128.196 132.212C130.781 131.009 133.734 129.756 134.788 129.445C136.474 128.926 136.841 129.088 138.609 131.651C139.755 133.146 141.369 135.336 142.255 136.458C143.139 137.58 147.362 142.444 151.586 147.203C157.166 153.458 159.984 156.241 161.765 157.104C163.074 157.803 167.046 161.02 170.44 164.284C173.886 167.497 178.953 171.943 181.723 174.14C184.493 176.339 188.466 179.449 190.609 181.111C192.805 182.72 195.053 184.489 195.733 184.973C196.413 185.455 197.929 186.582 199.132 187.387C200.336 188.193 202.324 189.376 203.477 189.916C204.577 190.508 207.668 191.859 210.289 192.94C212.805 194.021 215.06 194.728 215.325 194.465C215.537 194.253 215.333 193.402 214.918 192.549C214.452 191.643 213.11 188.127 211.979 184.613C210.796 181.152 209.044 176.252 208.063 173.749C207.03 171.298 205.944 168.794 205.58 168.313C205.268 167.78 204.241 164.479 203.319 161.073C202.451 157.614 201.07 152.345 200.251 149.364C199.431 146.384 198.36 141.861 197.853 139.308C197.398 136.808 196.584 133.084 196.073 131.062C195.667 129.041 194.795 126.113 194.227 124.568C193.608 122.971 192.934 121.744 192.776 121.796C192.566 121.795 191.072 117.481 189.428 112.263C187.785 106.94 186.609 102.31 186.823 101.887C187.036 101.463 190.131 102.389 193.8 103.797C197.417 105.257 200.877 106.558 201.35 106.614C201.875 106.724 203.866 107.589 205.805 108.506C207.795 109.476 211.93 112.003 214.963 114.15C218.102 116.298 225.322 121.131 231.076 124.998C236.831 128.864 243.214 132.948 245.204 134.131C247.246 135.261 250.227 137.355 251.847 138.588C253.52 139.875 258.703 142.941 263.415 145.525C268.18 148.056 273.471 150.697 275.306 151.401C277.088 152.052 280.492 153.829 282.952 155.388C285.306 156.946 288.659 158.563 290.39 159.054C292.069 159.491 293.645 159.715 293.909 159.452C294.121 159.241 293.234 158.331 291.978 157.472C290.618 156.613 288.32 154.471 286.755 152.866C285.243 151.208 283.366 148.964 282.743 147.897C282.12 146.83 281.289 145.443 281.031 144.857C280.772 144.271 279.212 142.029 277.65 139.786C276.09 137.544 272.964 133.59 270.671 130.918C268.377 128.245 266.135 125.732 265.717 125.305C265.247 124.929 257.262 116.956 247.919 107.699C238.576 98.4414 226.624 86.6152 221.246 81.5298C215.868 76.4444 209.392 70.7669 206.828 68.9952C204.318 67.1707 201.337 65.0778 200.396 64.3271C199.455 63.5764 198.566 62.986 198.513 63.0386C198.46 63.0913 197.78 62.608 196.996 61.9117C196.16 61.2686 192.129 58.9551 187.94 56.6934C183.803 54.4854 177.568 51.6246 174.16 50.378C170.752 49.1313 167.446 48.3104 166.867 48.4655C166.235 48.5671 165.344 48.295 164.874 47.8135C164.352 47.2786 162.307 46.5731 160.259 46.2925C158.264 45.9592 156.27 45.4134 155.957 45.0925C155.591 44.718 155.12 44.5552 154.908 44.7661C154.643 45.0297 152.91 44.7514 151.021 44.3127C149.131 43.874 147.134 43.8593 146.448 44.2261C145.814 44.6464 143.869 44.5791 142.086 44.0348C140.355 43.5441 136.256 43.3016 132.995 43.4902C129.735 43.6788 125.738 43.862 124.003 43.9024C122.216 43.8894 119.426 44.347 117.635 44.865C115.843 45.3831 113.685 45.8453 112.844 45.8392C112.055 45.8865 109.423 46.2922 107.002 46.8056C104.685 47.3198 100.572 48.9894 98.0382 50.4581C95.4521 51.8733 91.651 54.0764 89.6449 55.2302C87.6908 56.4376 84.7372 57.797 83.2091 58.264C81.6811 58.7306 78.7257 60.3026 76.613 61.668Z" fill="#3F47CB"/>
<path d="M-32.8397 213.576C-33.7345 213.728 -35.894 214.297 -37.7381 214.868L-41.058 215.959L-41.1917 219.888C-41.2601 222.066 -41.1689 223.978 -40.908 224.246C-40.6993 224.46 -37.3818 223.687 -33.4833 222.547C-29.5318 221.354 -24.6357 220.381 -22.4271 220.291C-20.3237 220.2 -14.6518 220.986 -9.82259 221.977C-4.99336 222.968 0.67308 224.497 2.77036 225.256C4.91982 226.069 10.1135 227.541 14.259 228.58C18.4574 229.567 23.8638 230.722 26.2266 231.111C28.6423 231.448 32.16 232.058 37.7245 233.161L38.0592 230.507C38.1751 229.021 38.8783 226.317 39.5222 224.516C40.1662 222.714 40.5469 220.965 40.2338 220.644C39.9207 220.323 38.9231 220.156 38.0291 220.202C37.1351 220.249 33.0379 219.794 28.9415 219.233C24.7922 218.725 19.1748 217.674 16.3938 216.963C13.6128 216.253 10.3053 215.644 9.09662 215.582C7.83577 215.467 6.68083 215.246 6.47211 215.032C6.2112 214.764 4.47997 214.274 2.48473 213.94C0.489494 213.607 -2.554 212.841 -4.3374 212.297C-6.12082 211.752 -10.3223 211.19 -13.791 211.059C-17.2075 210.981 -22.5202 211.42 -25.6268 212.088C-28.7332 212.756 -31.9971 213.369 -32.8397 213.576Z" fill="#3F47CB"/>
<path d="M85.2616 144.592C83.9975 144.902 82.209 145.101 81.3159 145.041C80.5275 144.983 79.5806 145.082 79.3155 145.346C79.051 145.609 79.0979 146.406 79.4608 147.099C79.7183 147.792 80.9049 150.934 82.0388 154.023C83.8418 159.082 83.8892 159.774 82.4654 160.454C81.6203 160.979 80.2456 162.031 79.3456 162.927C78.4982 163.771 74.3655 168.202 70.179 172.793C66.0457 177.331 61.5386 182.662 60.2106 184.511C58.8307 186.307 57.3426 188.527 56.8637 189.321C56.3318 190.166 55.5874 191.33 55.2152 191.911C54.79 192.545 53.5682 194.289 52.453 195.822C51.3379 197.354 49.7883 200.795 48.9279 203.445C48.0675 206.094 47.0467 209.114 46.5662 210.119C46.085 211.231 44.4187 216.265 42.9618 221.407C40.214 230.576 40.2109 231.001 41.4775 237.543C42.2394 241.214 43.4554 247.491 44.2157 251.373C45.0281 255.31 46.4606 260.739 47.5448 263.455C48.576 266.225 50.3362 269.956 51.4274 271.717C52.5707 273.531 56.0085 277.912 59.1369 281.44C62.2656 284.969 66.1245 289.247 67.6901 290.851C69.2026 292.509 72.8103 295.138 75.6383 296.646C78.4131 298.207 81.5572 299.611 82.5551 299.777C83.4997 299.997 87.0727 300.235 90.4888 300.313C93.9055 300.392 99.4754 300.751 102.942 301.095C106.41 301.333 110.246 301.627 111.612 301.637C112.926 301.7 116.612 300.877 119.774 299.838C122.935 298.905 126.678 297.498 128.049 296.87C129.421 296.243 134.915 292.459 140.149 288.407C145.806 284.146 150.725 279.88 152.053 278.137C153.485 276.394 154.606 273.906 154.936 271.996C155.211 270.245 155.749 268.55 156.067 268.339C156.384 268.023 156.601 267.069 156.555 266.165C156.509 265.262 157.002 262.557 157.649 260.331C158.297 257.998 158.847 254.709 158.911 253.063C158.976 251.311 159.376 247.011 159.823 243.403C160.269 239.794 160.302 235.332 159.947 233.577C159.539 231.768 157.127 223.73 154.61 215.691C152.04 207.599 149.208 199.451 148.224 197.479C147.291 195.56 145.738 192.361 144.806 190.336C143.873 188.417 142.477 185.273 141.702 183.408C140.824 181.33 138.065 177.539 134.103 173.048C130.245 168.558 126.852 165.187 124.812 163.844C123.086 162.716 120.679 160.999 119.529 160.141C118.275 159.175 113.868 157.868 108.041 156.816C100.113 155.43 98.5916 154.941 98.4961 153.666C98.4492 152.868 97.9867 151.431 97.4675 150.471C96.9489 149.511 96.3319 147.595 95.3624 143.604L91.4711 143.788C89.3144 143.932 86.5257 144.283 85.2616 144.592Z" fill="#3F47CB"/>
<path d="M176.682 194.978C171.021 192.812 168.972 192.531 160.298 192.627C154.882 192.641 150.149 192.925 149.778 193.294C149.461 193.61 149.609 194.833 150.021 196.005C150.487 197.124 151.726 200.213 152.863 202.878C154.826 207.672 154.93 207.779 157.136 208.114C158.448 208.283 161.019 208.992 163.012 209.644C164.952 210.349 168.363 211.171 170.621 211.559C172.826 212 177.6 213.363 181.27 214.664C184.888 216.019 190.288 218.024 193.171 219.161C196.159 220.298 200.351 222.24 202.602 223.478C204.854 224.717 209.092 227.351 212.074 229.338C215.527 231.594 218.2 232.835 219.462 232.738C221.04 232.643 221.938 232.066 223.795 229.689C225.121 228.052 226.184 226.466 226.345 226.096C226.452 225.778 225.408 224.814 224.046 224.061C222.633 223.253 219.132 220.307 216.208 217.629C211.926 213.667 209.153 211.788 202.659 208.447C198.155 206.077 191.924 202.685 188.836 200.804C185.695 198.975 180.247 196.385 176.682 194.978Z" fill="#3F47CB"/>
<path d="M34.0218 91.8453C32.8132 91.7834 30.3398 92.137 28.6008 92.7083C26.8097 93.2263 24.8573 94.2213 24.1168 94.8534C23.4813 95.486 22.7376 96.5429 22.5219 97.2849C22.2011 98.0264 22.5003 100.259 23.2737 102.337C23.942 104.413 24.8727 106.545 25.3945 107.08C25.8642 107.561 28.2746 108.641 30.6872 109.402C34.043 110.595 35.0897 111.241 35.3444 112.358C35.4964 113.155 35.0596 115.383 34.3097 117.29C33.5598 119.196 32.493 121.314 31.8047 121.999C31.1692 122.632 30.734 124.647 30.773 126.506C30.8611 128.844 31.3759 130.335 32.6805 131.673C33.8285 132.849 35.9242 133.821 38.4965 134.318C40.7012 134.759 43.7478 135.1 45.2197 135.111C46.7967 135.122 52.9583 133.627 58.9119 131.811C64.8654 129.996 70.1361 128.122 70.5597 127.7C70.9834 127.279 73.3039 126.233 75.6232 125.401C77.9424 124.568 80.1546 123.946 80.5228 124.002C80.8903 124.058 83.4677 123.811 86.2043 123.407C88.941 123.001 93.1535 122.076 95.3663 121.349C97.6329 120.569 99.8445 120.054 100.316 120.216C100.789 120.379 103.053 119.812 105.476 119.086C107.848 118.306 109.955 117.79 110.215 118.058C110.424 118.272 110.792 118.222 111.11 117.905C111.428 117.589 113.798 117.022 116.324 116.615C118.903 116.156 122.798 115.441 125.009 115.032C127.168 114.57 129.22 114.32 129.588 114.375C129.903 114.378 131.377 114.07 132.747 113.655C134.17 113.187 136.274 112.99 137.428 113.317C138.582 113.644 139.686 113.706 139.898 113.495C140.163 113.231 139.025 110.673 137.469 107.687C135.966 104.755 134.151 101.396 133.581 100.276C133.011 99.1562 130.666 96.2176 128.423 93.8109C124.512 89.5862 124.145 89.3182 118.427 87.7358C115.122 86.8085 112.185 85.8309 111.872 85.5102C111.558 85.189 108.616 84.9552 105.304 84.9841C101.94 84.9592 96.7317 85.5056 93.6773 86.2268C90.7277 86.9486 84.9327 88.7122 80.8741 90.1164C76.8682 91.5744 72.2846 92.9751 70.863 93.2304C69.39 93.4318 67.9163 93.6338 67.6009 93.6315C67.2854 93.6292 65.9165 93.9377 64.6519 94.3533C63.3351 94.7156 60.7038 95.1214 58.8633 95.1607C57.0761 95.148 55.3394 95.4009 55.0216 95.7169C54.7039 96.0336 54.1269 95.8698 53.7094 95.442C53.2398 94.9605 52.4501 95.1138 51.7088 95.8524C51.0733 96.485 50.4348 97.5425 50.2728 98.1254C50.0034 99.0266 50.3165 99.3478 52.2035 100.105C53.4612 100.646 55.9806 101.195 57.8201 101.261C59.6588 101.434 62.1815 101.559 63.3906 101.515C64.5992 101.577 72.7638 99.3524 81.5629 96.6019C90.3093 93.9035 99.8428 91.3707 102.632 91.0193C105.473 90.7218 109.102 90.4828 110.626 90.547C112.202 90.6645 114.828 91.1091 116.401 91.5455C118.028 91.9292 120.229 92.901 121.275 93.5464C122.584 94.4586 123.572 95.8999 124.446 98.6156C125.114 100.692 125.468 102.553 125.151 102.87C124.833 103.186 123.367 102.326 121.799 101.04C120.127 99.6459 118.137 98.6752 116.771 98.5595C115.562 98.4975 111.824 99.2668 108.453 100.198C105.134 101.183 102.079 101.904 101.764 101.902C101.396 101.846 100.027 102.155 98.7627 102.571C97.446 102.933 95.6551 103.344 94.8141 103.338C94.0252 103.386 91.6579 103.634 89.6581 103.938C87.6062 104.188 85.7118 104.387 85.3969 104.385C85.0288 104.329 83.3439 104.742 81.6046 105.313C79.8658 105.885 76.9191 106.288 74.9743 106.221C73.1349 106.154 69.7662 106.767 67.5511 107.707C65.3372 108.54 61.8591 109.684 59.9092 110.36C57.907 110.982 54.5848 112.392 52.5266 113.493C50.4683 114.593 47.5621 116.643 46.0793 118.12C44.6496 119.544 42.9037 121.071 42.3227 121.439C41.6888 121.859 40.7956 121.799 40.3781 121.371C39.9607 120.943 39.9677 119.987 40.3936 119.247C40.8195 118.506 41.0975 116.437 41.1106 114.631C41.0186 112.824 40.3612 109.26 39.696 106.759C38.6179 103.192 37.6833 101.592 35.1795 98.9183C32.6226 96.2969 32.0509 95.3893 32.6864 94.7567C33.11 94.3348 33.8459 94.3405 34.2634 94.7683C34.6808 95.1966 35.9409 95.4183 36.9938 95.2134C38.1518 95.0091 40.5653 95.6643 42.6072 96.7947C45.6446 98.4101 46.3797 98.5219 47.7542 97.4696C48.5478 96.7849 49.0788 96.0451 48.8701 95.8316C48.6093 95.5641 46.8281 94.7011 44.6786 93.8885C42.6343 93.077 39.8541 92.2597 38.5932 92.144C37.2794 92.0815 35.2305 91.9072 34.0218 91.8453Z" fill="#FAEAAD"/>
<path d="M128.328 34.7455C127.457 31.6052 126.269 28.6752 125.747 28.1402C124.912 27.2842 124.754 27.4424 124.109 29.3499C123.68 30.5153 122.078 33.903 120.532 36.9193C118.986 39.8294 117.863 42.4238 118.124 42.6913C118.332 42.9053 118.648 42.9076 118.86 42.6967C119.125 42.4331 121.439 42.2375 124.12 42.204C126.855 42.1178 129.276 41.7106 129.489 41.2873C129.756 40.8111 129.304 37.8865 128.328 34.7455Z" fill="#FAEAAD"/>
<path d="M163.82 40.9541C163.206 38.7187 161.701 35.9988 159.772 33.7007L156.75 29.9604L153.464 33.7607C151.661 35.8722 149.906 38.5683 149.477 39.7337C148.831 41.8536 148.883 41.9071 150.983 42.3474C152.19 42.6218 153.609 42.6853 154.24 42.5837C154.82 42.4286 156.919 42.8689 158.859 43.5736C160.852 44.2256 163.004 44.7194 163.582 44.6705C164.372 44.5169 164.485 43.4554 163.82 40.9541Z" fill="#FAEAAD"/>
<path fill-rule="evenodd" clip-rule="evenodd" d="M37.2886 98.0837C37.2326 98.5612 37.6462 99.5203 38.4297 100.217C39.161 100.86 40.5061 103.844 41.4828 106.879C42.4074 109.86 43.1186 113.265 43.0571 114.486C43.0486 115.654 43.1452 116.823 43.4591 117.038C43.6678 117.252 44.3538 116.886 44.9893 116.253C45.6777 115.567 48.0022 113.991 50.2194 112.732C52.3843 111.42 58.0264 109.071 62.7698 107.406C67.5125 105.847 72.8845 104.506 74.6186 104.572C76.3533 104.638 79.8794 104.079 82.3028 103.353C84.7784 102.681 88.2003 102.015 89.8835 101.921C91.5661 101.827 93.934 101.579 95.0916 101.375C96.3019 101.225 98.6709 100.764 100.355 100.457C102.04 100.151 106.359 99.0145 109.888 98.0311C115.314 96.5302 116.997 96.4364 119.46 97.4638C122.029 98.4918 122.397 98.4414 121.828 97.2155C121.466 96.4162 120.37 95.2927 119.375 94.7012C118.382 94.0031 115.6 93.2924 113.132 93.0087C110.664 92.6186 107.616 92.4901 106.353 92.5874C105.038 92.7367 103.512 92.8849 102.881 92.8802C102.251 92.8756 100.619 93.1297 99.1456 93.3311C97.6713 93.6391 91.2975 95.4513 84.9734 97.5298C78.65 99.6083 71.6956 101.682 69.4313 102.249C67.2718 102.818 65.5857 103.337 65.742 103.497C65.8988 103.658 63.4806 103.64 60.4855 103.459C57.4373 103.331 53.4469 102.664 51.6643 102.013C49.7765 101.362 46.8381 100.597 45.2112 100.213C43.5314 99.8821 41.4341 99.1233 40.5447 98.5323C39.6553 97.9419 38.6601 97.4563 38.2402 97.3469C37.8727 97.2913 37.4498 97.6068 37.2886 98.0837ZM74.0288 98.9369C73.9761 98.9896 74.0276 99.1493 74.1839 99.3102C74.3407 99.4705 77.2903 98.6423 80.7684 97.4991C84.2465 96.356 87.0404 95.2609 86.9368 95.0479C86.8332 94.8343 83.9362 95.6099 80.5103 96.8069C77.0854 97.8968 74.1868 98.8848 74.0288 98.9369ZM156.968 29.0061L153.949 32.1178C152.307 33.7524 150.662 35.8119 150.288 36.6059C149.967 37.4534 151.343 36.1887 157.069 29.6442L159.255 32.6347C160.608 34.4505 161.235 34.9863 160.874 34.0807C160.565 33.2286 159.524 31.7337 158.585 30.7707L156.968 29.0061ZM89.2566 123.004C89.1519 123.003 89.4135 123.164 89.8852 123.327C90.2522 123.489 93.0432 122.819 96.0461 121.938C98.9968 121.003 100.789 120.273 100.054 120.268C99.3175 120.262 96.5797 120.88 94.0509 121.605C91.5221 122.33 89.3099 122.951 89.2566 123.004ZM123.816 98.5045C124.945 102.337 124.891 102.497 121.645 100.666L123.001 102.164C123.836 103.02 124.727 103.398 125.097 103.029C125.468 102.66 125.219 100.799 124.603 98.776C123.934 96.8057 123.211 94.9946 123.002 94.7805C122.793 94.5669 123.149 96.2159 123.816 98.5045ZM23.4925 353.949C23.2277 354.213 24.4909 354.009 26.3879 353.386C28.2842 352.869 33.1772 352.32 37.2775 352.35C41.3785 352.274 42.852 352.072 40.5397 351.949C38.2805 351.773 34.6538 351.693 32.6554 351.785C30.552 351.876 27.8154 352.281 26.4456 352.696C25.1808 353.111 23.8102 353.632 23.4925 353.949ZM22.2173 377.47C22.1122 377.469 22.3738 377.63 22.7936 377.739C23.2126 377.955 27.0573 376.974 31.3257 375.571C35.5411 374.221 39.0721 373.025 39.1258 372.867C39.0744 372.707 35.3347 373.688 30.7517 374.983C26.1158 376.33 22.2702 377.417 22.2173 377.47Z" fill="#8D8389"/>
<path d="M106.838 192.076C106.009 190.371 104.866 188.556 104.292 187.968C103.717 187.379 102.878 187.267 102.454 187.689C102.03 188.11 100.961 190.546 100.102 193.089C99.2948 195.58 98.114 198.865 97.5253 200.294C96.9888 201.778 95.0631 206.331 93.2989 210.408C91.482 214.432 88.8681 219.672 87.3794 221.998C85.9422 224.377 83.7063 228.291 82.426 230.832C81.1456 233.372 78.3083 240.415 76.1598 246.668C74.0124 252.813 72.4496 258.06 72.7628 258.381C73.0759 258.702 82.929 255.64 94.6799 251.743C111.228 246.128 117.233 244.472 121.177 244.341C123.963 244.309 126.384 244.008 126.595 243.797C126.86 243.533 126.815 242.523 126.454 241.512C126.147 240.447 125.588 237.734 125.183 235.606C124.726 233.425 123.083 227.995 121.433 223.628C119.783 219.154 117.616 213.508 116.636 211.004C115.655 208.501 113.375 203.916 111.559 200.769C109.741 197.622 107.614 193.729 106.838 192.076Z" fill="#161722"/>
<path d="M104.932 193.868C104.571 192.963 103.948 191.896 103.635 191.575L103.583 191.521C103.218 191.041 102.952 191.517 102.943 192.685C102.935 193.747 102.717 194.808 102.399 195.124C102.082 195.441 101.442 196.711 101.012 197.983C100.53 199.201 98.9764 203.173 97.479 206.668C96.0337 210.216 94.163 214.505 93.2566 216.251C92.3502 217.997 90.4859 221.33 89.0492 223.709C87.6647 226.143 86.3346 228.311 86.1211 228.734C85.8554 229.104 85.4821 229.898 85.2147 230.48C84.9999 231.116 83.8255 233.551 82.7044 235.933C81.5832 238.315 80.5651 240.91 80.5066 241.706C80.4487 242.503 79.6436 244.781 78.7355 246.74C77.8794 248.752 77.1802 250.924 77.2277 251.615C77.2757 252.306 76.9001 253.313 76.3184 253.786C75.842 254.261 75.5746 254.843 75.8362 255.004C76.0973 255.272 85.6343 252.314 97.0704 248.414C108.453 244.567 118.573 241.029 119.522 240.505C120.631 239.929 121.629 239.989 122.308 240.685C123.247 241.647 123.353 241.436 123.161 238.991C123.066 237.503 122.099 233.194 120.918 229.414C119.736 225.634 118.295 221.374 117.674 219.988C117.106 218.551 116.381 217.058 116.227 216.685C115.966 216.311 114.934 213.647 113.746 210.718C112.559 207.788 110.279 203.203 108.616 200.535C107.006 197.814 105.346 194.828 104.932 193.868Z" fill="#FAEAAD"/>
</g>
</g>
<defs>
<clipPath id="clip0_21_4680">
<rect width="243" height="243" fill="white" transform="translate(3)"/>
</clipPath>
</defs>
</svg>
