<svg width="261" height="196" viewBox="0 0 261 196" fill="none" xmlns="http://www.w3.org/2000/svg">
<g clip-path="url(#clip0_1_10)">
<path d="M120.046 76.1235C120.101 68.5217 105.475 63.9165 99.4952 61.4521C92.5375 58.5849 85.4193 59.1986 80.7061 64.5019C78.2876 67.2233 76.7086 78.8721 79.3636 82.0695C84.7245 88.5248 91.297 87.3754 99.3057 87.6133C105.838 87.8069 114.374 88.813 117.751 94.7633C119.776 98.3328 119.863 101.426 119.835 105.279C119.798 110.338 118.57 111.243 116.119 115.012C111.828 121.61 94.8541 119.394 87.5334 119.177C79.6193 118.942 77.2972 106.406 77.3344 101.268" stroke="#1400FF" stroke-width="3" stroke-linecap="round"/>
<path d="M143.135 95.6774C139.019 95.555 134.902 95.433 130.786 95.311C126.09 95.1716 125.519 100.525 124.276 103.604C123.007 106.745 120.671 123.056 126.876 123.563C136.102 124.316 146.632 124.486 146.705 114.332C146.766 105.977 148.214 100.815 139.422 96.6581" stroke="#1400FF" stroke-width="3" stroke-linecap="round"/>
<path d="M151.236 121.985C151.277 116.367 151.317 110.75 151.358 105.133C151.408 98.1355 158.447 97.9169 163.683 96.0133C177.824 90.8718 164.306 123.46 175.74 123.8" stroke="#1400FF" stroke-width="3" stroke-linecap="round"/>
<path d="M183.506 95.566L183.3 124.067" stroke="#1400FF" stroke-width="3" stroke-linecap="round"/>
<path d="M182.35 87.8567C181.493 87.9282 182.767 90.8566 181.138 87.8208" stroke="#1400FF" stroke-width="3" stroke-linecap="round"/>
<path d="M196.651 58.343C196.547 72.6748 196.443 87.0062 196.339 101.338C196.284 108.949 193.807 116.215 193.751 124.042" stroke="#1400FF" stroke-width="3" stroke-linecap="round"/>
<path d="M196.381 95.6136C196.408 91.8509 200.997 86.8333 202.532 83.126C204.276 78.9162 205.848 74.9956 207.471 70.7248" stroke="#1400FF" stroke-width="3" stroke-linecap="round"/>
<path d="M196.832 94.0602C196.786 100.384 202.068 109.207 204.895 115.131C206.177 117.818 206.602 121.765 208.736 124.017C210.315 125.682 212.536 127.764 213.544 129.641" stroke="#1400FF" stroke-width="3" stroke-linecap="round"/>
<path d="M72.4257 133.85C106.452 133.755 140.444 135.854 174.366 135.759C196.22 135.698 217.742 140.025 239.667 139.964" stroke="#1400FF" stroke-width="4" stroke-linecap="round"/>
<path d="M56.1007 85.7203C56.1432 79.8988 58.4502 74.2952 58.4933 68.3329C58.5399 61.9437 50.0904 53.611 43.4413 51.498C35.2592 48.8974 28.3939 56.8622 26.7984 63.0562C24.5765 71.6819 23.6761 82.0887 31.1436 89.0349C36.5594 94.0721 42.3511 91.1194 48.9675 92.6328C57.479 94.58 58.7994 104.337 58.7536 110.635C58.6715 121.994 53.073 132.715 41.5558 137.974C35.4593 140.758 27.5677 139.905 24.0156 134.328C19.8684 127.817 20.7145 120.679 20.766 113.563" stroke="#1400FF" stroke-width="3" stroke-linecap="round"/>
<path d="M37.2589 30.0802C37.0983 52.259 37.5006 74.4173 37.3399 96.5994C37.2425 110.056 37.2267 123.351 35.0488 136.644C33.7861 144.35 32.4395 151.524 32.3826 159.373" stroke="#1400FF" stroke-width="3" stroke-linecap="round"/>
<path d="M44.6165 30.2984C44.4717 50.29 52.2173 69.8922 48.4425 89.8339C46.0748 102.342 45.4808 115.118 45.0456 127.802C44.7977 135.028 42.8536 142.139 42.619 149.364C42.5785 150.603 40.7932 155.097 43.1446 155.167" stroke="#1400FF" stroke-width="3" stroke-linecap="round"/>
</g>
<defs>
<clipPath id="clip0_1_10">
<rect width="237.966" height="157.96" fill="white" transform="translate(26.307) rotate(9.57215)"/>
</clipPath>
</defs>
</svg>
