<svg width="1344" height="26" viewBox="0 0 1344 26" fill="none" xmlns="http://www.w3.org/2000/svg">
<path d="M2 12.2969C28.5 36.5 72.5213 15.0711 98.8331 15.0711C118.041 15.0711 138.053 20.2527 156.989 18.3591C188.447 15.2133 221.165 9.52267 252.751 9.52267C284.993 9.52267 318.749 6.42408 350.774 9.93367C394.237 14.6968 439.809 6.26529 483.525 5.82371C541.739 5.23569 598.445 21.4641 656.5 16.9207C713.424 12.4657 760.013 8.94464 817 12.2968C846.078 14.0073 888.573 -0.295114 917.537 2.022C945.678 4.27328 975.449 -0.640961 1000.76 15.0711C1020.34 27.2211 1051.61 24.6426 1073.92 21.5443C1090.38 19.2587 1107.04 18.6271 1123.45 16.5096C1131.37 15.4875 1136.92 16.9206 1144.2 16.9206C1153 16.9206 1161.37 16.0873 1170.09 14.6601C1178.88 13.2216 1190.58 15.4423 1198.76 12.2969C1207.07 9.10039 1218.09 11.7188 1227.02 9.93367C1237.08 7.92062 1250.33 10.309 1259.59 6.74845C1269.66 2.87636 1284.13 2.12475 1294.93 2.12475C1302.95 2.12475 1312.9 0.494107 1320.83 4.89897C1324.86 7.13799 1339.49 11.0409 1342.1 5.82371" stroke="#3F47CB" stroke-width="3" stroke-linecap="round"/>
</svg>
