<svg width="223" height="48" viewBox="0 0 223 48" fill="none" xmlns="http://www.w3.org/2000/svg">
<path fill-rule="evenodd" clip-rule="evenodd" d="M23.266 1.01936C24.6703 0.992913 25.9981 1.17802 27.3514 1.54824C28.4238 1.86557 30.2367 2.50023 31.3601 2.97622C32.4836 3.45222 34.1178 4.19265 35.0114 4.66865C35.8796 5.1182 36.5434 5.56775 36.4668 5.69997C36.3902 5.80574 35.4455 5.62063 34.3476 5.3033C33.2751 4.98598 30.492 4.29843 28.1684 3.79599C25.8449 3.26711 23.1639 2.73822 22.1681 2.57956C21.1978 2.44734 19.7424 2.31512 19.0019 2.31512C18.1082 2.31512 17.6742 2.23579 17.8529 2.05068C17.9806 1.91846 18.7721 1.62757 19.6147 1.41602C20.4573 1.20447 22.0915 1.01936 23.266 1.01936ZM34.2454 2.47378C34.6284 2.55312 35.803 3.02911 36.8498 3.5051C37.8967 3.9811 39.4798 4.69509 40.3479 5.11819C41.2161 5.5413 41.931 5.93796 41.9566 6.01729C41.9566 6.09663 41.3437 6.09663 40.6033 6.04374C39.8883 5.99085 39.1479 5.80574 39.0202 5.64708C38.867 5.48841 37.5648 4.72153 36.1349 3.9811C34.705 3.21422 33.5305 2.52667 33.5305 2.44734C33.5305 2.36801 33.8624 2.36801 34.2454 2.47378ZM18.6955 3.63732C21.1212 3.63732 22.7043 3.79599 25.1044 4.32487C26.8662 4.69509 30.1856 5.46197 32.5091 6.04374C34.8327 6.62551 37.5903 7.47172 38.6372 7.92127C39.6841 8.37082 40.782 8.8997 41.0629 9.11126C41.3437 9.29636 41.7778 9.45503 42.0332 9.45503C42.263 9.45503 43.0034 10.169 43.6928 11.0681C44.3567 11.9672 45.2759 13.0514 45.7355 13.5274C46.1951 13.977 46.5526 14.5323 46.5271 14.7439C46.476 14.9554 46.5271 15.3785 46.6292 15.6694C46.7313 15.9603 46.7058 16.5421 46.4249 17.732L45.5312 16.5156C45.0461 15.8545 44.4844 15.2198 44.3312 15.1405C44.1524 15.0612 43.8716 15.167 43.7439 15.3521C43.5652 15.5901 43.9226 16.2512 45.0206 17.7849C45.8887 18.9485 46.5526 20.0327 46.5526 20.1649C46.527 20.3236 46.7313 20.6144 46.9867 20.826C47.242 21.0111 47.7016 21.1962 48.008 21.2227C48.4165 21.2227 48.5697 21.4342 48.6974 22.1482C48.774 22.6506 48.9272 23.444 49.0038 23.8671C49.1059 24.5017 48.9527 24.9248 47.1909 27.3841L46.9867 26.1413C46.8845 25.4802 46.4249 24.2108 45.9653 23.3382C45.5057 22.4655 44.4588 21.0375 43.6162 20.1384C42.7736 19.2393 41.3437 18.0229 40.4245 17.4147C39.5053 16.8065 37.8967 15.9338 36.8498 15.4843C35.803 15.0612 34.0667 14.453 33.0198 14.1356C31.4623 13.7125 30.0835 13.6068 25.7428 13.501C21.5808 13.4216 20.3041 13.4745 20.0488 13.739C19.7934 14.0034 19.7934 14.1621 20.0488 14.4265C20.2275 14.6116 20.3296 14.7703 20.253 14.7439C20.1764 14.7439 18.7976 14.8232 17.189 14.9025C15.5804 14.9818 14.1761 15.0876 14.0739 15.167C13.9463 15.2198 13.8697 15.2198 13.8697 15.1405C13.8697 15.0612 14.0995 14.7967 14.4059 14.5587C14.8399 14.1621 14.891 14.0299 14.6101 13.7654C14.3293 13.5274 13.7675 13.6596 12.0823 14.3736C10.8822 14.8496 9.88643 15.2463 9.86089 15.1934C9.83536 15.167 9.73323 14.3736 9.63109 13.4216C9.52896 12.4697 9.32469 11.5441 9.17149 11.359C8.99275 11.1475 8.78849 11.121 8.63529 11.2797C8.48208 11.4383 8.43102 12.4168 8.48208 13.6068C8.55868 14.8496 8.50762 15.5901 8.35442 15.4843C8.22675 15.3785 7.79268 15.5372 7.35861 15.8016C6.95007 16.0925 6.516 16.3305 6.41386 16.3305C6.2862 16.3305 6.26067 16.0925 6.33727 15.8016C6.41387 15.4843 6.2096 14.9025 5.77553 14.3207C5.18825 13.5539 5.00952 13.4481 4.72865 13.739C4.47332 14.0034 4.49885 14.3207 4.80525 15.2727C5.03506 15.9338 5.18826 16.6743 5.18826 16.9387C5.18826 17.1767 5.03505 17.3618 4.88185 17.3089C4.70312 17.256 4.39672 16.3834 4.21798 15.3785C4.01371 14.2943 3.93711 12.8663 4.03925 11.835C4.11585 10.883 4.32012 9.95747 4.44778 9.7988C4.57545 9.61369 4.85632 9.50792 5.06059 9.58725C5.29039 9.66658 5.49466 9.50792 5.62233 9.1377C5.69893 8.79393 5.80106 8.29149 5.8266 8.0006C5.85213 7.5775 6.0564 7.47172 6.7458 7.47172C7.40967 7.47172 7.66501 7.3395 7.86928 6.86351C8.02248 6.51973 8.35442 6.2024 8.63529 6.14952C8.91615 6.07018 9.37576 5.7793 9.65663 5.48841C9.98856 5.14464 10.2694 5.03886 10.4226 5.22397C10.5758 5.35619 11.4695 5.3033 12.8228 5.01242C14.2782 4.72153 15.0697 4.4042 15.2485 4.11332C15.4783 3.69021 15.9379 3.63732 18.6955 3.63732ZM44.178 7.70972C45.3014 7.73616 45.6844 7.89483 46.6037 8.68815C47.2165 9.19059 48.1612 10.169 48.7229 10.8566C49.2847 11.5441 49.6932 12.1523 49.6166 12.2317C49.54 12.2845 48.2123 11.4119 46.6547 10.3012C45.0972 9.19059 43.5907 8.13282 43.3354 7.97416C42.9268 7.70972 43.08 7.65683 44.178 7.70972ZM48.0335 13.9505C48.2123 13.9505 49.0804 14.691 49.9485 15.6165C50.8422 16.5156 51.8891 17.8114 52.936 19.7682L52.2976 20.5087C51.9402 20.9053 51.6593 21.302 51.6593 21.4342C51.6593 21.54 51.5572 21.6193 51.404 21.6193C51.2763 21.6193 50.9188 21.1169 50.6379 20.5087C50.3571 19.874 50.1528 18.9485 50.1528 18.446C50.1528 17.9436 49.9996 17.3618 49.8209 17.1767C49.6421 17.018 49.3102 16.9123 49.1059 17.018C48.9017 17.0974 48.6463 16.9652 48.5442 16.7536C48.4165 16.4892 48.4421 16.3834 48.5953 16.4627C48.7485 16.5421 48.9783 16.4098 49.1059 16.1983C49.3102 15.9074 49.157 15.5636 48.5442 14.8761C48.0846 14.3736 47.8548 13.9505 48.0335 13.9505ZM2.94131 15.0083C3.04344 15.0083 3.22217 15.7223 3.32431 16.5685C3.52858 18.0758 3.50304 18.1287 3.04344 17.7056C2.7881 17.4676 2.50723 17.3089 2.4051 17.3883C2.3285 17.4676 2.22637 17.0445 2.1753 16.4627C2.12423 15.8016 2.22637 15.3256 2.43063 15.2198C2.60937 15.1141 2.83917 15.0083 2.94131 15.0083ZM12.8483 15.2992C12.9249 15.2992 12.7207 15.5107 12.3887 15.7487C12.0057 16.0396 11.8014 16.4627 11.827 16.9387C11.827 17.3354 11.878 17.6527 11.9546 17.6527C12.0312 17.6527 12.3376 17.4147 12.6696 17.1238C12.976 16.8329 13.7675 16.4627 14.4569 16.3305C15.1208 16.1718 17.4188 16.0661 19.5636 16.0925C21.6829 16.0925 23.6745 16.1983 23.9554 16.3305C24.4405 16.5156 24.415 16.5421 23.8277 16.7007C23.4703 16.78 22.0915 17.0974 20.7637 17.3883C19.436 17.6791 17.2146 18.2874 15.8613 18.7105C13.5377 19.4509 13.3845 19.5302 13.6909 20.0062C13.8441 20.2707 14.9165 21.6458 16.04 23.0737C18.0061 25.5859 18.1593 25.6917 20.5084 26.8288C21.8361 27.4899 24.4405 28.5741 26.2534 29.2881C28.0663 29.9757 30.0579 30.7161 30.6707 30.9276C31.258 31.1128 31.7431 31.3243 31.7431 31.4036C31.7431 31.483 31.0793 31.4036 30.2622 31.245C29.4706 31.0599 27.3769 30.6103 25.6151 30.2137C23.8533 29.817 21.351 29.1559 20.0743 28.7328C18.3891 28.2039 17.4188 27.7015 16.755 27.0668C16.2187 26.5644 15.0442 24.9248 14.125 23.3911C12.593 20.8524 12.4398 20.6673 12.1844 21.1962C11.9546 21.6458 12.0057 21.9631 12.5419 22.9415C12.8994 23.6026 13.6654 24.8984 14.2782 25.8504C14.8655 26.8024 15.7847 27.8866 16.3209 28.3097C16.8826 28.7063 18.287 29.3674 19.487 29.7906C20.6871 30.2137 24.3895 31.1656 27.7344 31.9061C31.0537 32.6465 34.4242 33.2547 35.1902 33.2547C35.9562 33.2547 37.4882 33.0696 38.5861 32.8316C39.6585 32.5936 41.4203 32.0647 42.4672 31.6416C43.5141 31.245 44.8674 30.4781 45.4802 29.9492C46.0675 29.4468 46.6292 29.0766 46.7569 29.1294C46.859 29.2088 47.0633 29.1823 47.1909 29.0766C47.3441 28.9708 47.8548 28.3626 48.3399 27.7279C49.1825 26.6437 49.2591 26.6173 49.4379 27.1461C49.54 27.437 49.6932 28.865 49.7953 30.293C49.9485 32.5672 49.8975 32.911 49.4889 33.2547C49.2336 33.4663 48.391 34.2861 47.5995 35.0529C46.2462 36.3751 46.1951 36.4809 46.6037 36.904C46.9867 37.3007 46.9867 37.4329 46.6803 38.094C46.3483 38.7287 46.3483 38.8344 46.6803 39.0724C46.9611 39.2575 47.1654 39.2311 47.4463 38.9402C47.6505 38.7287 47.8293 38.4378 47.8293 38.2791C47.8293 38.1469 47.9569 38.0147 48.0846 38.0147C48.2633 38.0147 48.2633 38.1733 48.0846 38.4907C47.9314 38.7816 47.9569 39.046 48.1612 39.2311C48.391 39.4691 48.2123 39.7335 47.3186 40.3418C46.6803 40.7913 45.5823 41.426 44.8674 41.7697C44.1524 42.0871 43.3864 42.5631 43.1311 42.7746C42.9013 42.9862 42.697 43.0919 42.7226 42.9862C42.7226 42.8539 42.2374 42.9597 41.6501 43.1713C41.0373 43.4093 40.399 43.515 40.2458 43.4357C40.0671 43.3564 39.9139 43.4622 39.9139 43.6473C39.9139 43.8588 39.7096 43.9117 39.2245 43.7795C38.8159 43.6737 38.4074 43.7002 38.2542 43.8588C38.0755 44.0439 37.0286 44.0175 34.8072 43.7002C33.0453 43.4622 30.8495 43.0919 29.9047 42.8804C28.9344 42.6688 28.2195 42.4044 28.2961 42.2457C28.3727 42.1135 28.2706 41.8755 28.1174 41.7433C27.9386 41.6111 25.0789 40.0773 21.7851 38.3056C16.5507 35.5025 15.7336 35.1323 15.4783 35.5025C15.274 35.7405 15.2485 35.952 15.4017 36.0314C15.5549 36.1107 15.657 36.2958 15.657 36.428C15.657 36.5867 15.5549 36.6925 15.4017 36.6925C15.274 36.6925 14.7889 36.19 14.3803 35.5818C13.9463 34.9472 13.4356 34.2332 13.2313 33.9952C13.0271 33.7307 12.7462 33.5721 12.593 33.6514C12.4653 33.7307 11.8525 33.0961 11.2652 32.2763C10.678 31.4301 10.0907 30.6632 9.93749 30.5574C9.78429 30.4517 9.45236 30.5574 9.22255 30.769C8.81402 31.1128 8.63528 30.9541 7.17987 29.0237C6.2862 27.8601 5.57126 26.6966 5.54573 26.4321C5.54573 26.1942 5.41806 25.7446 5.26486 25.4537C5.13719 25.1628 4.93292 24.6075 4.83079 24.2108C4.72865 23.7613 4.77972 23.5233 4.93292 23.6026C5.08612 23.682 5.29039 23.5762 5.41806 23.4175C5.57126 23.206 5.57126 22.7035 5.44359 22.1482C5.31593 21.6458 5.29039 21.1698 5.34146 21.0904C5.39252 21.0111 5.54573 20.5351 5.67339 20.0327C5.85213 19.1336 5.9032 19.2129 6.69473 21.8838C7.15434 23.4175 7.66501 24.8191 7.84374 25.0042C8.07355 25.2686 8.20121 25.2686 8.45655 25.0042C8.66082 24.7926 8.71189 24.4488 8.60975 24.1315C8.50762 23.8406 8.04801 22.3333 6.72027 17.9171L7.69054 17.5205C8.20121 17.2825 8.66082 17.1238 8.68635 17.1767C8.71189 17.2296 8.81402 18.0229 8.91615 18.9749C9.01829 19.9269 9.22256 20.8524 9.37576 21.0376C9.60556 21.302 9.73323 21.302 9.98856 21.0376C10.1928 20.826 10.2694 20.4029 10.1928 20.0327C10.1162 19.6625 10.0141 18.7369 9.91196 16.5421L11.3163 15.9338C12.0823 15.5901 12.7717 15.3256 12.8483 15.2992ZM36.6711 19.3716C36.9775 19.4773 38.1521 20.0062 39.2755 20.588C40.7309 21.302 41.6757 21.9895 42.5694 22.9944C43.795 24.3431 43.8205 24.4488 43.7184 25.771C43.6673 26.5115 43.5396 27.2255 43.4375 27.3577C43.3098 27.4635 43.1822 27.5164 43.1311 27.437C43.0545 27.3577 43.1311 26.7759 43.5141 24.9248L42.1608 23.6291C41.4203 22.9151 39.7351 21.6722 38.4329 20.8524C37.1307 20.0327 36.0838 19.3451 36.0838 19.2922C36.1094 19.2394 36.3902 19.2922 36.6711 19.3716ZM53.4722 21.2755C53.5743 21.3813 53.8552 22.254 54.085 23.206C54.3403 24.158 54.6212 26.485 54.6978 28.3626C54.8255 30.8219 54.7999 31.8796 54.5956 32.0647C54.4169 32.2234 53.9573 32.9374 53.5743 33.6514C53.1658 34.3918 52.1444 35.714 51.3018 36.6396C50.4337 37.5387 49.7187 38.2527 49.6677 38.2262C49.6421 38.1733 50.5614 36.2958 51.7614 34.0481C53.4722 30.8219 53.8807 29.8699 53.6254 29.6054C53.37 29.341 53.2424 29.341 52.9615 29.6054C52.7828 29.7906 52.3742 30.4252 52.0678 31.007C51.5827 31.9854 51.5316 32.0119 51.455 31.4036C51.4295 31.0334 51.6082 29.4997 51.8891 27.9659C52.1955 26.2206 52.2976 25.0571 52.1444 24.8719C52.0168 24.6868 51.8125 24.5811 51.6593 24.6604C51.5316 24.7397 51.3529 24.6075 51.2763 24.396C51.1997 24.1844 51.6338 23.3382 52.221 22.5449C52.8083 21.7251 53.37 21.1698 53.4722 21.2755ZM3.17111 24.1315C3.24771 24.4224 3.24771 24.8719 3.12004 25.1364C2.99237 25.3744 2.7115 25.5859 2.50724 25.5859C2.30297 25.5859 2.07317 25.3479 1.99657 25.0571C1.91996 24.7662 1.99657 24.5282 2.12423 24.5282C2.27743 24.5282 2.30296 24.3695 2.20083 24.2108C2.06465 23.9817 2.10721 23.9376 2.3285 24.0786C2.4817 24.1844 2.7115 24.1051 2.81364 23.9464C2.94131 23.7084 3.04344 23.7613 3.17111 24.1315ZM20.6871 39.3369C20.7382 39.3369 21.734 39.8129 22.9341 40.3946C24.1341 40.9764 25.1044 41.4789 25.1044 41.5317C25.1044 41.5582 24.3129 41.3995 23.3681 41.1615C22.4234 40.9235 21.4021 40.6591 21.0957 40.5533C20.7126 40.4475 20.5339 40.2095 20.5594 39.8658C20.585 39.5749 20.636 39.3369 20.6871 39.3369ZM24.2873 42.8011C24.4405 42.7746 25.7683 43.0655 27.2237 43.4357C28.6536 43.8059 29.9558 44.229 30.0835 44.3613C30.2537 44.5376 30.1515 44.6257 29.7771 44.6257C29.4451 44.6257 28.577 44.4935 27.862 44.3348C27.1216 44.1497 25.947 43.753 25.2321 43.4093C24.5427 43.0919 24.1086 42.8011 24.2873 42.8011Z" fill="#F1C232"/>
<path d="M6.77134 7.44528C6.38833 7.31306 6.41387 7.26017 6.97561 6.94284C7.33307 6.73129 7.69055 6.57262 7.81821 6.54618C7.92035 6.54618 7.99695 6.62551 7.99695 6.75773C8.02248 6.86351 7.84375 7.1015 7.61394 7.28661C7.40968 7.44528 7.02667 7.52461 6.77134 7.44528Z" fill="white"/>
<path d="M3.24771 11.4383C3.80945 10.2748 4.54992 9.00548 4.88186 8.60882C5.21379 8.18571 5.5968 7.86838 5.72446 7.86838C5.85213 7.86838 5.95426 7.89483 5.95426 7.94772C5.95426 7.97416 5.8266 8.39727 5.64786 8.87326C5.44359 9.40214 5.18826 9.69303 4.98399 9.61369C4.83079 9.53436 4.57545 9.61369 4.44778 9.7988C4.32012 9.95747 4.14138 10.7508 4.06478 11.5177C3.93712 12.5754 3.83498 12.8663 3.52858 12.7605C3.32431 12.6812 3.06898 12.787 2.96684 12.9721C2.86471 13.1308 2.76257 13.7125 2.76257 14.215C2.76257 14.8761 2.6349 15.1405 2.30297 15.1934C1.9455 15.2727 1.89443 15.1405 2.0221 14.4265C2.0987 13.9505 2.66044 12.6019 3.24771 11.4383Z" fill="white"/>
<path d="M8.25228 33.2547C7.97141 32.8316 7.74161 32.3027 7.74161 32.1441C7.74161 31.959 8.20122 32.3292 8.76295 32.9903C9.32469 33.6514 9.7843 34.3389 9.7843 34.524C9.7843 34.6827 10.0652 35.0794 10.4226 35.3703C10.7801 35.6611 11.061 36.0049 11.061 36.1636C11.061 36.3222 10.4737 36.0578 9.7843 35.6347C8.93318 35.1058 8.55017 34.7092 8.63529 34.4447C8.71189 34.2332 8.53315 33.6778 8.25228 33.2547Z" fill="white"/>
<path d="M50.689 37.3007C51.787 36.1636 53.1147 34.4712 53.6254 33.5192L54.5957 31.8268L54.6723 32.8581C54.7233 33.4398 54.5957 34.2596 54.4169 34.6827C54.2382 35.1058 53.2934 36.2165 52.2976 37.1685C51.3018 38.094 49.1315 39.8129 47.4463 40.95C45.761 42.1135 44.1269 43.0655 43.8205 43.0391C43.4886 43.0391 43.2332 42.9333 43.2332 42.7746C43.2332 42.6159 43.846 42.2457 44.5865 41.902C45.3015 41.5582 46.5526 40.8442 47.3186 40.3153C48.0846 39.7864 49.6166 38.4378 50.689 37.3007Z" fill="white"/>
<path d="M15.274 1.62758C16.2443 1.25736 17.8784 0.728476 18.8487 0.464035C20.2786 0.0409291 21.2489 -0.0384034 23.8277 0.0144848C26.7896 0.0938172 27.2492 0.199594 30.0835 1.20447C31.7687 1.78624 34.4752 3.00267 36.0838 3.90177C37.6925 4.80087 39.0713 5.59419 39.1479 5.67352C39.2245 5.75286 38.6372 5.72641 37.8712 5.62064C37.1052 5.5413 35.7774 5.09176 34.9348 4.64221C34.0922 4.19266 32.4836 3.45222 31.3601 2.97622C30.2367 2.50023 28.4238 1.86557 27.3258 1.54824C26.1258 1.20447 24.6193 0.992917 23.4447 0.992917C22.3979 0.992917 20.7126 1.17803 19.6913 1.41602C18.67 1.62758 17.8018 1.9449 17.7763 2.07713C17.7252 2.20935 18.2614 2.31512 18.9764 2.31512C19.6658 2.31512 21.1467 2.44734 22.2191 2.60601C23.3171 2.76467 26.279 3.37289 28.8068 3.92821C31.3346 4.50998 34.0412 5.17109 34.8072 5.38264C35.5732 5.62064 36.3392 6.0173 36.4924 6.2553C36.6711 6.49329 37.3605 6.75773 38.1521 6.88996C38.9181 6.99573 39.9139 7.1544 40.3479 7.20728C40.8075 7.28662 41.1395 7.44528 41.0629 7.60395C40.9863 7.76261 41.2161 8.2386 41.5736 8.66171C41.9566 9.11126 42.0842 9.45503 41.88 9.45503C41.7268 9.45503 41.3438 9.29636 41.0629 9.11126C40.782 8.8997 39.6841 8.37082 38.6372 7.92127C37.5903 7.47172 34.8327 6.62551 32.5091 6.04374C30.1856 5.46197 26.8662 4.69509 25.1044 4.32487C22.7298 3.82243 21.1212 3.63733 18.7721 3.63733C16.04 3.63733 15.6059 3.69022 15.2229 4.13977C14.9165 4.4571 14.0229 4.80087 12.7207 5.06531C11.3929 5.32975 10.5758 5.38264 10.4226 5.19753C10.2439 5.03887 10.0396 5.09175 9.7843 5.38264C9.58003 5.59419 8.60975 6.17596 7.63948 6.62551C6.6692 7.10151 5.5202 7.89483 5.08613 8.39727C4.65205 8.89971 3.80945 10.3012 3.19664 11.4912C2.60937 12.7077 2.0221 13.6332 1.8689 13.5539C1.7157 13.4745 1.61356 13.1308 1.61356 12.7605C1.61356 12.3903 1.91997 11.4648 2.27744 10.7244C2.63491 9.95747 3.24771 8.89971 3.63071 8.39727C4.01371 7.89483 4.54992 7.04862 4.85632 6.54618C5.16272 6.0173 5.92873 5.30331 6.64367 4.90665C7.30754 4.53643 8.78849 3.95466 9.91196 3.66377C11.0354 3.34644 12.1334 3.10845 12.3376 3.10845C12.5419 3.13489 12.8994 2.94978 13.1037 2.71178C13.3079 2.47379 14.3037 1.99779 15.274 1.62758Z" fill="#BF9000"/>
<path d="M44.6886 10.407C43.463 9.00548 42.4672 7.8155 42.4672 7.73617C42.4672 7.65683 42.5183 7.60395 42.5949 7.60395C42.6715 7.60395 43.6673 8.2386 44.8163 9.03193C45.9909 9.82525 47.5739 10.9095 48.3399 11.4912C49.1315 12.0466 50.1273 12.8134 50.5869 13.2101C51.072 13.6596 51.4295 14.2414 51.455 14.691C51.5061 15.0876 51.8891 15.9074 52.3487 16.4627C52.7828 17.0445 53.4977 18.2874 53.9318 19.2394C54.3659 20.1913 54.8765 21.6722 55.0808 22.5449C55.3106 23.4175 55.5915 24.9513 55.7447 25.9826C55.8723 27.0139 56 29.0766 56 30.6103C56 32.1441 55.8723 33.8101 55.7447 34.3125C55.5915 34.8149 55.1574 35.6876 54.7744 36.2694C54.3914 36.8247 53.2168 38.0147 52.17 38.8873C51.1231 39.76 49.0804 41.2937 47.625 42.2986C45.3781 43.8588 44.8674 44.0968 43.8716 44.0968C43.2332 44.0968 42.0587 44.2819 41.2416 44.5199C40.4501 44.7579 38.867 44.9695 37.7435 44.9959C36.62 45.0224 34.5008 44.9166 33.0198 44.7844C31.5389 44.6521 30.2367 44.467 30.0835 44.3348C29.9303 44.2026 28.6536 43.8059 27.1982 43.4357C25.7683 43.0655 24.415 42.7746 24.2107 42.7746C24.0065 42.7746 23.4192 42.5895 22.9341 42.378C22.2702 42.0871 22.117 41.902 22.2957 41.6375C22.4234 41.4789 22.4745 41.2144 22.3468 41.0822C22.2447 40.95 22.3979 40.9235 22.6787 41.0029C22.9596 41.0822 23.7511 41.2937 24.4661 41.4789C25.1555 41.664 26.1002 41.9549 26.5088 42.1928C26.9173 42.4044 27.6833 42.5895 28.1684 42.6424C28.6536 42.6688 30.4409 42.9597 32.1261 43.3035C33.8114 43.6208 36.1094 43.8853 37.2328 43.9117C38.5351 43.9117 39.8373 43.753 40.8075 43.4357C41.6502 43.1713 42.8758 42.9597 43.5141 42.9333C44.5099 42.9068 45.0716 42.616 47.5995 40.8706C49.2081 39.76 51.3018 38.094 52.2721 37.1685C53.2424 36.2429 54.1871 35.1323 54.4169 34.7092C54.6978 34.1009 54.7744 33.0432 54.7489 30.2137C54.7489 28.1775 54.6212 25.8504 54.468 25.0571C54.3148 24.2637 54.0339 22.968 53.8296 22.2011C53.6254 21.4607 53.4977 20.7202 53.5743 20.5616C53.6509 20.4029 53.6254 20.2442 53.4977 20.1913C53.3956 20.1385 52.7317 19.2394 52.0423 18.1551C51.2508 16.9652 50.0252 15.5901 48.8506 14.5852C47.8037 13.6861 45.9398 11.8086 44.6886 10.407Z" fill="#BF9000"/>
<path d="M20.0743 14.4265C19.819 14.1621 19.819 14.0034 20.0743 13.739C20.3041 13.4481 21.4787 13.3952 25.7428 13.501C30.0579 13.5803 31.4878 13.7125 33.0198 14.1356C34.0667 14.453 35.803 15.0612 36.8498 15.4843C37.8967 15.9338 39.5053 16.8065 40.4245 17.4147C41.3437 18.0229 42.7736 19.2393 43.6162 20.1384C44.4588 21.0375 45.5057 22.4655 45.9653 23.3382C46.3994 24.2108 46.859 25.4008 46.9611 25.9826C47.0888 26.8288 47.0122 27.3048 46.5271 28.3361C46.1951 29.0501 45.5568 29.9228 45.1482 30.2665C44.7397 30.5839 43.5141 31.2185 42.4672 31.6416C41.4203 32.0647 39.6585 32.5936 38.5861 32.8316C37.4882 33.0696 35.9562 33.2547 35.1902 33.2547C34.4242 33.2547 31.0537 32.6465 27.7344 31.9061C24.3895 31.1656 20.6871 30.2137 19.487 29.7906C18.287 29.3674 16.8826 28.7063 16.3209 28.3097C15.7847 27.8866 14.8655 26.8024 14.2782 25.8504C13.6654 24.8984 12.8994 23.6026 12.5419 22.9415C12.0057 21.9631 11.9546 21.6458 12.1844 21.1962C12.4398 20.6673 12.593 20.826 13.9973 23.1795C14.8144 24.5811 15.9123 26.1677 16.423 26.723C16.9592 27.3577 17.8529 27.9395 18.721 28.2568C19.487 28.5741 21.1723 29.0766 22.4234 29.4468C23.6745 29.7906 26.1513 30.3723 27.9131 30.7425C29.6749 31.1128 31.6155 31.5094 32.2538 31.6152C32.8921 31.721 34.5008 31.8003 35.8285 31.8003C37.1562 31.8003 38.5606 31.721 38.9691 31.5888C39.3521 31.483 39.7096 31.1921 39.7862 30.9276C39.8628 30.6897 40.5011 30.055 41.2161 29.5526C41.9055 29.0501 42.4928 28.5477 42.4672 28.4155C42.4672 28.3097 42.7226 27.9659 43.029 27.6221C43.412 27.2255 43.6418 26.6173 43.7184 25.7182C43.8205 24.4488 43.795 24.3431 42.5694 22.9944C41.7012 22.016 40.7054 21.2756 39.2755 20.5616C38.1521 19.9798 36.8754 19.4774 36.4668 19.398C36.0583 19.3451 35.1902 19.0542 34.5518 18.7634C33.9135 18.4989 32.4836 18.0229 31.3601 17.7056C30.2367 17.4147 28.3982 16.9916 27.2748 16.7801C26.1513 16.5685 25.0023 16.3569 24.7214 16.3305C24.4405 16.3041 22.3213 16.2512 19.9977 16.1718C17.5465 16.0925 15.2485 16.1454 14.508 16.3041C13.8186 16.4627 12.976 16.8329 12.6696 17.1238C12.3376 17.4147 12.0312 17.6527 11.9546 17.6527C11.878 17.6527 11.827 17.2825 11.827 16.8594C11.827 16.2247 12.0057 15.9867 12.6696 15.643C13.1037 15.405 14.5335 15.1141 15.7847 14.9554C17.0358 14.8232 18.4912 14.7439 18.9764 14.7703C19.4615 14.7703 19.9722 14.7967 20.1254 14.7703C20.2786 14.7703 20.253 14.6116 20.0743 14.4265Z" fill="#BF9000"/>
<path d="M0.0049487 19.9005C-0.0205848 18.7369 0.0560173 17.2296 0.158151 16.5156V16.5421C0.260286 15.8281 0.490088 15.2727 0.617756 15.2727C0.770957 15.2727 0.924158 15.6694 1.00076 16.119C1.05183 16.5949 1.10289 17.9965 1.10289 19.2394C1.10289 20.5616 1.25609 22.0424 1.48589 22.8093C1.7157 23.5233 1.9455 24.4224 2.0221 24.7926C2.0987 25.1628 2.2519 25.4802 2.4051 25.5066C2.53277 25.5595 2.6349 25.9033 2.6349 26.2999C2.6349 26.723 2.53277 27.1461 2.37957 27.3048C2.20083 27.4899 2.4051 27.9395 2.99237 28.7592C3.45198 29.4203 3.91158 30.2665 4.01371 30.6632C4.09031 31.0863 4.06478 31.4565 3.91158 31.5359C3.75838 31.6152 3.27324 30.8748 2.78811 29.8699C2.30297 28.8915 1.48589 26.723 0.975224 25.0571C0.234751 22.7035 0.0304822 21.54 0.0049487 19.9005Z" fill="#BF9000"/>
<path d="M7.35861 35.2645C5.95426 34.1538 5.57126 33.7043 5.57126 33.149C5.54573 32.7523 5.64786 32.435 5.74999 32.435C5.85213 32.435 6.38833 32.9639 6.92454 33.625C7.43521 34.2861 8.04801 34.8149 8.25228 34.8149C8.45655 34.8414 9.27362 35.238 10.0396 35.7405C10.8056 36.2165 11.7248 36.8776 12.0823 37.1685C12.4398 37.4594 12.7717 37.6709 12.8483 37.5916C12.9249 37.5387 13.2569 37.7767 13.6143 38.1205C13.9718 38.4907 14.1761 38.8609 14.0484 38.9667C13.9463 39.0989 12.7973 38.6229 11.495 37.9353C10.2184 37.2478 8.32888 36.0578 7.35861 35.2645Z" fill="#BF9000"/>
<path d="M18.8232 40.95C17.0358 40.3418 16.7294 40.1566 16.755 39.6542C16.755 39.1518 16.8571 39.0724 17.4188 39.2311C17.7763 39.3104 18.5423 39.6013 19.104 39.8658C19.6658 40.1302 20.3807 40.3682 20.7126 40.3682C21.0191 40.3682 21.3255 40.474 21.4021 40.6326C21.4787 40.7913 21.4276 40.95 21.2744 41.0293C21.1212 41.1086 21.0701 41.2673 21.1467 41.426C21.2233 41.5846 21.1978 41.6904 21.0957 41.6904C20.968 41.6904 19.9466 41.3466 18.8232 40.95Z" fill="#BF9000"/>
<path fill-rule="evenodd" clip-rule="evenodd" d="M36.7988 5.48841C36.9009 5.48841 37.6159 5.59419 38.3819 5.75285C39.1479 5.88507 40.4756 6.04374 41.3182 6.12307C42.1608 6.17596 43.2588 6.30818 43.7439 6.41396C44.229 6.51973 44.7908 6.75773 44.9695 6.91639C45.1738 7.12795 45.1993 7.31306 45.0206 7.55105C44.8418 7.76261 44.4333 7.8155 43.6162 7.68327C42.9779 7.55105 42.4672 7.55105 42.4672 7.68327C42.4672 7.78905 43.6418 9.21703 45.0972 10.8301C46.5271 12.4697 48.0846 14.2679 48.5442 14.8232C49.157 15.5636 49.3102 15.9074 49.1059 16.1983C48.9527 16.4098 48.7229 16.5421 48.5953 16.4627C48.4421 16.3834 48.4165 16.4892 48.5187 16.7536C48.6463 16.9652 48.9017 17.0974 49.1059 17.018C49.3102 16.9123 49.6421 17.018 49.8209 17.1767C49.9996 17.3618 50.1528 17.9436 50.1528 18.446C50.1528 18.9485 50.3571 19.874 50.6379 20.5087C50.9188 21.1169 51.2252 21.6193 51.3274 21.6193C51.455 21.6193 51.7614 21.2755 52.0423 20.826C52.3232 20.4029 52.7062 19.9798 52.8594 19.9005C53.0381 19.8211 53.2934 19.9269 53.4466 20.112C53.6254 20.3236 53.3445 20.9318 52.4253 22.2275C51.7104 23.206 51.1997 24.1844 51.2763 24.396C51.3529 24.6075 51.5061 24.7397 51.6593 24.6604C51.787 24.5811 52.0168 24.6868 52.1444 24.8719C52.2976 25.0571 52.1955 26.2206 51.8891 27.9659C51.6082 29.4997 51.4295 31.0334 51.455 31.4036C51.5316 32.0119 51.5827 31.9854 52.0678 31.007C52.3742 30.4252 52.7828 29.7906 52.9615 29.6054C53.2424 29.341 53.37 29.341 53.6254 29.6054C53.8807 29.8699 53.4722 30.7954 51.787 33.9952C50.5869 36.19 49.6166 38.094 49.6166 38.1998C49.6166 38.332 49.3868 38.6758 49.1059 38.9931C48.7229 39.4427 48.4931 39.522 48.2123 39.3369C47.9314 39.1253 47.8803 38.9402 48.0846 38.5436C48.2548 38.191 48.2548 38.0147 48.0846 38.0147C47.9314 38.0147 47.8293 38.1204 47.8293 38.2791C47.8293 38.4378 47.6505 38.7287 47.4463 38.9402C47.1654 39.2311 46.9611 39.2575 46.6803 39.0724C46.3483 38.8344 46.3483 38.7287 46.6803 38.0676C46.9867 37.4329 46.9867 37.3007 46.6037 36.904C46.1951 36.4809 46.2462 36.3751 47.5995 35.0529C48.391 34.2861 49.2336 33.4663 49.4889 33.2547C49.8975 32.911 49.9486 32.5672 49.7954 30.2665C49.6932 28.865 49.54 27.437 49.4124 27.1461C49.2591 26.6173 49.1825 26.6437 48.3399 27.7279C47.8548 28.3626 47.3441 28.9708 47.1909 29.0766C47.0633 29.1559 46.7824 29.1823 46.6037 29.1295C46.4505 29.0766 46.2973 28.9443 46.2973 28.8386C46.2973 28.7063 46.9356 27.7279 47.7016 26.6437C48.9017 24.9777 49.1059 24.5282 49.0038 23.8671C48.9272 23.444 48.774 22.6506 48.6974 22.1482C48.5697 21.4342 48.4165 21.2227 48.008 21.2227C47.7016 21.1962 47.242 21.0111 46.9867 20.826C46.7313 20.6144 46.527 20.3236 46.5526 20.1649C46.5526 20.0062 45.8887 18.9485 45.0206 17.7849C43.9226 16.2512 43.5652 15.5901 43.7439 15.3521C43.8716 15.167 44.1524 15.0612 44.3056 15.1405C44.4844 15.2198 45.0461 15.8545 46.4249 17.732L46.6037 16.9652C46.7058 16.5421 46.7313 15.9603 46.6292 15.6694C46.5271 15.3785 46.476 14.929 46.5015 14.691C46.5271 14.4265 46.2462 13.9505 45.8377 13.6068C45.4547 13.2894 44.8418 12.6019 44.4844 12.0994C44.1014 11.597 43.1566 10.4335 42.3651 9.50792C41.5736 8.60882 40.9863 7.76261 41.0629 7.60395C41.1395 7.44528 40.8075 7.28662 40.3479 7.20728C39.9139 7.1544 38.9181 6.99573 38.1521 6.88996C37.4116 6.78418 36.6967 6.51973 36.569 6.36107C36.4413 6.17596 36.3902 5.91152 36.4668 5.75285C36.569 5.59419 36.6966 5.48841 36.7988 5.48841ZM9.12043 11.2797C9.27363 11.4119 9.47789 12.3374 9.60556 13.3159C9.7077 14.3207 9.80983 15.167 9.86089 15.1934C9.88643 15.2463 10.8822 14.8496 12.0823 14.3736C13.7675 13.6861 14.3293 13.5274 14.5846 13.7654C14.8655 14.0299 14.7889 14.1885 14.2782 14.691C13.9207 15.0083 13.359 15.3256 13.0271 15.3785C12.7207 15.4314 11.878 15.7223 9.91196 16.5421L9.98856 17.9436C10.0141 18.7369 10.1162 19.6625 10.1928 20.0327C10.2694 20.4029 10.1928 20.826 9.98856 21.0376C9.73323 21.302 9.60556 21.302 9.37576 21.0376C9.22256 20.8524 9.01829 19.9269 8.91615 18.9749C8.81402 18.0229 8.71189 17.2296 8.68635 17.1767C8.66082 17.1238 8.20122 17.2825 6.72027 17.9171L7.56288 20.7731C8.04801 22.3333 8.50762 23.8406 8.60975 24.1315C8.71189 24.4488 8.66082 24.7926 8.45655 25.0042C8.20121 25.2686 8.07355 25.2686 7.84374 25.0042C7.66501 24.8191 7.15434 23.4175 6.69473 21.8838C5.9032 19.2129 5.85213 19.1336 5.67339 20.0327C5.54573 20.5351 5.39252 21.0111 5.34146 21.0904C5.29039 21.1698 5.31593 21.6458 5.44359 22.1482C5.57126 22.7035 5.57126 23.206 5.41806 23.4175C5.29039 23.5762 5.08612 23.682 4.93292 23.6026C4.77972 23.5233 4.72865 23.7613 4.83079 24.2108C4.93292 24.6075 5.13719 25.1628 5.26486 25.4537C5.41806 25.7446 5.54573 26.1942 5.54573 26.4321C5.57126 26.6966 6.2862 27.8601 7.15434 29.0237C8.63529 30.9541 8.81402 31.1128 9.19703 30.769C9.45236 30.5574 9.78429 30.4517 9.93749 30.5574C10.0907 30.6632 10.678 31.4301 11.2652 32.2763C11.8525 33.0961 12.4398 33.7307 12.593 33.6514C12.7462 33.5721 13.0271 33.7307 13.2313 33.9952C13.4356 34.2332 13.9463 34.9472 14.3803 35.5818C14.7889 36.19 15.2485 36.6925 15.4017 36.6925C15.5549 36.6925 15.657 36.5867 15.657 36.428C15.657 36.2694 15.5549 36.1107 15.4017 36.0314C15.2485 35.952 15.274 35.7405 15.4527 35.5025C15.7336 35.1323 16.5507 35.5025 21.7851 38.3056C25.0789 40.0773 27.9386 41.6375 28.1174 41.8226C28.3216 42.0077 28.3472 42.2193 28.1684 42.4573C27.9897 42.6688 27.7344 42.6953 27.3258 42.5366C27.0194 42.4044 25.4108 41.6375 23.7511 40.8177C22.117 39.998 20.7127 39.3369 20.6361 39.3369C20.5595 39.3369 20.5595 39.4162 20.6105 39.5484C20.6871 39.6542 20.6616 39.8922 20.5595 40.0773C20.4062 40.3682 20.1764 40.3418 19.2317 39.9451C18.5934 39.6542 17.7252 39.3369 17.3167 39.2311C16.7039 39.046 16.5762 39.0989 16.7294 39.3633C16.806 39.5749 16.806 39.9186 16.6783 40.1302C16.4996 40.474 16.3209 40.4475 15.2995 39.9451C14.6612 39.6013 14.125 39.1782 14.125 39.0195C14.1505 38.8344 13.8952 38.4378 13.5888 38.1469C13.2824 37.856 12.9249 37.618 12.7462 37.5916C12.593 37.5916 12.1589 37.2742 11.7504 36.9305C11.3674 36.5867 11.061 36.2165 11.061 36.1107C11.061 35.9785 10.7801 35.6611 10.4226 35.3703C10.0652 35.0794 9.7843 34.6827 9.7843 34.524C9.7843 34.3389 9.32469 33.6514 8.76295 32.9903C8.20122 32.3292 7.74161 31.959 7.74161 32.1441C7.74161 32.3027 7.97141 32.8316 8.25228 33.2547C8.53315 33.6778 8.71189 34.2332 8.63529 34.4447C8.55869 34.6563 8.35442 34.8414 8.17569 34.8414C8.02248 34.8414 7.43521 34.3125 6.89901 33.6514C6.38834 32.9903 5.85213 32.4614 5.69893 32.4614C5.54573 32.4614 5.49466 32.6201 5.57126 32.8052C5.64786 32.9638 5.5968 33.3076 5.46913 33.5192C5.34146 33.7307 5.11166 33.8365 4.95846 33.7307C4.80526 33.5985 4.54992 33.2018 4.39672 32.8052C4.24352 32.3821 4.06478 31.5888 4.01372 31.007C3.93712 30.3194 3.60518 29.5261 3.01791 28.7592C2.4051 27.9395 2.20083 27.4899 2.37957 27.3048C2.53277 27.1461 2.6349 26.7495 2.6349 26.3793C2.66044 26.009 2.81364 25.4802 3.01791 25.1893C3.19664 24.8984 3.27325 24.4488 3.19665 24.2108C3.01791 23.7613 2.99238 23.7613 2.55831 24.2108C2.14977 24.634 2.0987 24.6075 1.69016 23.6026C1.40929 22.9151 1.20503 21.3284 1.10289 18.9749C1.00076 17.018 0.822025 15.3785 0.694357 15.3256C0.56669 15.2992 0.464555 14.5323 0.490088 13.6068C0.490088 12.7077 0.566688 11.8086 0.668822 11.6499C0.822024 11.3855 0.924157 11.3855 1.23056 11.6499C1.46036 11.8086 1.6391 12.2846 1.61356 12.7077C1.61356 13.1043 1.7157 13.4745 1.8689 13.5539C2.0221 13.6332 2.07317 13.9505 2.0221 14.2943C1.97103 14.6116 1.99657 15.4843 2.0987 16.1983C2.1753 16.9387 2.3285 17.4676 2.4051 17.3883C2.50723 17.3089 2.7881 17.4412 3.04344 17.7056C3.50304 18.1287 3.52858 18.0758 3.09451 15.7223C2.78811 13.8712 2.73704 13.2101 2.96684 12.9721C3.14558 12.787 3.40091 12.7341 3.55411 12.8399C3.70731 12.9457 4.01372 13.977 4.19245 15.1141C4.39672 16.3041 4.67759 17.256 4.85632 17.3089C5.03506 17.3618 5.18826 17.1767 5.18826 16.9387C5.18826 16.6743 5.03506 15.9338 4.80525 15.2727C4.49885 14.3207 4.47332 14.0034 4.72865 13.739C5.00952 13.4481 5.18826 13.5539 5.75 14.3207C6.2096 14.9025 6.41387 15.4843 6.33727 15.8016C6.26067 16.0925 6.2862 16.3305 6.38834 16.3305C6.516 16.3305 6.92454 16.0925 7.35861 15.8016C7.76715 15.5372 8.22675 15.3785 8.35442 15.4843C8.50762 15.5901 8.50762 14.8761 8.37995 13.6332C8.22675 12.073 8.25228 11.5441 8.50762 11.3326C8.71189 11.1739 8.96722 11.1475 9.12043 11.2797ZM21.8872 40.9764C22.1681 41.0293 22.3979 41.1615 22.3723 41.3202C22.3468 41.4789 22.1425 41.6904 21.9127 41.8491C21.6319 42.0342 21.4531 42.0077 21.2744 41.7168C21.1467 41.5053 21.1212 41.2144 21.1978 41.1086C21.2744 40.9764 21.5808 40.9235 21.8872 40.9764Z" fill="#FFD966"/>
<path d="M24.1086 15.0612C23.0873 14.9554 22.1936 14.7703 22.1681 14.6381C22.117 14.4794 23.7511 14.453 26.2024 14.5587C29.3941 14.691 30.9261 14.8761 32.8921 15.405C34.2965 15.7752 36.4924 16.5949 37.7435 17.256C38.9947 17.8907 40.7054 19.0278 41.5225 19.7682C42.314 20.4822 42.9268 21.1433 42.8502 21.2227C42.7736 21.302 42.3396 21.064 41.9055 20.7202C41.4459 20.35 40.3224 19.7153 39.4032 19.2922C38.484 18.8691 36.4924 18.1023 34.9348 17.5734C33.3773 17.0709 30.7473 16.3305 29.0621 15.9338C27.3769 15.5372 25.1555 15.1405 24.1086 15.0612Z" fill="#F1C232"/>
<path d="M48.2123 20.0327C47.9825 19.8211 47.8037 19.2658 47.8037 18.8427C47.8293 18.0758 47.8293 18.0758 48.2123 18.5782C48.4165 18.8691 48.5953 19.398 48.5953 19.7682C48.6208 20.35 48.5697 20.3764 48.2123 20.0327Z" fill="#F1C232"/>
<path d="M44.7908 26.7759C44.944 26.1942 44.995 25.2422 44.9184 24.6604L44.7652 23.6026L45.2759 24.6604C45.5568 25.2422 45.7866 26.1677 45.7866 26.6966C45.7866 27.2519 45.6844 27.9395 45.5312 28.2303C45.378 28.5212 44.8163 29.0501 44.2546 29.4203C43.6928 29.7906 43.1311 30.0814 42.9779 30.0814C42.8247 30.0814 43.1311 29.579 43.6162 28.9443C44.1269 28.3361 44.6376 27.3577 44.7908 26.7759Z" fill="#F1C232"/>
<path d="M40.0926 11.4648C39.7607 11.1475 39.7351 10.9359 39.9394 10.645C40.1692 10.3277 40.2969 10.3277 40.8841 10.6186C41.2672 10.8037 41.7778 11.1739 42.0076 11.4119C42.3396 11.7292 42.3906 11.9408 42.2119 12.2317C41.9821 12.5754 41.8544 12.5754 41.2416 12.2581C40.8586 12.073 40.3479 11.7028 40.0926 11.4648Z" fill="#FFD966"/>
<path d="M40.0415 40.1302C40.1181 40.1302 41.0373 39.4691 42.1098 38.6758C43.5652 37.618 44.178 37.3007 44.4078 37.4858C44.612 37.6445 44.7142 37.9089 44.612 38.094C44.5354 38.2527 42.9779 39.522 37.7435 43.3299L37.1818 42.5895C36.7477 42.0077 36.6966 41.7697 36.9265 41.5053C37.1818 41.2409 37.2839 41.2409 37.5648 41.5053C37.8201 41.7962 38.0499 41.7169 38.7649 41.188C39.6075 40.5533 39.633 40.5269 39.0713 40.3418C38.7649 40.2624 37.718 40.1831 36.7222 40.1566C35.6498 40.1566 34.8072 39.998 34.6284 39.8129C34.4242 39.6013 34.3986 39.3633 34.5518 39.2047C34.6795 39.046 35.7519 38.9931 37.1563 39.046C38.4585 39.0989 39.6841 39.2311 39.8373 39.3633C40.016 39.4955 40.1181 39.7071 40.0415 39.8658C39.9649 40.0244 39.9649 40.1302 40.0415 40.1302Z" fill="#FFD966"/>
<path fill-rule="evenodd" clip-rule="evenodd" d="M107.266 3.01936C108.67 2.99291 109.998 3.17802 111.351 3.54824C112.424 3.86557 114.237 4.50023 115.36 4.97622C116.484 5.45222 118.118 6.19265 119.011 6.66865C119.88 7.1182 120.543 7.56775 120.467 7.69997C120.39 7.80574 119.445 7.62063 118.348 7.3033C117.275 6.98598 114.492 6.29843 112.168 5.79599C109.845 5.26711 107.164 4.73822 106.168 4.57956C105.198 4.44734 103.742 4.31512 103.002 4.31512C102.108 4.31512 101.674 4.23579 101.853 4.05068C101.981 3.91846 102.772 3.62757 103.615 3.41602C104.457 3.20447 106.091 3.01936 107.266 3.01936ZM118.245 4.47378C118.628 4.55312 119.803 5.02911 120.85 5.5051C121.897 5.9811 123.48 6.69509 124.348 7.11819C125.216 7.5413 125.931 7.93796 125.957 8.01729C125.957 8.09663 125.344 8.09663 124.603 8.04374C123.888 7.99085 123.148 7.80574 123.02 7.64708C122.867 7.48841 121.565 6.72153 120.135 5.9811C118.705 5.21422 117.53 4.52667 117.53 4.44734C117.53 4.36801 117.862 4.36801 118.245 4.47378ZM102.695 5.63732C105.121 5.63732 106.704 5.79599 109.104 6.32487C110.866 6.69509 114.186 7.46197 116.509 8.04374C118.833 8.62551 121.59 9.47172 122.637 9.92127C123.684 10.3708 124.782 10.8997 125.063 11.1113C125.344 11.2964 125.778 11.455 126.033 11.455C126.263 11.455 127.003 12.169 127.693 13.0681C128.357 13.9672 129.276 15.0514 129.736 15.5274C130.195 15.977 130.553 16.5323 130.527 16.7439C130.476 16.9554 130.527 17.3785 130.629 17.6694C130.731 17.9603 130.706 18.5421 130.425 19.732L129.531 18.5156C129.046 17.8545 128.484 17.2198 128.331 17.1405C128.152 17.0612 127.872 17.167 127.744 17.3521C127.565 17.5901 127.923 18.2512 129.021 19.7849C129.889 20.9485 130.553 22.0327 130.553 22.1649C130.527 22.3236 130.731 22.6144 130.987 22.826C131.242 23.0111 131.702 23.1962 132.008 23.2227C132.417 23.2227 132.57 23.4342 132.697 24.1482C132.774 24.6506 132.927 25.444 133.004 25.8671C133.106 26.5017 132.953 26.9248 131.191 29.3841L130.987 28.1413C130.885 27.4802 130.425 26.2108 129.965 25.3382C129.506 24.4655 128.459 23.0375 127.616 22.1384C126.774 21.2393 125.344 20.0229 124.425 19.4147C123.505 18.8065 121.897 17.9338 120.85 17.4843C119.803 17.0612 118.067 16.453 117.02 16.1356C115.462 15.7125 114.083 15.6068 109.743 15.501C105.581 15.4216 104.304 15.4745 104.049 15.739C103.793 16.0034 103.793 16.1621 104.049 16.4265C104.228 16.6116 104.33 16.7703 104.253 16.7439C104.176 16.7439 102.798 16.8232 101.189 16.9025C99.5804 16.9818 98.1761 17.0876 98.0739 17.167C97.9463 17.2198 97.8697 17.2198 97.8697 17.1405C97.8697 17.0612 98.0995 16.7967 98.4059 16.5587C98.8399 16.1621 98.891 16.0299 98.6101 15.7654C98.3293 15.5274 97.7675 15.6596 96.0823 16.3736C94.8822 16.8496 93.8864 17.2463 93.8609 17.1934C93.8354 17.167 93.7332 16.3736 93.6311 15.4216C93.529 14.4697 93.3247 13.5441 93.1715 13.359C92.9928 13.1475 92.7885 13.121 92.6353 13.2797C92.4821 13.4383 92.431 14.4168 92.4821 15.6068C92.5587 16.8496 92.5076 17.5901 92.3544 17.4843C92.2267 17.3785 91.7927 17.5372 91.3586 17.8016C90.9501 18.0925 90.516 18.3305 90.4139 18.3305C90.2862 18.3305 90.2607 18.0925 90.3373 17.8016C90.4139 17.4843 90.2096 16.9025 89.7755 16.3207C89.1883 15.5539 89.0095 15.4481 88.7287 15.739C88.4733 16.0034 88.4989 16.3207 88.8053 17.2727C89.0351 17.9338 89.1883 18.6743 89.1883 18.9387C89.1883 19.1767 89.0351 19.3618 88.8819 19.3089C88.7031 19.256 88.3967 18.3834 88.218 17.3785C88.0137 16.2943 87.9371 14.8663 88.0392 13.835C88.1158 12.883 88.3201 11.9575 88.4478 11.7988C88.5755 11.6137 88.8563 11.5079 89.0606 11.5872C89.2904 11.6666 89.4947 11.5079 89.6223 11.1377C89.6989 10.7939 89.8011 10.2915 89.8266 10.0006C89.8521 9.5775 90.0564 9.47172 90.7458 9.47172C91.4097 9.47172 91.665 9.3395 91.8693 8.86351C92.0225 8.51973 92.3544 8.2024 92.6353 8.14952C92.9162 8.07018 93.3758 7.7793 93.6566 7.48841C93.9886 7.14464 94.2694 7.03886 94.4226 7.22397C94.5758 7.35619 95.4695 7.3033 96.8228 7.01242C98.2782 6.72153 99.0697 6.4042 99.2485 6.11332C99.4783 5.69021 99.9379 5.63732 102.695 5.63732ZM128.178 9.70972C129.301 9.73616 129.684 9.89483 130.604 10.6881C131.216 11.1906 132.161 12.169 132.723 12.8566C133.285 13.5441 133.693 14.1523 133.617 14.2317C133.54 14.2845 132.212 13.4119 130.655 12.3012C129.097 11.1906 127.591 10.1328 127.335 9.97416C126.927 9.70972 127.08 9.65683 128.178 9.70972ZM132.034 15.9505C132.212 15.9505 133.08 16.691 133.949 17.6165C134.842 18.5156 135.889 19.8114 136.936 21.7682L136.298 22.5087C135.94 22.9053 135.659 23.302 135.659 23.4342C135.659 23.54 135.557 23.6193 135.404 23.6193C135.276 23.6193 134.919 23.1169 134.638 22.5087C134.357 21.874 134.153 20.9485 134.153 20.446C134.153 19.9436 134 19.3618 133.821 19.1767C133.642 19.018 133.31 18.9123 133.106 19.018C132.902 19.0974 132.646 18.9652 132.544 18.7536C132.417 18.4892 132.442 18.3834 132.595 18.4627C132.748 18.5421 132.978 18.4098 133.106 18.1983C133.31 17.9074 133.157 17.5636 132.544 16.8761C132.085 16.3736 131.855 15.9505 132.034 15.9505ZM86.9413 17.0083C87.0434 17.0083 87.2222 17.7223 87.3243 18.5685C87.5286 20.0758 87.503 20.1287 87.0434 19.7056C86.7881 19.4676 86.5072 19.3089 86.4051 19.3883C86.3285 19.4676 86.2264 19.0445 86.1753 18.4627C86.1242 17.8016 86.2264 17.3256 86.4306 17.2198C86.6094 17.1141 86.8392 17.0083 86.9413 17.0083ZM96.8483 17.2992C96.9249 17.2992 96.7207 17.5107 96.3887 17.7487C96.0057 18.0396 95.8014 18.4627 95.827 18.9387C95.827 19.3354 95.878 19.6527 95.9546 19.6527C96.0312 19.6527 96.3376 19.4147 96.6696 19.1238C96.976 18.8329 97.7675 18.4627 98.4569 18.3305C99.1208 18.1718 101.419 18.0661 103.564 18.0925C105.683 18.0925 107.675 18.1983 107.955 18.3305C108.441 18.5156 108.415 18.5421 107.828 18.7007C107.47 18.78 106.091 19.0974 104.764 19.3883C103.436 19.6791 101.215 20.2874 99.8613 20.7105C97.5377 21.4509 97.3845 21.5302 97.6909 22.0062C97.8441 22.2707 98.9165 23.6458 100.04 25.0737C102.006 27.5859 102.159 27.6917 104.508 28.8288C105.836 29.4899 108.441 30.5741 110.253 31.2881C112.066 31.9757 114.058 32.7161 114.671 32.9276C115.258 33.1128 115.743 33.3243 115.743 33.4036C115.743 33.483 115.079 33.4036 114.262 33.245C113.471 33.0599 111.377 32.6103 109.615 32.2137C107.853 31.817 105.351 31.1559 104.074 30.7328C102.389 30.2039 101.419 29.7015 100.755 29.0668C100.219 28.5644 99.0442 26.9248 98.125 25.3911C96.593 22.8524 96.4398 22.6673 96.1844 23.1962C95.9546 23.6458 96.0057 23.9631 96.5419 24.9415C96.8994 25.6026 97.6654 26.8984 98.2782 27.8504C98.8655 28.8024 99.7847 29.8866 100.321 30.3097C100.883 30.7063 102.287 31.3674 103.487 31.7906C104.687 32.2137 108.389 33.1656 111.734 33.9061C115.054 34.6465 118.424 35.2547 119.19 35.2547C119.956 35.2547 121.488 35.0696 122.586 34.8316C123.659 34.5936 125.42 34.0647 126.467 33.6416C127.514 33.245 128.867 32.4781 129.48 31.9492C130.067 31.4468 130.629 31.0766 130.757 31.1294C130.859 31.2088 131.063 31.1823 131.191 31.0766C131.344 30.9708 131.855 30.3626 132.34 29.7279C133.183 28.6437 133.259 28.6173 133.438 29.1461C133.54 29.437 133.693 30.865 133.795 32.293C133.949 34.5672 133.897 34.911 133.489 35.2547C133.234 35.4663 132.391 36.2861 131.599 37.0529C130.246 38.3751 130.195 38.4809 130.604 38.904C130.987 39.3007 130.987 39.4329 130.68 40.094C130.348 40.7287 130.348 40.8344 130.68 41.0724C130.961 41.2575 131.165 41.2311 131.446 40.9402C131.651 40.7287 131.829 40.4378 131.829 40.2791C131.829 40.1469 131.957 40.0147 132.085 40.0147C132.263 40.0147 132.263 40.1733 132.085 40.4907C131.931 40.7816 131.957 41.046 132.161 41.2311C132.391 41.4691 132.212 41.7335 131.319 42.3418C130.68 42.7913 129.582 43.426 128.867 43.7697C128.152 44.0871 127.386 44.5631 127.131 44.7746C126.901 44.9862 126.697 45.0919 126.723 44.9862C126.723 44.8539 126.237 44.9597 125.65 45.1713C125.037 45.4093 124.399 45.515 124.246 45.4357C124.067 45.3564 123.914 45.4622 123.914 45.6473C123.914 45.8588 123.71 45.9117 123.224 45.7795C122.816 45.6737 122.407 45.7002 122.254 45.8588C122.075 46.0439 121.029 46.0175 118.807 45.7002C117.045 45.4622 114.849 45.0919 113.905 44.8804C112.934 44.6688 112.22 44.4044 112.296 44.2457C112.373 44.1135 112.271 43.8755 112.117 43.7433C111.939 43.6111 109.079 42.0773 105.785 40.3056C100.551 37.5025 99.7336 37.1323 99.4783 37.5025C99.274 37.7405 99.2485 37.952 99.4017 38.0314C99.5549 38.1107 99.657 38.2958 99.657 38.428C99.657 38.5867 99.5549 38.6925 99.4017 38.6925C99.274 38.6925 98.7889 38.19 98.3803 37.5818C97.9463 36.9472 97.4356 36.2332 97.2313 35.9952C97.0271 35.7307 96.7462 35.5721 96.593 35.6514C96.4653 35.7307 95.8525 35.0961 95.2652 34.2763C94.678 33.4301 94.0907 32.6632 93.9375 32.5574C93.7843 32.4517 93.4524 32.5574 93.2226 32.769C92.814 33.1128 92.6353 32.9541 91.1799 31.0237C90.2862 29.8601 89.5713 28.6966 89.5457 28.4321C89.5457 28.1942 89.4181 27.7446 89.2649 27.4537C89.1372 27.1628 88.9329 26.6075 88.8308 26.2108C88.7287 25.7613 88.7797 25.5233 88.9329 25.6026C89.0861 25.682 89.2904 25.5762 89.4181 25.4175C89.5713 25.206 89.5713 24.7035 89.4436 24.1482C89.3159 23.6458 89.2904 23.1698 89.3415 23.0904C89.3925 23.0111 89.5457 22.5351 89.6734 22.0327C89.8521 21.1336 89.9032 21.2129 90.6947 23.8838C91.1543 25.4175 91.665 26.8191 91.8437 27.0042C92.0735 27.2686 92.2012 27.2686 92.4565 27.0042C92.6608 26.7926 92.7119 26.4488 92.6098 26.1315C92.5076 25.8406 92.048 24.3333 90.7203 19.9171L91.6905 19.5205C92.2012 19.2825 92.6608 19.1238 92.6864 19.1767C92.7119 19.2296 92.814 20.0229 92.9162 20.9749C93.0183 21.9269 93.2226 22.8524 93.3758 23.0376C93.6056 23.302 93.7332 23.302 93.9886 23.0376C94.1928 22.826 94.2694 22.4029 94.1928 22.0327C94.1162 21.6625 94.0141 20.7369 93.912 18.5421L95.3163 17.9338C96.0823 17.5901 96.7717 17.3256 96.8483 17.2992ZM120.671 21.3716C120.978 21.4773 122.152 22.0062 123.276 22.588C124.731 23.302 125.676 23.9895 126.569 24.9944C127.795 26.3431 127.821 26.4488 127.718 27.771C127.667 28.5115 127.54 29.2255 127.437 29.3577C127.31 29.4635 127.182 29.5164 127.131 29.437C127.054 29.3577 127.131 28.7759 127.514 26.9248L126.161 25.6291C125.42 24.9151 123.735 23.6722 122.433 22.8524C121.131 22.0327 120.084 21.3451 120.084 21.2922C120.109 21.2394 120.39 21.2922 120.671 21.3716ZM137.472 23.2755C137.574 23.3813 137.855 24.254 138.085 25.206C138.34 26.158 138.621 28.485 138.698 30.3626C138.825 32.8219 138.8 33.8796 138.596 34.0647C138.417 34.2234 137.957 34.9374 137.574 35.6514C137.166 36.3918 136.144 37.714 135.302 38.6396C134.434 39.5387 133.719 40.2527 133.668 40.2262C133.642 40.1733 134.561 38.2958 135.761 36.0481C137.472 32.8219 137.881 31.8699 137.625 31.6054C137.37 31.341 137.242 31.341 136.962 31.6054C136.783 31.7906 136.374 32.4252 136.068 33.007C135.583 33.9854 135.532 34.0119 135.455 33.4036C135.429 33.0334 135.608 31.4997 135.889 29.9659C136.196 28.2206 136.298 27.0571 136.144 26.8719C136.017 26.6868 135.812 26.5811 135.659 26.6604C135.532 26.7397 135.353 26.6075 135.276 26.396C135.2 26.1844 135.634 25.3382 136.221 24.5449C136.808 23.7251 137.37 23.1698 137.472 23.2755ZM87.1711 26.1315C87.2477 26.4224 87.2477 26.8719 87.12 27.1364C86.9924 27.3744 86.7115 27.5859 86.5072 27.5859C86.303 27.5859 86.0732 27.3479 85.9966 27.0571C85.92 26.7662 85.9966 26.5282 86.1242 26.5282C86.2774 26.5282 86.303 26.3695 86.2008 26.2108C86.0647 25.9817 86.1072 25.9376 86.3285 26.0786C86.4817 26.1844 86.7115 26.1051 86.8136 25.9464C86.9413 25.7084 87.0434 25.7613 87.1711 26.1315ZM104.687 41.3369C104.738 41.3369 105.734 41.8129 106.934 42.3946C108.134 42.9764 109.104 43.4789 109.104 43.5317C109.104 43.5582 108.313 43.3995 107.368 43.1615C106.423 42.9235 105.402 42.6591 105.096 42.5533C104.713 42.4475 104.534 42.2095 104.559 41.8658C104.585 41.5749 104.636 41.3369 104.687 41.3369ZM108.287 44.8011C108.441 44.7746 109.768 45.0655 111.224 45.4357C112.654 45.8059 113.956 46.229 114.083 46.3613C114.254 46.5376 114.152 46.6257 113.777 46.6257C113.445 46.6257 112.577 46.4935 111.862 46.3348C111.122 46.1497 109.947 45.753 109.232 45.4093C108.543 45.0919 108.109 44.8011 108.287 44.8011Z" fill="#F1C232"/>
<path d="M90.7713 9.44528C90.3883 9.31306 90.4139 9.26017 90.9756 8.94284C91.3331 8.73129 91.6905 8.57262 91.8182 8.54618C91.9203 8.54618 91.9969 8.62551 91.9969 8.75773C92.0225 8.86351 91.8437 9.1015 91.6139 9.28661C91.4097 9.44528 91.0267 9.52461 90.7713 9.44528Z" fill="white"/>
<path d="M87.2477 13.4383C87.8094 12.2748 88.5499 11.0055 88.8819 10.6088C89.2138 10.1857 89.5968 9.86838 89.7245 9.86838C89.8521 9.86838 89.9543 9.89483 89.9543 9.94772C89.9543 9.97416 89.8266 10.3973 89.6479 10.8733C89.4436 11.4021 89.1883 11.693 88.984 11.6137C88.8308 11.5344 88.5755 11.6137 88.4478 11.7988C88.3201 11.9575 88.1414 12.7508 88.0648 13.5177C87.9371 14.5754 87.835 14.8663 87.5286 14.7605C87.3243 14.6812 87.069 14.787 86.9668 14.9721C86.8647 15.1308 86.7626 15.7125 86.7626 16.215C86.7626 16.8761 86.6349 17.1405 86.303 17.1934C85.9455 17.2727 85.8944 17.1405 86.0221 16.4265C86.0987 15.9505 86.6604 14.6019 87.2477 13.4383Z" fill="white"/>
<path d="M92.2523 35.2547C91.9714 34.8316 91.7416 34.3027 91.7416 34.1441C91.7416 33.959 92.2012 34.3292 92.763 34.9903C93.3247 35.6514 93.7843 36.3389 93.7843 36.524C93.7843 36.6827 94.0652 37.0794 94.4226 37.3703C94.7801 37.6611 95.061 38.0049 95.061 38.1636C95.061 38.3222 94.4737 38.0578 93.7843 37.6347C92.9332 37.1058 92.5502 36.7092 92.6353 36.4447C92.7119 36.2332 92.5332 35.6778 92.2523 35.2547Z" fill="white"/>
<path d="M134.689 39.3007C135.787 38.1636 137.115 36.4712 137.625 35.5192L138.596 33.8268L138.672 34.8581C138.723 35.4398 138.596 36.2596 138.417 36.6827C138.238 37.1058 137.293 38.2165 136.298 39.1685C135.302 40.094 133.131 41.8129 131.446 42.95C129.761 44.1135 128.127 45.0655 127.821 45.0391C127.489 45.0391 127.233 44.9333 127.233 44.7746C127.233 44.6159 127.846 44.2457 128.587 43.902C129.301 43.5582 130.553 42.8442 131.319 42.3153C132.085 41.7864 133.617 40.4378 134.689 39.3007Z" fill="white"/>
<path d="M99.274 3.62758C100.244 3.25736 101.878 2.72848 102.849 2.46403C104.279 2.04093 105.249 1.9616 107.828 2.01448C110.79 2.09382 111.249 2.19959 114.083 3.20447C115.769 3.78624 118.475 5.00267 120.084 5.90177C121.692 6.80087 123.071 7.59419 123.148 7.67352C123.224 7.75286 122.637 7.72641 121.871 7.62064C121.105 7.5413 119.777 7.09176 118.935 6.64221C118.092 6.19266 116.484 5.45222 115.36 4.97622C114.237 4.50023 112.424 3.86557 111.326 3.54824C110.126 3.20447 108.619 2.99292 107.445 2.99292C106.398 2.99292 104.713 3.17803 103.691 3.41602C102.67 3.62758 101.802 3.9449 101.776 4.07713C101.725 4.20935 102.261 4.31512 102.976 4.31512C103.666 4.31512 105.147 4.44734 106.219 4.60601C107.317 4.76467 110.279 5.37289 112.807 5.92821C115.335 6.50998 118.041 7.17109 118.807 7.38264C119.573 7.62064 120.339 8.0173 120.492 8.2553C120.671 8.49329 121.361 8.75773 122.152 8.88996C122.918 8.99573 123.914 9.1544 124.348 9.20728C124.808 9.28662 125.139 9.44528 125.063 9.60395C124.986 9.76261 125.216 10.2386 125.574 10.6617C125.957 11.1113 126.084 11.455 125.88 11.455C125.727 11.455 125.344 11.2964 125.063 11.1113C124.782 10.8997 123.684 10.3708 122.637 9.92127C121.59 9.47172 118.833 8.62551 116.509 8.04374C114.186 7.46197 110.866 6.69509 109.104 6.32487C106.73 5.82243 105.121 5.63733 102.772 5.63733C100.04 5.63733 99.6059 5.69022 99.2229 6.13977C98.9165 6.4571 98.0229 6.80087 96.7207 7.06531C95.3929 7.32975 94.5758 7.38264 94.4226 7.19753C94.2439 7.03887 94.0396 7.09175 93.7843 7.38264C93.58 7.59419 92.6098 8.17596 91.6395 8.62551C90.6692 9.10151 89.5202 9.89483 89.0861 10.3973C88.6521 10.8997 87.8094 12.3012 87.1966 13.4912C86.6094 14.7077 86.0221 15.6332 85.8689 15.5539C85.7157 15.4745 85.6136 15.1308 85.6136 14.7605C85.6136 14.3903 85.92 13.4648 86.2774 12.7244C86.6349 11.9575 87.2477 10.8997 87.6307 10.3973C88.0137 9.89483 88.5499 9.04862 88.8563 8.54618C89.1627 8.0173 89.9287 7.30331 90.6437 6.90665C91.3075 6.53643 92.7885 5.95466 93.912 5.66377C95.0354 5.34644 96.1334 5.10845 96.3376 5.10845C96.5419 5.13489 96.8994 4.94978 97.1037 4.71178C97.3079 4.47379 98.3037 3.99779 99.274 3.62758Z" fill="#BF9000"/>
<path d="M128.689 12.407C127.463 11.0055 126.467 9.8155 126.467 9.73617C126.467 9.65683 126.518 9.60395 126.595 9.60395C126.671 9.60395 127.667 10.2386 128.816 11.0319C129.991 11.8253 131.574 12.9095 132.34 13.4912C133.131 14.0466 134.127 14.8134 134.587 15.2101C135.072 15.6596 135.429 16.2414 135.455 16.691C135.506 17.0876 135.889 17.9074 136.349 18.4627C136.783 19.0445 137.498 20.2874 137.932 21.2394C138.366 22.1913 138.877 23.6722 139.081 24.5449C139.311 25.4175 139.591 26.9513 139.745 27.9826C139.872 29.0139 140 31.0766 140 32.6103C140 34.1441 139.872 35.8101 139.745 36.3125C139.591 36.8149 139.157 37.6876 138.774 38.2694C138.391 38.8247 137.217 40.0147 136.17 40.8873C135.123 41.76 133.08 43.2937 131.625 44.2986C129.378 45.8588 128.867 46.0968 127.872 46.0968C127.233 46.0968 126.059 46.2819 125.242 46.5199C124.45 46.7579 122.867 46.9695 121.744 46.9959C120.62 47.0224 118.501 46.9166 117.02 46.7844C115.539 46.6521 114.237 46.467 114.083 46.3348C113.93 46.2026 112.654 45.8059 111.198 45.4357C109.768 45.0655 108.415 44.7746 108.211 44.7746C108.006 44.7746 107.419 44.5895 106.934 44.378C106.27 44.0871 106.117 43.902 106.296 43.6375C106.423 43.4789 106.474 43.2144 106.347 43.0822C106.245 42.95 106.398 42.9235 106.679 43.0029C106.96 43.0822 107.751 43.2937 108.466 43.4789C109.155 43.664 110.1 43.9549 110.509 44.1928C110.917 44.4044 111.683 44.5895 112.168 44.6424C112.654 44.6688 114.441 44.9597 116.126 45.3035C117.811 45.6208 120.109 45.8853 121.233 45.9117C122.535 45.9117 123.837 45.753 124.808 45.4357C125.65 45.1713 126.876 44.9597 127.514 44.9333C128.51 44.9068 129.072 44.616 131.599 42.8706C133.208 41.76 135.302 40.094 136.272 39.1685C137.242 38.2429 138.187 37.1323 138.417 36.7092C138.698 36.1009 138.774 35.0432 138.749 32.2137C138.749 30.1775 138.621 27.8504 138.468 27.0571C138.315 26.2637 138.034 24.968 137.83 24.2011C137.625 23.4607 137.498 22.7202 137.574 22.5616C137.651 22.4029 137.625 22.2442 137.498 22.1913C137.396 22.1385 136.732 21.2394 136.042 20.1551C135.251 18.9652 134.025 17.5901 132.851 16.5852C131.804 15.6861 129.94 13.8086 128.689 12.407Z" fill="#BF9000"/>
<path d="M104.074 16.4265C103.819 16.1621 103.819 16.0034 104.074 15.739C104.304 15.4481 105.479 15.3952 109.743 15.501C114.058 15.5803 115.488 15.7125 117.02 16.1356C118.067 16.453 119.803 17.0612 120.85 17.4843C121.897 17.9338 123.505 18.8065 124.425 19.4147C125.344 20.0229 126.774 21.2393 127.616 22.1384C128.459 23.0375 129.506 24.4655 129.965 25.3382C130.399 26.2108 130.859 27.4008 130.961 27.9826C131.089 28.8288 131.012 29.3048 130.527 30.3361C130.195 31.0501 129.557 31.9228 129.148 32.2665C128.74 32.5839 127.514 33.2185 126.467 33.6416C125.42 34.0647 123.659 34.5936 122.586 34.8316C121.488 35.0696 119.956 35.2547 119.19 35.2547C118.424 35.2547 115.054 34.6465 111.734 33.9061C108.389 33.1656 104.687 32.2137 103.487 31.7906C102.287 31.3674 100.883 30.7063 100.321 30.3097C99.7847 29.8866 98.8655 28.8024 98.2782 27.8504C97.6654 26.8984 96.8994 25.6026 96.5419 24.9415C96.0057 23.9631 95.9546 23.6458 96.1844 23.1962C96.4398 22.6673 96.593 22.826 97.9973 25.1795C98.8144 26.5811 99.9123 28.1677 100.423 28.723C100.959 29.3577 101.853 29.9395 102.721 30.2568C103.487 30.5741 105.172 31.0766 106.423 31.4468C107.675 31.7906 110.151 32.3723 111.913 32.7425C113.675 33.1128 115.615 33.5094 116.254 33.6152C116.892 33.721 118.501 33.8003 119.829 33.8003C121.156 33.8003 122.561 33.721 122.969 33.5888C123.352 33.483 123.71 33.1921 123.786 32.9276C123.863 32.6897 124.501 32.055 125.216 31.5526C125.905 31.0501 126.493 30.5477 126.467 30.4155C126.467 30.3097 126.723 29.9659 127.029 29.6221C127.412 29.2255 127.642 28.6173 127.718 27.7182C127.82 26.4488 127.795 26.3431 126.569 24.9944C125.701 24.016 124.705 23.2756 123.276 22.5616C122.152 21.9798 120.875 21.4774 120.467 21.398C120.058 21.3451 119.19 21.0542 118.552 20.7634C117.913 20.4989 116.484 20.0229 115.36 19.7056C114.237 19.4147 112.398 18.9916 111.275 18.7801C110.151 18.5685 109.002 18.3569 108.721 18.3305C108.441 18.3041 106.321 18.2512 103.998 18.1718C101.546 18.0925 99.2485 18.1454 98.508 18.3041C97.8186 18.4627 96.976 18.8329 96.6696 19.1238C96.3376 19.4147 96.0312 19.6527 95.9546 19.6527C95.878 19.6527 95.827 19.2825 95.827 18.8594C95.827 18.2247 96.0057 17.9867 96.6696 17.643C97.1037 17.405 98.5335 17.1141 99.7847 16.9554C101.036 16.8232 102.491 16.7439 102.976 16.7703C103.462 16.7703 103.972 16.7967 104.125 16.7703C104.279 16.7703 104.253 16.6116 104.074 16.4265Z" fill="#BF9000"/>
<path d="M84.0049 21.9005C83.9794 20.7369 84.056 19.2296 84.1582 18.5156V18.5421C84.2603 17.8281 84.4901 17.2727 84.6178 17.2727C84.771 17.2727 84.9242 17.6694 85.0008 18.119C85.0518 18.5949 85.1029 19.9965 85.1029 21.2394C85.1029 22.5616 85.2561 24.0424 85.4859 24.8093C85.7157 25.5233 85.9455 26.4224 86.0221 26.7926C86.0987 27.1628 86.2519 27.4802 86.4051 27.5066C86.5328 27.5595 86.6349 27.9033 86.6349 28.2999C86.6349 28.723 86.5328 29.1461 86.3796 29.3048C86.2008 29.4899 86.4051 29.9395 86.9924 30.7592C87.452 31.4203 87.9116 32.2665 88.0137 32.6632C88.0903 33.0863 88.0648 33.4565 87.9116 33.5359C87.7584 33.6152 87.2732 32.8748 86.7881 31.8699C86.303 30.8915 85.4859 28.723 84.9752 27.0571C84.2348 24.7035 84.0305 23.54 84.0049 21.9005Z" fill="#BF9000"/>
<path d="M91.3586 37.2645C89.9543 36.1538 89.5713 35.7043 89.5713 35.149C89.5457 34.7523 89.6479 34.435 89.75 34.435C89.8521 34.435 90.3883 34.9639 90.9245 35.625C91.4352 36.2861 92.048 36.8149 92.2523 36.8149C92.4566 36.8414 93.2736 37.238 94.0396 37.7405C94.8056 38.2165 95.7248 38.8776 96.0823 39.1685C96.4398 39.4594 96.7717 39.6709 96.8483 39.5916C96.9249 39.5387 97.2569 39.7767 97.6143 40.1205C97.9718 40.4907 98.1761 40.8609 98.0484 40.9667C97.9463 41.0989 96.7973 40.6229 95.495 39.9353C94.2184 39.2478 92.3289 38.0578 91.3586 37.2645Z" fill="#BF9000"/>
<path d="M102.823 42.95C101.036 42.3418 100.729 42.1566 100.755 41.6542C100.755 41.1518 100.857 41.0724 101.419 41.2311C101.776 41.3104 102.542 41.6013 103.104 41.8658C103.666 42.1302 104.381 42.3682 104.713 42.3682C105.019 42.3682 105.325 42.474 105.402 42.6326C105.479 42.7913 105.428 42.95 105.274 43.0293C105.121 43.1086 105.07 43.2673 105.147 43.426C105.223 43.5846 105.198 43.6904 105.096 43.6904C104.968 43.6904 103.947 43.3466 102.823 42.95Z" fill="#BF9000"/>
<path fill-rule="evenodd" clip-rule="evenodd" d="M120.799 7.48841C120.901 7.48841 121.616 7.59419 122.382 7.75285C123.148 7.88507 124.476 8.04374 125.318 8.12307C126.161 8.17596 127.259 8.30818 127.744 8.41396C128.229 8.51973 128.791 8.75773 128.97 8.91639C129.174 9.12795 129.199 9.31306 129.021 9.55105C128.842 9.76261 128.433 9.8155 127.616 9.68327C126.978 9.55105 126.467 9.55105 126.467 9.68327C126.467 9.78905 127.642 11.217 129.097 12.8301C130.527 14.4697 132.085 16.2679 132.544 16.8232C133.157 17.5636 133.31 17.9074 133.106 18.1983C132.953 18.4098 132.723 18.5421 132.595 18.4627C132.442 18.3834 132.417 18.4892 132.519 18.7536C132.646 18.9652 132.902 19.0974 133.106 19.018C133.31 18.9123 133.642 19.018 133.821 19.1767C134 19.3618 134.153 19.9436 134.153 20.446C134.153 20.9485 134.357 21.874 134.638 22.5087C134.919 23.1169 135.225 23.6193 135.327 23.6193C135.455 23.6193 135.761 23.2755 136.042 22.826C136.323 22.4029 136.706 21.9798 136.859 21.9005C137.038 21.8211 137.293 21.9269 137.447 22.112C137.625 22.3236 137.345 22.9318 136.425 24.2275C135.71 25.206 135.2 26.1844 135.276 26.396C135.353 26.6075 135.506 26.7397 135.659 26.6604C135.787 26.5811 136.017 26.6868 136.144 26.8719C136.298 27.0571 136.196 28.2206 135.889 29.9659C135.608 31.4997 135.429 33.0334 135.455 33.4036C135.532 34.0119 135.583 33.9854 136.068 33.007C136.374 32.4252 136.783 31.7906 136.962 31.6054C137.242 31.341 137.37 31.341 137.625 31.6054C137.881 31.8699 137.472 32.7954 135.787 35.9952C134.587 38.19 133.617 40.094 133.617 40.1998C133.617 40.332 133.387 40.6758 133.106 40.9931C132.723 41.4427 132.493 41.522 132.212 41.3369C131.931 41.1253 131.88 40.9402 132.085 40.5436C132.255 40.191 132.255 40.0147 132.085 40.0147C131.931 40.0147 131.829 40.1204 131.829 40.2791C131.829 40.4378 131.651 40.7287 131.446 40.9402C131.165 41.2311 130.961 41.2575 130.68 41.0724C130.348 40.8344 130.348 40.7287 130.68 40.0676C130.987 39.4329 130.987 39.3007 130.604 38.904C130.195 38.4809 130.246 38.3751 131.599 37.0529C132.391 36.2861 133.234 35.4663 133.489 35.2547C133.897 34.911 133.949 34.5672 133.795 32.2665C133.693 30.865 133.54 29.437 133.412 29.1461C133.259 28.6173 133.183 28.6437 132.34 29.7279C131.855 30.3626 131.344 30.9708 131.191 31.0766C131.063 31.1559 130.782 31.1823 130.604 31.1295C130.45 31.0766 130.297 30.9443 130.297 30.8386C130.297 30.7063 130.936 29.7279 131.702 28.6437C132.902 26.9777 133.106 26.5282 133.004 25.8671C132.927 25.444 132.774 24.6506 132.697 24.1482C132.57 23.4342 132.417 23.2227 132.008 23.2227C131.702 23.1962 131.242 23.0111 130.987 22.826C130.731 22.6144 130.527 22.3236 130.553 22.1649C130.553 22.0062 129.889 20.9485 129.021 19.7849C127.923 18.2512 127.565 17.5901 127.744 17.3521C127.872 17.167 128.152 17.0612 128.306 17.1405C128.484 17.2198 129.046 17.8545 130.425 19.732L130.604 18.9652C130.706 18.5421 130.731 17.9603 130.629 17.6694C130.527 17.3785 130.476 16.929 130.502 16.691C130.527 16.4265 130.246 15.9505 129.838 15.6068C129.455 15.2894 128.842 14.6019 128.484 14.0994C128.101 13.597 127.157 12.4335 126.365 11.5079C125.574 10.6088 124.986 9.76261 125.063 9.60395C125.139 9.44528 124.808 9.28662 124.348 9.20728C123.914 9.1544 122.918 8.99573 122.152 8.88996C121.412 8.78418 120.697 8.51973 120.569 8.36107C120.441 8.17596 120.39 7.91152 120.467 7.75285C120.569 7.59419 120.697 7.48841 120.799 7.48841ZM93.1204 13.2797C93.2736 13.4119 93.4779 14.3374 93.6056 15.3159C93.7077 16.3207 93.8098 17.167 93.8609 17.1934C93.8864 17.2463 94.8822 16.8496 96.0823 16.3736C97.7675 15.6861 98.3293 15.5274 98.5846 15.7654C98.8655 16.0299 98.7889 16.1885 98.2782 16.691C97.9207 17.0083 97.359 17.3256 97.0271 17.3785C96.7207 17.4314 95.878 17.7223 93.912 18.5421L93.9886 19.9436C94.0141 20.7369 94.1162 21.6625 94.1928 22.0327C94.2694 22.4029 94.1928 22.826 93.9886 23.0376C93.7332 23.302 93.6056 23.302 93.3758 23.0376C93.2226 22.8524 93.0183 21.9269 92.9162 20.9749C92.814 20.0229 92.7119 19.2296 92.6864 19.1767C92.6608 19.1238 92.2012 19.2825 90.7203 19.9171L91.5629 22.7731C92.048 24.3333 92.5076 25.8406 92.6098 26.1315C92.7119 26.4488 92.6608 26.7926 92.4565 27.0042C92.2012 27.2686 92.0735 27.2686 91.8437 27.0042C91.665 26.8191 91.1543 25.4175 90.6947 23.8838C89.9032 21.2129 89.8521 21.1336 89.6734 22.0327C89.5457 22.5351 89.3925 23.0111 89.3415 23.0904C89.2904 23.1698 89.3159 23.6458 89.4436 24.1482C89.5713 24.7035 89.5713 25.206 89.4181 25.4175C89.2904 25.5762 89.0861 25.682 88.9329 25.6026C88.7797 25.5233 88.7287 25.7613 88.8308 26.2108C88.9329 26.6075 89.1372 27.1628 89.2649 27.4537C89.4181 27.7446 89.5457 28.1942 89.5457 28.4321C89.5713 28.6966 90.2862 29.8601 91.1543 31.0237C92.6353 32.9541 92.814 33.1128 93.197 32.769C93.4524 32.5574 93.7843 32.4517 93.9375 32.5574C94.0907 32.6632 94.678 33.4301 95.2652 34.2763C95.8525 35.0961 96.4398 35.7307 96.593 35.6514C96.7462 35.5721 97.0271 35.7307 97.2313 35.9952C97.4356 36.2332 97.9463 36.9472 98.3803 37.5818C98.7889 38.19 99.2485 38.6925 99.4017 38.6925C99.5549 38.6925 99.657 38.5867 99.657 38.428C99.657 38.2694 99.5549 38.1107 99.4017 38.0314C99.2485 37.952 99.274 37.7405 99.4527 37.5025C99.7336 37.1323 100.551 37.5025 105.785 40.3056C109.079 42.0773 111.939 43.6375 112.117 43.8226C112.322 44.0077 112.347 44.2193 112.168 44.4573C111.99 44.6688 111.734 44.6953 111.326 44.5366C111.019 44.4044 109.411 43.6375 107.751 42.8177C106.117 41.998 104.713 41.3369 104.636 41.3369C104.559 41.3369 104.559 41.4162 104.611 41.5484C104.687 41.6542 104.662 41.8922 104.559 42.0773C104.406 42.3682 104.176 42.3418 103.232 41.9451C102.593 41.6542 101.725 41.3369 101.317 41.2311C100.704 41.046 100.576 41.0989 100.729 41.3633C100.806 41.5749 100.806 41.9186 100.678 42.1302C100.5 42.474 100.321 42.4475 99.2995 41.9451C98.6612 41.6013 98.125 41.1782 98.125 41.0195C98.1505 40.8344 97.8952 40.4378 97.5888 40.1469C97.2824 39.856 96.9249 39.618 96.7462 39.5916C96.593 39.5916 96.1589 39.2742 95.7504 38.9305C95.3674 38.5867 95.061 38.2165 95.061 38.1107C95.061 37.9785 94.7801 37.6611 94.4226 37.3703C94.0652 37.0794 93.7843 36.6827 93.7843 36.524C93.7843 36.3389 93.3247 35.6514 92.763 34.9903C92.2012 34.3292 91.7416 33.959 91.7416 34.1441C91.7416 34.3027 91.9714 34.8316 92.2523 35.2547C92.5332 35.6778 92.7119 36.2332 92.6353 36.4447C92.5587 36.6563 92.3544 36.8414 92.1757 36.8414C92.0225 36.8414 91.4352 36.3125 90.899 35.6514C90.3883 34.9903 89.8521 34.4614 89.6989 34.4614C89.5457 34.4614 89.4947 34.6201 89.5713 34.8052C89.6479 34.9638 89.5968 35.3076 89.4691 35.5192C89.3415 35.7307 89.1117 35.8365 88.9585 35.7307C88.8053 35.5985 88.5499 35.2018 88.3967 34.8052C88.2435 34.3821 88.0648 33.5888 88.0137 33.007C87.9371 32.3194 87.6052 31.5261 87.0179 30.7592C86.4051 29.9395 86.2008 29.4899 86.3796 29.3048C86.5328 29.1461 86.6349 28.7495 86.6349 28.3793C86.6604 28.009 86.8136 27.4802 87.0179 27.1893C87.1966 26.8984 87.2732 26.4488 87.1966 26.2108C87.0179 25.7613 86.9924 25.7613 86.5583 26.2108C86.1498 26.634 86.0987 26.6075 85.6902 25.6026C85.4093 24.9151 85.205 23.3284 85.1029 20.9749C85.0008 19.018 84.822 17.3785 84.6944 17.3256C84.5667 17.2992 84.4646 16.5323 84.4901 15.6068C84.4901 14.7077 84.5667 13.8086 84.6688 13.6499C84.822 13.3855 84.9242 13.3855 85.2306 13.6499C85.4604 13.8086 85.6391 14.2846 85.6136 14.7077C85.6136 15.1043 85.7157 15.4745 85.8689 15.5539C86.0221 15.6332 86.0732 15.9505 86.0221 16.2943C85.971 16.6116 85.9966 17.4843 86.0987 18.1983C86.1753 18.9387 86.3285 19.4676 86.4051 19.3883C86.5072 19.3089 86.7881 19.4412 87.0434 19.7056C87.503 20.1287 87.5286 20.0758 87.0945 17.7223C86.7881 15.8712 86.737 15.2101 86.9668 14.9721C87.1456 14.787 87.4009 14.7341 87.5541 14.8399C87.7073 14.9457 88.0137 15.977 88.1925 17.1141C88.3967 18.3041 88.6776 19.256 88.8563 19.3089C89.0351 19.3618 89.1883 19.1767 89.1883 18.9387C89.1883 18.6743 89.0351 17.9338 88.8053 17.2727C88.4989 16.3207 88.4733 16.0034 88.7287 15.739C89.0095 15.4481 89.1883 15.5539 89.75 16.3207C90.2096 16.9025 90.4139 17.4843 90.3373 17.8016C90.2607 18.0925 90.2862 18.3305 90.3883 18.3305C90.516 18.3305 90.9245 18.0925 91.3586 17.8016C91.7671 17.5372 92.2267 17.3785 92.3544 17.4843C92.5076 17.5901 92.5076 16.8761 92.38 15.6332C92.2267 14.073 92.2523 13.5441 92.5076 13.3326C92.7119 13.1739 92.9672 13.1475 93.1204 13.2797ZM105.887 42.9764C106.168 43.0293 106.398 43.1615 106.372 43.3202C106.347 43.4789 106.143 43.6904 105.913 43.8491C105.632 44.0342 105.453 44.0077 105.274 43.7168C105.147 43.5053 105.121 43.2144 105.198 43.1086C105.274 42.9764 105.581 42.9235 105.887 42.9764Z" fill="#FFD966"/>
<path d="M108.109 17.0612C107.087 16.9554 106.194 16.7703 106.168 16.6381C106.117 16.4794 107.751 16.453 110.202 16.5587C113.394 16.691 114.926 16.8761 116.892 17.405C118.296 17.7752 120.492 18.5949 121.744 19.256C122.995 19.8907 124.705 21.0278 125.522 21.7682C126.314 22.4822 126.927 23.1433 126.85 23.2227C126.774 23.302 126.34 23.064 125.905 22.7202C125.446 22.35 124.322 21.7153 123.403 21.2922C122.484 20.8691 120.492 20.1023 118.935 19.5734C117.377 19.0709 114.747 18.3305 113.062 17.9338C111.377 17.5372 109.155 17.1405 108.109 17.0612Z" fill="#F1C232"/>
<path d="M132.212 22.0327C131.982 21.8211 131.804 21.2658 131.804 20.8427C131.829 20.0758 131.829 20.0758 132.212 20.5782C132.417 20.8691 132.595 21.398 132.595 21.7682C132.621 22.35 132.57 22.3764 132.212 22.0327Z" fill="#F1C232"/>
<path d="M128.791 28.7759C128.944 28.1942 128.995 27.2422 128.918 26.6604L128.765 25.6026L129.276 26.6604C129.557 27.2422 129.787 28.1677 129.787 28.6966C129.787 29.2519 129.684 29.9395 129.531 30.2303C129.378 30.5212 128.816 31.0501 128.255 31.4203C127.693 31.7906 127.131 32.0814 126.978 32.0814C126.825 32.0814 127.131 31.579 127.616 30.9443C128.127 30.3361 128.638 29.3577 128.791 28.7759Z" fill="#F1C232"/>
<path d="M124.093 13.4648C123.761 13.1475 123.735 12.9359 123.939 12.645C124.169 12.3277 124.297 12.3277 124.884 12.6186C125.267 12.8037 125.778 13.1739 126.008 13.4119C126.34 13.7292 126.391 13.9408 126.212 14.2317C125.982 14.5754 125.854 14.5754 125.242 14.2581C124.859 14.073 124.348 13.7028 124.093 13.4648Z" fill="#FFD966"/>
<path d="M124.042 42.1302C124.118 42.1302 125.037 41.4691 126.11 40.6758C127.565 39.618 128.178 39.3007 128.408 39.4858C128.612 39.6445 128.714 39.9089 128.612 40.094C128.535 40.2527 126.978 41.522 121.744 45.3299L121.182 44.5895C120.748 44.0077 120.697 43.7697 120.926 43.5053C121.182 43.2409 121.284 43.2409 121.565 43.5053C121.82 43.7962 122.05 43.7169 122.765 43.188C123.607 42.5533 123.633 42.5269 123.071 42.3418C122.765 42.2624 121.718 42.1831 120.722 42.1566C119.65 42.1566 118.807 41.998 118.628 41.8129C118.424 41.6013 118.399 41.3633 118.552 41.2047C118.679 41.046 119.752 40.9931 121.156 41.046C122.458 41.0989 123.684 41.2311 123.837 41.3633C124.016 41.4955 124.118 41.7071 124.042 41.8658C123.965 42.0244 123.965 42.1302 124.042 42.1302Z" fill="#FFD966"/>
<path fill-rule="evenodd" clip-rule="evenodd" d="M190.266 4.01936C191.67 3.99291 192.998 4.17802 194.351 4.54824C195.424 4.86557 197.237 5.50023 198.36 5.97622C199.484 6.45222 201.118 7.19265 202.011 7.66865C202.88 8.1182 203.543 8.56775 203.467 8.69997C203.39 8.80574 202.445 8.62063 201.348 8.3033C200.275 7.98598 197.492 7.29843 195.168 6.79599C192.845 6.26711 190.164 5.73822 189.168 5.57956C188.198 5.44734 186.742 5.31512 186.002 5.31512C185.108 5.31512 184.674 5.23579 184.853 5.05068C184.981 4.91846 185.772 4.62757 186.615 4.41602C187.457 4.20447 189.091 4.01936 190.266 4.01936ZM201.245 5.47378C201.628 5.55312 202.803 6.02911 203.85 6.5051C204.897 6.9811 206.48 7.69509 207.348 8.11819C208.216 8.5413 208.931 8.93796 208.957 9.01729C208.957 9.09663 208.344 9.09663 207.603 9.04374C206.888 8.99085 206.148 8.80574 206.02 8.64708C205.867 8.48841 204.565 7.72153 203.135 6.9811C201.705 6.21422 200.53 5.52667 200.53 5.44734C200.53 5.36801 200.862 5.36801 201.245 5.47378ZM185.695 6.63732C188.121 6.63732 189.704 6.79599 192.104 7.32487C193.866 7.69509 197.186 8.46197 199.509 9.04374C201.833 9.62551 204.59 10.4717 205.637 10.9213C206.684 11.3708 207.782 11.8997 208.063 12.1113C208.344 12.2964 208.778 12.455 209.033 12.455C209.263 12.455 210.003 13.169 210.693 14.0681C211.357 14.9672 212.276 16.0514 212.736 16.5274C213.195 16.977 213.553 17.5323 213.527 17.7439C213.476 17.9554 213.527 18.3785 213.629 18.6694C213.731 18.9603 213.706 19.5421 213.425 20.732L212.531 19.5156C212.046 18.8545 211.484 18.2198 211.331 18.1405C211.152 18.0612 210.872 18.167 210.744 18.3521C210.565 18.5901 210.923 19.2512 212.021 20.7849C212.889 21.9485 213.553 23.0327 213.553 23.1649C213.527 23.3236 213.731 23.6144 213.987 23.826C214.242 24.0111 214.702 24.1962 215.008 24.2227C215.417 24.2227 215.57 24.4342 215.697 25.1482C215.774 25.6506 215.927 26.444 216.004 26.8671C216.106 27.5017 215.953 27.9248 214.191 30.3841L213.987 29.1413C213.885 28.4802 213.425 27.2108 212.965 26.3382C212.506 25.4655 211.459 24.0375 210.616 23.1384C209.774 22.2393 208.344 21.0229 207.425 20.4147C206.505 19.8065 204.897 18.9338 203.85 18.4843C202.803 18.0612 201.067 17.453 200.02 17.1356C198.462 16.7125 197.083 16.6068 192.743 16.501C188.581 16.4216 187.304 16.4745 187.049 16.739C186.793 17.0034 186.793 17.1621 187.049 17.4265C187.228 17.6116 187.33 17.7703 187.253 17.7439C187.176 17.7439 185.798 17.8232 184.189 17.9025C182.58 17.9818 181.176 18.0876 181.074 18.167C180.946 18.2198 180.87 18.2198 180.87 18.1405C180.87 18.0612 181.099 17.7967 181.406 17.5587C181.84 17.1621 181.891 17.0299 181.61 16.7654C181.329 16.5274 180.768 16.6596 179.082 17.3736C177.882 17.8496 176.886 18.2463 176.861 18.1934C176.835 18.167 176.733 17.3736 176.631 16.4216C176.529 15.4697 176.325 14.5441 176.171 14.359C175.993 14.1475 175.788 14.121 175.635 14.2797C175.482 14.4383 175.431 15.4168 175.482 16.6068C175.559 17.8496 175.508 18.5901 175.354 18.4843C175.227 18.3785 174.793 18.5372 174.359 18.8016C173.95 19.0925 173.516 19.3305 173.414 19.3305C173.286 19.3305 173.261 19.0925 173.337 18.8016C173.414 18.4843 173.21 17.9025 172.776 17.3207C172.188 16.5539 172.01 16.4481 171.729 16.739C171.473 17.0034 171.499 17.3207 171.805 18.2727C172.035 18.9338 172.188 19.6743 172.188 19.9387C172.188 20.1767 172.035 20.3618 171.882 20.3089C171.703 20.256 171.397 19.3834 171.218 18.3785C171.014 17.2943 170.937 15.8663 171.039 14.835C171.116 13.883 171.32 12.9575 171.448 12.7988C171.575 12.6137 171.856 12.5079 172.061 12.5872C172.29 12.6666 172.495 12.5079 172.622 12.1377C172.699 11.7939 172.801 11.2915 172.827 11.0006C172.852 10.5775 173.056 10.4717 173.746 10.4717C174.41 10.4717 174.665 10.3395 174.869 9.86351C175.022 9.51973 175.354 9.2024 175.635 9.14952C175.916 9.07018 176.376 8.7793 176.657 8.48841C176.989 8.14464 177.269 8.03886 177.423 8.22397C177.576 8.35619 178.47 8.3033 179.823 8.01242C181.278 7.72153 182.07 7.4042 182.248 7.11332C182.478 6.69021 182.938 6.63732 185.695 6.63732ZM211.178 10.7097C212.301 10.7362 212.684 10.8948 213.604 11.6881C214.216 12.1906 215.161 13.169 215.723 13.8566C216.285 14.5441 216.693 15.1523 216.617 15.2317C216.54 15.2845 215.212 14.4119 213.655 13.3012C212.097 12.1906 210.591 11.1328 210.335 10.9742C209.927 10.7097 210.08 10.6568 211.178 10.7097ZM215.034 16.9505C215.212 16.9505 216.08 17.691 216.949 18.6165C217.842 19.5156 218.889 20.8114 219.936 22.7682L219.298 23.5087C218.94 23.9053 218.659 24.302 218.659 24.4342C218.659 24.54 218.557 24.6193 218.404 24.6193C218.276 24.6193 217.919 24.1169 217.638 23.5087C217.357 22.874 217.153 21.9485 217.153 21.446C217.153 20.9436 217 20.3618 216.821 20.1767C216.642 20.018 216.31 19.9123 216.106 20.018C215.902 20.0974 215.646 19.9652 215.544 19.7536C215.417 19.4892 215.442 19.3834 215.595 19.4627C215.748 19.5421 215.978 19.4098 216.106 19.1983C216.31 18.9074 216.157 18.5636 215.544 17.8761C215.085 17.3736 214.855 16.9505 215.034 16.9505ZM169.941 18.0083C170.043 18.0083 170.222 18.7223 170.324 19.5685C170.529 21.0758 170.503 21.1287 170.043 20.7056C169.788 20.4676 169.507 20.3089 169.405 20.3883C169.328 20.4676 169.226 20.0445 169.175 19.4627C169.124 18.8016 169.226 18.3256 169.431 18.2198C169.609 18.1141 169.839 18.0083 169.941 18.0083ZM179.848 18.2992C179.925 18.2992 179.721 18.5107 179.389 18.7487C179.006 19.0396 178.801 19.4627 178.827 19.9387C178.827 20.3354 178.878 20.6527 178.955 20.6527C179.031 20.6527 179.338 20.4147 179.67 20.1238C179.976 19.8329 180.768 19.4627 181.457 19.3305C182.121 19.1718 184.419 19.0661 186.564 19.0925C188.683 19.0925 190.675 19.1983 190.955 19.3305C191.441 19.5156 191.415 19.5421 190.828 19.7007C190.47 19.78 189.091 20.0974 187.764 20.3883C186.436 20.6791 184.215 21.2874 182.861 21.7105C180.538 22.4509 180.385 22.5302 180.691 23.0062C180.844 23.2707 181.917 24.6458 183.04 26.0737C185.006 28.5859 185.159 28.6917 187.508 29.8288C188.836 30.4899 191.441 31.5741 193.253 32.2881C195.066 32.9757 197.058 33.7161 197.671 33.9276C198.258 34.1128 198.743 34.3243 198.743 34.4036C198.743 34.483 198.079 34.4036 197.262 34.245C196.471 34.0599 194.377 33.6103 192.615 33.2137C190.853 32.817 188.351 32.1559 187.074 31.7328C185.389 31.2039 184.419 30.7015 183.755 30.0668C183.219 29.5644 182.044 27.9248 181.125 26.3911C179.593 23.8524 179.44 23.6673 179.184 24.1962C178.955 24.6458 179.006 24.9631 179.542 25.9415C179.899 26.6026 180.665 27.8984 181.278 28.8504C181.865 29.8024 182.785 30.8866 183.321 31.3097C183.883 31.7063 185.287 32.3674 186.487 32.7906C187.687 33.2137 191.389 34.1656 194.734 34.9061C198.054 35.6465 201.424 36.2547 202.19 36.2547C202.956 36.2547 204.488 36.0696 205.586 35.8316C206.659 35.5936 208.42 35.0647 209.467 34.6416C210.514 34.245 211.867 33.4781 212.48 32.9492C213.067 32.4468 213.629 32.0766 213.757 32.1294C213.859 32.2088 214.063 32.1823 214.191 32.0766C214.344 31.9708 214.855 31.3626 215.34 30.7279C216.183 29.6437 216.259 29.6173 216.438 30.1461C216.54 30.437 216.693 31.865 216.795 33.293C216.949 35.5672 216.897 35.911 216.489 36.2547C216.234 36.4663 215.391 37.2861 214.599 38.0529C213.246 39.3751 213.195 39.4809 213.604 39.904C213.987 40.3007 213.987 40.4329 213.68 41.094C213.348 41.7287 213.348 41.8344 213.68 42.0724C213.961 42.2575 214.165 42.2311 214.446 41.9402C214.651 41.7287 214.829 41.4378 214.829 41.2791C214.829 41.1469 214.957 41.0147 215.085 41.0147C215.263 41.0147 215.263 41.1733 215.085 41.4907C214.931 41.7816 214.957 42.046 215.161 42.2311C215.391 42.4691 215.212 42.7335 214.319 43.3418C213.68 43.7913 212.582 44.426 211.867 44.7697C211.152 45.0871 210.386 45.5631 210.131 45.7746C209.901 45.9862 209.697 46.0919 209.723 45.9862C209.723 45.8539 209.237 45.9597 208.65 46.1713C208.037 46.4093 207.399 46.515 207.246 46.4357C207.067 46.3564 206.914 46.4622 206.914 46.6473C206.914 46.8588 206.71 46.9117 206.224 46.7795C205.816 46.6737 205.407 46.7002 205.254 46.8588C205.075 47.0439 204.029 47.0175 201.807 46.7002C200.045 46.4622 197.849 46.0919 196.905 45.8804C195.934 45.6688 195.22 45.4044 195.296 45.2457C195.373 45.1135 195.271 44.8755 195.117 44.7433C194.939 44.6111 192.079 43.0773 188.785 41.3056C183.551 38.5025 182.734 38.1323 182.478 38.5025C182.274 38.7405 182.248 38.952 182.402 39.0314C182.555 39.1107 182.657 39.2958 182.657 39.428C182.657 39.5867 182.555 39.6925 182.402 39.6925C182.274 39.6925 181.789 39.19 181.38 38.5818C180.946 37.9472 180.436 37.2332 180.231 36.9952C180.027 36.7307 179.746 36.5721 179.593 36.6514C179.465 36.7307 178.853 36.0961 178.265 35.2763C177.678 34.4301 177.091 33.6632 176.937 33.5574C176.784 33.4517 176.452 33.5574 176.223 33.769C175.814 34.1128 175.635 33.9541 174.18 32.0237C173.286 30.8601 172.571 29.6966 172.546 29.4321C172.546 29.1942 172.418 28.7446 172.265 28.4537C172.137 28.1628 171.933 27.6075 171.831 27.2108C171.729 26.7613 171.78 26.5233 171.933 26.6026C172.086 26.682 172.29 26.5762 172.418 26.4175C172.571 26.206 172.571 25.7035 172.444 25.1482C172.316 24.6458 172.29 24.1698 172.341 24.0904C172.393 24.0111 172.546 23.5351 172.673 23.0327C172.852 22.1336 172.903 22.2129 173.695 24.8838C174.154 26.4175 174.665 27.8191 174.844 28.0042C175.074 28.2686 175.201 28.2686 175.457 28.0042C175.661 27.7926 175.712 27.4488 175.61 27.1315C175.508 26.8406 175.048 25.3333 173.72 20.9171L174.691 20.5205C175.201 20.2825 175.661 20.1238 175.686 20.1767C175.712 20.2296 175.814 21.0229 175.916 21.9749C176.018 22.9269 176.223 23.8524 176.376 24.0376C176.606 24.302 176.733 24.302 176.989 24.0376C177.193 23.826 177.269 23.4029 177.193 23.0327C177.116 22.6625 177.014 21.7369 176.912 19.5421L178.316 18.9338C179.082 18.5901 179.772 18.3256 179.848 18.2992ZM203.671 22.3716C203.978 22.4773 205.152 23.0062 206.276 23.588C207.731 24.302 208.676 24.9895 209.569 25.9944C210.795 27.3431 210.821 27.4488 210.718 28.771C210.667 29.5115 210.54 30.2255 210.437 30.3577C210.31 30.4635 210.182 30.5164 210.131 30.437C210.054 30.3577 210.131 29.7759 210.514 27.9248L209.161 26.6291C208.42 25.9151 206.735 24.6722 205.433 23.8524C204.131 23.0327 203.084 22.3451 203.084 22.2922C203.109 22.2394 203.39 22.2922 203.671 22.3716ZM220.472 24.2755C220.574 24.3813 220.855 25.254 221.085 26.206C221.34 27.158 221.621 29.485 221.698 31.3626C221.825 33.8219 221.8 34.8796 221.596 35.0647C221.417 35.2234 220.957 35.9374 220.574 36.6514C220.166 37.3918 219.144 38.714 218.302 39.6396C217.434 40.5387 216.719 41.2527 216.668 41.2262C216.642 41.1733 217.561 39.2958 218.761 37.0481C220.472 33.8219 220.881 32.8699 220.625 32.6054C220.37 32.341 220.242 32.341 219.962 32.6054C219.783 32.7906 219.374 33.4252 219.068 34.007C218.583 34.9854 218.532 35.0119 218.455 34.4036C218.429 34.0334 218.608 32.4997 218.889 30.9659C219.196 29.2206 219.298 28.0571 219.144 27.8719C219.017 27.6868 218.812 27.5811 218.659 27.6604C218.532 27.7397 218.353 27.6075 218.276 27.396C218.2 27.1844 218.634 26.3382 219.221 25.5449C219.808 24.7251 220.37 24.1698 220.472 24.2755ZM170.171 27.1315C170.248 27.4224 170.248 27.8719 170.12 28.1364C169.992 28.3744 169.712 28.5859 169.507 28.5859C169.303 28.5859 169.073 28.3479 168.997 28.0571C168.92 27.7662 168.997 27.5282 169.124 27.5282C169.277 27.5282 169.303 27.3695 169.201 27.2108C169.065 26.9817 169.107 26.9376 169.328 27.0786C169.482 27.1844 169.712 27.1051 169.814 26.9464C169.941 26.7084 170.043 26.7613 170.171 27.1315ZM187.687 42.3369C187.738 42.3369 188.734 42.8129 189.934 43.3946C191.134 43.9764 192.104 44.4789 192.104 44.5317C192.104 44.5582 191.313 44.3995 190.368 44.1615C189.423 43.9235 188.402 43.6591 188.096 43.5533C187.713 43.4475 187.534 43.2095 187.559 42.8658C187.585 42.5749 187.636 42.3369 187.687 42.3369ZM191.287 45.8011C191.441 45.7746 192.768 46.0655 194.224 46.4357C195.654 46.8059 196.956 47.229 197.083 47.3613C197.254 47.5376 197.152 47.6257 196.777 47.6257C196.445 47.6257 195.577 47.4935 194.862 47.3348C194.122 47.1497 192.947 46.753 192.232 46.4093C191.543 46.0919 191.109 45.8011 191.287 45.8011Z" fill="#F1C232"/>
<path d="M173.771 10.4453C173.388 10.3131 173.414 10.2602 173.976 9.94284C174.333 9.73129 174.691 9.57262 174.818 9.54618C174.92 9.54618 174.997 9.62551 174.997 9.75773C175.022 9.86351 174.844 10.1015 174.614 10.2866C174.41 10.4453 174.027 10.5246 173.771 10.4453Z" fill="white"/>
<path d="M170.248 14.4383C170.809 13.2748 171.55 12.0055 171.882 11.6088C172.214 11.1857 172.597 10.8684 172.724 10.8684C172.852 10.8684 172.954 10.8948 172.954 10.9477C172.954 10.9742 172.827 11.3973 172.648 11.8733C172.444 12.4021 172.188 12.693 171.984 12.6137C171.831 12.5344 171.575 12.6137 171.448 12.7988C171.32 12.9575 171.141 13.7508 171.065 14.5177C170.937 15.5754 170.835 15.8663 170.529 15.7605C170.324 15.6812 170.069 15.787 169.967 15.9721C169.865 16.1308 169.763 16.7125 169.763 17.215C169.763 17.8761 169.635 18.1405 169.303 18.1934C168.945 18.2727 168.894 18.1405 169.022 17.4265C169.099 16.9505 169.66 15.6019 170.248 14.4383Z" fill="white"/>
<path d="M175.252 36.2547C174.971 35.8316 174.742 35.3027 174.742 35.1441C174.742 34.959 175.201 35.3292 175.763 35.9903C176.325 36.6514 176.784 37.3389 176.784 37.524C176.784 37.6827 177.065 38.0794 177.423 38.3703C177.78 38.6611 178.061 39.0049 178.061 39.1636C178.061 39.3222 177.474 39.0578 176.784 38.6347C175.933 38.1058 175.55 37.7092 175.635 37.4447C175.712 37.2332 175.533 36.6778 175.252 36.2547Z" fill="white"/>
<path d="M217.689 40.3007C218.787 39.1636 220.115 37.4712 220.625 36.5192L221.596 34.8268L221.672 35.8581C221.723 36.4398 221.596 37.2596 221.417 37.6827C221.238 38.1058 220.293 39.2165 219.298 40.1685C218.302 41.094 216.131 42.8129 214.446 43.95C212.761 45.1135 211.127 46.0655 210.821 46.0391C210.489 46.0391 210.233 45.9333 210.233 45.7746C210.233 45.6159 210.846 45.2457 211.587 44.902C212.301 44.5582 213.553 43.8442 214.319 43.3153C215.085 42.7864 216.617 41.4378 217.689 40.3007Z" fill="white"/>
<path d="M182.274 4.62758C183.244 4.25736 184.878 3.72848 185.849 3.46403C187.279 3.04093 188.249 2.9616 190.828 3.01448C193.79 3.09382 194.249 3.19959 197.083 4.20447C198.769 4.78624 201.475 6.00267 203.084 6.90177C204.692 7.80087 206.071 8.59419 206.148 8.67352C206.224 8.75286 205.637 8.72641 204.871 8.62064C204.105 8.5413 202.777 8.09176 201.935 7.64221C201.092 7.19266 199.484 6.45222 198.36 5.97622C197.237 5.50023 195.424 4.86557 194.326 4.54824C193.126 4.20447 191.619 3.99292 190.445 3.99292C189.398 3.99292 187.713 4.17803 186.691 4.41602C185.67 4.62758 184.802 4.9449 184.776 5.07713C184.725 5.20935 185.261 5.31512 185.976 5.31512C186.666 5.31512 188.147 5.44734 189.219 5.60601C190.317 5.76467 193.279 6.37289 195.807 6.92821C198.335 7.50998 201.041 8.17109 201.807 8.38264C202.573 8.62064 203.339 9.0173 203.492 9.2553C203.671 9.49329 204.361 9.75773 205.152 9.88996C205.918 9.99573 206.914 10.1544 207.348 10.2073C207.808 10.2866 208.139 10.4453 208.063 10.6039C207.986 10.7626 208.216 11.2386 208.574 11.6617C208.957 12.1113 209.084 12.455 208.88 12.455C208.727 12.455 208.344 12.2964 208.063 12.1113C207.782 11.8997 206.684 11.3708 205.637 10.9213C204.59 10.4717 201.833 9.62551 199.509 9.04374C197.186 8.46197 193.866 7.69509 192.104 7.32487C189.73 6.82243 188.121 6.63733 185.772 6.63733C183.04 6.63733 182.606 6.69022 182.223 7.13977C181.917 7.4571 181.023 7.80087 179.721 8.06531C178.393 8.32975 177.576 8.38264 177.423 8.19753C177.244 8.03887 177.04 8.09175 176.784 8.38264C176.58 8.59419 175.61 9.17596 174.639 9.62551C173.669 10.1015 172.52 10.8948 172.086 11.3973C171.652 11.8997 170.809 13.3012 170.197 14.4912C169.609 15.7077 169.022 16.6332 168.869 16.5539C168.716 16.4745 168.614 16.1308 168.614 15.7605C168.614 15.3903 168.92 14.4648 169.277 13.7244C169.635 12.9575 170.248 11.8997 170.631 11.3973C171.014 10.8948 171.55 10.0486 171.856 9.54618C172.163 9.0173 172.929 8.30331 173.644 7.90665C174.308 7.53643 175.788 6.95466 176.912 6.66377C178.035 6.34644 179.133 6.10845 179.338 6.10845C179.542 6.13489 179.899 5.94978 180.104 5.71178C180.308 5.47379 181.304 4.99779 182.274 4.62758Z" fill="#BF9000"/>
<path d="M211.689 13.407C210.463 12.0055 209.467 10.8155 209.467 10.7362C209.467 10.6568 209.518 10.6039 209.595 10.6039C209.671 10.6039 210.667 11.2386 211.816 12.0319C212.991 12.8253 214.574 13.9095 215.34 14.4912C216.131 15.0466 217.127 15.8134 217.587 16.2101C218.072 16.6596 218.429 17.2414 218.455 17.691C218.506 18.0876 218.889 18.9074 219.349 19.4627C219.783 20.0445 220.498 21.2874 220.932 22.2394C221.366 23.1913 221.877 24.6722 222.081 25.5449C222.311 26.4175 222.591 27.9513 222.745 28.9826C222.872 30.0139 223 32.0766 223 33.6103C223 35.1441 222.872 36.8101 222.745 37.3125C222.591 37.8149 222.157 38.6876 221.774 39.2694C221.391 39.8247 220.217 41.0147 219.17 41.8873C218.123 42.76 216.08 44.2937 214.625 45.2986C212.378 46.8588 211.867 47.0968 210.872 47.0968C210.233 47.0968 209.059 47.2819 208.242 47.5199C207.45 47.7579 205.867 47.9695 204.744 47.9959C203.62 48.0224 201.501 47.9166 200.02 47.7844C198.539 47.6521 197.237 47.467 197.083 47.3348C196.93 47.2026 195.654 46.8059 194.198 46.4357C192.768 46.0655 191.415 45.7746 191.211 45.7746C191.006 45.7746 190.419 45.5895 189.934 45.378C189.27 45.0871 189.117 44.902 189.296 44.6375C189.423 44.4789 189.474 44.2144 189.347 44.0822C189.245 43.95 189.398 43.9235 189.679 44.0029C189.96 44.0822 190.751 44.2937 191.466 44.4789C192.155 44.664 193.1 44.9549 193.509 45.1928C193.917 45.4044 194.683 45.5895 195.168 45.6424C195.654 45.6688 197.441 45.9597 199.126 46.3035C200.811 46.6208 203.109 46.8853 204.233 46.9117C205.535 46.9117 206.837 46.753 207.808 46.4357C208.65 46.1713 209.876 45.9597 210.514 45.9333C211.51 45.9068 212.072 45.616 214.599 43.8706C216.208 42.76 218.302 41.094 219.272 40.1685C220.242 39.2429 221.187 38.1323 221.417 37.7092C221.698 37.1009 221.774 36.0432 221.749 33.2137C221.749 31.1775 221.621 28.8504 221.468 28.0571C221.315 27.2637 221.034 25.968 220.83 25.2011C220.625 24.4607 220.498 23.7202 220.574 23.5616C220.651 23.4029 220.625 23.2442 220.498 23.1913C220.396 23.1385 219.732 22.2394 219.042 21.1551C218.251 19.9652 217.025 18.5901 215.851 17.5852C214.804 16.6861 212.94 14.8086 211.689 13.407Z" fill="#BF9000"/>
<path d="M187.074 17.4265C186.819 17.1621 186.819 17.0034 187.074 16.739C187.304 16.4481 188.479 16.3952 192.743 16.501C197.058 16.5803 198.488 16.7125 200.02 17.1356C201.067 17.453 202.803 18.0612 203.85 18.4843C204.897 18.9338 206.505 19.8065 207.425 20.4147C208.344 21.0229 209.774 22.2393 210.616 23.1384C211.459 24.0375 212.506 25.4655 212.965 26.3382C213.399 27.2108 213.859 28.4008 213.961 28.9826C214.089 29.8288 214.012 30.3048 213.527 31.3361C213.195 32.0501 212.557 32.9228 212.148 33.2665C211.74 33.5839 210.514 34.2185 209.467 34.6416C208.42 35.0647 206.659 35.5936 205.586 35.8316C204.488 36.0696 202.956 36.2547 202.19 36.2547C201.424 36.2547 198.054 35.6465 194.734 34.9061C191.389 34.1656 187.687 33.2137 186.487 32.7906C185.287 32.3674 183.883 31.7063 183.321 31.3097C182.785 30.8866 181.865 29.8024 181.278 28.8504C180.665 27.8984 179.899 26.6026 179.542 25.9415C179.006 24.9631 178.955 24.6458 179.184 24.1962C179.44 23.6673 179.593 23.826 180.997 26.1795C181.814 27.5811 182.912 29.1677 183.423 29.723C183.959 30.3577 184.853 30.9395 185.721 31.2568C186.487 31.5741 188.172 32.0766 189.423 32.4468C190.675 32.7906 193.151 33.3723 194.913 33.7425C196.675 34.1128 198.615 34.5094 199.254 34.6152C199.892 34.721 201.501 34.8003 202.829 34.8003C204.156 34.8003 205.561 34.721 205.969 34.5888C206.352 34.483 206.71 34.1921 206.786 33.9276C206.863 33.6897 207.501 33.055 208.216 32.5526C208.905 32.0501 209.493 31.5477 209.467 31.4155C209.467 31.3097 209.723 30.9659 210.029 30.6221C210.412 30.2255 210.642 29.6173 210.718 28.7182C210.82 27.4488 210.795 27.3431 209.569 25.9944C208.701 25.016 207.705 24.2756 206.276 23.5616C205.152 22.9798 203.875 22.4774 203.467 22.398C203.058 22.3451 202.19 22.0542 201.552 21.7634C200.913 21.4989 199.484 21.0229 198.36 20.7056C197.237 20.4147 195.398 19.9916 194.275 19.7801C193.151 19.5685 192.002 19.3569 191.721 19.3305C191.441 19.3041 189.321 19.2512 186.998 19.1718C184.546 19.0925 182.248 19.1454 181.508 19.3041C180.819 19.4627 179.976 19.8329 179.67 20.1238C179.338 20.4147 179.031 20.6527 178.955 20.6527C178.878 20.6527 178.827 20.2825 178.827 19.8594C178.827 19.2247 179.006 18.9867 179.67 18.643C180.104 18.405 181.534 18.1141 182.785 17.9554C184.036 17.8232 185.491 17.7439 185.976 17.7703C186.462 17.7703 186.972 17.7967 187.125 17.7703C187.279 17.7703 187.253 17.6116 187.074 17.4265Z" fill="#BF9000"/>
<path d="M167.005 22.9005C166.979 21.7369 167.056 20.2296 167.158 19.5156V19.5421C167.26 18.8281 167.49 18.2727 167.618 18.2727C167.771 18.2727 167.924 18.6694 168.001 19.119C168.052 19.5949 168.103 20.9965 168.103 22.2394C168.103 23.5616 168.256 25.0424 168.486 25.8093C168.716 26.5233 168.945 27.4224 169.022 27.7926C169.099 28.1628 169.252 28.4802 169.405 28.5066C169.533 28.5595 169.635 28.9033 169.635 29.2999C169.635 29.723 169.533 30.1461 169.38 30.3048C169.201 30.4899 169.405 30.9395 169.992 31.7592C170.452 32.4203 170.912 33.2665 171.014 33.6632C171.09 34.0863 171.065 34.4565 170.912 34.5359C170.758 34.6152 170.273 33.8748 169.788 32.8699C169.303 31.8915 168.486 29.723 167.975 28.0571C167.235 25.7035 167.03 24.54 167.005 22.9005Z" fill="#BF9000"/>
<path d="M174.359 38.2645C172.954 37.1538 172.571 36.7043 172.571 36.149C172.546 35.7523 172.648 35.435 172.75 35.435C172.852 35.435 173.388 35.9639 173.925 36.625C174.435 37.2861 175.048 37.8149 175.252 37.8149C175.457 37.8414 176.274 38.238 177.04 38.7405C177.806 39.2165 178.725 39.8776 179.082 40.1685C179.44 40.4594 179.772 40.6709 179.848 40.5916C179.925 40.5387 180.257 40.7767 180.614 41.1205C180.972 41.4907 181.176 41.8609 181.048 41.9667C180.946 42.0989 179.797 41.6229 178.495 40.9353C177.218 40.2478 175.329 39.0578 174.359 38.2645Z" fill="#BF9000"/>
<path d="M185.823 43.95C184.036 43.3418 183.729 43.1566 183.755 42.6542C183.755 42.1518 183.857 42.0724 184.419 42.2311C184.776 42.3104 185.542 42.6013 186.104 42.8658C186.666 43.1302 187.381 43.3682 187.713 43.3682C188.019 43.3682 188.325 43.474 188.402 43.6326C188.479 43.7913 188.428 43.95 188.274 44.0293C188.121 44.1086 188.07 44.2673 188.147 44.426C188.223 44.5846 188.198 44.6904 188.096 44.6904C187.968 44.6904 186.947 44.3466 185.823 43.95Z" fill="#BF9000"/>
<path fill-rule="evenodd" clip-rule="evenodd" d="M203.799 8.48841C203.901 8.48841 204.616 8.59419 205.382 8.75285C206.148 8.88507 207.476 9.04374 208.318 9.12307C209.161 9.17596 210.259 9.30818 210.744 9.41396C211.229 9.51973 211.791 9.75773 211.97 9.91639C212.174 10.1279 212.199 10.3131 212.021 10.5511C211.842 10.7626 211.433 10.8155 210.616 10.6833C209.978 10.5511 209.467 10.5511 209.467 10.6833C209.467 10.7891 210.642 12.217 212.097 13.8301C213.527 15.4697 215.085 17.2679 215.544 17.8232C216.157 18.5636 216.31 18.9074 216.106 19.1983C215.953 19.4098 215.723 19.5421 215.595 19.4627C215.442 19.3834 215.417 19.4892 215.519 19.7536C215.646 19.9652 215.902 20.0974 216.106 20.018C216.31 19.9123 216.642 20.018 216.821 20.1767C217 20.3618 217.153 20.9436 217.153 21.446C217.153 21.9485 217.357 22.874 217.638 23.5087C217.919 24.1169 218.225 24.6193 218.327 24.6193C218.455 24.6193 218.761 24.2755 219.042 23.826C219.323 23.4029 219.706 22.9798 219.859 22.9005C220.038 22.8211 220.293 22.9269 220.447 23.112C220.625 23.3236 220.345 23.9318 219.425 25.2275C218.71 26.206 218.2 27.1844 218.276 27.396C218.353 27.6075 218.506 27.7397 218.659 27.6604C218.787 27.5811 219.017 27.6868 219.144 27.8719C219.298 28.0571 219.196 29.2206 218.889 30.9659C218.608 32.4997 218.429 34.0334 218.455 34.4036C218.532 35.0119 218.583 34.9854 219.068 34.007C219.374 33.4252 219.783 32.7906 219.962 32.6054C220.242 32.341 220.37 32.341 220.625 32.6054C220.881 32.8699 220.472 33.7954 218.787 36.9952C217.587 39.19 216.617 41.094 216.617 41.1998C216.617 41.332 216.387 41.6758 216.106 41.9931C215.723 42.4427 215.493 42.522 215.212 42.3369C214.931 42.1253 214.88 41.9402 215.085 41.5436C215.255 41.191 215.255 41.0147 215.085 41.0147C214.931 41.0147 214.829 41.1204 214.829 41.2791C214.829 41.4378 214.651 41.7287 214.446 41.9402C214.165 42.2311 213.961 42.2575 213.68 42.0724C213.348 41.8344 213.348 41.7287 213.68 41.0676C213.987 40.4329 213.987 40.3007 213.604 39.904C213.195 39.4809 213.246 39.3751 214.599 38.0529C215.391 37.2861 216.234 36.4663 216.489 36.2547C216.897 35.911 216.949 35.5672 216.795 33.2665C216.693 31.865 216.54 30.437 216.412 30.1461C216.259 29.6173 216.183 29.6437 215.34 30.7279C214.855 31.3626 214.344 31.9708 214.191 32.0766C214.063 32.1559 213.782 32.1823 213.604 32.1295C213.45 32.0766 213.297 31.9443 213.297 31.8386C213.297 31.7063 213.936 30.7279 214.702 29.6437C215.902 27.9777 216.106 27.5282 216.004 26.8671C215.927 26.444 215.774 25.6506 215.697 25.1482C215.57 24.4342 215.417 24.2227 215.008 24.2227C214.702 24.1962 214.242 24.0111 213.987 23.826C213.731 23.6144 213.527 23.3236 213.553 23.1649C213.553 23.0062 212.889 21.9485 212.021 20.7849C210.923 19.2512 210.565 18.5901 210.744 18.3521C210.872 18.167 211.152 18.0612 211.306 18.1405C211.484 18.2198 212.046 18.8545 213.425 20.732L213.604 19.9652C213.706 19.5421 213.731 18.9603 213.629 18.6694C213.527 18.3785 213.476 17.929 213.502 17.691C213.527 17.4265 213.246 16.9505 212.838 16.6068C212.455 16.2894 211.842 15.6019 211.484 15.0994C211.101 14.597 210.157 13.4335 209.365 12.5079C208.574 11.6088 207.986 10.7626 208.063 10.6039C208.139 10.4453 207.808 10.2866 207.348 10.2073C206.914 10.1544 205.918 9.99573 205.152 9.88996C204.412 9.78418 203.697 9.51973 203.569 9.36107C203.441 9.17596 203.39 8.91152 203.467 8.75285C203.569 8.59419 203.697 8.48841 203.799 8.48841ZM176.12 14.2797C176.274 14.4119 176.478 15.3374 176.606 16.3159C176.708 17.3207 176.81 18.167 176.861 18.1934C176.886 18.2463 177.882 17.8496 179.082 17.3736C180.768 16.6861 181.329 16.5274 181.585 16.7654C181.865 17.0299 181.789 17.1885 181.278 17.691C180.921 18.0083 180.359 18.3256 180.027 18.3785C179.721 18.4314 178.878 18.7223 176.912 19.5421L176.989 20.9436C177.014 21.7369 177.116 22.6625 177.193 23.0327C177.269 23.4029 177.193 23.826 176.989 24.0376C176.733 24.302 176.606 24.302 176.376 24.0376C176.223 23.8524 176.018 22.9269 175.916 21.9749C175.814 21.0229 175.712 20.2296 175.686 20.1767C175.661 20.1238 175.201 20.2825 173.72 20.9171L174.563 23.7731C175.048 25.3333 175.508 26.8406 175.61 27.1315C175.712 27.4488 175.661 27.7926 175.457 28.0042C175.201 28.2686 175.074 28.2686 174.844 28.0042C174.665 27.8191 174.154 26.4175 173.695 24.8838C172.903 22.2129 172.852 22.1336 172.673 23.0327C172.546 23.5351 172.393 24.0111 172.341 24.0904C172.29 24.1698 172.316 24.6458 172.444 25.1482C172.571 25.7035 172.571 26.206 172.418 26.4175C172.29 26.5762 172.086 26.682 171.933 26.6026C171.78 26.5233 171.729 26.7613 171.831 27.2108C171.933 27.6075 172.137 28.1628 172.265 28.4537C172.418 28.7446 172.546 29.1942 172.546 29.4321C172.571 29.6966 173.286 30.8601 174.154 32.0237C175.635 33.9541 175.814 34.1128 176.197 33.769C176.452 33.5574 176.784 33.4517 176.937 33.5574C177.091 33.6632 177.678 34.4301 178.265 35.2763C178.853 36.0961 179.44 36.7307 179.593 36.6514C179.746 36.5721 180.027 36.7307 180.231 36.9952C180.436 37.2332 180.946 37.9472 181.38 38.5818C181.789 39.19 182.248 39.6925 182.402 39.6925C182.555 39.6925 182.657 39.5867 182.657 39.428C182.657 39.2694 182.555 39.1107 182.402 39.0314C182.248 38.952 182.274 38.7405 182.453 38.5025C182.734 38.1323 183.551 38.5025 188.785 41.3056C192.079 43.0773 194.939 44.6375 195.117 44.8226C195.322 45.0077 195.347 45.2193 195.168 45.4573C194.99 45.6688 194.734 45.6953 194.326 45.5366C194.019 45.4044 192.411 44.6375 190.751 43.8177C189.117 42.998 187.713 42.3369 187.636 42.3369C187.559 42.3369 187.559 42.4162 187.611 42.5484C187.687 42.6542 187.662 42.8922 187.559 43.0773C187.406 43.3682 187.176 43.3418 186.232 42.9451C185.593 42.6542 184.725 42.3369 184.317 42.2311C183.704 42.046 183.576 42.0989 183.729 42.3633C183.806 42.5749 183.806 42.9186 183.678 43.1302C183.5 43.474 183.321 43.4475 182.3 42.9451C181.661 42.6013 181.125 42.1782 181.125 42.0195C181.151 41.8344 180.895 41.4378 180.589 41.1469C180.282 40.856 179.925 40.618 179.746 40.5916C179.593 40.5916 179.159 40.2742 178.75 39.9305C178.367 39.5867 178.061 39.2165 178.061 39.1107C178.061 38.9785 177.78 38.6611 177.423 38.3703C177.065 38.0794 176.784 37.6827 176.784 37.524C176.784 37.3389 176.325 36.6514 175.763 35.9903C175.201 35.3292 174.742 34.959 174.742 35.1441C174.742 35.3027 174.971 35.8316 175.252 36.2547C175.533 36.6778 175.712 37.2332 175.635 37.4447C175.559 37.6563 175.354 37.8414 175.176 37.8414C175.022 37.8414 174.435 37.3125 173.899 36.6514C173.388 35.9903 172.852 35.4614 172.699 35.4614C172.546 35.4614 172.495 35.6201 172.571 35.8052C172.648 35.9638 172.597 36.3076 172.469 36.5192C172.341 36.7307 172.112 36.8365 171.958 36.7307C171.805 36.5985 171.55 36.2018 171.397 35.8052C171.244 35.3821 171.065 34.5888 171.014 34.007C170.937 33.3194 170.605 32.5261 170.018 31.7592C169.405 30.9395 169.201 30.4899 169.38 30.3048C169.533 30.1461 169.635 29.7495 169.635 29.3793C169.66 29.009 169.814 28.4802 170.018 28.1893C170.197 27.8984 170.273 27.4488 170.197 27.2108C170.018 26.7613 169.992 26.7613 169.558 27.2108C169.15 27.634 169.099 27.6075 168.69 26.6026C168.409 25.9151 168.205 24.3284 168.103 21.9749C168.001 20.018 167.822 18.3785 167.694 18.3256C167.567 18.2992 167.465 17.5323 167.49 16.6068C167.49 15.7077 167.567 14.8086 167.669 14.6499C167.822 14.3855 167.924 14.3855 168.231 14.6499C168.46 14.8086 168.639 15.2846 168.614 15.7077C168.614 16.1043 168.716 16.4745 168.869 16.5539C169.022 16.6332 169.073 16.9505 169.022 17.2943C168.971 17.6116 168.997 18.4843 169.099 19.1983C169.175 19.9387 169.328 20.4676 169.405 20.3883C169.507 20.3089 169.788 20.4412 170.043 20.7056C170.503 21.1287 170.529 21.0758 170.095 18.7223C169.788 16.8712 169.737 16.2101 169.967 15.9721C170.146 15.787 170.401 15.7341 170.554 15.8399C170.707 15.9457 171.014 16.977 171.192 18.1141C171.397 19.3041 171.678 20.256 171.856 20.3089C172.035 20.3618 172.188 20.1767 172.188 19.9387C172.188 19.6743 172.035 18.9338 171.805 18.2727C171.499 17.3207 171.473 17.0034 171.729 16.739C172.01 16.4481 172.188 16.5539 172.75 17.3207C173.21 17.9025 173.414 18.4843 173.337 18.8016C173.261 19.0925 173.286 19.3305 173.388 19.3305C173.516 19.3305 173.925 19.0925 174.359 18.8016C174.767 18.5372 175.227 18.3785 175.354 18.4843C175.508 18.5901 175.508 17.8761 175.38 16.6332C175.227 15.073 175.252 14.5441 175.508 14.3326C175.712 14.1739 175.967 14.1475 176.12 14.2797ZM188.887 43.9764C189.168 44.0293 189.398 44.1615 189.372 44.3202C189.347 44.4789 189.143 44.6904 188.913 44.8491C188.632 45.0342 188.453 45.0077 188.274 44.7168C188.147 44.5053 188.121 44.2144 188.198 44.1086C188.274 43.9764 188.581 43.9235 188.887 43.9764Z" fill="#FFD966"/>
<path d="M191.109 18.0612C190.087 17.9554 189.194 17.7703 189.168 17.6381C189.117 17.4794 190.751 17.453 193.202 17.5587C196.394 17.691 197.926 17.8761 199.892 18.405C201.296 18.7752 203.492 19.5949 204.744 20.256C205.995 20.8907 207.705 22.0278 208.522 22.7682C209.314 23.4822 209.927 24.1433 209.85 24.2227C209.774 24.302 209.34 24.064 208.905 23.7202C208.446 23.35 207.322 22.7153 206.403 22.2922C205.484 21.8691 203.492 21.1023 201.935 20.5734C200.377 20.0709 197.747 19.3305 196.062 18.9338C194.377 18.5372 192.155 18.1405 191.109 18.0612Z" fill="#F1C232"/>
<path d="M215.212 23.0327C214.982 22.8211 214.804 22.2658 214.804 21.8427C214.829 21.0758 214.829 21.0758 215.212 21.5782C215.417 21.8691 215.595 22.398 215.595 22.7682C215.621 23.35 215.57 23.3764 215.212 23.0327Z" fill="#F1C232"/>
<path d="M211.791 29.7759C211.944 29.1942 211.995 28.2422 211.918 27.6604L211.765 26.6026L212.276 27.6604C212.557 28.2422 212.787 29.1677 212.787 29.6966C212.787 30.2519 212.684 30.9395 212.531 31.2303C212.378 31.5212 211.816 32.0501 211.255 32.4203C210.693 32.7906 210.131 33.0814 209.978 33.0814C209.825 33.0814 210.131 32.579 210.616 31.9443C211.127 31.3361 211.638 30.3577 211.791 29.7759Z" fill="#F1C232"/>
<path d="M207.093 14.4648C206.761 14.1475 206.735 13.9359 206.939 13.645C207.169 13.3277 207.297 13.3277 207.884 13.6186C208.267 13.8037 208.778 14.1739 209.008 14.4119C209.34 14.7292 209.391 14.9408 209.212 15.2317C208.982 15.5754 208.854 15.5754 208.242 15.2581C207.859 15.073 207.348 14.7028 207.093 14.4648Z" fill="#FFD966"/>
<path d="M207.042 43.1302C207.118 43.1302 208.037 42.4691 209.11 41.6758C210.565 40.618 211.178 40.3007 211.408 40.4858C211.612 40.6445 211.714 40.9089 211.612 41.094C211.535 41.2527 209.978 42.522 204.744 46.3299L204.182 45.5895C203.748 45.0077 203.697 44.7697 203.926 44.5053C204.182 44.2409 204.284 44.2409 204.565 44.5053C204.82 44.7962 205.05 44.7169 205.765 44.188C206.607 43.5533 206.633 43.5269 206.071 43.3418C205.765 43.2624 204.718 43.1831 203.722 43.1566C202.65 43.1566 201.807 42.998 201.628 42.8129C201.424 42.6013 201.399 42.3633 201.552 42.2047C201.679 42.046 202.752 41.9931 204.156 42.046C205.458 42.0989 206.684 42.2311 206.837 42.3633C207.016 42.4955 207.118 42.7071 207.042 42.8658C206.965 43.0244 206.965 43.1302 207.042 43.1302Z" fill="#FFD966"/>
</svg>
