<svg width="406" height="229" viewBox="0 0 406 229" fill="none" xmlns="http://www.w3.org/2000/svg">
<mask id="mask0_1_9" style="mask-type:alpha" maskUnits="userSpaceOnUse" x="0" y="0" width="406" height="229">
<rect width="406" height="229" fill="#D9D9D9"/>
</mask>
<g mask="url(#mask0_1_9)">
<path d="M141.622 215.543C138.984 215.094 136.344 214.655 133.71 214.19C133.243 214.107 132.796 213.908 132.342 213.763C130.97 213.49 129.6 213.21 128.23 212.934C127.079 212.592 125.928 212.253 124.778 211.91C123.153 211.453 121.526 210.991 119.901 210.534C119.801 210.431 119.701 210.329 119.599 210.229C118.605 210.021 117.608 209.812 116.614 209.604C112.454 208.546 108.294 207.491 104.131 206.433C103.488 206.191 102.85 205.947 102.208 205.706C101.819 205.525 101.43 205.348 101.041 205.167C100.323 205.011 99.6013 204.857 98.8834 204.7C98.4867 204.508 98.0874 204.311 97.6908 204.119C97.2584 204.002 96.826 203.885 96.3897 203.77C95.4284 203.379 94.4672 202.989 93.5059 202.598C92.1893 202.084 90.9004 201.467 89.5434 201.086C87.8039 200.599 87.176 199.782 87.5224 197.989C88.2244 194.321 88.9397 190.656 89.6517 186.991C89.8646 186.458 90.0769 185.929 90.2899 185.396C90.3624 185.067 90.4343 184.74 90.5068 184.41C90.8627 183.211 91.2161 182.007 91.572 180.808C91.7721 180.115 91.9755 179.422 92.1763 178.725C92.1769 178.722 92.2154 178.667 92.2154 178.667C92.5047 178.133 92.7906 177.598 93.0799 177.063C93.1913 176.954 93.302 176.849 93.4134 176.74C93.4583 176.636 93.5 176.53 93.5456 176.423C93.9753 176.05 94.4055 175.674 94.8352 175.302C94.9521 175.807 94.9922 176.352 95.2113 176.812C95.4631 177.351 95.7643 178.076 96.23 178.268C98.3744 179.149 100.562 179.949 102.788 180.612C103.704 180.884 104.776 180.891 105.724 180.725C106.407 180.606 107.248 179.83 106.428 179.147C104.656 177.679 102.75 176.343 100.778 175.152C99.8139 174.568 98.5299 174.533 97.4782 174.058C96.2113 173.486 95.4465 173.947 94.7961 174.96C94.5243 174.782 94.2492 174.604 93.9774 174.426C93.9686 174.314 93.9565 174.201 93.9477 174.089C94.1007 173.893 94.2544 173.693 94.4075 173.496C94.451 173.277 94.4944 173.059 94.5379 172.84C94.3943 172.244 94.2552 171.641 94.1043 171.046C93.6754 169.35 93.2432 167.653 92.8144 165.957C92.7998 165.527 92.7892 165.094 92.7745 164.665C92.7889 164.523 92.8066 164.382 92.821 164.24C93.2458 162.036 93.6746 159.828 94.0994 157.623C95.0733 155.07 94.13 152.559 93.9395 150.029C93.8268 149.641 93.7173 149.255 93.6038 148.871C93.5698 148.313 93.533 147.752 93.499 147.194C93.5298 146.969 93.56 146.748 93.5909 146.524C93.4208 145.574 93.2513 144.621 93.0846 143.673C93.0815 143.428 93.0785 143.183 93.0748 142.941C92.9493 141.663 92.8245 140.381 92.6991 139.103L92.707 139.115C92.6531 138.155 92.5998 137.19 92.5426 136.229C92.4049 133.936 91.6993 133.579 89.5713 134.75C89.1952 134.957 88.8771 135.273 88.5303 135.541C88.4207 135.536 88.3105 135.552 88.207 135.587C88.0803 135.651 87.9563 135.719 87.8296 135.784C87.0736 135.957 86.3217 136.127 85.5658 136.301C85.2102 136.457 84.8553 136.61 84.4997 136.767C84.0548 136.713 83.6105 136.655 83.1656 136.601C82.8356 136.542 82.5056 136.484 82.1762 136.421C81.5972 136.416 81.021 136.415 80.4421 136.41C80.0038 136.323 79.5621 136.235 79.1238 136.148C76.9216 135.679 74.7168 135.206 72.5146 134.737C71.863 134.525 71.208 134.312 70.5558 134.103C70.1141 134.015 69.6725 133.927 69.2309 133.839C67.9027 133.575 66.5738 133.314 65.245 133.053C64.0297 132.811 62.8124 132.562 61.5971 132.321C60.0247 132.121 58.4516 131.925 56.8792 131.726C56.7458 131.789 56.6118 131.856 56.4785 131.919L56.4878 131.907C55.1386 132.685 53.7675 133.434 52.4383 134.251C50.1182 135.676 47.1826 135.718 45.5422 133.657C43.4296 131.002 40.6726 131.118 37.8935 131.085C35.7889 131.063 33.6421 131.166 31.5939 131.588C30.2374 131.865 28.9441 132.692 27.7502 133.47C23.1283 136.489 18.5602 139.584 13.9734 142.651C13.0015 143.511 12.0296 144.371 11.0576 145.231C10.1682 145.329 9.5406 145.204 9.91724 144.057C10.4915 142.316 11.0371 140.562 11.5954 138.814C11.84 138.175 12.0814 137.534 12.326 136.894C13.9594 134.011 15.5954 131.131 17.2287 128.248C17.7244 127.648 18.2167 127.047 18.7124 126.447C19.6545 125.615 20.5966 124.784 21.5354 123.951C21.9518 123.594 22.3688 123.233 22.7852 122.875C23.0491 122.693 23.3164 122.512 23.5803 122.331C23.7548 122.217 23.9285 122.107 24.1029 121.994L24.6952 121.602C29.8091 118.957 34.9269 116.309 40.5097 113.423C39.1726 113.394 38.2508 113.17 37.4637 113.395C32.2299 114.891 27.1981 116.882 22.5506 119.751C22.4929 119.763 22.4458 119.792 22.4087 119.839C21.6096 120.421 20.8105 121.002 20.0114 121.583C19.581 121.855 19.1499 122.131 18.7227 122.404C18.4765 122.427 18.2335 122.451 17.9879 122.471C17.8332 122.434 17.6791 122.393 17.5243 122.355L17.4704 122.279C18.1105 120.64 18.7506 119.002 19.3934 117.367C19.5035 117.265 19.6142 117.159 19.7242 117.057C19.7896 116.85 19.8557 116.64 19.9211 116.432C20.5312 115.569 21.144 114.71 21.7541 113.847C22.9564 112.557 24.156 111.264 25.3583 109.975C25.9033 109.491 26.4509 109.012 26.9959 108.528C27.1563 108.346 27.316 108.168 27.4797 107.987C28.0536 107.324 29.7357 107.214 28.6234 105.709C28.9577 104.653 29.2893 103.593 29.6236 102.538C29.7447 102.328 29.8659 102.118 29.9877 101.904C30.4258 100.969 30.8672 100.035 31.3052 99.0993C31.6911 98.374 32.0737 97.648 32.4603 96.9194L32.4444 96.93C32.6107 96.7186 32.7777 96.504 32.944 96.2927C33.0322 96.2138 33.123 96.139 33.2112 96.0601C33.4218 95.7475 33.6331 95.4315 33.8437 95.1188C34.1802 94.6074 34.5127 94.0987 34.8491 93.5873C35.177 93.0845 35.5048 92.5817 35.836 92.0796C36.2939 91.496 36.7484 90.9117 37.2062 90.3281C37.8357 89.5238 38.4645 88.7229 39.0939 87.9187C39.7164 86.9065 41.3236 86.4104 40.7488 84.771C40.6578 83.493 40.5636 82.2143 40.4726 80.9363C40.5073 80.6059 40.5393 80.2714 40.574 79.941C40.5318 79.7019 40.4902 79.4596 40.4481 79.2206C40.4426 79.1093 40.4411 78.9954 40.4356 78.8842C40.4577 77.7319 40.4838 76.577 40.5059 75.4248C40.5898 74.3089 40.6744 73.1897 40.7583 72.0738C41.1311 70.1996 41.504 68.3254 41.8735 66.4505C41.9612 66.0101 42.0488 65.5697 42.1364 65.1293C42.2023 64.7981 42.2681 64.467 42.334 64.1358C42.3999 63.8047 42.4651 63.4769 42.5343 63.1464C42.7698 62.6218 43.0512 62.1098 43.2356 61.5647C43.5614 60.6037 43.8261 59.6202 44.12 58.6459C44.2234 58.1088 44.3275 57.5684 44.4309 57.0313C44.6413 56.1471 44.8543 55.267 45.0647 54.3828C45.2077 54.0636 45.3512 53.741 45.4941 53.4217L46.1029 50.4481C46.5157 49.501 46.9325 48.5511 47.3453 47.604C47.6275 46.741 47.909 45.8813 48.1878 45.0176C48.2346 44.7998 48.2854 44.5792 48.3322 44.3613C48.9847 43.0075 49.6365 41.6569 50.2923 40.3037C50.4558 40.0023 50.62 39.6976 50.7802 39.3955C51.0954 38.8696 51.4139 38.3443 51.7291 37.8184C51.7867 37.7369 51.8258 37.6448 51.8389 37.5441C52.7525 36.3352 53.6662 35.1262 54.5804 33.9139C55.2068 33.2467 55.8338 32.5763 56.4601 31.9091C57.6333 31.1132 58.8065 30.3173 59.9797 29.5215C60.5783 29.3755 61.1809 29.2268 61.7795 29.0809C62.2884 28.8654 62.7999 28.6539 63.3088 28.4384C63.6606 28.3707 64.0117 28.3063 64.3634 28.2386C64.7172 28.1954 65.0716 28.1488 65.4254 28.1056L66.0882 28.2271C67.0176 28.1883 67.9436 28.1487 68.873 28.1099C69.0935 28.1469 69.318 28.1812 69.5384 28.2182C70.1114 28.253 70.6851 28.2845 71.2548 28.3186C71.5881 28.3608 71.9221 28.3997 72.2554 28.442C73.3809 28.5798 74.5098 28.7183 75.6353 28.8562C76.7436 29.0457 77.8513 29.2385 78.9563 29.4273C80.2845 29.6916 81.6127 29.9558 82.9409 30.22C83.4875 30.3529 84.0308 30.485 84.5767 30.6212C84.8956 30.7707 85.2151 30.9169 85.534 31.0664C85.8661 31.1324 86.1948 31.1978 86.5262 31.2672C87.3911 31.5528 88.2559 31.8385 89.1181 32.1202L90.4416 32.3904C92.0584 32.9392 93.6751 33.488 95.2919 34.0369C95.5111 34.0805 95.7335 34.1247 95.952 34.1716C96.1745 34.2159 96.397 34.2602 96.6194 34.3044L98.5425 35.0312C98.765 35.0755 98.9875 35.1197 99.21 35.164C99.4239 35.2341 99.6338 35.3068 99.8476 35.3769C102.448 36.2041 105.045 37.0339 107.645 37.861C108.491 38.1877 109.342 38.5118 110.188 38.8385C111.133 39.3294 112.077 39.8236 113.022 40.3145C113.243 40.3621 113.462 40.409 113.684 40.4565C114.405 40.8581 115.122 41.2591 115.843 41.6607C116.464 42.0114 117.088 42.3627 117.708 42.7133C118.332 43.0647 118.957 43.4127 119.581 43.764C119.954 43.9347 120.332 44.1027 120.705 44.2734C120.945 44.4553 121.184 44.6406 121.428 44.8233C121.739 44.992 122.053 45.1647 122.365 45.3334L122.366 45.3268C122.457 45.4274 122.553 45.5326 122.65 45.6346C122.857 45.7066 123.063 45.782 123.273 45.8548C123.375 45.968 123.477 46.0778 123.579 46.191C124.609 46.7746 125.639 47.3581 126.669 47.9417C126.77 48.041 126.87 48.1436 126.971 48.2429C128.38 49.0017 129.779 49.7791 131.208 50.4936C131.424 50.6021 131.783 50.4291 132.078 50.3846C133.71 50.3579 134.716 51.0057 135.01 52.7406C135.126 53.4418 135.702 54.066 136.072 54.7247C136.093 54.8942 136.111 55.0664 136.132 55.2359C136.884 57.6334 137.61 60.0428 138.413 62.423C138.623 63.0501 139.074 63.5942 139.414 64.1781C139.751 65.605 140.735 65.0158 141.575 64.873C141.83 64.8755 142.081 64.8807 142.335 64.8832C145.069 65.0415 147.805 65.152 150.53 65.3705C153.024 65.5706 155.52 65.8296 157.999 66.1714C159.36 66.3595 160.259 67.1855 160.511 68.6263C160.716 69.7963 160.849 71.0207 161.296 72.1045C162.2 74.2914 162.014 76.2198 160.432 77.9946C160.356 78.2033 160.283 78.4126 160.207 78.6212C159.248 79.2051 158.354 80.1114 157.321 80.3053C154.893 80.7621 152.4 80.8547 149.934 81.1387C149.03 81.2411 148.137 81.4594 147.238 81.6247C146.796 81.5369 146.355 81.4457 145.914 81.3545C144.772 81.1101 143.406 80.377 143.325 82.5021C143.294 82.6577 143.269 82.8147 143.242 82.971C143.344 87.0707 143.448 91.167 143.554 95.2674C143.51 95.4859 143.466 95.7078 143.419 95.9257C143.244 96.8065 143.068 97.6906 142.896 98.5721C142.314 101.881 141.732 105.188 141.15 108.497C140.959 109.161 140.771 109.826 140.58 110.49C140.33 111.126 140.082 111.765 139.831 112.4C139.494 112.811 139.157 113.223 138.819 113.634C138.513 114.01 138.204 114.386 137.898 114.759C137.647 114.946 137.393 115.13 137.142 115.318C135.817 115.66 133.925 115.576 133.279 116.429C131.737 118.47 130.013 118.478 127.94 117.952L126.032 117.407C124.629 116.859 123.223 116.311 121.82 115.764C121.749 115.684 121.659 115.635 121.551 115.621C120.315 114.824 119.076 114.027 117.839 113.233C116.745 112.417 115.647 111.603 114.553 110.786C113.935 110.247 113.314 109.71 112.696 109.17C112.169 108.714 111.645 108.259 111.118 107.803C110.619 107.329 110.123 106.855 109.623 106.38C109.527 106.485 109.427 106.589 109.33 106.693L110.629 108.095C111.369 109.474 112.109 110.854 112.85 112.234C112.897 112.584 112.942 112.934 112.989 113.287C113.421 114.1 113.853 114.912 114.282 115.724C114.289 115.794 114.323 115.849 114.384 115.888C115.412 118.145 116.398 120.424 117.491 122.651C117.965 123.617 118.658 124.474 119.253 125.384C119.488 126.043 119.727 126.7 119.962 127.36C121.089 130.162 122.326 132.928 123.309 135.778C124.757 139.97 126.366 144.132 126.551 148.65C126.649 151.021 125.193 152.459 122.865 151.962C121.491 151.668 120.186 151.047 118.847 150.574C118.692 150.522 118.533 150.47 118.377 150.419L118.395 150.401C117.914 149.937 117.43 149.473 116.949 149.009C116.809 149.088 116.666 149.166 116.525 149.248C116.59 149.636 116.654 150.024 116.719 150.409C116.896 152.399 117.076 154.394 117.253 156.384C117.222 156.54 117.191 156.696 117.16 156.851C117.24 158.654 117.323 160.457 117.403 162.256C117.398 162.506 117.397 162.757 117.391 163.011C117.202 164.326 117.013 165.641 116.827 166.957C116.783 167.179 116.739 167.398 116.699 167.62C116.333 169.265 115.968 170.911 115.603 172.556C115.482 172.748 115.36 172.944 115.239 173.137C115.115 173.24 114.995 173.34 114.871 173.443C114.849 173.552 114.826 173.665 114.805 173.774C114.78 173.882 114.754 173.994 114.729 174.103C114.71 174.213 114.692 174.323 114.673 174.436C114.343 174.863 113.931 175.249 113.702 175.723C112.794 177.615 111.079 178.775 109.266 179.075C107.218 179.411 106.651 180.369 106.607 182.116C106.555 182.449 106.499 182.779 106.447 183.113C106.04 184.275 105.794 185.527 105.183 186.569C104.487 187.759 105.097 187.97 106.006 188.192C105.986 189.28 105.332 189.48 104.42 189.33C104.318 189.392 104.218 189.458 104.116 189.52C104.398 190.272 104.683 191.027 104.965 191.779C105.264 192.076 105.565 192.37 105.865 192.667C105.991 192.744 106.118 192.817 106.248 192.891C106.249 192.888 106.234 192.964 106.234 192.964C106.364 193.245 106.498 193.53 106.628 193.81C107.194 194.401 107.763 194.993 108.33 195.581L108.61 195.96C108.807 196.116 109.003 196.276 109.199 196.432C109.775 196.991 110.35 197.553 110.926 198.111C111.123 198.212 111.318 198.31 111.515 198.411C111.553 198.553 111.59 198.698 111.627 198.839C111.787 198.992 111.943 199.143 112.102 199.295C112.969 199.833 113.42 201.138 114.841 200.694C115.062 200.624 115.695 201.053 115.706 201.276C115.767 202.513 116.807 202.541 117.565 202.929C118.291 203.377 119.014 203.82 119.74 204.267C120.579 204.665 121.421 205.063 122.26 205.461L122.86 205.914C123.183 206.013 123.501 206.11 123.82 206.208C124.03 206.333 124.24 206.457 124.45 206.581C124.664 206.652 124.879 206.718 125.092 206.788C125.298 206.915 125.507 207.046 125.713 207.174L128.282 208.108C128.488 208.235 128.697 208.363 128.903 208.493C129.755 208.807 130.61 209.125 131.462 209.439C132.511 209.961 133.56 210.483 134.613 211.003C136.208 211.664 137.799 212.325 139.393 212.986C139.597 213.072 139.804 213.158 140.009 213.24C140.115 213.333 140.217 213.426 140.323 213.516C140.821 213.876 141.318 214.24 141.819 214.602C141.757 214.916 141.688 215.229 141.621 215.547L141.622 215.543ZM55.6958 75.8682C55.8184 75.7549 55.9451 75.639 56.0677 75.5257C56.2037 75.4495 56.343 75.3739 56.479 75.2977C56.6712 75.0777 56.864 74.8545 57.0562 74.6345C57.0004 74.6028 56.9479 74.5717 56.8921 74.5399C56.7604 74.8029 56.632 75.0665 56.4949 75.3215C56.4079 75.2732 56.3202 75.2282 56.2332 75.1799C56.1869 75.3084 56.1406 75.4369 56.0923 75.5581C55.963 75.6701 55.8344 75.7788 55.6998 75.8828C55.5968 75.8279 55.4932 75.7763 55.3902 75.7214C55.3505 75.834 55.3135 75.9505 55.2739 76.0631C54.5514 76.4151 53.829 76.7671 53.1092 77.1231C53.0267 77.4337 52.9409 77.7436 52.8531 78.0463C52.6963 77.9841 52.5402 77.9187 52.7986 78.0252C52.5205 78.0524 52.6791 78.0358 52.8371 78.0225C52.9282 77.7205 53.0201 77.4151 53.1145 77.1138C53.8257 76.7492 54.5361 76.388 55.2446 76.0194C55.3959 75.9704 55.5478 75.918 55.6958 75.8682ZM91.3808 109.309C91.3602 108.874 91.3363 108.439 91.3157 108.005C91.3887 106.25 91.4577 104.498 91.5306 102.743L91.4929 101.961C91.441 101.458 91.3885 100.959 91.3366 100.456C91.3839 100.132 91.5625 99.7543 91.4565 99.4888C90.2642 96.4942 90.8863 93.5405 91.5748 90.5827C91.8759 90.3534 92.3065 90.1844 92.4534 89.8797C93.5354 87.6164 95.2983 85.6779 95.593 83.0342C95.7619 81.5256 96.1799 80.0493 96.4398 78.552C96.6155 77.5473 97.4974 77.2959 98.0079 77.6969C98.6174 78.1728 99.724 78.5444 99.4087 79.8001C99.0873 81.0684 99.1306 82.4643 98.6299 83.6452C97.3817 86.6053 95.6194 89.3735 95.173 92.6239C94.9734 94.0782 95.0189 95.5674 94.9535 97.0416C95.5628 96.9803 95.7239 96.8471 95.883 96.7067C97.925 94.8753 99.8678 92.9175 102.031 91.2411C104.357 89.4387 107.023 90.4718 109.292 91.319C111.57 92.1681 114.145 93.1449 114.773 96.1272C115.006 97.2303 115.484 98.2823 115.928 99.586C117.948 98.06 119.788 96.6704 121.734 95.1987C122.116 95.9355 122.385 96.4539 122.669 97.006C125.464 96.4054 128.182 95.6862 130.946 95.2723C133.22 94.9328 135.548 94.9415 137.85 94.8212C138.718 94.7771 139.391 94.5701 139.408 93.5305C139.452 90.83 139.471 88.1315 139.559 85.4329C139.631 83.1615 138.545 80.8489 139.715 78.7651C139.268 78.2733 138.62 77.8862 138.48 77.3591C137.501 73.7049 136.741 69.9942 135.69 66.3632C134.775 63.2208 133.531 60.1746 132.503 57.0647C132.081 55.7862 131.861 54.4447 131.502 53.1443C131.422 52.8669 131.175 52.5663 130.922 52.4161C129.27 51.4197 127.601 50.4576 125.932 49.4923C122.489 47.506 119.094 45.4297 115.579 43.5772C112.721 42.0688 109.781 40.675 106.765 39.5242C103.656 38.3378 100.401 37.5388 97.2337 36.5093C93.0709 35.1545 88.9947 33.4691 84.762 32.4137C78.954 30.9657 73.0503 29.86 67.0069 29.8729C62.369 29.8832 58.5405 31.724 55.7298 35.2854C52.0458 39.9571 49.5512 45.313 47.816 50.9817C46.4651 55.3946 45.2339 59.8486 44.1089 64.3237C42.5068 70.6936 41.6538 77.1506 42.6042 83.8424C42.865 83.7462 43.1471 83.7163 43.3255 83.5659C45.2668 81.9279 47.1775 80.2529 49.1275 78.6236C51.23 76.8697 53.2899 75.0523 55.5102 73.4526C58.6409 71.1976 62.3447 70.2786 66.0559 69.4609C67.435 69.1569 68.8205 68.7338 70.2179 68.6847C71.5563 68.6377 71.6751 69.8972 71.7304 70.8858C71.7871 71.9195 71.2683 72.5667 70.1136 72.4541C69.1216 72.3565 68.0873 72.4021 67.1475 72.1291C65.5003 71.6465 64.1471 71.9762 62.7178 72.8795C55.5057 77.4311 48.9327 82.7261 43.2909 89.1357C42.0198 90.58 41.9867 90.5906 40.6541 88.8039C37.1429 92.7458 34.3579 97.0456 32.4209 101.872C34.0692 101.394 35.5256 100.806 36.9693 100.195C38.5907 99.5056 40.1415 98.5817 41.8271 98.1425C44.2593 97.5076 46.787 97.2428 49.2659 96.772C56.0356 95.4853 62.7683 95.6164 69.4458 97.3614C72.1364 98.0653 74.8025 98.8745 77.4613 99.703C78.6317 100.067 78.9733 101.195 78.1226 101.879C77.004 102.782 75.8371 103.755 74.1811 103.143C72.9369 102.682 71.5994 102.413 70.4267 101.818C66.4794 99.8143 62.2435 98.7754 57.92 98.2458C55.4904 97.9484 52.8999 97.9907 50.5214 98.5124C47.7101 99.1269 45.0599 100.459 42.3188 101.414C36.1917 103.548 30.7934 106.808 26.2941 111.5C24.3037 113.576 22.1351 115.523 20.9248 118.501C21.595 118.273 22.0748 118.152 22.5153 117.95C26.188 116.285 29.8014 114.467 33.5481 112.985C35.5001 112.213 37.5041 111.18 39.8047 111.727C40.8793 111.982 41.459 112.486 41.5423 113.594C41.6264 114.698 41.2173 115.488 40.1876 115.927C37.2903 117.165 34.3471 118.304 31.5037 119.652C27.4065 121.594 23.7385 124.173 20.402 127.272C17.5228 129.945 16.1807 133.534 14.2338 136.761C13.5233 137.938 13.2327 139.364 12.5882 141.129C13.4824 140.677 14.0158 140.459 14.494 140.155C19.3045 137.091 24.0917 133.989 28.9228 130.96C29.787 130.416 30.8053 129.947 31.8016 129.815C33.6456 129.569 35.5297 129.606 37.3945 129.516C40.8345 129.35 44.1321 129.38 46.6881 132.374C48.1128 134.044 49.9318 134.028 51.7909 132.855C52.9317 132.135 54.0278 131.328 55.2325 130.738C55.9974 130.363 56.9589 130.059 57.777 130.163C61.1111 130.599 64.4413 131.107 67.7359 131.776C71.8042 132.599 75.8376 133.615 79.8868 134.534C82.3175 135.086 84.7278 134.908 87.1002 134.21C90.6278 133.17 91.6861 131.945 91.9334 128.689C92.0431 127.114 92.2631 125.54 92.2381 123.965C92.1916 120.971 92.0064 117.981 91.8796 114.992C91.7133 113.086 91.5437 111.179 91.3774 109.274L91.3934 109.315L91.3808 109.309ZM100.135 186.608C103.218 187.39 103.208 187.388 104.011 184.512C104.166 183.957 104.442 183.437 104.667 182.883C103.417 182.466 102.271 182.083 101.129 181.701C100.812 181.541 100.495 181.382 100.174 181.225L98.8551 180.897C98.6491 180.77 98.4431 180.643 98.2344 180.512C97.7814 180.325 97.3124 180.167 96.8759 179.949C94.6607 178.834 93.8387 179.2 93.1706 181.587C93.0709 181.95 92.8277 182.27 92.6882 182.624C92.2055 183.853 92.3429 184.724 93.9489 184.703C94.3694 184.896 94.7933 185.091 95.2138 185.285C96.2093 185.486 97.2015 185.687 98.1963 185.892C98.8393 186.13 99.4823 186.368 100.125 186.609L100.135 186.608ZM151.335 69.999C151.29 69.7421 151.256 69.2673 151.195 69.2653C150.478 69.2226 149.755 69.2508 149.034 69.2624C146.9 69.1615 144.745 69.2043 142.638 68.9126C140.972 68.681 140.774 69.4539 140.967 70.6868C141.183 72.0654 141.388 73.4626 141.797 74.7901C142.441 76.8632 142.492 77.0559 144.972 77.2738C147.371 77.4826 149.816 77.184 152.48 77.1013C152.344 76.3649 152.295 75.8458 152.146 75.3618C151.604 73.6118 150.505 71.9509 151.329 69.9977L151.335 69.999ZM96.2292 114.886C96.064 114.936 95.9021 114.986 95.7369 115.036C95.6712 115.522 95.5286 116.014 95.546 116.499C95.6843 120.089 95.812 123.681 96.0314 127.264C96.2848 131.421 96.6331 135.569 96.939 139.723C97.1071 142.001 97.1008 144.306 97.4794 146.55C98.1514 150.546 98.6913 154.496 97.7907 158.537C97.2923 160.765 96.9858 163.051 96.7848 165.328C96.6107 167.314 97.0013 169.203 98.7614 170.541C100.323 171.729 101.869 172.946 103.386 174.191C106.831 177.017 110.642 175.18 111.657 171.082C112.242 168.73 112.618 166.323 112.977 163.926C113.265 162.008 113.691 160.041 113.528 158.139C113.19 154.216 112.685 150.281 111.885 146.425C111.292 143.574 110.876 140.41 107.474 139.082C106.865 138.844 106.278 138.204 105.969 137.606C104.976 135.69 104.042 133.742 103.228 131.745C101.092 126.518 99.0381 121.259 96.9361 116.018C96.7721 115.61 96.4688 115.261 96.2332 114.883L96.2292 114.886ZM116.518 104.64L116.047 104.749C115.675 104.348 115.118 104.007 114.96 103.535C114.536 102.249 114.203 100.919 113.975 99.583C113.409 96.2689 112.351 93.4319 108.356 93.0571C108.102 93.034 107.881 92.7355 107.624 92.6945C106.098 92.4529 104.58 91.2663 103.027 92.5339C101.488 93.7942 100.005 95.124 98.4724 96.3922C97.3326 97.3324 96.4127 98.3474 96.3163 99.9427C96.1894 102.021 95.6682 104.12 95.8599 106.158C96.0941 108.625 96.6636 111.124 97.5156 113.452C98.5564 116.289 100.175 118.91 101.307 121.721C103.073 126.103 104.591 130.584 106.315 134.982C106.67 135.89 107.42 136.665 108.077 137.423C108.634 138.06 109.192 138.099 109.809 137.302C110.663 136.202 112.319 136.383 112.955 137.56C113.487 138.547 113.871 139.632 114.508 140.544C115.506 141.968 116.561 143.379 117.78 144.609C118.774 145.613 119.994 146.423 121.21 147.164C122.239 147.789 122.775 147.503 122.352 146.197C121.045 142.144 119.963 138.004 118.414 134.047C116.763 129.832 114.797 125.73 112.757 121.685C110.443 117.098 107.901 112.626 105.444 108.113C103.894 105.264 102.122 102.53 101.596 99.2236C101.248 97.051 102.407 95.9598 104.498 96.3998C106.96 96.9171 107.67 99.2822 109.343 100.624C111.841 102.625 113.959 105.095 116.462 107.09C118.776 108.938 121.358 110.467 123.874 112.048C125.031 112.774 126.314 113.298 127.834 114.058C127.749 113.356 127.81 112.997 127.663 112.781C125.788 110.047 123.747 107.413 122.039 104.578C121.045 102.931 118.748 101.445 120.561 98.8725C117.839 99.8559 116.156 101.48 116.511 104.642L116.518 104.64ZM131.311 211.602C131.341 211.505 131.367 211.41 131.397 211.313C131.054 211.09 130.731 210.822 130.364 210.656C126.59 208.959 122.805 207.287 119.031 205.59C112.4 202.604 107.328 197.788 103.132 191.986C102.544 191.173 102.351 190.078 101.978 189.112C102.103 188.982 102.229 188.853 102.355 188.723C98.8147 187.832 95.2715 186.938 91.537 185.999L88.9526 198.99C93.5853 200.689 97.9897 202.495 102.517 203.908C107.463 205.453 112.523 206.636 117.535 207.974C117.752 208.03 117.974 208.078 118.189 208.138C122.099 209.257 126.006 210.388 129.919 211.487C130.357 211.609 130.845 211.568 131.311 211.602ZM75.8137 101.53C75.8958 101.343 75.9778 101.157 76.0598 100.97C73.0436 100.012 70.0267 99.057 67.0105 98.099C66.9524 98.2871 66.8909 98.4745 66.8328 98.6626C69.8595 99.516 72.4977 101.576 75.8164 101.534L75.8137 101.53Z" fill="#060606"/>
<path d="M141.149 108.5C141.731 105.191 142.313 101.885 142.896 98.5754C143.203 98.6435 143.511 98.7116 143.818 98.7796C143.555 100.207 143.291 101.639 143.031 103.067C142.996 103.291 142.959 103.514 142.925 103.738C142.57 105.382 142.215 107.029 141.857 108.672C141.62 108.614 141.387 108.554 141.15 108.497L141.149 108.5Z" fill="#E6D9C0"/>
<path d="M92.3378 163.459C92.6506 161.8 92.9627 160.144 93.2722 158.485C93.3447 158.155 93.4132 157.828 93.4858 157.498C93.6916 157.539 93.8975 157.58 94.1034 157.621C93.6786 159.826 93.2498 162.033 92.825 164.238C92.6626 163.978 92.5009 163.715 92.3385 163.456L92.3378 163.459Z" fill="#E6D9C0"/>
<path d="M139.409 64.1873C139.824 64.2699 140.239 64.3525 140.657 64.4357C140.962 64.5859 141.268 64.7328 141.573 64.8829C140.729 65.0284 139.745 65.6175 139.412 64.188L139.409 64.1873Z" fill="#E6D9C0"/>
<path d="M113.262 110.233C113.073 109.879 112.884 109.528 112.692 109.173C113.31 109.712 113.931 110.249 114.549 110.789C114.12 110.603 113.691 110.418 113.262 110.233Z" fill="#E6D9C0"/>
<path d="M138.822 113.638C138.795 113.843 138.771 114.051 138.744 114.256C138.462 114.424 138.183 114.595 137.901 114.763C138.207 114.387 138.517 114.011 138.822 113.638Z" fill="#E6D9C0"/>
<path d="M92.817 165.961C92.6447 165.699 92.473 165.434 92.3007 165.173C92.4584 165.005 92.6161 164.836 92.7772 164.669C92.7918 165.098 92.8058 165.532 92.817 165.961Z" fill="#E6D9C0"/>
<path d="M91.9201 128.687C91.6729 131.942 90.6139 133.17 87.0869 134.207C84.7145 134.906 82.3042 135.084 79.8735 134.531C75.8243 133.612 71.7909 132.596 67.7226 131.773C64.4274 131.107 61.0978 130.596 57.7637 130.16C56.9463 130.053 55.9881 130.358 55.2192 130.735C54.0145 131.325 52.9184 132.133 51.7776 132.853C49.9185 134.025 48.0995 134.042 46.6748 132.371C44.1188 129.377 40.8212 129.348 37.3812 129.514C35.5165 129.604 33.6316 129.57 31.7884 129.812C30.7921 129.945 29.777 130.414 28.9095 130.957C24.0784 133.986 19.2912 137.089 14.4808 140.153C14.0026 140.457 13.4698 140.671 12.5749 141.126C13.2228 139.362 13.514 137.933 14.2206 136.758C16.1674 133.531 17.5095 129.942 20.3887 127.269C23.7286 124.171 27.3932 121.592 31.4904 119.649C34.3338 118.301 37.2771 117.162 40.1744 115.924C41.204 115.485 41.6131 114.696 41.5291 113.591C41.4457 112.483 40.866 111.979 39.7914 111.724C37.4869 111.18 35.4868 112.21 33.5348 112.982C29.7881 114.464 26.1747 116.282 22.502 117.947C22.0582 118.148 21.5817 118.27 20.9115 118.498C22.1218 115.521 24.2871 113.573 26.2808 111.498C30.7794 106.809 36.1784 103.546 42.3055 101.412C45.0466 100.456 47.6968 99.1243 50.5081 98.5097C52.886 97.9914 55.4771 97.9457 57.9068 98.2432C62.2302 98.7728 66.4654 99.815 70.4134 101.816C71.5861 102.41 72.9203 102.679 74.1678 103.141C75.8271 103.753 76.9908 102.78 78.1094 101.877C78.9601 101.192 78.6184 100.064 77.4481 99.7003C74.7925 98.8726 72.1264 98.0633 69.4326 97.3587C62.7551 95.6138 56.0223 95.4827 49.2526 96.7694C46.7737 97.2401 44.246 97.5049 41.8138 98.1398C40.1315 98.5797 38.5775 99.5029 36.956 100.192C35.5116 100.807 34.056 101.392 32.4076 101.869C34.3446 97.0429 37.1296 92.7432 40.6408 88.8013C41.9734 90.5879 42.0066 90.5773 43.2777 89.1331C48.9188 82.7267 55.4951 77.4325 62.7045 72.8769C64.1338 71.9736 65.4903 71.6445 67.1342 72.1264C68.0734 72.4028 69.1083 72.3539 70.1003 72.4514C71.2583 72.5647 71.7771 71.9175 71.7171 70.8832C71.6625 69.8912 71.5437 68.6318 70.2047 68.6821C68.8106 68.7318 67.425 69.1549 66.0426 69.4583C62.3314 70.2759 58.6316 71.1922 55.4969 73.4499C53.28 75.0503 51.2167 76.8671 49.1143 78.621C47.1649 80.247 45.2535 81.9253 43.3122 83.5632C43.1338 83.7136 42.8517 83.7436 42.591 83.8397C41.6405 77.1479 42.4935 70.691 44.0956 64.3211C45.2206 59.846 46.4485 55.3913 47.8027 50.979C49.5413 45.311 52.0325 39.9545 55.7165 35.2828C58.5279 31.7181 62.3524 29.8799 66.9936 29.8703C73.037 29.8574 78.9408 30.963 84.7488 32.411C88.9847 33.4672 93.0577 35.1518 97.2204 36.5066C100.391 37.5368 103.646 38.3358 106.752 39.5216C109.768 40.6724 112.707 42.0695 115.566 43.5746C119.081 45.4271 122.475 47.5034 125.919 49.4896C127.588 50.4517 129.26 51.4177 130.908 52.4135C131.161 52.567 131.412 52.8649 131.488 53.1416C131.852 54.4394 132.067 55.7836 132.49 57.0621C133.518 60.172 134.762 63.2182 135.676 66.3606C136.732 69.989 137.491 73.7029 138.466 77.3565C138.607 77.8802 139.255 78.2706 139.702 78.7624C138.532 80.8463 139.617 83.1622 139.546 85.4303C139.461 88.1295 139.439 90.8273 139.395 93.5278C139.377 94.5708 138.705 94.7744 137.837 94.8186C135.531 94.9382 133.207 94.9268 130.933 95.2696C128.169 95.6836 125.45 96.4027 122.656 97.0034C122.372 96.4513 122.102 95.9329 121.721 95.196C119.775 96.6678 117.935 98.054 115.915 99.5834C115.471 98.2764 114.996 97.2283 114.76 96.1246C114.128 93.1416 111.554 92.1648 109.279 91.3163C107.013 90.4731 104.343 89.4394 102.018 91.2384C99.8546 92.9149 97.9117 94.8727 95.8698 96.704C95.714 96.8452 95.5529 96.9783 94.9402 97.0389C95.0056 95.5648 94.9568 94.0749 95.1597 92.6212C95.6101 89.3682 97.3684 86.6026 98.6166 83.6426C99.114 82.461 99.074 81.0657 99.3954 79.7974C99.7108 78.5417 98.6041 78.1701 97.9946 77.6943C97.4841 77.2932 96.5982 77.5473 96.4265 78.5493C96.1666 80.0467 95.748 81.5263 95.5797 83.0316C95.285 85.6752 93.5254 87.6144 92.4401 89.877C92.2932 90.1817 91.8626 90.3508 91.5616 90.5801C90.0342 92.4621 89.8907 98.4062 91.3233 100.454C91.3752 100.956 91.4277 101.456 91.4796 101.958C91.4933 102.219 91.5037 102.479 91.5174 102.74C91.4444 104.495 91.3754 106.247 91.3025 108.002C91.323 108.437 91.347 108.872 91.3675 109.306L91.3515 109.265C91.3464 111.113 91.3413 112.96 91.3329 114.807C91.2406 115.219 91.0574 115.637 91.0653 116.048C91.1758 120.108 91.3142 124.167 91.4699 128.225C91.4768 128.382 91.7545 128.53 91.9075 128.681L91.9201 128.687ZM121.674 78.5461C120.127 80.1283 118.771 81.5692 116.685 81.5742C115.513 81.5788 114.686 82.1268 114.66 83.0235C114.627 84.0393 115.304 84.9071 116.594 85.1191C119.301 85.5647 121.395 84.2188 123.188 82.6478C125.48 80.6388 127.573 78.3598 129.491 75.9875C131.565 73.4224 132.317 71.3758 130.157 67.8341C129.007 65.946 127.756 64.1136 126.71 62.1706C125.57 60.0573 123.877 58.8841 121.535 58.5661C120.261 58.3919 119.097 58.36 118.723 60.017C118.348 61.674 119.671 61.7409 120.621 62.1881C121.1 62.4144 121.563 62.6717 122.036 62.9172C121.567 63.4333 121.218 63.5738 120.866 63.5899C119.617 63.6408 118.8 64.2253 117.987 65.2064C115.503 68.2028 115.139 71.4558 116.593 74.9224C117.012 75.9215 117.807 76.8886 118.679 77.5371C119.43 78.0963 120.535 78.1851 121.678 78.5435L121.674 78.5461Z" fill="#0146FE"/>
<path d="M96.2286 114.889C96.4675 115.267 96.7668 115.62 96.9314 116.024C99.0341 121.262 101.09 126.525 103.223 131.751C104.038 133.745 104.975 135.697 105.965 137.612C106.277 138.211 106.861 138.85 107.469 139.088C110.872 140.412 111.288 143.576 111.88 146.431C112.68 150.287 113.182 154.218 113.523 158.145C113.687 160.047 113.261 162.014 112.972 163.932C112.612 166.332 112.237 168.74 111.652 171.088C110.634 175.185 106.823 177.023 103.381 174.197C101.861 172.951 100.319 171.735 98.7567 170.547C96.9967 169.209 96.6093 167.321 96.7802 165.334C96.9778 163.057 97.2876 160.771 97.7861 158.543C98.6867 154.502 98.1468 150.552 97.4747 146.556C97.0995 144.313 97.1025 142.007 96.9343 139.729C96.6285 135.575 96.2835 131.427 96.0267 127.27C95.808 123.684 95.6803 120.092 95.5413 116.505C95.524 116.02 95.6626 115.531 95.7322 115.042C95.8975 114.992 96.0594 114.942 96.2246 114.892L96.2286 114.889Z" fill="#0146FE"/>
<path d="M116.517 104.643C116.162 101.481 117.842 99.8599 120.568 98.8738C118.755 101.446 121.052 102.929 122.046 104.579C123.753 107.415 125.795 110.045 127.67 112.783C127.82 112.998 127.755 113.361 127.841 114.059C126.321 113.299 125.034 112.775 123.881 112.049C121.365 110.468 118.784 108.936 116.469 107.091C113.966 105.096 111.848 102.626 109.35 100.625C107.676 99.2835 106.966 96.9184 104.505 96.4011C102.417 95.9618 101.254 97.0523 101.602 99.2249C102.129 102.531 103.901 105.266 105.45 108.114C107.907 112.631 110.449 117.102 112.764 121.687C114.804 125.731 116.773 129.837 118.42 134.048C119.97 138.005 121.052 142.145 122.358 146.198C122.781 147.508 122.241 147.793 121.216 147.166C120 146.425 118.781 145.614 117.786 144.611C116.567 143.38 115.509 141.968 114.515 140.545C113.878 139.633 113.493 138.548 112.961 137.561C112.325 136.385 110.67 136.203 109.816 137.304C109.199 138.1 108.64 138.061 108.084 137.424C107.423 136.666 106.676 135.891 106.322 134.984C104.597 130.586 103.076 126.104 101.314 121.722C100.182 118.912 98.563 116.29 97.5223 113.453C96.6669 111.125 96.1007 108.626 95.8665 106.16C95.6715 104.121 96.196 102.022 96.3229 99.944C96.4187 98.352 97.3386 97.337 98.4791 96.3935C100.015 95.1259 101.495 93.7955 103.033 92.5352C104.584 91.2637 106.104 92.4542 107.63 92.6958C107.888 92.7368 108.109 93.032 108.363 93.0584C112.354 93.4325 113.412 96.2696 113.982 99.5843C114.21 100.921 114.543 102.247 114.967 103.536C115.121 104.007 115.678 104.349 116.054 104.751L116.525 104.641L116.517 104.643Z" fill="#E6D9C0"/>
<path d="M131.311 211.606C130.845 211.571 130.359 211.616 129.918 211.49C126.005 210.392 122.098 209.26 118.189 208.141C117.973 208.081 117.751 208.034 117.535 207.977C112.523 206.636 107.463 205.457 102.516 203.912C97.989 202.498 93.5853 200.689 88.952 198.993L91.5363 186.002C95.2708 186.942 98.8108 187.835 102.355 188.726C102.229 188.856 102.103 188.986 101.977 189.116C102.351 190.082 102.544 191.177 103.131 191.989C107.327 197.791 112.4 202.608 119.031 205.593C122.804 207.29 126.59 208.962 130.363 210.66C130.731 210.826 131.053 211.096 131.396 211.316C131.366 211.414 131.34 211.508 131.311 211.606Z" fill="#F90405"/>
<path d="M94.8378 175.306C94.8257 175.193 94.8103 175.08 94.7982 174.968C95.4485 173.954 96.2133 173.494 97.4802 174.066C98.5319 174.54 99.8159 174.575 100.78 175.159C102.752 176.35 104.659 177.683 106.43 179.154C107.251 179.834 106.409 180.613 105.726 180.732C104.778 180.898 103.706 180.891 102.79 180.62C100.568 179.957 98.3797 179.157 96.232 178.275C95.7663 178.083 95.4651 177.359 95.2133 176.82C94.9975 176.36 94.9575 175.815 94.8372 175.309L94.8378 175.306Z" fill="#0146FE"/>
<path d="M91.9201 128.687C91.7672 128.536 91.4894 128.388 91.4825 128.231C91.3269 124.173 91.1885 120.114 91.0779 116.054C91.0667 115.642 91.2493 115.228 91.3455 114.813C91.5202 114.872 91.6916 114.93 91.8663 114.989C91.9925 117.981 92.1777 120.972 92.2248 123.962C92.2505 125.534 92.0298 127.111 91.9201 128.687Z" fill="#35CDFB"/>
<path d="M91.3359 100.46C89.9027 98.4155 90.0468 92.4681 91.5742 90.586C90.8857 93.5438 90.2635 96.4975 91.4559 99.4921C91.5619 99.7576 91.3832 100.135 91.3359 100.46Z" fill="#E6D9C0"/>
<path d="M91.8696 114.99C91.6949 114.931 91.5236 114.873 91.3489 114.814C91.354 112.966 91.3591 111.119 91.3675 109.272C91.5338 111.177 91.7034 113.084 91.8696 114.99Z" fill="#E6D9C0"/>
<path d="M118.395 150.401C117.835 150.404 117.275 150.406 116.716 150.408C116.651 150.02 116.587 149.632 116.522 149.247C116.662 149.169 116.805 149.09 116.946 149.008C117.427 149.472 117.911 149.937 118.391 150.401L118.395 150.401Z" fill="#E6D9C0"/>
<path d="M151.338 70.0029C150.572 69.7576 149.806 69.5123 149.04 69.267C149.761 69.2554 150.481 69.2266 151.201 69.2699C151.262 69.2752 151.295 69.75 151.341 70.0036L151.338 70.0029Z" fill="#E6D9C0"/>
<path d="M110.625 108.097L109.326 106.696C109.423 106.591 109.523 106.487 109.619 106.383C110.119 106.857 110.615 107.331 111.114 107.806C110.95 107.901 110.786 107.999 110.625 108.094L110.625 108.097Z" fill="#E6D9C0"/>
<path d="M53.1092 77.1231C53.8317 76.7711 54.5541 76.4191 55.2732 76.0664L55.2439 76.0228C54.5328 76.3873 53.8223 76.7486 53.1112 77.1131L53.1092 77.1231Z" fill="#E6D9C0"/>
<path d="M56.5036 75.3301C56.6353 75.0672 56.7637 74.8035 56.8947 74.5439C56.9505 74.5756 57.003 74.6067 57.0589 74.6385C56.8667 74.8585 56.6738 75.0817 56.4816 75.3017L56.5029 75.3334L56.5036 75.3301Z" fill="#E6D9C0"/>
<path d="M91.53 102.746C91.5163 102.485 91.5066 102.222 91.4922 101.964C91.5059 102.225 91.5163 102.485 91.53 102.746Z" fill="#E6D9C0"/>
<path d="M53.1139 77.1171C53.0227 77.4191 52.9309 77.7244 52.8364 78.0258L52.8571 78.0609C52.9396 77.7503 53.0254 77.4403 53.1086 77.1264L53.1105 77.1164L53.1139 77.1171Z" fill="#E6D9C0"/>
<path d="M52.8364 78.0258C52.6778 78.0424 52.5165 78.0551 52.7979 78.0285C52.5422 77.9259 52.6956 77.9875 52.8551 78.0536C52.8544 78.0569 52.8371 78.0225 52.8371 78.0225L52.8364 78.0258Z" fill="#E6D9C0"/>
<path d="M56.4823 75.2983C56.3463 75.3746 56.207 75.4501 56.071 75.5263L56.0976 75.5661C56.1439 75.4376 56.1902 75.3091 56.2365 75.1806C56.3235 75.2289 56.4112 75.2739 56.5016 75.3228L56.483 75.295L56.4823 75.2983Z" fill="#E6D9C0"/>
<path d="M56.0677 75.5257C55.9451 75.639 55.8184 75.7549 55.6931 75.8643C55.6905 75.8603 55.7045 75.8941 55.7045 75.8941C55.8338 75.7821 55.9624 75.6734 56.0943 75.5654L56.0677 75.5257Z" fill="#E6D9C0"/>
<path d="M55.2765 76.0671L55.3928 75.7253C55.4958 75.7803 55.5995 75.8319 55.7051 75.8907C55.7045 75.8941 55.6938 75.861 55.6965 75.8649C55.5472 75.9213 55.3959 75.9704 55.2472 76.0234L55.2765 76.0671Z" fill="#E6D9C0"/>
<path d="M121.678 78.5468C120.534 78.1884 119.43 78.0996 118.678 77.5404C117.806 76.8919 117.011 75.9248 116.592 74.9257C115.139 71.4558 115.502 68.2062 117.986 65.2098C118.799 64.2286 119.617 63.6408 120.866 63.5932C121.221 63.5778 121.57 63.4372 122.035 62.9205C121.563 62.675 121.1 62.4177 120.62 62.1914C119.667 61.7436 118.347 61.6774 118.722 60.0203C119.096 58.3633 120.26 58.3985 121.534 58.5694C123.877 58.8874 125.57 60.0573 126.709 62.1739C127.755 64.1169 129.006 65.9493 130.156 67.8374C132.313 71.3785 131.564 73.4257 129.49 75.9908C127.572 78.3631 125.479 80.6421 123.188 82.6511C121.394 84.2221 119.301 85.568 116.593 85.1224C115.3 84.9098 114.626 84.0426 114.659 83.0268C114.686 82.1301 115.516 81.5828 116.684 81.5775C118.77 81.5725 120.127 80.1283 121.674 78.5495L121.678 78.5468Z" fill="#060606"/>
<path d="M343.732 34.3563H227.18C201.76 34.3563 181.153 54.963 181.153 80.3828C181.153 105.803 160.547 126.409 135.127 126.409L201.225 126.409C213.198 133.54 227.049 136.882 240.956 135.994L346.755 129.246C371.76 127.651 391.225 106.905 391.225 81.8493C391.225 55.6196 369.962 34.3563 343.732 34.3563Z" fill="white"/>
<path d="M132.5 126.409L135.127 126.409C160.547 126.409 181.153 105.803 181.153 80.3828V80.3828C181.153 54.963 201.76 34.3563 227.18 34.3563H343.732C369.962 34.3563 391.225 55.6196 391.225 81.8492V81.8492C391.225 106.905 371.76 127.651 346.755 129.246L240.956 135.994C227.049 136.882 213.198 133.54 201.225 126.409V126.409L132.5 126.409Z" stroke="black" stroke-width="3"/>
</g>
</svg>
