<svg width="101" height="74" viewBox="0 0 101 74" fill="none" xmlns="http://www.w3.org/2000/svg">
<path d="M63.0538 63.3955C63.7996 62.7012 64.3998 62.1025 65.0447 61.5526C66.1013 60.6496 67.2007 59.7954 68.2573 58.8886C69.4946 57.8277 69.7801 56.3943 69.5665 54.8829C69.4441 54.0229 68.6555 53.5607 67.8883 53.3637C66.4296 52.9893 64.9709 53.0615 63.4947 53.4866C60.7637 54.2745 58.2581 55.4855 55.8981 57.0691C53.274 58.8301 50.3042 59.8228 47.2216 60.2966C45.4211 60.5736 43.5448 60.361 41.7015 60.3493C40.336 60.3415 40.4409 60.3571 40.0777 61.7222C39.7999 62.7636 39.3182 63.7894 38.7413 64.706C37.5371 66.6192 35.9035 68.1813 34.3263 69.7882C32.2558 71.8944 29.6938 73.1367 26.893 73.7237C24.7408 74.1761 22.5634 74.1391 20.4035 73.1113C17.7794 71.8632 16.2236 69.8994 15.5263 67.1886C15.3321 66.4319 15.4797 65.5778 15.5185 64.7704C15.5399 64.3043 15.6564 63.844 15.7477 63.2707C13.92 63.2707 12.2165 63.2804 10.5131 63.2629C10.1751 63.259 9.81577 63.2083 9.50693 63.0776C8.53187 62.6681 8.31627 61.7905 9.07961 61.0709C10.3091 59.9144 11.5872 58.8145 13.2809 58.3406C15.4622 57.7282 17.6551 57.6502 19.883 57.9857C20.6658 58.1027 21.4718 58.0812 22.2546 58.2041C23.3967 58.3816 23.7444 59.0895 23.2472 60.1523C22.7985 61.1138 22.173 62.0167 21.8778 63.0191C21.1649 65.4354 22.1128 66.3715 24.1232 66.7186C26.1704 67.0736 28.1982 66.7186 30.0085 65.5173C31.5818 64.472 32.3432 62.8806 32.955 61.2054C33.3513 60.1231 33.5921 58.9822 33.8893 57.8648C34.1282 56.9657 33.4834 56.3553 33.1163 55.6747C32.1082 53.8006 31.6595 51.8036 31.5585 49.6857C31.4148 46.6473 32.114 43.7766 33.1065 40.9488C33.3027 40.3911 33.3047 39.7456 33.5766 39.2385C33.9301 38.5774 34.4642 38.0138 35.0858 37.1869C33.8252 36.83 32.7511 36.4634 31.6498 36.2274C29.9036 35.853 28.575 36.8164 27.2406 37.7349C25.6848 38.8056 23.9561 39.0103 22.1847 38.4975C21.3029 38.242 20.4424 37.8149 19.6674 37.3156C17.8765 36.165 16.2022 36.4205 14.6056 37.6199C12.8556 38.9343 10.9365 38.9557 8.92034 38.5599C8.48331 38.474 8.17642 38.595 7.81126 39.0299C6.99547 40.001 6.04566 40.8981 5.01621 41.6392C4.16934 42.2496 3.44484 41.7348 3.43707 40.6524C3.43513 40.2487 3.52254 39.8431 3.58663 39.299C3.25255 39.3692 2.90681 39.4472 2.55913 39.5116C2.16289 39.5857 1.76276 39.7046 1.36458 39.7085C0.406999 39.7144 0.026298 39.0981 0.537137 38.2732C0.842087 37.7837 1.3471 37.4131 1.78413 37.0114C1.98419 36.8281 2.23281 36.6994 2.58632 36.4595C1.85017 36.2918 1.25581 36.2216 0.719718 36.0051C0.412826 35.8822 -0.0242038 35.4942 0.00104682 35.2699C0.0398939 34.9072 0.337075 34.4079 0.655621 34.2694C1.8929 33.7312 3.18262 33.3119 4.40631 32.8634C4.27034 32.5806 4.02561 32.1086 3.81001 31.623C3.52642 30.9853 3.71677 30.0668 4.18488 29.7216C4.62774 29.394 5.50957 29.5246 5.98156 30.0882C6.69635 30.9385 7.30624 31.8805 8.03657 32.7171C8.74941 33.5342 10.2839 33.8131 11.2609 33.2943C12.168 32.8146 13.0459 32.2607 13.8753 31.6523C15.4564 30.4919 17.1889 30.4841 18.9176 31.0302C20.0733 31.3949 21.2038 31.9507 22.2216 32.6137C23.6861 33.5674 25.0341 33.5498 26.4851 32.6527C27.194 32.2159 27.9535 31.7166 28.744 31.5918C30.0512 31.3871 31.4012 31.4105 32.7317 31.4339C34.202 31.4592 35.4723 32.1301 36.6785 32.9121C37.133 33.2066 37.4846 33.1734 37.8517 32.7502C38.0965 32.4694 38.4325 32.2686 38.6209 32.1164C37.7352 31.1628 36.8164 30.2267 35.956 29.238C34.8819 28.0015 34.5322 26.4355 34.3127 24.889C34.1399 23.678 34.2914 22.424 34.2642 21.1876C34.2584 20.8951 34.202 20.4836 34.0097 20.3373C33.1765 19.6996 32.7977 18.902 32.9395 17.7982C30.8592 17.0493 28.779 16.5656 26.5783 17.1936C25.6537 17.4569 24.6379 17.4998 23.9872 18.3891C23.925 18.4749 23.5346 18.4456 23.4239 18.3384C23.3074 18.2272 23.2549 17.9074 23.3307 17.7592C24.8496 14.7559 27.229 12.7901 30.4649 11.8715C30.9971 11.7214 31.5196 11.5381 32.046 11.3684C30.529 10.2392 28.6605 10.0618 26.856 9.75558C24.9642 9.43575 23.2607 10.2743 21.4019 11.0954C21.5126 10.6527 21.501 10.4264 21.6078 10.3133C23.4608 8.35925 25.2963 6.36225 28.0797 5.7499C28.6372 5.62703 29.2296 5.64849 29.8065 5.63873C30.7757 5.62508 31.7469 5.68749 32.7142 5.63678C34.4545 5.54513 36.1153 5.88836 37.7604 6.39931C37.9993 6.47341 38.279 6.40906 38.718 6.40906C37.1369 4.50372 35.2393 3.56178 33.0968 3.14639C31.978 2.92992 30.8029 3.00793 29.655 2.91237C29.3772 2.88897 28.948 2.75831 28.88 2.56914C28.7207 2.13425 29.1111 2.08549 29.4646 1.92753C31.778 0.899778 34.2117 0.474637 36.7057 0.176258C40.5322 -0.282036 44.2557 0.217212 47.8626 1.40098C50.073 2.12645 52.1824 3.24 53.9169 4.84891C55.733 6.53387 57.4345 8.34755 59.1788 10.1105C59.5653 10.5025 59.8683 10.7404 60.552 10.561C61.6689 10.2665 62.8673 10.2919 64.0211 10.1144C64.6212 10.0228 65.1981 9.78873 66.012 9.55276C65.5478 11.9066 64.0444 13.3088 62.9042 14.8631C63.1295 16.2692 63.4189 17.6558 63.5568 19.058C63.7414 20.9224 63.2577 22.699 62.6478 24.4463C62.5138 24.8305 62.4788 25.2479 62.4011 25.6516C62.3778 25.7783 62.4167 25.946 62.3468 26.0279C61.3581 27.1844 60.3558 28.3292 59.3516 29.4798C60.2956 30.2072 61.2396 30.9366 62.1273 31.623C63.0324 31.0906 63.9084 30.3496 64.9184 30.0297C66.6141 29.4954 68.3933 29.5909 70.0074 30.4061C71.7419 31.2818 73.3988 31.1062 75.1022 30.3886C76.4133 29.8347 77.6583 29.078 79.0996 28.8889C80.4009 28.7173 81.7062 28.6705 82.8308 29.5402C84.2643 30.6499 85.8823 30.4042 87.2497 29.7216C89.2989 28.6997 91.2199 28.5105 93.2865 29.4739C93.473 29.5617 93.8382 29.3842 94.0654 29.2438C94.8326 28.768 95.5358 28.1673 96.3419 27.7851C96.7264 27.6018 97.2917 27.8007 97.7753 27.828C97.7073 28.3038 97.6782 28.7914 97.5539 29.2516C97.4762 29.5344 97.2509 29.7782 97.1033 30.02C98.0841 30.2111 98.9718 30.4315 99.8731 30.5446C100.543 30.6284 101.005 30.9366 100.992 31.5879C100.974 32.3251 100.215 32.3271 99.7196 32.4967C99.3739 32.6157 98.9543 32.5201 98.3483 32.5201C98.7135 32.9667 99.0359 33.2573 99.2301 33.6181C99.5098 34.1388 100.19 34.599 99.6769 35.3186C99.3039 35.8413 98.224 36.0032 97.4723 35.6911C97.0741 35.5254 96.6798 35.3479 96.27 35.1704C96.1457 35.7321 96.1068 36.2138 95.932 36.6428C95.4717 37.7739 94.3976 38.0079 93.642 37.0582C92.8437 36.0539 92.2241 34.9052 91.4529 33.7058C90.5284 33.5089 89.5863 33.8072 88.6326 34.4742C87.0982 35.5488 85.3287 36.1455 83.4602 35.7808C82.5608 35.6053 81.7567 34.9325 80.9176 34.4684C80.7836 34.3943 80.6942 34.1388 80.5835 34.1388C79.2414 34.1466 77.8079 33.6805 76.6347 34.7102C74.8303 36.2937 72.7422 36.5297 70.5318 35.9876C69.7374 35.7925 69.0343 35.2348 68.2437 34.9988C66.888 34.5912 65.5983 34.954 64.3202 35.5663C65.068 36.869 65.1554 38.2225 65.1612 39.65C65.1748 42.2028 64.5863 44.6074 63.8152 46.9964C63.786 47.0841 63.7783 47.1816 63.7802 47.2752C63.7802 47.3357 63.8171 47.3942 63.8715 47.5502C65.1651 46.7701 66.585 46.6551 68.0417 46.7233C70.0462 46.817 71.9109 47.3825 73.49 48.6267C75.2925 50.0465 76.2521 53.0185 75.1274 55.7332C74.3505 57.6073 72.8374 58.7482 71.3865 59.9788C71.0602 60.2557 70.6892 60.4819 70.2424 60.8017C70.8989 61.693 71.74 62.1064 72.7209 62.2897C73.4629 62.4282 74.2223 62.4984 74.941 62.711C75.3275 62.8241 75.8442 63.1127 75.9374 63.4326C76.0345 63.7563 75.7762 64.2945 75.512 64.5988C74.7934 65.4295 73.7212 65.6012 72.7209 65.7864C71.7905 65.958 70.8174 65.8917 69.8753 66.0224C68.2301 66.2545 66.6996 65.8059 65.2525 65.1643C64.4795 64.8211 63.8793 64.0878 63.046 63.4033L63.0538 63.3955ZM35.4937 36.7247C35.4626 37.0075 35.4937 37.2844 35.3966 37.5107C35.0528 38.3278 34.6294 39.1118 34.305 39.9367C32.9278 43.4392 31.8265 47.0022 32.3626 50.8421C32.6287 52.7533 33.1299 54.5884 34.2972 56.1954C34.5555 56.5503 34.7109 57.1178 34.6488 57.5488C34.3399 59.6706 33.8427 61.7515 32.7472 63.6276C32.1451 64.6573 31.4633 65.6129 30.3678 66.2135C29.0684 66.9273 27.7243 67.3934 26.2461 67.6391C24.7059 67.8926 23.4006 67.448 22.1691 66.7108C21.3087 66.196 20.8581 65.3047 20.9066 64.2555C20.9396 63.5496 21.0484 62.8455 21.1416 61.9524C19.648 62.3814 18.2126 62.7558 16.8102 63.2297C16.5577 63.3155 16.3246 63.7894 16.2858 64.1093C16.2022 64.7801 16.2586 65.4685 16.2488 66.1492C16.2003 69.0393 17.8124 70.8901 20.1433 72.1986C22.3148 73.4175 24.7738 73.3902 27.0522 72.9085C29.6744 72.3566 32.1198 71.1065 34.0175 69.0862C35.3791 67.6372 36.663 66.1102 37.9255 64.5734C38.9491 63.3272 39.4114 61.8334 39.5338 60.2342C39.594 59.4444 39.8174 59.2631 40.5632 59.4113C41.1829 59.5341 41.8025 59.7057 42.4279 59.7369C45.357 59.8832 48.2589 59.7467 51.0034 58.5649C52.5184 57.9116 54.0179 57.2134 55.4844 56.4587C56.8654 55.7488 58.1649 54.8829 59.5536 54.1906C61.9466 52.9951 64.4231 52.102 67.1832 52.3555C68.4768 52.4744 70.2327 53.5061 70.3454 54.5182C70.5318 56.211 70.392 57.8882 69.0945 59.1948C68.4302 59.8618 67.6999 60.4624 67.0006 61.0923C67.0356 61.1723 67.0706 61.2503 67.1055 61.3302C67.865 61.1021 68.7099 61.0104 69.3664 60.6106C70.3415 60.0178 71.1883 59.2104 72.0799 58.483C74.1835 56.7707 75.3042 54.6431 74.6127 51.8835C74.3019 50.6393 73.727 49.5414 72.4858 48.8334C71.0252 48.0007 69.4869 47.6048 67.8514 47.5112C67.1502 47.4703 66.3752 47.3767 65.7478 47.6126C64.2367 48.1821 62.7974 48.9427 61.3173 49.6018C61.024 49.7325 60.6802 49.752 60.3617 49.8222C60.3325 49.7266 60.3053 49.6311 60.2762 49.5355C60.8745 49.1338 61.4882 48.7496 62.0671 48.3186C62.2982 48.147 62.5099 47.8974 62.6323 47.636C63.4714 45.8321 63.9919 43.9463 64.192 41.9532C64.429 39.611 64.6737 37.2922 63.3063 35.03C64.2969 34.7492 65.2001 34.4937 66.1052 34.2382C67.3308 33.8911 68.4652 34.0315 69.6015 34.6731C71.7439 35.8803 73.7892 36.0207 75.9025 34.3455C77.6156 32.9882 79.6997 32.3368 81.815 34.2207C82.4734 34.8077 83.3494 35.071 84.3031 35.0729C85.8823 35.0729 87.2497 34.484 88.5064 33.6473C89.2056 33.1812 89.8777 32.877 90.7168 32.8946C90.9285 32.8985 91.2451 32.7932 91.3422 32.6313C91.8472 31.8025 92.2979 30.9385 92.7873 30.0531C91.181 29.5207 89.5863 29.2965 87.9722 30.2774C87.2827 30.6967 86.463 30.999 85.6667 31.1238C84.4954 31.3071 83.4679 30.8917 82.4598 30.1779C80.9914 29.1385 79.3462 29.4759 77.7749 30.0687C77.0931 30.3262 76.456 30.7025 75.7743 30.958C74.8244 31.3149 73.8727 31.7244 72.8821 31.9019C71.672 32.1184 70.5629 31.5743 69.516 31.0126C67.022 29.6748 63.9978 30.527 62.306 32.797C61.7 32.2841 61.1056 31.7615 60.4899 31.2623C59.1788 30.1974 58.3241 29.6338 56.9897 30.999C57.1626 31.1335 57.3199 31.2798 57.4986 31.389C59.2778 32.487 61.0396 33.6181 62.0224 35.5624C62.5934 36.6916 63.4092 37.8617 63.4733 39.0474C63.5937 41.2765 63.0149 43.4626 61.8495 45.4401C59.8761 48.7905 57.3219 51.4057 53.3498 52.1975C50.8364 52.6987 48.3035 53.0205 45.7377 52.5739C43.6205 52.2053 41.583 51.7704 40.0563 49.9802C38.8132 48.5214 38.11 46.893 38.0071 45.0384C37.8692 42.5714 38.4733 40.2234 39.4464 37.9631C40.2292 36.1436 41.2858 34.5249 42.8339 33.2066C42.4881 33.1052 42.2531 33.0155 42.0103 32.9687C40.6118 32.7093 39.1511 31.9721 38.044 33.6649C37.8789 33.9184 37.0437 34.0588 36.799 33.8755C35.5423 32.9297 34.1768 32.3154 32.6229 32.1788C30.6922 32.0092 28.8256 32.0306 27.0736 33.1812C25.7198 34.0705 24.2747 34.8233 22.5421 33.6824C21.2621 32.838 19.9859 31.8785 18.3816 31.6445C16.6898 31.3988 15.1534 31.4456 13.7432 32.7522C12.5972 33.8131 11.1968 34.6751 9.42147 34.404C9.24277 35.1997 9.14371 36.0305 8.85819 36.7891C8.62316 37.417 8.87178 37.6335 9.3632 37.7603C11.1968 38.2322 12.9099 38.006 14.4191 36.7832C15.9944 35.5098 17.6629 35.2582 19.477 36.2508C20.2889 36.6955 21.1144 37.1226 21.9555 37.5068C23.4666 38.1971 24.9797 38.2381 26.4482 37.3722C26.9668 37.066 27.4621 36.7169 27.969 36.3912C29.6725 35.2933 31.475 35.108 33.3629 35.8257C34.0466 36.0851 34.7129 36.3951 35.4995 36.7306L35.4937 36.7247ZM61.834 24.2396C61.8553 24.2143 61.9311 24.146 61.9738 24.0622C62.0476 23.9198 62.1273 23.7735 62.1622 23.6195C62.5915 21.718 62.9333 19.8478 62.6595 17.843C62.3448 15.5418 61.4436 13.6228 59.8936 11.9788C57.9298 9.896 55.9467 7.83075 53.9169 5.8123C52.433 4.33601 50.6169 3.27901 48.7444 2.43263C46.1397 1.25276 43.2748 0.983636 40.4584 0.831521C38.5879 0.730112 36.6882 1.00509 34.8119 1.20206C33.9476 1.29372 33.1065 1.6038 32.2558 1.81442C32.2558 1.89632 32.2577 1.97823 32.2597 2.06209C32.9026 2.20055 33.5513 2.31366 34.1846 2.48333C36.4726 3.09764 38.2266 4.52323 39.6853 6.31155C40.1806 6.91806 40.9556 7.53822 40.5632 8.68493C40.1359 8.4119 39.7999 8.13692 39.4173 7.96141C38.0265 7.32565 36.6494 6.74644 35.078 6.54752C32.9376 6.2784 30.8282 6.07948 28.6896 6.43246C26.9182 6.72499 25.4653 7.56942 24.2378 8.9053C25.6032 8.99306 26.9007 9.00866 28.1788 9.17247C30.0978 9.42015 31.9314 9.9623 33.4329 11.2748C33.6562 11.4698 33.7417 11.8267 33.8913 12.1095C33.5882 12.2265 33.2775 12.4624 32.9822 12.441C31.1156 12.3123 29.4569 12.8739 27.8952 13.8373C26.7278 14.5569 25.78 15.493 25.0322 16.6905C27.6971 15.8109 30.3251 16.0079 32.9259 16.8192C33.1609 16.1756 33.3377 15.6666 33.53 15.1654C33.7417 14.6154 34.1768 14.3853 34.6565 14.713C35.5928 15.3526 36.4668 16.082 37.3992 16.7997C37.2069 16.9167 36.9835 17.1331 36.9 17.0883C36.0162 16.6144 35.1557 16.0976 34.2894 15.5944C33.2852 17.5154 33.4639 19.409 35.1382 20.0545C34.8003 22.2017 34.7206 24.3586 35.451 26.4901C36.1988 28.6724 37.5953 30.2423 39.5396 31.4553C39.6523 31.2233 39.7028 31.1686 39.7028 31.1121C39.7067 28.2921 40.7847 25.9538 42.8203 24.0271C43.0262 23.832 43.1427 23.4947 43.201 23.2041C43.3078 22.6736 43.335 22.1256 43.403 21.5874C43.6652 19.5124 45.4308 17.5914 47.5033 17.176C49.3097 16.8153 51.2151 17.8567 51.7881 19.5631C51.8483 19.7444 52.0562 20.0019 52.1979 20.0038C52.4194 20.0058 52.6797 19.8615 52.8564 19.7035C52.9807 19.5923 52.9904 19.3525 53.0545 19.173C53.8315 16.981 55.0008 16.1463 57.2714 16.16C58.8175 16.1698 59.5828 16.7646 60.1558 18.2038C60.5967 19.3115 60.5462 20.3861 60.2723 21.5016C60.1907 21.8292 60.0587 22.2933 60.2102 22.4981C60.6763 23.1222 61.2687 23.6507 61.8359 24.2396H61.834ZM56.3274 31.2993C55.6845 31.5509 55.1969 31.7654 54.6958 31.9351C51.6211 32.9687 48.4453 33.4289 45.2249 33.2495C43.6244 33.1598 42.6901 33.8872 41.8899 35.0476C39.7941 38.0879 38.6015 41.4169 38.7569 45.1612C38.8676 47.8525 40.1806 49.8748 42.56 50.9416C43.9818 51.5793 45.6425 51.8328 47.2177 51.9245C48.8532 52.0201 50.512 51.7158 52.1591 51.5852C55.4553 51.3258 58.0231 49.7598 59.9441 47.1173C61.1677 45.4343 62.2982 43.605 62.5488 41.5436C62.8615 38.9713 62.2943 36.4732 60.2976 34.5971C59.0448 33.4211 57.654 32.3914 56.3255 31.2954L56.3274 31.2993ZM40.8002 32.0326C42.5425 32.1905 44.3023 32.3895 46.0679 32.4909C46.8215 32.5357 47.5907 32.4031 48.3482 32.3095C49.6321 32.1535 50.9141 31.9838 52.1921 31.7849C54.117 31.4865 55.7991 30.6109 57.4676 29.6377C58.9418 28.7758 60.1519 27.6993 60.9949 26.2249C61.158 25.9402 61.3192 25.4858 61.2027 25.2459C60.89 24.5965 60.5578 23.8203 59.9985 23.4537C58.8797 22.7204 57.6521 22.0613 56.3779 21.6946C55.6301 21.4801 54.723 21.1018 53.812 21.7512C53.4003 22.0437 52.6117 21.7707 52.0018 21.8272C51.5181 21.874 51.0189 21.9677 50.5761 22.1588C49.9273 22.4377 49.3563 22.933 48.6901 23.1319C47.6684 23.4362 46.5884 23.5454 45.5434 23.7774C44.4227 24.0271 43.3214 24.3254 42.5677 25.3161C41.111 27.2312 40.303 29.3238 40.8041 32.0326H40.8002ZM9.25637 62.0811C9.9459 62.2468 10.4451 62.4575 10.9501 62.4711C12.5972 62.516 14.2463 62.4887 15.8934 62.4848C16.1168 62.4848 16.346 62.4692 16.5616 62.4204C17.8882 62.1201 19.2032 61.7554 20.5415 61.5194C21.6 61.3341 22.1944 60.7315 22.5712 59.7896C22.7693 59.2962 22.6528 58.9296 22.1517 58.836C21.1533 58.6526 20.1413 58.4264 19.1371 58.4381C17.7076 58.4537 16.276 58.6331 14.8542 58.8028C12.6244 59.0719 10.8899 60.2303 9.25637 62.0791V62.0811ZM1.31214 39.1157C2.62517 38.4975 3.74591 37.9709 4.86665 37.4424L5.05117 37.6764C4.73457 38.7003 4.4199 39.7241 4.1033 40.748C4.17905 40.8065 4.25286 40.8669 4.32861 40.9254C4.5986 40.8338 4.90355 40.7948 5.13469 40.6427C7.08676 39.3536 7.78795 37.2708 8.47166 35.1977C8.58431 34.8564 8.51245 34.17 8.29879 34.051C6.97799 33.3158 6.6575 31.7869 5.62611 30.8469C5.37943 30.6206 5.09002 30.4432 4.79672 30.2247C4.30336 31.1842 4.71126 31.8434 5.10361 32.4597C5.72711 33.4426 5.63388 33.7721 4.50343 34.0257C4.16351 34.1017 3.78475 34.0042 3.44484 34.0822C2.75531 34.2402 2.0716 34.4313 1.40731 34.6751C1.18394 34.757 1.03438 35.0378 0.851799 35.2289L0.978052 35.4298C1.87736 35.4298 2.77861 35.4044 3.67598 35.4454C3.9246 35.4571 4.16351 35.6677 4.40631 35.7867C4.282 36.0266 4.21402 36.3308 4.02366 36.4907C3.61771 36.83 3.14184 37.0836 2.70869 37.3897C2.15706 37.7817 1.36458 37.9611 1.31019 39.1157H1.31214ZM94.9628 34.0257C95.0405 33.9282 95.1162 33.8307 95.1939 33.7331C95.9126 34.0783 96.641 34.4021 97.346 34.7765C97.921 35.0807 98.4668 35.1743 99.0301 34.7726C98.6494 33.4991 97.043 33.2612 96.4662 32.0521C97.7675 31.8863 98.8766 31.744 99.9857 31.6016C99.9818 31.4865 99.9799 31.3715 99.976 31.2564C98.7504 31.1569 97.5247 31.0731 96.303 30.9463C96.0563 30.921 95.7592 30.7806 95.6193 30.5914C95.5513 30.4997 95.7553 30.1428 95.9048 29.9654C96.3108 29.4837 96.7556 29.0332 97.1829 28.569C97.1421 28.5105 97.1013 28.452 97.0605 28.3955C96.8216 28.4442 96.5536 28.4384 96.3477 28.5495C94.9356 29.3062 93.7158 30.3008 92.6786 31.5314C92.2338 32.0579 92.1347 32.7073 92.3387 33.2475C92.7271 34.2753 93.2535 35.2621 93.8207 36.206C93.9955 36.4985 94.485 36.5999 94.8307 36.7891C95.0172 36.4088 95.2347 36.0383 95.3726 35.6424C95.4231 35.5 95.2755 35.2933 95.2289 35.1139C95.1376 34.7531 95.0521 34.3884 94.9647 34.0257H94.9628ZM75.4227 63.5515C74.4418 63.3643 73.6571 63.2765 72.9132 63.0542C72.1673 62.8319 71.4001 62.5686 70.7513 62.1513C70.0637 61.7086 69.4596 61.5974 68.6924 61.8724C68.1991 62.0479 67.5853 62.1864 67.1133 62.046C66.2509 61.7885 65.6759 61.9504 65.0816 62.6213C64.4581 63.3253 64.4192 63.6978 65.2001 64.2399C65.4332 64.4018 65.6973 64.5364 65.9673 64.6183C68.236 65.3125 70.5357 65.3769 72.8607 64.9342C73.7659 64.7626 74.6302 64.5285 75.4246 63.5515H75.4227ZM48.2608 18.1238C46.8992 17.9756 45.9455 18.5217 45.1317 19.5475C44.5082 20.3354 44.3489 21.2422 44.1197 22.151C43.8944 23.0403 44.1877 23.3211 45.0812 23.1183C45.996 22.9116 46.9264 22.7789 47.8413 22.5722C49.0494 22.2992 50.1993 21.9423 50.85 20.7059C51.2714 19.9044 51.2967 19.4753 50.6829 18.861C49.9973 18.1726 49.1446 18.0029 48.2627 18.1238H48.2608ZM53.4877 19.7074C54.1694 20.1052 54.7483 20.6786 55.3931 20.7663C56.6265 20.936 57.7822 21.2246 58.8971 21.7687C59.0078 21.8233 59.3439 21.5445 59.4915 21.3553C59.6139 21.1993 59.6313 20.9497 59.6644 20.7371C59.8819 19.3817 59.4954 17.7845 58.5378 17.3301C56.8693 16.5383 55.1484 16.7821 54.0956 18.5119C53.8684 18.8844 53.6974 19.2901 53.4857 19.7054L53.4877 19.7074ZM60.4335 11.4249C61.127 12.2811 61.8048 13.1138 62.5177 13.9914C63.5296 13.1197 64.2153 12.1329 64.7242 10.8906C63.2305 11.0759 61.8553 11.2475 60.4355 11.423L60.4335 11.4249Z" fill="#050607"/>
<path d="M35.4956 36.7267C34.709 36.3913 34.0428 36.0812 33.3591 35.8218C31.4711 35.1041 29.6686 35.2913 27.9651 36.3873C27.4582 36.715 26.9629 37.0621 26.4443 37.3683C24.9758 38.2342 23.4628 38.1932 21.9516 37.5029C21.1106 37.1187 20.2851 36.6916 19.4732 36.2469C17.6571 35.2543 15.9905 35.5059 14.4153 36.7793C12.9041 38.0021 11.1929 38.2283 9.35931 37.7564C8.8679 37.6296 8.61733 37.4131 8.8543 36.7852C9.13983 36.0246 9.23889 35.1958 9.41758 34.4001C11.1948 34.6692 12.5933 33.8092 13.7393 32.7483C15.1495 31.4436 16.6859 31.3949 18.3777 31.6406C19.9801 31.8746 21.2562 32.8341 22.5382 33.6785C24.2708 34.8213 25.7159 34.0666 27.0697 33.1773C28.8217 32.0267 30.6883 32.0053 32.619 32.1749C34.1729 32.3115 35.5384 32.9258 36.7951 33.8716C37.0398 34.0549 37.875 33.9145 38.0401 33.661C39.1473 31.9682 40.6079 32.7054 42.0064 32.9648C42.2492 33.0096 42.4842 33.1013 42.83 33.2027C41.2819 34.521 40.2253 36.1416 39.4425 37.9592C38.4694 40.2214 37.8653 42.5694 38.0032 45.0345C38.1062 46.8911 38.8093 48.5175 40.0524 49.9763C41.5791 51.7665 43.6186 52.2014 45.7338 52.57C48.2996 53.0166 50.8325 52.6948 53.3459 52.1936C57.318 51.4018 59.8722 48.7866 61.8456 45.4362C63.011 43.4587 63.5899 41.2726 63.4694 39.0435C63.4053 37.8578 62.5896 36.6877 62.0185 35.5585C61.0357 33.6161 59.272 32.4831 57.4948 31.3851C57.3161 31.274 57.1587 31.1296 56.9859 30.9951C58.3222 29.6299 59.1768 30.1936 60.486 31.2584C61.0998 31.7576 61.6961 32.2803 62.3021 32.7932C63.9919 30.5231 67.0181 29.6689 69.5121 31.0087C70.561 31.5723 71.6681 32.1164 72.8782 31.898C73.8669 31.7205 74.8206 31.311 75.7704 30.9541C76.4521 30.6986 77.0892 30.3203 77.771 30.0648C79.3424 29.4739 80.9875 29.1346 82.456 30.174C83.464 30.8878 84.4915 31.3032 85.6628 31.1199C86.4592 30.9951 87.2788 30.6928 87.9684 30.2735C89.5844 29.2926 91.1791 29.5168 92.7835 30.0492C92.2959 30.9346 91.8453 31.7986 91.3383 32.6274C91.2412 32.7873 90.9246 32.8946 90.7129 32.8907C89.8758 32.8731 89.2018 33.1793 88.5025 33.6434C87.2458 34.4801 85.8784 35.071 84.2993 35.069C83.3436 35.069 82.4696 34.8038 81.8111 34.2168C79.6959 32.3329 77.6117 32.9843 75.8986 34.3416C73.7853 36.0168 71.74 35.8764 69.5976 34.6692C68.4613 34.0296 67.327 33.8872 66.1013 34.2343C65.1981 34.4898 64.293 34.7472 63.3024 35.0261C64.6698 37.2883 64.4251 39.6071 64.1881 41.9493C63.9861 43.9424 63.4675 45.8282 62.6284 47.6321C62.506 47.8935 62.2943 48.1431 62.0632 48.3147C61.4844 48.7457 60.8725 49.1299 60.2723 49.5316C60.3015 49.6272 60.3286 49.7227 60.3578 49.8183C60.6783 49.7481 61.0201 49.7286 61.3134 49.5979C62.7935 48.9388 64.2328 48.1782 65.7439 47.6087C66.3713 47.3728 67.1463 47.4664 67.8475 47.5073C69.4849 47.6009 71.0213 47.9968 72.482 48.8295C73.7231 49.5375 74.2981 50.6354 74.6088 51.8796C75.3003 54.6392 74.1796 56.7668 72.076 58.4791C71.1825 59.2065 70.3376 60.0139 69.3625 60.6067C68.706 61.0065 67.8611 61.0982 67.1016 61.3263C67.0667 61.2464 67.0317 61.1684 66.9968 61.0884C67.6979 60.4585 68.4283 59.8579 69.0906 59.1909C70.3901 57.8843 70.528 56.2071 70.3415 54.5143C70.2288 53.5002 68.4729 52.4686 67.1793 52.3516C64.4193 52.0981 61.9427 52.9912 59.5498 54.1867C58.1629 54.879 56.8615 55.7469 55.4805 56.4548C54.0121 57.2076 52.5146 57.9077 50.9995 58.561C48.2569 59.7447 45.3531 59.8813 42.424 59.733C41.7986 59.7018 41.179 59.5302 40.5594 59.4074C39.8135 59.2591 39.5921 59.4405 39.5299 60.2303C39.4056 61.8295 38.9453 63.3233 37.9216 64.5695C36.6591 66.1063 35.3752 67.6333 34.0136 69.0822C32.1159 71.1026 29.6705 72.3527 27.0483 72.9046C24.77 73.3844 22.3109 73.4136 20.1394 72.1947C17.8086 70.8862 16.1964 69.0354 16.245 66.1453C16.2566 65.4646 16.1983 64.7762 16.2819 64.1054C16.3207 63.7855 16.5538 63.3097 16.8063 63.2258C18.2087 62.7519 19.6441 62.3775 21.1378 61.9485C21.0426 62.8416 20.9357 63.5457 20.9027 64.2516C20.8542 65.2989 21.3048 66.1901 22.1653 66.7069C23.3967 67.446 24.7039 67.8887 26.2423 67.6352C27.7204 67.3914 29.0645 66.9253 30.3639 66.2096C31.4594 65.607 32.1412 64.6534 32.7433 63.6237C33.8388 61.7476 34.3361 59.6667 34.6449 57.5449C34.707 57.1139 34.5517 56.5484 34.2933 56.1915C33.126 54.5865 32.6268 52.7494 32.3587 50.8382C31.8226 46.9983 32.924 43.4353 34.3011 39.9328C34.6255 39.1079 35.0489 38.3239 35.3927 37.5068C35.4879 37.2825 35.4587 37.0056 35.4898 36.7208L35.4956 36.7267Z" fill="#0146FE"/>
<path d="M61.834 24.2396C61.2687 23.6507 60.6744 23.1222 60.2082 22.4981C60.0548 22.2933 60.1888 21.8272 60.2704 21.5016C60.5462 20.3861 60.5947 19.3115 60.1538 18.2038C59.5808 16.7626 58.8156 16.1678 57.2694 16.16C54.9988 16.1463 53.8315 16.981 53.0526 19.173C52.9885 19.3544 52.9788 19.5923 52.8545 19.7035C52.6777 19.8615 52.4194 20.0077 52.196 20.0038C52.0542 20.0038 51.8483 19.7444 51.7862 19.5631C51.2132 17.8567 49.3058 16.8133 47.5013 17.176C45.4288 17.5914 43.6632 19.5124 43.401 21.5874C43.333 22.1256 43.3058 22.6736 43.199 23.2041C43.1407 23.4947 43.0242 23.834 42.8183 24.0271C40.7827 25.9538 39.7067 28.2902 39.7008 31.1121C39.7008 31.1686 39.6503 31.2252 39.5377 31.4553C37.5934 30.2423 36.1949 28.6724 35.449 26.4901C34.7206 24.3605 34.7983 22.2017 35.1363 20.0545C33.462 19.409 33.2833 17.5154 34.2875 15.5944C35.1538 16.0995 36.0162 16.6144 36.898 17.0883C36.9815 17.1331 37.2049 16.9147 37.3972 16.7997C36.4629 16.082 35.5889 15.3526 34.6546 14.713C34.1729 14.3853 33.7397 14.6154 33.528 15.1654C33.3338 15.6666 33.157 16.1756 32.924 16.8192C30.3231 16.0079 27.6951 15.8109 25.0302 16.6905C25.778 15.493 26.7259 14.5569 27.8933 13.8373C29.4549 12.8739 31.1137 12.3123 32.9803 12.441C33.2736 12.4605 33.5863 12.2265 33.8893 12.1095C33.7397 11.8267 33.6562 11.4717 33.4309 11.2748C31.9295 9.96425 30.0959 9.42015 28.1768 9.17247C26.8988 9.00671 25.6013 8.99111 24.2358 8.9053C25.4634 7.56747 26.9163 6.72304 28.6877 6.43246C30.8262 6.08143 32.9356 6.2784 35.0761 6.54752C36.6475 6.74449 38.0265 7.3237 39.4153 7.96141C39.798 8.13692 40.134 8.40995 40.5613 8.68493C40.9537 7.53822 40.1767 6.91806 39.6834 6.31155C38.2246 4.52323 36.4688 3.09569 34.1826 2.48333C33.5494 2.31366 32.8987 2.20055 32.2577 2.06209C32.2577 1.98018 32.2558 1.89827 32.2538 1.81442C33.1046 1.6038 33.9456 1.29372 34.81 1.20206C36.6863 1.00509 38.5859 0.730112 40.4564 0.831521C43.2728 0.985586 46.1359 1.25471 48.7425 2.43263C50.6149 3.28096 52.433 4.33601 53.915 5.8123C55.9428 7.83075 57.926 9.89795 59.8916 11.9788C61.4416 13.6209 62.3429 15.5418 62.6575 17.843C62.9314 19.8498 62.5896 21.72 62.1603 23.6195C62.1253 23.7735 62.0457 23.9198 61.9719 24.0622C61.9272 24.146 61.8534 24.2143 61.832 24.2396H61.834Z" fill="#0146FE"/>
<path d="M56.3274 31.2993C57.656 32.3934 59.0467 33.4231 60.2995 34.601C62.2963 36.4771 62.8634 38.9753 62.5507 41.5476C62.3001 43.6089 61.1697 45.4382 59.946 47.1212C58.025 49.7617 55.4572 51.3297 52.161 51.5891C50.512 51.7178 48.8532 52.0239 47.2197 51.9284C45.6464 51.8348 43.9837 51.5832 42.5619 50.9455C40.1825 49.8787 38.8695 47.8564 38.7588 45.1651C38.6034 41.4208 39.796 38.0918 41.8918 35.0515C42.6921 33.8911 43.6263 33.1637 45.2268 33.2534C48.4473 33.4328 51.623 32.9726 54.6978 31.939C55.1989 31.7713 55.6864 31.5567 56.3293 31.3032L56.3274 31.2993ZM49.2747 46.3684C49.6768 46.8384 49.9565 47.166 50.2575 47.5171C50.0691 47.7179 49.8807 47.8584 49.7778 48.0475C49.7098 48.1723 49.77 48.3635 49.7719 48.5253C49.9021 48.5156 50.0905 48.5565 50.1565 48.4844C50.7451 47.833 51.3977 47.9169 52.1028 48.2484C52.2096 48.2991 52.3805 48.2113 52.5223 48.186C52.6214 48.0612 52.7185 47.9364 52.8176 47.8116C52.433 47.6633 52.0464 47.5151 51.6172 47.3494C52.1766 46.8482 52.567 46.4991 52.9555 46.15C52.9069 46.0661 52.8584 45.9823 52.8098 45.8984C52.5204 46.0096 52.2135 46.0856 51.9474 46.2358C51.3375 46.5829 50.7684 47.0685 50.0652 46.3801C49.9604 46.2768 49.6671 46.3665 49.2766 46.3665L49.2747 46.3684Z" fill="#E6CD90"/>
<path d="M40.8002 32.0345C40.2991 29.3238 41.1071 27.2312 42.5639 25.3181C43.3194 24.3274 44.4188 24.0271 45.5396 23.7794C46.5845 23.5473 47.6645 23.4381 48.6862 23.1339C49.3524 22.9349 49.9235 22.4396 50.5722 22.1607C51.0151 21.9716 51.5142 21.876 51.9979 21.8292C52.6078 21.7707 53.3964 22.0457 53.8082 21.7531C54.7191 21.1018 55.6282 21.4801 56.374 21.6966C57.6482 22.0632 58.8777 22.7224 59.9946 23.4557C60.554 23.8223 60.8861 24.5985 61.1988 25.2479C61.3154 25.4897 61.1522 25.9441 60.991 26.2269C60.148 27.7032 58.9379 28.7797 57.4637 29.6397C55.7971 30.6148 54.1131 31.4885 52.1882 31.7869C50.9102 31.9858 49.6282 32.1554 48.3443 32.3115C47.5868 32.4031 46.8176 32.5357 46.064 32.4928C44.2984 32.3895 42.5406 32.1925 40.7963 32.0345H40.8002ZM54.3423 23.5454C54.3268 23.6312 54.3112 23.717 54.2976 23.8028C54.6589 23.8925 55.0202 23.9822 55.4864 24.0973C55.4125 24.4951 55.4417 24.9904 55.2319 25.3415C54.2646 26.9465 53.2041 27.6388 51.2015 27.4477C50.2439 27.356 49.634 26.5291 49.2708 25.0626C49.0688 24.2494 49.8283 24.462 50.0847 24.1499C50.1196 24.107 50.1235 24.0427 50.1429 23.9881C48.9173 23.3932 47.8432 23.7209 47.311 24.8656C47.4042 24.889 47.5169 24.9592 47.5849 24.928C48.3773 24.5653 48.5852 24.813 48.6784 25.6769C48.8241 27.0245 49.9312 28.101 50.9956 28.2356C53.7402 28.5807 56.0438 26.9075 56.2963 24.146C56.4226 24.1597 56.5877 24.1285 56.6654 24.1967C56.9509 24.4463 57.285 24.6082 57.4948 24.2338C57.5627 24.1129 57.2442 23.6565 57.0072 23.5005C56.1157 22.9154 55.2164 23.1222 54.3443 23.5473L54.3423 23.5454Z" fill="#E6CD90"/>
<path d="M9.25637 62.083C10.8899 60.2342 12.6225 59.0739 14.8542 58.8067C16.278 58.6351 17.7095 58.4576 19.1371 58.442C20.1413 58.4303 21.1552 58.6546 22.1517 58.8399C22.6528 58.9315 22.7674 59.3001 22.5712 59.7935C22.1925 60.7354 21.5981 61.338 20.5415 61.5233C19.2032 61.7593 17.8882 62.124 16.5616 62.4243C16.344 62.4731 16.1168 62.4867 15.8934 62.4887C14.2463 62.4945 12.5972 62.5199 10.9501 62.475C10.447 62.4614 9.94785 62.2507 9.25637 62.085V62.083Z" fill="#EF3C3C"/>
<path d="M1.31019 39.1176C1.36458 37.9631 2.159 37.7837 2.70869 37.3917C3.14184 37.0836 3.61771 36.832 4.02366 36.4927C4.21402 36.3327 4.282 36.0285 4.40631 35.7886C4.16351 35.6697 3.9246 35.4591 3.67598 35.4474C2.77861 35.4064 1.87736 35.4318 0.978052 35.4318L0.851799 35.2309C1.03438 35.0417 1.18588 34.7589 1.40731 34.677C2.06966 34.4333 2.75531 34.2421 3.44484 34.0842C3.78475 34.0062 4.16157 34.1037 4.50343 34.0276C5.63388 33.776 5.72711 33.4445 5.10361 32.4616C4.7132 31.8454 4.30336 31.1862 4.79672 30.2267C5.09002 30.4451 5.37943 30.6245 5.62611 30.8488C6.6575 31.7888 6.97993 33.3178 8.29879 34.053C8.51245 34.1719 8.58237 34.8584 8.47166 35.1997C7.78989 37.2708 7.08676 39.3536 5.13469 40.6446C4.90355 40.7967 4.5986 40.8357 4.32861 40.9274C4.25286 40.8689 4.17905 40.8084 4.1033 40.7499C4.4199 39.7261 4.73457 38.7022 5.05117 37.6784L4.86665 37.4443C3.74591 37.9709 2.62517 38.4994 1.31214 39.1176H1.31019Z" fill="white"/>
<path d="M94.9608 34.0276C95.0482 34.3904 95.1337 34.7531 95.225 35.1158C95.2716 35.2952 95.4173 35.502 95.3687 35.6443C95.2289 36.0422 95.0133 36.4108 94.8268 36.791C94.4811 36.6019 93.9916 36.5005 93.8168 36.2079C93.2496 35.264 92.7232 34.2772 92.3348 33.2495C92.1308 32.7073 92.2299 32.0599 92.6747 31.5333C93.7119 30.3028 94.9317 29.3082 96.3438 28.5515C96.5497 28.4403 96.8177 28.4462 97.0566 28.3974C97.0974 28.4559 97.1382 28.5144 97.179 28.571C96.7497 29.0351 96.3069 29.4856 95.9009 29.9673C95.7514 30.1448 95.5474 30.5017 95.6154 30.5933C95.7533 30.7825 96.0525 30.9229 96.2991 30.9483C97.5209 31.075 98.7484 31.1589 99.9721 31.2584C99.976 31.3734 99.9779 31.4885 99.9818 31.6035C98.8727 31.7459 97.7636 31.8883 96.4623 32.054C97.0411 33.2631 98.6474 33.4991 99.0262 34.7745C98.4648 35.1763 97.9171 35.0827 97.3422 34.7784C96.639 34.406 95.9087 34.0803 95.19 33.7351C95.1123 33.8326 95.0366 33.9301 94.9589 34.0276H94.9608Z" fill="white"/>
<path d="M75.4207 63.5535C74.6263 64.5305 73.762 64.7626 72.8568 64.9361C70.5338 65.3788 68.234 65.3164 65.9634 64.6202C65.6934 64.5383 65.4273 64.4037 65.1962 64.2419C64.4154 63.6997 64.4562 63.3272 65.0777 62.6232C65.6701 61.9524 66.247 61.7905 67.1094 62.0479C67.5814 62.1883 68.1971 62.0499 68.6885 61.8743C69.4577 61.5994 70.0618 61.7125 70.7474 62.1532C71.3962 62.5706 72.1615 62.8319 72.9093 63.0562C73.6532 63.2785 74.4379 63.3662 75.4188 63.5535H75.4207Z" fill="#EF3C3C"/>
<path d="M48.2589 18.1238C49.1407 18.0029 49.9934 18.1726 50.679 18.861C51.2928 19.4773 51.2676 19.9063 50.8461 20.7059C50.1954 21.9423 49.0474 22.2992 47.8374 22.5722C46.9225 22.7789 45.9921 22.9116 45.0773 23.1183C44.1838 23.3211 43.8905 23.0403 44.1158 22.151C44.347 21.2402 44.5043 20.3354 45.1278 19.5475C45.9416 18.5197 46.8953 17.9737 48.2569 18.1238H48.2589ZM47.7461 19.3486C47.3634 19.7776 46.907 20.0916 46.9555 20.2788C47.0293 20.5733 47.4042 20.899 47.7189 21.0004C48.2278 21.1642 48.6357 20.7995 48.6027 20.3139C48.5832 20.035 48.152 19.7815 47.7461 19.3486Z" fill="white"/>
<path d="M53.4857 19.7074C53.6955 19.292 53.8684 18.8864 54.0956 18.5139C55.1484 16.7841 56.8693 16.5383 58.5378 17.3321C59.4934 17.7865 59.8819 19.3817 59.6644 20.739C59.6294 20.9516 59.6139 21.2012 59.4915 21.3573C59.3419 21.5464 59.0078 21.8253 58.8971 21.7707C57.7822 21.2266 56.6265 20.938 55.3931 20.7683C54.7483 20.6805 54.1694 20.1052 53.4877 19.7093L53.4857 19.7074ZM57.2422 18.5392C56.5605 18.5919 56.2303 18.8435 56.2264 19.3798C56.2245 19.7776 56.407 20.0935 56.9237 20.0682C57.5084 20.0389 57.9221 19.7678 57.9143 19.2003C57.9124 18.978 57.4792 18.7596 57.2422 18.5392Z" fill="white"/>
<path d="M60.4316 11.4249C61.8515 11.2494 63.2286 11.0778 64.7203 10.8925C64.2114 12.1348 63.5258 13.1216 62.5138 13.9933C61.801 13.1138 61.125 12.2811 60.4297 11.4269L60.4316 11.4249Z" fill="#0146FE"/>
<path d="M49.2747 46.3684C49.6651 46.3684 49.9584 46.2787 50.0633 46.3821C50.7684 47.0705 51.3355 46.5829 51.9454 46.2377C52.2115 46.0876 52.5184 46.0096 52.8078 45.9004C52.8564 45.9842 52.905 46.0681 52.9535 46.1519C52.5651 46.501 52.1746 46.8482 51.6152 47.3513C52.0445 47.5171 52.4291 47.6653 52.8156 47.8135C52.7166 47.9383 52.6194 48.0631 52.5204 48.1879C52.3786 48.2113 52.2077 48.301 52.1008 48.2503C51.3958 47.9208 50.7431 47.8369 50.1546 48.4863C50.0905 48.5585 49.9021 48.5156 49.77 48.5273C49.7681 48.3654 49.7098 48.1723 49.7758 48.0495C49.8788 47.8603 50.0672 47.7199 50.2556 47.519C49.9545 47.166 49.6748 46.8404 49.2728 46.3704L49.2747 46.3684Z" fill="#050607"/>
<path d="M54.3423 23.5434C55.2144 23.1183 56.1137 22.9115 57.0053 23.4966C57.2422 23.6526 57.5608 24.109 57.4928 24.2299C57.283 24.6024 56.949 24.4405 56.6634 24.1928C56.5857 24.1246 56.4206 24.1558 56.2944 24.1421C56.0419 26.9055 53.7402 28.5788 50.9937 28.2317C49.9293 28.0971 48.8221 27.0225 48.6765 25.673C48.5832 24.8091 48.3754 24.5614 47.5829 24.9241C47.5149 24.9553 47.4042 24.8851 47.309 24.8617C47.8412 23.7189 48.9173 23.3893 50.141 23.9841C50.1216 24.0388 50.1177 24.1051 50.0827 24.146C49.8263 24.458 49.0669 24.2474 49.2689 25.0587C49.6321 26.5252 50.2401 27.3521 51.1996 27.4438C53.2021 27.6349 54.2627 26.9426 55.23 25.3376C55.4417 24.9885 55.4106 24.4912 55.4844 24.0934C55.0182 23.9783 54.657 23.8886 54.2957 23.7989C54.3112 23.7131 54.3268 23.6273 54.3404 23.5415L54.3423 23.5434Z" fill="#050607"/>
<path d="M47.7461 19.3486C48.1501 19.7834 48.5832 20.035 48.6027 20.3139C48.6357 20.7975 48.2297 21.1622 47.7189 21.0004C47.4042 20.899 47.0293 20.5733 46.9555 20.2788C46.9089 20.0916 47.3634 19.7776 47.7461 19.3486Z" fill="#050607"/>
<path d="M57.2422 18.5412C57.4792 18.7616 57.9124 18.978 57.9143 19.2023C57.9201 19.7698 57.5084 20.0409 56.9237 20.0701C56.407 20.0955 56.2245 19.7795 56.2264 19.3817C56.2303 18.8454 56.5585 18.5938 57.2422 18.5412Z" fill="#050607"/>
</svg>
