<svg width="63" height="60" viewBox="0 0 63 60" fill="none" xmlns="http://www.w3.org/2000/svg">
<path d="M31.4646 6.34145e-05C48.7785 -0.0335941 62.894 13.3349 62.9994 29.8608C63.1049 46.252 49.0105 59.8165 31.6896 59.9982C14.3898 60.18 -0.0350839 46.4877 6.40967e-05 29.908C0.0352121 13.3956 14.0874 0.0337209 31.4646 6.34145e-05ZM26.1501 43.6335C27.1553 42.819 27.9358 42.2001 28.695 41.5673C29.4753 40.9143 30.2413 40.2478 31.0919 39.5141C31.9355 40.0661 32.7018 40.5511 33.4469 41.0627C35.1481 42.2407 36.779 43.5125 38.5364 44.5963C40.329 45.7002 41.2006 45.3164 41.8544 43.3373C41.9598 43.0209 41.9808 42.6849 42.0581 42.355C43.6116 35.4014 45.1652 28.4543 46.7117 21.5006C46.8312 20.9621 46.9297 20.403 46.9367 19.8511C46.9437 18.5855 46.2338 17.9932 44.9333 18.2153C44.2585 18.3298 43.6048 18.6126 42.958 18.855C33.9391 22.1736 24.92 25.486 15.9081 28.8248C14.8747 29.2085 13.9047 29.7396 12.801 30.2579C13.2298 30.8503 13.3634 31.268 13.6235 31.3623C15.4793 32.0017 17.3983 32.5065 19.233 33.1998C21.0185 33.873 22.5018 33.6715 24.1327 32.6415C28.709 29.7672 33.3837 27.0409 38.0233 24.2676C38.7473 23.83 39.4995 23.4396 40.2446 23.0289L40.6803 23.5669C39.8016 24.3679 38.9371 25.1965 38.0303 25.9773C34.6561 28.8854 31.2397 31.7526 27.9076 34.7078C27.1836 35.354 26.3401 36.2424 26.2346 37.0906C25.9886 39.1302 26.1571 41.2108 26.1571 43.6409L26.1501 43.6335Z" fill="#3F47CB"/>
</svg>
