<svg width="41" height="41" viewBox="0 0 41 41" fill="none" xmlns="http://www.w3.org/2000/svg">
<g clip-path="url(#clip0_1_30)">
<path d="M20.5 40.5233C31.5585 40.5233 40.5233 31.5585 40.5233 20.5C40.5233 9.44146 31.5585 0.476746 20.5 0.476746C9.44146 0.476746 0.476746 9.44146 0.476746 20.5C0.476746 31.5585 9.44146 40.5233 20.5 40.5233Z" fill="#FFEA02" stroke="#3F47CB"/>
<mask id="mask0_1_30" style="mask-type:alpha" maskUnits="userSpaceOnUse" x="0" y="0" width="41" height="41">
<path d="M20.5 39.5698C31.0319 39.5698 39.5698 31.0319 39.5698 20.5C39.5698 9.96806 31.0319 1.43024 20.5 1.43024C9.96806 1.43024 1.43024 9.96806 1.43024 20.5C1.43024 31.0319 9.96806 39.5698 20.5 39.5698Z" fill="black" stroke="#3F47CB"/>
</mask>
<g mask="url(#mask0_1_30)">
<path d="M5.76964 14.8884C5.42351 14.8508 4.73883 14.9245 4.25287 15.0609C3.77564 15.1887 3.31522 15.3867 3.23646 15.4997C3.15769 15.6129 3.02659 15.7782 2.94808 15.8564C2.852 15.9694 2.90128 16.3373 3.07899 16.9074C3.37564 17.7933 3.37564 17.7933 3.92756 18.1123C4.23816 18.2721 4.64395 18.4413 4.83421 18.4777C5.01587 18.5053 5.17123 18.5765 5.16224 18.6201C5.16186 18.6726 4.9683 19.0911 4.74843 19.5533C4.51984 20.0241 4.31653 20.5914 4.29756 20.8188C4.28718 21.0549 4.34532 21.3966 4.45655 21.5812C4.55047 21.7656 4.85903 22.2053 5.14231 22.5487C5.51129 23.0151 5.74364 23.2181 6.03743 23.3078C6.24474 23.3793 6.47773 23.4947 6.5293 23.5476C6.58948 23.6092 6.96074 23.7608 7.33228 23.8772C7.72113 23.9938 8.32616 24.1558 8.69808 24.2197C9.06126 24.2923 9.59752 24.3838 9.87422 24.4383C10.1597 24.4842 10.775 24.4274 11.2262 24.3083C11.7988 24.1549 12.102 24.1483 12.2223 24.2717C12.3169 24.3687 12.5303 24.799 12.9803 26.0185L12.3783 26.6354C12.0467 26.983 11.558 27.5043 11.2873 27.8087C11.0166 28.113 10.4229 28.7735 9.9689 29.2777C9.51492 29.7819 8.77166 30.7652 8.31627 31.4619C7.75581 32.3153 7.38702 33.0126 7.20078 33.615C7.03261 34.1125 6.84738 34.5748 6.7776 34.6444C6.70781 34.7139 6.67253 34.8011 6.70691 34.8364C6.7499 34.8804 6.7136 35.1077 6.6165 35.3607C6.53672 35.6139 6.43101 35.858 6.3874 35.9015C6.34378 35.9449 5.97111 35.9859 5.55544 35.983C5.13979 35.9799 4.33514 35.8777 3.75566 35.7772C3.17629 35.6592 2.49315 35.523 2.24246 35.4599C1.98318 35.388 1.5162 35.2971 1.19625 35.2335C0.884887 35.1787 0.296926 35.0519 -0.0921822 34.9703C-0.489883 34.8799 -0.956604 34.754 -1.15521 34.6738C-1.34521 34.6024 -1.99409 34.5189 -2.60014 34.4969C-3.2149 34.4837 -4.23738 34.5637 -4.86188 34.6992C-5.49499 34.8258 -6.28434 35.0037 -6.61418 35.1063C-6.94401 35.2089 -7.37749 35.2757 -7.568 35.2743C-7.76711 35.2641 -8.06141 35.2445 -8.21715 35.2259C-8.38148 35.1984 -8.76213 35.1431 -9.07349 35.0883C-9.45413 35.033 -9.97435 35.1167 -10.7122 35.3475C-11.4587 35.6046 -11.8846 35.8027 -12.0767 36.0288C-12.2338 36.2026 -12.4885 36.682 -12.63 37.0836C-12.8157 37.6159 -12.8527 37.9482 -12.7515 38.3164C-12.6504 38.7021 -12.5048 38.9219 -12.2034 39.1604C-11.971 39.3458 -11.6171 39.5147 -11.3921 39.5338C-11.1758 39.5617 -10.7863 39.5908 -10.5179 39.6014C-10.2495 39.6122 -9.82475 39.5541 -9.58171 39.4683C-9.20849 39.3573 -8.92972 39.1318 -7.21971 37.3944L-6.0478 37.0092C-5.38815 36.804 -4.52092 36.6354 -4.09654 36.6297C-3.67215 36.6241 -3.05777 36.6899 -2.73806 36.7885C-2.41823 36.8695 -2.13279 36.9154 -2.08917 36.872C-2.05428 36.8372 -1.97653 36.864 -1.92496 36.9169C-1.85607 36.9699 -1.38074 37.1046 -0.861935 37.2134C-0.343124 37.3222 0.132195 37.4569 0.192495 37.5011C0.252667 37.5628 0.502965 37.6784 0.736329 37.7414C0.969566 37.8218 1.4105 37.9213 1.69594 37.9672C1.9814 38.013 2.49149 38.1305 2.82851 38.2292C3.16553 38.3279 3.70178 38.4193 4.0134 38.4391C4.32502 38.4589 4.61046 38.5047 4.64485 38.54C4.68783 38.5841 4.81753 38.6112 4.93017 38.6033C5.0514 38.6042 5.31966 38.6324 5.51851 38.6776C5.71736 38.7228 5.91608 38.7855 5.96766 38.8384C6.01064 38.8825 6.078 39.1455 6.09341 39.4081C6.10882 39.6707 6.22598 40.2315 6.32684 40.6523C6.43641 41.0643 6.56204 41.6515 6.59451 41.9492C6.63571 42.2383 6.80419 42.887 6.98241 43.3871C7.16935 43.8784 7.57056 44.6776 7.89605 45.17C8.22154 45.6624 8.52985 46.1371 8.58117 46.225C8.62377 46.3215 9.09604 46.8763 9.62012 47.4488C10.4707 48.3738 10.6859 48.5592 11.5312 49.0204C12.0573 49.3129 12.5923 49.5793 12.7133 49.6153C12.8947 49.6778 12.9201 49.7568 12.8319 49.9661C12.7616 50.1231 12.3769 50.6102 11.9666 51.071C11.5649 51.5231 11.1543 52.0188 11.058 52.1669C10.9617 52.3149 10.8474 52.5503 10.7943 52.69C10.7414 52.8296 10.4782 53.3001 10.2067 53.7093C9.93515 54.1361 9.44577 54.745 9.12301 55.0664C8.79153 55.3965 8.20591 56.136 7.08539 57.7903L6.57479 57.7428C6.2805 57.7232 5.68305 57.71 5.24135 57.7155C4.79093 57.7297 4.16679 57.8127 3.86314 57.8892C3.55075 57.9744 3.24684 58.086 3.19464 58.1206C3.13382 58.1463 2.91626 58.2934 2.72472 58.4321C2.5246 58.5618 2.24609 58.7523 2.10677 58.8563C1.96746 58.9603 1.61043 59.2289 1.31436 59.4542C1.01828 59.6796 0.713088 59.9661 0.651514 60.0969C0.581347 60.2189 0.579185 60.5164 0.646676 60.7618C0.722893 60.9987 0.936259 61.429 1.14205 61.7105C1.33924 61.9832 1.59687 62.2825 1.70015 62.3708C1.81215 62.4504 2.16649 62.5492 2.49542 62.5692C2.859 62.5893 3.71751 62.4293 4.60282 62.1558C5.4272 61.9256 6.35613 61.6086 6.66902 61.4535C7.12084 61.2468 7.52174 60.8997 8.79533 59.6316C9.91189 58.5197 10.5494 57.7981 10.9959 57.1276C11.3547 56.6141 11.6351 56.1611 11.6527 56.1262C11.6616 56.0825 11.8891 55.7692 12.1688 55.4212C12.457 55.0821 12.8769 54.4902 13.1223 54.107C13.3589 53.715 13.5698 53.2965 13.5708 53.1565C13.5804 53.0253 13.6601 52.7896 13.7479 52.6328C13.827 52.4671 13.9685 52.0656 14.0577 51.7163C14.1554 51.3758 14.324 50.8258 14.4563 50.4855C14.58 50.1539 14.6859 49.8747 14.7034 49.8573C14.7035 49.84 15.4946 49.8886 16.4527 49.9475L16.478 49.9491C18.1831 50.0753 18.2871 50.0585 19.7281 49.5791C20.9955 49.1684 21.3432 48.9959 22.0922 48.4064C22.5886 48.0338 23.1721 47.5743 23.4075 47.3748C23.6427 47.1753 23.9125 46.9935 23.9907 46.9503C24.0949 46.916 24.2413 47.0309 24.4901 47.3564C24.696 47.6205 24.9697 48.0949 25.1056 48.446C25.2418 48.7794 25.4374 49.2621 25.5223 49.5078C25.6411 49.8411 25.9499 50.2459 26.7063 51.0214C27.2736 51.6205 28.0479 52.3088 28.4529 52.5829C29.0044 52.9545 29.3845 53.0973 30.0159 53.1981C30.4658 53.2714 31.0283 53.3193 31.2535 53.3034C31.4874 53.2964 31.7734 53.2723 31.9033 53.2645C32.0333 53.2566 32.4405 53.2334 32.7957 53.2097C33.1596 53.1774 33.6709 53.1374 33.9483 53.1045C34.321 53.0634 34.4678 53.1082 34.5532 53.2838C34.6557 53.4771 34.6903 53.4774 34.7697 53.2767C34.8402 53.1197 35.1965 52.9385 35.9949 52.6994C36.6113 52.5027 37.3493 52.2368 37.6448 52.099C37.9316 51.9524 38.3493 51.6754 38.5846 51.4759C38.8811 51.1981 39.0564 50.9018 39.2337 50.3432C39.4019 49.8281 39.4392 49.4609 39.3288 49.1713C39.2612 48.9433 39.1073 48.6622 38.9956 48.5476C38.9012 48.4332 38.6853 48.3528 38.5206 48.3604C38.3561 48.3679 37.7227 48.5295 37.115 48.7351C36.4987 48.9319 35.6734 49.2846 35.2648 49.5178C34.8386 49.7509 34.1523 50.0521 33.727 50.1978C33.154 50.3862 32.7815 50.4096 32.3405 50.3102C32.0119 50.2378 31.3645 49.9618 30.89 49.722C30.1653 49.3318 29.8037 49.0491 28.4879 47.7707C27.6453 46.9421 26.8456 46.175 26.7164 46.0603C26.5874 45.9456 26.2697 45.567 25.5062 44.5726L25.7666 43.3058C25.9189 42.6157 26.0731 41.6455 26.1199 41.1647C26.1581 40.675 26.2149 40.0104 26.2432 39.6869C26.2716 39.3633 26.258 38.8557 26.208 38.5753C26.1582 38.295 25.8883 37.2955 25.6008 36.3484C25.3218 35.4101 25.1544 34.6214 25.2238 34.6044C25.3019 34.5787 25.7081 34.6779 26.1314 34.8298C26.5546 34.9816 27.2202 35.1527 27.6095 35.2168C27.9985 35.2984 28.8628 35.5498 29.5278 35.7909C30.2015 36.0233 30.806 36.2727 30.8575 36.3256C30.9177 36.3873 31.1768 36.4942 31.4189 36.5485C31.6695 36.6116 32.1271 36.7987 32.4463 36.9672C32.7569 37.127 33.3174 37.4724 33.6966 37.7201C34.0845 37.9592 34.5327 38.26 34.6964 38.375C34.86 38.4899 35.1533 38.6496 35.352 38.7122C35.5594 38.7838 35.8008 38.9255 35.904 39.0313C36.0157 39.1459 36.3091 39.288 36.5512 39.3423C36.8538 39.4232 37.2785 39.3651 37.8168 39.1766C38.329 38.9965 38.7551 38.7634 39.0081 38.5115C39.383 38.1555 39.3921 38.0944 39.2308 37.6469C39.1375 37.3749 38.9324 37.0059 38.7778 36.8298C38.5888 36.6185 38.3215 36.4678 38.0188 36.4043C37.6383 36.3315 37.4908 36.3742 37.2465 36.6174C36.9849 36.878 36.8981 36.8949 36.6482 36.7268C36.4844 36.6293 35.8991 36.135 35.3485 35.641C34.7892 35.1382 34.0227 34.5463 33.6261 34.3159C33.2293 34.0855 32.7806 33.8722 32.6337 33.8274C32.4781 33.7913 32.0209 33.5517 31.5984 33.2948C31.1847 33.0292 30.4601 32.6214 29.9856 32.3817C29.511 32.142 28.7686 31.8216 28.3367 31.6784C27.8356 31.5173 27.1088 31.4244 26.312 31.4361C25.6191 31.4485 24.8136 31.469 24.5103 31.493C24.1724 31.5167 23.8697 31.4532 23.7494 31.3298C23.6462 31.2241 23.5867 31.075 23.6046 31.0051C23.6311 30.9265 23.5628 30.786 23.4511 30.6714C23.348 30.5657 23.237 30.3461 23.2122 30.1796C23.1787 30.0219 23.0595 29.741 22.9482 29.574C22.8368 29.4069 22.3046 28.7555 21.7635 28.1479C20.9991 27.276 20.6292 26.9321 20.043 26.5603C19.6293 26.2947 19.1377 26.0024 18.9479 25.9134C18.7493 25.8333 18.0405 25.6531 16.1551 25.3068L15.8406 24.4907C15.662 24.0432 15.5436 23.6573 15.5872 23.6139C15.6221 23.5791 15.726 23.5799 15.8298 23.5982C15.9249 23.6251 16.2369 23.5924 16.5232 23.5157C16.8008 23.4478 17.0694 23.4235 17.121 23.4763C17.164 23.5205 17.6498 23.4015 18.1968 23.2042C18.7352 23.0157 19.3517 22.784 19.5515 22.7067C19.7425 22.6206 20.0989 22.457 20.3247 22.3536C20.5506 22.2502 21.0113 22.0348 21.3327 21.8885C21.8974 21.6389 21.9494 21.6392 22.1984 21.9298C22.3444 22.0971 22.8768 22.731 23.3659 23.3384C23.8551 23.9456 24.5937 24.7911 25.0064 25.2141C25.4275 25.6459 25.9009 26.0431 26.0649 26.1231C26.2376 26.1943 26.84 26.7063 27.4163 27.2442C28.0013 27.791 28.6552 28.3733 28.8705 28.5411C29.077 28.7177 29.6194 29.1504 30.0671 29.5212C30.5234 29.8832 31.0315 30.2807 31.1952 30.3956L31.2176 30.4113C31.3962 30.5368 31.8145 30.8306 32.1776 31.0678C32.548 31.3243 33.2208 31.6967 33.6782 31.9188C34.1355 32.1409 34.6711 32.3198 34.8702 32.33C35.078 32.349 35.2514 32.3153 35.2778 32.2542C35.2956 32.2019 35.2366 31.9652 35.1518 31.7196C35.0669 31.4914 34.8381 30.7985 34.626 30.1933C34.4226 29.5792 34.1169 28.7546 33.9379 28.3594C33.7589 27.9644 33.4788 27.1836 33.3095 26.6398C33.1403 26.0961 32.8703 25.1317 32.7016 24.5004C32.5416 23.878 32.416 23.2909 32.434 23.2034C32.4519 23.1161 32.3767 22.7393 32.2755 22.371C32.1656 21.994 32.0306 21.503 31.9891 21.2664C31.9475 21.0299 31.7607 20.5211 31.5815 20.1435C31.411 19.7747 31.0882 18.9148 30.8679 18.2483C30.6393 17.5378 30.5389 17.0472 30.6341 17.0566C30.7206 17.0747 31.5323 17.3957 32.43 17.7872C33.3278 18.1788 34.2081 18.6052 34.3805 18.7115C34.5442 18.8265 34.8629 19.065 35.0782 19.2328C35.3021 19.392 35.7158 19.675 36.0263 19.8523C36.3282 20.0207 36.716 20.2773 36.8797 20.3923C37.0434 20.5073 37.3019 20.6841 37.4484 20.7814C37.5862 20.8874 37.8447 21.0643 38.0084 21.1793C38.1721 21.2943 38.8098 21.7189 39.4306 22.1085C40.0425 22.5066 40.8958 23.0641 41.3354 23.3386C41.7664 23.6217 42.6374 24.1269 43.2672 24.4553C43.8883 24.7923 44.5959 25.13 44.8205 25.2017C45.0625 25.2734 45.5284 25.5219 45.8559 25.7342C46.2007 25.9467 46.7788 26.2397 47.1329 26.3735C47.4956 26.5162 47.928 26.5894 48.0929 26.5469C48.2665 26.4956 48.4056 26.4266 48.4059 26.3741C48.4151 26.313 48.1052 26.0482 47.7176 25.7566C47.0975 25.297 46.9086 25.0682 46.0776 23.8284C45.5549 23.0633 44.8432 22.0868 44.4999 21.6643C44.1478 21.2505 43.6153 20.6516 43.3058 20.3343C42.9876 20.0258 41.5433 18.5802 40.0818 17.1169C38.6202 15.6538 36.7888 13.8467 35.9974 13.1058C35.2061 12.365 34.3543 11.615 34.0957 11.4382C33.846 11.2526 33.2946 10.8636 32.8897 10.5544C32.4763 10.2538 31.5538 9.67831 30.8466 9.28816C30.1393 8.89799 29.2247 8.43629 28.8189 8.26708C28.4131 8.09785 27.9899 7.92851 27.8776 7.90143C27.7652 7.87436 27.5406 7.80272 27.3852 7.73158C27.1607 7.64244 27.0581 7.46669 26.864 6.77402C26.7374 6.30935 26.4561 5.70354 26.2589 5.43085C26.053 5.14934 25.8388 4.84153 25.7703 4.73602C25.7103 4.63934 25.5464 4.55939 25.4077 4.57587C25.2516 4.60972 24.9468 4.84375 24.6063 5.2175C24.3009 5.53901 23.9945 5.98302 23.915 6.20118C23.8528 6.41948 23.695 6.68083 23.5903 6.78506C23.477 6.89797 23.1993 6.96595 22.9657 6.93798C22.732 6.92752 22.3251 6.91579 22.0738 6.92271C21.8227 6.92962 21.5375 6.84878 21.4429 6.75184C21.3483 6.6549 21.1442 6.14591 21.0094 5.61992C20.8575 5.09381 20.6193 4.49707 20.4649 4.28594C20.268 3.97825 20.1818 3.92512 20.0771 4.02936C20.0073 4.09885 19.5861 4.86576 19.1555 5.72884C18.5843 6.85342 18.3039 7.30636 18.174 7.31416C18.0614 7.32208 17.6104 7.40628 17.1854 7.49942C16.7604 7.59256 16.1265 7.82416 15.7961 8.01425C15.4656 8.20433 14.9613 8.48063 14.6745 8.62729C14.3961 8.78274 14.0047 9.01613 13.8047 9.14592C13.6046 9.2757 13.3005 9.40472 13.1444 9.43858C12.9796 9.46362 12.5625 9.67058 12.2058 9.88674C11.8492 10.1028 11.2397 10.5534 10.8649 10.8919C10.4553 11.2477 9.94879 11.8215 9.64234 12.283C9.35343 12.7095 9.03824 13.1798 8.93331 13.319C8.83697 13.467 8.62685 13.7805 8.47779 14.0332C8.31141 14.2857 8.1181 14.6692 8.04729 14.8787C7.97648 15.0882 7.85347 15.3323 7.78368 15.4018C7.70517 15.48 7.40253 15.4165 7.02279 15.2388C6.68615 15.0875 6.11576 14.9258 5.76964 14.8884Z" fill="#161722"/>
<path d="M25.2805 25.6186C25.4613 25.7687 25.324 25.5927 24.9716 25.2314C24.6191 24.8701 24.4641 24.7464 24.6357 24.9577C24.8075 25.169 25.0997 25.4686 25.2805 25.6186Z" fill="#8D8389"/>
<path d="M17.8915 11.626C17.8486 11.5469 17.7011 11.5896 17.5095 11.7457L17.5008 11.7543C17.3353 11.8844 17.0999 12.1014 16.9777 12.223C16.8557 12.3446 16.6798 12.7109 16.5908 13.0427C16.4479 13.6366 16.4392 13.6453 16.7513 13.5951C16.9247 13.5614 17.3228 13.5992 17.6515 13.6542C17.9714 13.7178 18.3005 13.7202 18.3875 13.6684C18.4658 13.6076 18.5368 13.3807 18.5471 13.162C18.5413 12.7682 18.5413 12.7682 18.2207 12.7921C18.0388 12.7996 17.8399 12.7544 17.7883 12.7014C17.7194 12.6484 17.6772 12.4994 17.6867 12.3857C17.6876 12.2632 17.7668 12.0801 17.8369 11.9756C17.9157 11.8624 17.9342 11.705 17.8915 11.626Z" fill="white"/>
<path d="M38.4474 37.0026C38.3357 36.8705 38.1027 36.7726 37.9294 36.7713C37.7563 36.7701 37.548 36.8385 37.4607 36.9254C37.3648 37.0209 37.3033 37.1342 37.3203 37.1869C37.3458 37.2483 37.1617 37.5532 36.9255 37.8752C36.6721 38.1971 36.4356 38.5542 36.3915 38.6675C36.3387 38.7721 36.3033 38.8944 36.3116 38.9382C36.32 38.982 36.4929 39.0183 36.692 39.0285C36.8825 39.0298 37.3509 38.9283 37.7241 38.8173C38.0974 38.6888 38.5495 38.4471 38.7152 38.282C38.9856 38.0128 38.9949 37.9341 38.8241 37.6004C38.7303 37.3984 38.5505 37.1258 38.4474 37.0026Z" fill="white"/>
<path d="M12.1603 10.1926C11.8209 10.4264 11.3681 10.7556 11.1676 10.9379C10.9585 11.1113 10.7233 11.3109 10.6449 11.3715C10.5665 11.4323 10.5034 11.773 10.5182 12.1232C10.5243 12.4644 10.426 12.8924 10.3207 13.0666C10.1718 13.3019 9.97177 13.4316 9.57264 13.5337C9.15607 13.6531 8.98211 13.7569 8.83305 14.0096C8.73645 14.1926 8.58817 14.3402 8.51876 14.3572C8.44948 14.3567 8.4405 14.4004 8.48348 14.4444C8.53506 14.4974 8.69953 14.5073 8.85566 14.4734C9.08991 14.4139 9.16753 14.4583 9.3297 14.7831C9.43221 14.9764 9.59514 15.1964 9.6901 15.2408C9.7763 15.2939 10.2529 15.2537 10.7559 15.1523C11.2503 15.0422 12.335 14.7439 13.1597 14.4787C13.9757 14.2046 14.9823 13.9146 16.0925 13.6952L16.1925 13.0397C16.2557 12.6813 16.4059 12.2712 16.528 12.1496C16.6503 12.0105 17.0335 11.7158 17.3901 11.4997C17.7467 11.2835 18.1031 11.1024 18.207 11.1031C18.3225 11.104 18.4713 11.2859 18.6534 11.6489C18.824 12.0002 18.9159 12.4646 18.9122 12.9721C18.9004 13.4007 18.8198 13.7764 18.7417 13.8021C18.6374 13.8363 18.6368 13.9238 18.7314 14.0207C18.8 14.1087 18.9987 14.1715 19.1633 14.1639C19.3365 14.1652 19.6649 14.2551 19.9065 14.3793C20.1999 14.5215 20.5871 14.8656 21.0079 15.3499C21.4031 15.7903 21.857 16.4849 22.1558 17.0733C22.429 17.6177 22.7536 18.2326 22.8733 18.4436C22.993 18.6544 23.0949 18.9352 23.0941 19.0576C23.084 19.2413 23.0319 19.2584 22.747 19.1427C22.557 19.0712 22.1937 19.016 21.9424 19.023C21.6912 19.0474 20.6074 19.2232 19.5407 19.4341C18.4653 19.6363 17.5115 19.8043 17.4248 19.8212C17.3295 19.8292 16.9565 19.9053 16.5833 20.0162C16.2102 20.1098 15.6029 20.2803 15.2297 20.3913C14.8737 20.5024 14.1454 20.6372 13.634 20.6946C13.1227 20.7521 12.4635 20.8873 12.1597 20.9814C11.8472 21.0841 11.5257 21.2304 11.4472 21.3086C11.3599 21.3955 11.0993 21.5161 10.8738 21.5669C10.6483 21.6178 9.77163 21.8826 8.947 22.1479C8.07029 22.4302 7.18548 22.6337 6.82191 22.6135C6.48425 22.6023 6.08617 22.5643 5.93927 22.5195C5.79224 22.4923 5.67076 22.5263 5.67025 22.5964C5.66102 22.675 5.85038 22.8339 6.10068 22.9495C6.33366 23.0649 6.86889 23.2963 7.27469 23.4656C7.68048 23.6348 8.38043 23.8412 8.81277 23.9318C9.24512 24.0225 9.8767 24.1058 10.2143 24.1171C10.5433 24.137 11.1936 24.028 11.6624 23.874C12.1311 23.7199 12.6517 23.5837 12.8337 23.5763C13.0155 23.5688 13.3191 23.5098 13.5014 23.4499C13.701 23.3902 14.3683 23.3163 14.9834 23.2945C15.6071 23.2641 16.4128 23.2263 16.7594 23.1937C17.1146 23.1701 17.6435 23.0777 17.9301 22.9836C18.2165 22.8894 18.7724 22.666 19.1634 22.4851C19.5544 22.3042 20.2234 22.0028 20.6578 21.8136C21.0836 21.6154 21.5701 21.409 21.7436 21.3578C22.0214 21.2723 22.0818 21.299 22.3731 21.7211C22.5619 21.9675 22.8277 22.3282 22.9736 22.513C23.1194 22.6978 23.8151 23.4991 24.5108 24.283C25.43 25.3134 25.8943 25.7719 26.1876 25.914C26.4033 26.0293 27.0576 26.5592 27.6166 27.0969C28.1843 27.6261 29.019 28.3585 29.4754 28.7205C29.9317 29.0827 30.5862 29.595 30.9393 29.8688C31.301 30.1339 31.6713 30.4254 31.7833 30.505C31.8953 30.5845 32.145 30.7701 32.3433 30.9028C32.5415 31.0355 32.8691 31.2304 33.0591 31.3193C33.2402 31.4169 33.7495 31.6394 34.1812 31.8175C34.5956 31.9955 34.9671 32.112 35.0108 32.0686C35.0457 32.0338 35.012 31.8936 34.9437 31.7531C34.8669 31.6038 34.6459 31.0246 34.4596 30.4458C34.2646 29.8756 33.976 29.0685 33.8145 28.6561C33.6443 28.2524 33.4654 27.8398 33.4054 27.7606C33.3541 27.6728 33.1848 27.129 33.033 26.5679C32.8899 25.998 32.6624 25.1302 32.5275 24.6391C32.3925 24.1482 32.216 23.4031 32.1325 22.9825C32.0575 22.5707 31.9235 21.9573 31.8393 21.6241C31.7724 21.2912 31.6287 20.8089 31.5353 20.5544C31.4333 20.2912 31.3222 20.0891 31.2962 20.0977C31.2615 20.0975 31.0155 19.3868 30.7447 18.5274C30.474 17.6504 30.2803 16.8878 30.3155 16.8181C30.3506 16.7483 30.8604 16.9007 31.4649 17.1327C32.0608 17.3733 32.6307 17.5875 32.7086 17.5968C32.795 17.6149 33.1231 17.7573 33.4425 17.9084C33.7704 18.0683 34.4514 18.4846 34.9512 18.8382C35.4682 19.1919 36.6575 19.9882 37.6055 20.6251C38.5534 21.2621 39.605 21.9348 39.9328 22.1296C40.2691 22.3159 40.7602 22.6607 41.0272 22.8639C41.3027 23.0759 42.1565 23.581 42.9327 24.0066C43.7177 24.4236 44.5893 24.8587 44.8916 24.9747C45.1851 25.0818 45.746 25.3747 46.1511 25.6314C46.5389 25.888 47.0913 26.1545 47.3764 26.2354C47.6531 26.3074 47.9126 26.3443 47.9562 26.3009C47.9911 26.2662 47.8449 26.1163 47.6381 25.9748C47.414 25.8332 47.0355 25.4804 46.7777 25.216C46.5285 24.9429 46.2194 24.5732 46.1168 24.3974C46.0141 24.2217 45.8773 23.9931 45.8347 23.8966C45.792 23.8001 45.535 23.4307 45.2778 23.0613C45.0208 22.6919 44.5059 22.0406 44.128 21.6004C43.7501 21.1601 43.3809 20.7461 43.312 20.6757C43.2346 20.6138 41.9192 19.3005 40.3801 17.7754C38.841 16.2504 36.8721 14.3023 35.9862 13.4645C35.1003 12.6268 34.0333 11.6915 33.611 11.3997C33.1976 11.0991 32.7065 10.7543 32.5515 10.6307C32.3965 10.507 32.25 10.4098 32.2412 10.4184C32.2326 10.4271 32.1205 10.3475 31.9914 10.2328C31.8537 10.1269 31.1896 9.74574 30.4995 9.37316C29.8181 9.00942 28.791 8.53816 28.2295 8.3328C27.6681 8.12743 27.1235 7.9922 27.0281 8.01775C26.924 8.03449 26.7772 7.98966 26.6998 7.91034C26.6139 7.82222 26.2769 7.706 25.9396 7.65979C25.6109 7.60487 25.2824 7.51497 25.2308 7.4621C25.1707 7.40041 25.0929 7.37359 25.058 7.40833C25.0144 7.45176 24.729 7.40592 24.4178 7.33364C24.1065 7.26137 23.7774 7.25896 23.6644 7.31938C23.56 7.38861 23.2397 7.37752 22.9459 7.28787C22.6607 7.20703 21.9855 7.16709 21.4483 7.19815C20.9112 7.22923 20.2528 7.25941 19.967 7.26606C19.6726 7.26391 19.213 7.3393 18.918 7.42464C18.6229 7.50997 18.2673 7.58612 18.1288 7.58511C17.9988 7.59291 17.5653 7.65973 17.1663 7.74431C16.7846 7.82902 16.1072 8.10405 15.6897 8.346C15.2637 8.57913 14.6376 8.94205 14.3071 9.13212C13.9852 9.33102 13.4986 9.55495 13.2469 9.63189C12.9952 9.70875 12.5083 9.96771 12.1603 10.1926Z" fill="#3F47CB"/>
<path d="M-5.87017 35.2168C-6.01757 35.2419 -6.37332 35.3356 -6.6771 35.4297L-7.22399 35.6094L-7.24603 36.2567C-7.2573 36.6154 -7.24227 36.9304 -7.19929 36.9746C-7.1649 37.0098 -6.6184 36.8826 -5.97619 36.6947C-5.32525 36.4982 -4.51871 36.3379 -4.15488 36.3231C-3.80837 36.3081 -2.87403 36.4375 -2.07849 36.6008C-1.28296 36.7641 -0.349508 37.016 -0.00401831 37.141C0.350071 37.2748 1.20565 37.5173 1.88854 37.6886C2.58016 37.8511 3.47076 38.0414 3.86 38.1055C4.25795 38.1609 4.83744 38.2614 5.75408 38.4432L5.80922 38.006C5.82832 37.7611 5.94415 37.3157 6.05023 37.019C6.15631 36.7223 6.21903 36.4341 6.16746 36.3811C6.11587 36.3283 5.95154 36.3009 5.80426 36.3085C5.65699 36.3162 4.98204 36.2413 4.30724 36.1488C3.6237 36.0651 2.69834 35.892 2.24021 35.7749C1.78209 35.6578 1.23724 35.5575 1.03813 35.5473C0.830423 35.5283 0.640167 35.4919 0.605784 35.4567C0.562803 35.4126 0.277611 35.3318 -0.0510697 35.2769C-0.379751 35.222 -0.881115 35.0958 -1.1749 35.0061C-1.46869 34.9165 -2.16082 34.8239 -2.73222 34.8023C-3.29503 34.7894 -4.17022 34.8618 -4.68196 34.9717C-5.1937 35.0817 -5.73136 35.1828 -5.87017 35.2168Z" fill="#3F47CB"/>
<path d="M13.585 23.8529C13.3767 23.904 13.0821 23.9368 12.935 23.9269C12.8051 23.9173 12.6491 23.9336 12.6055 23.9771C12.5619 24.0205 12.5696 24.1518 12.6294 24.266C12.6718 24.38 12.8673 24.8977 13.0541 25.4066C13.3511 26.24 13.3589 26.3539 13.1244 26.4659C12.9851 26.5524 12.7587 26.7257 12.6104 26.8733C12.4708 27.0123 11.79 27.7423 11.1004 28.4985C10.4195 29.2461 9.67702 30.1243 9.45825 30.429C9.23094 30.7248 8.9858 31.0905 8.9069 31.2212C8.81929 31.3605 8.69666 31.5522 8.63534 31.648C8.5653 31.7524 8.36403 32.0397 8.18033 32.2922C7.99663 32.5446 7.74136 33.1114 7.59962 33.5479C7.45789 33.9843 7.28972 34.4819 7.21057 34.6475C7.1313 34.8306 6.85681 35.6599 6.61682 36.5069C6.16416 38.0173 6.16365 38.0874 6.3723 39.1651C6.4978 39.7698 6.69812 40.8038 6.82336 41.4434C6.9572 42.0918 7.19317 42.9861 7.37178 43.4337C7.54165 43.8899 7.83162 44.5045 8.01137 44.7946C8.19971 45.0934 8.76603 45.8151 9.28139 46.3964C9.79678 46.9776 10.4325 47.6823 10.6904 47.9466C10.9395 48.2197 11.5338 48.6529 11.9997 48.9013C12.4568 49.1583 12.9748 49.3897 13.1391 49.4171C13.2947 49.4533 13.8833 49.4925 14.4461 49.5054C15.0089 49.5183 15.9265 49.5775 16.4976 49.6342C17.0688 49.6734 17.7007 49.7218 17.9258 49.7234C18.1423 49.7338 18.7495 49.5982 19.2704 49.427C19.791 49.2733 20.4076 49.0415 20.6335 48.9382C20.8594 48.8349 21.7646 48.2115 22.6268 47.5441C23.5586 46.8421 24.369 46.1393 24.5877 45.8522C24.8236 45.5651 25.0083 45.1552 25.0626 44.8407C25.108 44.5522 25.1967 44.2729 25.2489 44.2382C25.3013 44.1862 25.337 44.0289 25.3294 43.8801C25.3219 43.7313 25.403 43.2856 25.5096 42.9189C25.6163 42.5347 25.7069 41.9929 25.7176 41.7217C25.7282 41.4331 25.794 40.7247 25.8676 40.1303C25.9412 39.5358 25.9466 38.8009 25.8881 38.5117C25.821 38.2137 25.4236 36.8896 25.0089 35.5653C24.5856 34.2322 24.1191 32.89 23.9569 32.5652C23.8033 32.249 23.5474 31.7221 23.3939 31.3885C23.2403 31.0724 23.0103 30.5544 22.8826 30.2472C22.7379 29.9049 22.2835 29.2804 21.6307 28.5406C20.9952 27.801 20.4364 27.2456 20.1003 27.0244C19.8158 26.8386 19.4195 26.5557 19.23 26.4143C19.0233 26.2553 18.2974 26.04 17.3374 25.8667C16.0314 25.6384 15.7809 25.5578 15.7651 25.3477C15.7574 25.2163 15.6812 24.9796 15.5957 24.8214C15.5103 24.6633 15.4086 24.3476 15.2489 23.6902L14.6079 23.7205C14.2526 23.7442 13.7932 23.802 13.585 23.8529Z" fill="#3F47CB"/>
<path d="M28.645 32.1532C27.7124 31.7964 27.3749 31.7501 25.9459 31.766C25.0538 31.7681 24.2742 31.815 24.2131 31.8758C24.1607 31.9279 24.1852 32.1293 24.2531 32.3223C24.3298 32.5066 24.5339 33.0156 24.7212 33.4545C25.0445 34.2444 25.0618 34.262 25.425 34.3171C25.6413 34.3449 26.0648 34.4618 26.3931 34.5692C26.7127 34.6852 27.2746 34.8206 27.6466 34.8846C28.0097 34.9573 28.7962 35.1818 29.4008 35.3962C29.9967 35.6193 30.8863 35.9496 31.3613 36.1368C31.8535 36.3242 32.544 36.6442 32.9149 36.8481C33.2858 37.0522 33.984 37.486 34.4753 37.8134C35.0441 38.185 35.4843 38.3895 35.6923 38.3735C35.9522 38.3579 36.1001 38.2627 36.4061 37.8712C36.6245 37.6016 36.7996 37.3403 36.8261 37.2793C36.8437 37.227 36.6717 37.0682 36.4475 36.9441C36.2146 36.8111 35.6379 36.3256 35.1561 35.8845C34.4508 35.2319 33.994 34.9224 32.9242 34.372C32.1823 33.9816 31.1558 33.4228 30.6471 33.1128C30.1297 32.8115 29.2322 32.385 28.645 32.1532Z" fill="#3F47CB"/>
<path d="M5.14412 15.1638C4.94501 15.1536 4.53756 15.2119 4.25109 15.306C3.95604 15.3913 3.63443 15.5552 3.51243 15.6593C3.40774 15.7636 3.28524 15.9377 3.2497 16.0599C3.19686 16.182 3.24614 16.5499 3.37355 16.8921C3.48364 17.2341 3.63696 17.5853 3.72292 17.6734C3.80029 17.7527 4.19736 17.9306 4.5948 18.056C5.14761 18.2525 5.32004 18.3589 5.36199 18.5429C5.38702 18.6743 5.31507 19.0413 5.19154 19.3553C5.06801 19.6694 4.89228 20.0182 4.77888 20.1311C4.6742 20.2353 4.6025 20.5673 4.60893 20.8736C4.62344 21.2587 4.70825 21.5043 4.92315 21.7247C5.11227 21.9185 5.4575 22.0786 5.88125 22.1604C6.24444 22.2331 6.74631 22.2892 6.98878 22.291C7.24857 22.2929 8.26358 22.0466 9.24434 21.7475C10.2251 21.4484 11.0933 21.1398 11.1631 21.0703C11.2329 21.0009 11.6152 20.8287 11.9972 20.6915C12.3793 20.5543 12.7437 20.4519 12.8044 20.4611C12.8649 20.4703 13.2895 20.4296 13.7403 20.363C14.1911 20.2962 14.8851 20.1438 15.2496 20.024C15.623 19.8955 15.9873 19.8106 16.065 19.8374C16.1428 19.8643 16.5158 19.7708 16.915 19.6512C17.3057 19.5228 17.6528 19.4378 17.6957 19.4819C17.7301 19.5171 17.7907 19.5089 17.8431 19.4567C17.8954 19.4046 18.2859 19.3112 18.702 19.2443C19.1268 19.1686 19.7685 19.0508 20.1328 18.9835C20.4884 18.9073 20.8264 18.8661 20.887 18.8753C20.939 18.8756 21.1818 18.8249 21.4075 18.7565C21.6419 18.6795 21.9885 18.6471 22.1786 18.701C22.3687 18.7548 22.5505 18.7649 22.5854 18.7302C22.629 18.6868 22.4416 18.2654 22.1854 17.7735C21.9377 17.2905 21.6387 16.7371 21.5448 16.5526C21.4509 16.3682 21.0646 15.8841 20.6951 15.4876C20.0508 14.7917 19.9904 14.7475 19.0484 14.4868C18.5039 14.3341 18.0201 14.173 17.9686 14.1202C17.917 14.0673 17.4323 14.0288 16.8867 14.0335C16.3325 14.0294 15.4745 14.1195 14.9714 14.2383C14.4855 14.3572 13.5308 14.6477 12.8622 14.879C12.2023 15.1192 11.4473 15.3499 11.2131 15.392C10.9704 15.4252 10.7277 15.4584 10.6757 15.4581C10.6237 15.4577 10.3982 15.5085 10.1899 15.577C9.97298 15.6366 9.53952 15.7035 9.23633 15.71C8.94191 15.7079 8.65583 15.7495 8.60348 15.8016C8.55115 15.8537 8.45608 15.8268 8.38732 15.7563C8.30995 15.677 8.17987 15.7022 8.05774 15.8239C7.95306 15.9281 7.84787 16.1023 7.82119 16.1983C7.77682 16.3468 7.82839 16.3997 8.13924 16.5244C8.34643 16.6135 8.76146 16.704 9.06447 16.7149C9.36737 16.7435 9.78295 16.764 9.98213 16.7567C10.1812 16.7669 11.5262 16.4005 12.9757 15.9474C14.4165 15.5029 15.987 15.0856 16.4464 15.0277C16.9145 14.9787 17.5123 14.9394 17.7634 14.9499C18.023 14.9693 18.4555 15.0425 18.7148 15.1144C18.9828 15.1776 19.3453 15.3377 19.5177 15.444C19.7332 15.5943 19.8959 15.8317 20.0399 16.2791C20.15 16.6211 20.2084 16.9278 20.156 16.9799C20.1037 17.0321 19.8623 16.8903 19.604 16.6784C19.3285 16.4488 19.0006 16.2889 18.7756 16.2699C18.5765 16.2596 17.9607 16.3864 17.4053 16.5398C16.8586 16.7021 16.3554 16.8209 16.3035 16.8205C16.2429 16.8112 16.0174 16.8622 15.8091 16.9306C15.5922 16.9903 15.2972 17.0581 15.1586 17.0571C15.0287 17.0649 14.6387 17.1058 14.3093 17.1558C13.9712 17.1971 13.6592 17.2298 13.6073 17.2294C13.5467 17.2203 13.2691 17.2883 12.9826 17.3824C12.6961 17.4766 12.2107 17.543 11.8903 17.5319C11.5873 17.5209 11.0324 17.6219 10.6675 17.7767C10.3028 17.914 9.72984 18.1024 9.40863 18.2137C9.0788 18.3163 8.53152 18.5486 8.19246 18.7299C7.8534 18.9111 7.37465 19.2488 7.13039 19.4921C6.89486 19.7266 6.60725 19.9783 6.51155 20.0388C6.40712 20.108 6.25998 20.0982 6.19121 20.0276C6.12245 19.9572 6.12359 19.7997 6.19376 19.6777C6.26393 19.5557 6.30971 19.2148 6.31188 18.9173C6.29672 18.6197 6.18842 18.0327 6.07884 17.6207C5.90125 17.033 5.74729 16.7695 5.33482 16.329C4.91362 15.8971 4.81945 15.7476 4.92412 15.6434C4.99391 15.5739 5.11515 15.5749 5.18391 15.6453C5.25268 15.7159 5.46025 15.7524 5.6337 15.7186C5.82446 15.685 6.22204 15.7929 6.55842 15.9791C7.05877 16.2453 7.17988 16.2637 7.4063 16.0903C7.53702 15.9775 7.62451 15.8557 7.59013 15.8205C7.54715 15.7764 7.25373 15.6343 6.89965 15.5004C6.56288 15.3667 6.10489 15.2321 5.89718 15.213C5.68075 15.2027 5.34323 15.174 5.14412 15.1638Z" fill="#FAEAAD"/>
<path d="M20.6794 5.75758C20.5359 5.24029 20.3403 4.75761 20.2544 4.66948C20.1168 4.52847 20.0907 4.55453 19.9844 4.86875C19.9138 5.06074 19.6499 5.6188 19.3952 6.11569C19.1405 6.59507 18.9555 7.02246 18.9985 7.06652C19.0329 7.10177 19.0848 7.10216 19.1197 7.06741C19.1634 7.02399 19.5447 6.99177 19.9863 6.98626C20.4368 6.97205 20.8356 6.90497 20.8708 6.83524C20.9147 6.7568 20.8402 6.27501 20.6794 5.75758Z" fill="#FAEAAD"/>
<path d="M26.5261 6.78038C26.425 6.41214 26.177 5.96408 25.8593 5.5855L25.3615 4.96936L24.8201 5.59539C24.5231 5.94322 24.2341 6.38735 24.1635 6.57933C24.057 6.92855 24.0655 6.93737 24.4115 7.0099C24.6103 7.05511 24.8441 7.06557 24.9481 7.04882C25.0435 7.02328 25.3894 7.0958 25.709 7.2119C26.0373 7.3193 26.3918 7.40064 26.487 7.39259C26.6172 7.36729 26.6358 7.19243 26.5261 6.78038Z" fill="#FAEAAD"/>
<path fill-rule="evenodd" clip-rule="evenodd" d="M5.68226 16.1915C5.67303 16.2702 5.74116 16.4282 5.87023 16.5429C5.99069 16.6488 6.21227 17.1404 6.37317 17.6403C6.52549 18.1315 6.64264 18.6923 6.63251 18.8935C6.63111 19.0859 6.64704 19.2785 6.69873 19.3139C6.73312 19.3492 6.84613 19.2888 6.95082 19.1845C7.06422 19.0716 7.44715 18.8119 7.81238 18.6046C8.16901 18.3884 9.09845 18.0015 9.87985 17.7272C10.6611 17.4704 11.5461 17.2494 11.8317 17.2603C12.1175 17.2711 12.6984 17.1791 13.0976 17.0596C13.5054 16.9488 14.0691 16.8391 14.3464 16.8237C14.6235 16.8082 15.0136 16.7673 15.2043 16.7337C15.4037 16.709 15.794 16.6331 16.0714 16.5825C16.349 16.5321 17.0604 16.3448 17.6418 16.1828C18.5356 15.9356 18.8128 15.9201 19.2186 16.0894C19.6418 16.2587 19.7024 16.2504 19.6087 16.0485C19.549 15.9168 19.3685 15.7317 19.2046 15.6343C19.041 15.5193 18.5828 15.4022 18.1761 15.3555C17.7696 15.2912 17.2675 15.2701 17.0594 15.2861C16.8428 15.3107 16.5915 15.3351 16.4875 15.3343C16.3837 15.3336 16.1149 15.3754 15.8721 15.4086C15.6293 15.4593 14.5793 15.7579 13.5375 16.1003C12.4958 16.4426 11.3502 16.7843 10.9772 16.8777C10.6215 16.9715 10.3437 17.0569 10.3695 17.0833C10.3953 17.1097 9.99694 17.1069 9.50354 17.077C9.00142 17.0558 8.34405 16.946 8.0504 16.8388C7.73942 16.7316 7.25537 16.6055 6.98737 16.5423C6.71064 16.4878 6.36516 16.3627 6.21864 16.2654C6.07213 16.1681 5.90818 16.0881 5.83902 16.0701C5.77847 16.061 5.70881 16.1129 5.68226 16.1915ZM11.7346 16.332C11.7259 16.3407 11.7344 16.367 11.7601 16.3935C11.786 16.42 12.2719 16.2835 12.8448 16.0952C13.4178 15.9069 13.878 15.7265 13.8609 15.6914C13.8439 15.6562 13.3667 15.784 12.8023 15.9812C12.2381 16.1607 11.7606 16.3235 11.7346 16.332ZM25.3974 4.81213L24.9001 5.32474C24.6296 5.594 24.3587 5.93327 24.2971 6.06407C24.2442 6.20368 24.4708 5.99535 25.414 4.91726L25.7741 5.40988C25.997 5.70901 26.1003 5.79727 26.0408 5.64809C25.9899 5.50771 25.8185 5.26146 25.6637 5.10282L25.3974 4.81213ZM14.2431 20.2966C14.2258 20.2966 14.2689 20.3231 14.3467 20.35C14.4071 20.3766 14.8669 20.2662 15.3615 20.1211C15.8476 19.9671 16.1429 19.8468 16.0217 19.8459C15.9005 19.8451 15.4495 19.9467 15.0329 20.0662C14.6163 20.1857 14.2519 20.288 14.2431 20.2966ZM19.9362 16.2608C20.1221 16.8922 20.1133 16.9184 19.5785 16.6169L19.8018 16.8636C19.9394 17.0046 20.0862 17.0669 20.1472 17.0062C20.2083 16.9453 20.1672 16.6388 20.0658 16.3055C19.9555 15.981 19.8365 15.6826 19.802 15.6473C19.7677 15.6122 19.8264 15.8838 19.9362 16.2608ZM3.40958 58.3409C3.36596 58.3844 3.57405 58.3508 3.88655 58.2482C4.19894 58.163 5.00498 58.0726 5.68043 58.0776C6.356 58.065 6.59872 58.0318 6.21782 58.0115C5.84566 57.9825 5.24821 57.9694 4.91902 57.9845C4.57251 57.9995 4.1217 58.0661 3.89605 58.1345C3.6877 58.203 3.46192 58.2888 3.40958 58.3409ZM3.19951 62.2156C3.18219 62.2155 3.2253 62.242 3.29445 62.2601C3.36347 62.2956 3.99682 62.134 4.69997 61.9029C5.39439 61.6804 5.97605 61.4834 5.9849 61.4573C5.97643 61.431 5.36039 61.5927 4.60542 61.8059C3.84172 62.0278 3.20823 62.2069 3.19951 62.2156Z" fill="#8D8389"/>
<path d="M17.1393 31.6752C17.0028 31.3942 16.8145 31.0953 16.7199 30.9984C16.6253 30.9014 16.487 30.8829 16.4172 30.9524C16.3474 31.0218 16.1713 31.4231 16.0297 31.842C15.8968 32.2523 15.7022 32.7934 15.6053 33.0289C15.5169 33.2733 15.1997 34.0234 14.909 34.6951C14.6097 35.3579 14.1791 36.221 13.9339 36.6042C13.6972 36.9962 13.3288 37.641 13.1179 38.0594C12.907 38.4779 12.4396 39.6382 12.0857 40.6682C11.7319 41.6805 11.4745 42.5449 11.5261 42.5978C11.5776 42.6507 13.2008 42.1463 15.1365 41.5042C17.8626 40.5792 18.8518 40.3064 19.5014 40.2849C19.9604 40.2795 20.3592 40.23 20.3941 40.1953C20.4377 40.1518 20.4302 39.9855 20.3708 39.8188C20.3202 39.6434 20.2282 39.1965 20.1614 38.846C20.0861 38.4867 19.8155 37.5922 19.5437 36.8727C19.2718 36.1358 18.9149 35.2057 18.7534 34.7933C18.5918 34.3808 18.2163 33.6255 17.917 33.1071C17.6176 32.5887 17.2672 31.9474 17.1393 31.6752Z" fill="#161722"/>
<path d="M16.8254 31.9704C16.7658 31.8212 16.6632 31.6455 16.6116 31.5926L16.6031 31.5838C16.543 31.5046 16.4991 31.583 16.4977 31.7755C16.4965 31.9505 16.4605 32.1253 16.4082 32.1773C16.3559 32.2295 16.2505 32.4387 16.1796 32.6481C16.1002 32.8489 15.8443 33.5032 15.5976 34.079C15.3595 34.6634 15.0514 35.3699 14.902 35.6575C14.7527 35.9452 14.4456 36.4942 14.209 36.8862C13.9809 37.2871 13.7618 37.6442 13.7266 37.7139C13.6828 37.7749 13.6213 37.9057 13.5773 38.0016C13.5419 38.1064 13.3484 38.5074 13.1637 38.8998C12.979 39.2922 12.8113 39.7197 12.8017 39.8509C12.7922 39.9821 12.6595 40.3574 12.5099 40.68C12.3689 41.0115 12.2537 41.3694 12.2615 41.4832C12.2695 41.597 12.2076 41.7628 12.1118 41.8408C12.0333 41.919 11.9892 42.0149 12.0323 42.0415C12.0753 42.0856 13.6464 41.5984 15.5303 40.9559C17.4054 40.3221 19.0724 39.7393 19.2289 39.653C19.4115 39.5581 19.5759 39.568 19.6877 39.6826C19.8424 39.8412 19.86 39.8064 19.8282 39.4036C19.8127 39.1585 19.6534 38.4486 19.4588 37.8259C19.2641 37.2032 19.0267 36.5015 18.9244 36.2732C18.8309 36.0364 18.7114 35.7905 18.686 35.7291C18.6431 35.6675 18.473 35.2287 18.2774 34.746C18.0817 34.2634 17.7062 33.5081 17.4323 33.0686C17.1671 32.6204 16.8935 32.1284 16.8254 31.9704Z" fill="#FAEAAD"/>
</g>
</g>
<defs>
<clipPath id="clip0_1_30">
<rect width="41" height="41" fill="white"/>
</clipPath>
</defs>
</svg>
