<svg width="160" height="159" viewBox="0 0 160 159" fill="none" xmlns="http://www.w3.org/2000/svg">
<path d="M1.57109 149.085C4.15292 149.787 6.73234 150.499 9.31815 151.185C9.7764 151.307 10.2658 151.314 10.7392 151.373C12.098 151.703 13.4585 152.025 14.8182 152.351C16.0059 152.525 17.1928 152.701 18.3806 152.874C20.0469 153.143 21.7173 153.409 23.3836 153.677C23.5178 153.626 23.652 153.575 23.7855 153.528C24.775 153.757 25.7677 153.987 26.7572 154.217C30.976 155.007 35.194 155.8 39.4161 156.59C40.1004 156.642 40.7822 156.689 41.4665 156.74C41.8951 156.74 42.3228 156.742 42.7514 156.742C43.4686 156.902 44.1882 157.066 44.9054 157.226C45.3462 157.218 45.7911 157.208 46.232 157.2C46.6734 157.276 47.1149 157.352 47.5589 157.431C48.5954 157.481 49.6319 157.531 50.6684 157.581C52.0788 157.669 53.508 157.651 54.8989 157.876C56.682 158.166 57.5953 157.689 58.0354 155.917C58.9414 152.294 59.8341 148.668 60.7302 145.043C60.761 144.47 60.791 143.901 60.8219 143.328C60.8948 142.998 60.967 142.672 61.0399 142.342C61.2215 141.104 61.4072 139.864 61.5888 138.626C61.699 137.913 61.8059 137.199 61.9168 136.482C61.9176 136.479 61.9056 136.413 61.9056 136.413C61.868 135.807 61.8337 135.201 61.7961 134.594C61.7408 134.449 61.6847 134.307 61.6294 134.161C61.6326 134.048 61.6391 133.934 61.6431 133.817C61.4099 133.299 61.1776 132.777 60.9445 132.258C60.6259 132.668 60.3603 133.145 59.968 133.47C59.5128 133.853 58.9349 134.384 58.4314 134.362C56.1154 134.26 53.7937 134.065 51.4955 133.73C50.5503 133.592 49.5747 133.147 48.7847 132.598C48.2151 132.202 47.7783 131.145 48.8098 130.87C51.035 130.284 53.3257 129.873 55.616 129.622C56.7365 129.498 57.9162 130.006 59.0698 130.018C60.4599 130.032 60.9599 130.772 61.1236 131.965C61.4451 131.918 61.7699 131.871 62.0913 131.824C62.1464 131.726 62.2047 131.629 62.2598 131.532C62.2037 131.289 62.1484 131.042 62.0923 130.8C62.1448 130.583 62.1973 130.366 62.2498 130.15C62.6311 129.669 63.0107 129.181 63.3978 128.705C64.5004 127.346 65.6063 125.989 66.709 124.63C66.903 124.246 67.0946 123.858 67.2886 123.475C67.3352 123.34 67.3784 123.205 67.425 123.07C67.967 120.891 68.5066 118.708 69.0486 116.529C69.2391 113.803 71.1513 111.922 72.3884 109.707C72.6537 109.403 72.9157 109.098 73.1801 108.797C73.4456 108.306 73.7151 107.812 73.9805 107.32C74.047 107.104 74.1126 106.89 74.1791 106.674C74.7328 105.884 75.2874 105.09 75.8378 104.3C75.9436 104.079 76.0495 103.858 76.1545 103.64C76.8059 102.533 77.4581 101.424 78.1096 100.317L78.0973 100.324C78.5504 99.4753 79.0043 98.623 79.4607 97.7748C80.55 95.7529 81.3404 95.7256 82.7785 97.6827C83.0325 98.0291 83.1885 98.4491 83.3902 98.8384C83.4915 98.8803 83.5848 98.9412 83.6642 99.016C83.7521 99.1276 83.8359 99.2417 83.9238 99.3534C84.5367 99.8285 85.1471 100.3 85.76 100.775C86.0168 101.066 86.2744 101.354 86.5312 101.646C86.9576 101.784 87.3847 101.919 87.8111 102.057C88.1353 102.142 88.4594 102.228 88.7843 102.31C89.3117 102.549 89.8349 102.791 90.3622 103.03C90.7965 103.135 91.2342 103.241 91.6685 103.346C93.8637 103.847 96.063 104.345 98.2582 104.846C98.9386 104.928 99.6223 105.01 100.302 105.095C100.74 105.201 101.177 105.307 101.615 105.413C102.931 105.732 104.246 106.054 105.562 106.377C106.766 106.668 107.975 106.955 109.179 107.246C110.689 107.727 112.199 108.211 113.709 108.692C113.804 108.805 113.898 108.922 113.992 109.035L113.989 109.02C114.885 110.294 115.814 111.55 116.676 112.85C118.182 115.119 120.827 116.392 123.182 115.212C126.216 113.693 128.668 114.958 131.203 116.097C133.122 116.961 135.026 117.958 136.707 119.203C137.821 120.025 138.646 121.319 139.402 122.527C142.325 127.21 145.168 131.939 148.039 136.651C148.559 137.84 149.079 139.029 149.599 140.219C150.364 140.682 150.986 140.833 151.127 139.634C151.339 137.812 151.581 135.992 151.81 134.171C151.857 133.488 151.908 132.805 151.955 132.122C151.686 128.819 151.413 125.518 151.144 122.216C150.947 121.463 150.753 120.71 150.556 119.957C150.051 118.807 149.546 117.656 149.044 116.506C148.817 116.006 148.591 115.503 148.364 115.003C148.201 114.728 148.034 114.451 147.871 114.175C147.76 113.999 147.649 113.826 147.539 113.65L147.166 113.046C143.639 108.495 140.11 103.939 136.259 98.9726C137.484 99.5093 138.415 99.6932 139.034 100.229C143.153 103.788 146.881 107.71 149.891 112.268C149.938 112.304 149.968 112.349 149.982 112.408C150.462 113.271 150.943 114.135 151.423 114.998C151.699 115.426 151.975 115.858 152.247 116.285C152.461 116.41 152.671 116.534 152.886 116.655C153.042 116.686 153.199 116.714 153.355 116.745L153.436 116.698C153.545 114.943 153.653 113.187 153.758 111.433C153.701 111.294 153.645 111.152 153.588 111.013C153.615 110.798 153.644 110.579 153.672 110.363C153.482 109.324 153.287 108.286 153.097 107.247C152.548 105.571 152.004 103.894 151.456 102.218C151.165 101.55 150.87 100.885 150.579 100.216C150.509 99.9843 150.44 99.7554 150.367 99.5225C150.126 98.6789 148.646 97.872 150.288 96.9742C150.429 95.8758 150.574 94.775 150.715 93.6766C150.693 93.4351 150.671 93.1936 150.651 92.9489C150.647 91.9161 150.639 90.8826 150.635 89.8498C150.59 89.0295 150.549 88.2099 150.504 87.3863L150.514 87.4026C150.452 87.1409 150.391 86.876 150.329 86.6143C150.282 86.5057 150.231 86.3995 150.185 86.2909C150.125 85.9187 150.066 85.5431 150.007 85.1708C149.917 84.5654 149.829 83.964 149.739 83.3585C149.653 82.7644 149.567 82.1704 149.478 81.5756C149.308 80.8535 149.141 80.1322 148.971 79.4101C148.739 78.4157 148.505 77.4246 148.272 76.4302C148.133 75.2501 146.884 74.1239 148.095 72.8785C148.715 71.7573 149.339 70.6369 149.959 69.5157C150.066 69.2013 150.178 68.8845 150.286 68.5701C150.424 68.371 150.564 68.1686 150.703 67.9695C150.755 67.8709 150.804 67.7682 150.856 67.6695C151.32 66.6149 151.782 65.5562 152.247 64.5015C152.64 63.4539 153.034 62.403 153.428 61.3553C153.878 59.4982 154.328 57.641 154.781 55.7846C154.887 55.3482 154.993 54.9118 155.099 54.4754C155.178 54.1472 155.258 53.8191 155.337 53.491C155.417 53.1629 155.496 52.838 155.572 52.5091C155.579 51.9341 155.539 51.3512 155.601 50.7791C155.71 49.7702 155.883 48.7666 156.026 47.7591C156.159 47.2284 156.291 46.6943 156.424 46.1635C156.605 45.2729 156.782 44.3848 156.963 43.4941C156.967 43.1444 156.973 42.7914 156.977 42.4416L157.676 39.4878C157.7 38.4548 157.721 37.4178 157.745 36.3849C157.852 35.4833 157.958 34.585 158.069 33.6841C158.118 33.4668 158.165 33.2453 158.214 33.028C158.191 31.5252 158.168 30.0258 158.142 28.5222C158.121 28.18 158.1 27.8345 158.082 27.4931C158.017 26.8834 157.949 26.2729 157.884 25.6631C157.866 25.565 157.87 25.465 157.9 25.3682C157.58 23.887 157.26 22.4059 156.94 20.9215C156.653 20.0527 156.366 19.1807 156.078 18.312C155.349 17.0964 154.619 15.8809 153.889 14.6653C153.408 14.2811 152.924 13.8928 152.442 13.5085C152.071 13.099 151.696 12.6919 151.325 12.2824C151.034 12.073 150.743 11.8669 150.452 11.6575C150.149 11.4694 149.847 11.2781 149.545 11.0901L148.892 10.9215C148.065 10.4953 147.242 10.0699 146.415 9.6437C146.199 9.5845 145.981 9.52123 145.766 9.46203C145.231 9.25258 144.698 9.03985 144.167 8.8312C143.846 8.72928 143.527 8.62408 143.207 8.52216C142.128 8.17376 141.045 7.82457 139.966 7.47617C138.881 7.18187 137.795 6.89085 136.713 6.59735C135.397 6.27835 134.081 5.95935 132.765 5.64035C132.213 5.53094 131.665 5.42232 131.112 5.31619C130.76 5.31767 130.408 5.31587 130.056 5.31736C129.727 5.23761 129.401 5.15865 129.072 5.08218C128.167 4.97753 127.262 4.87288 126.361 4.76575L125.047 4.45411C123.349 4.27192 121.652 4.08974 119.954 3.90755C119.737 3.85492 119.516 3.80148 119.299 3.75213C119.078 3.6987 118.858 3.64527 118.637 3.59183L116.587 3.44226C116.366 3.38883 116.146 3.33539 115.925 3.28196C115.702 3.25557 115.481 3.23327 115.257 3.20688C112.55 2.8634 109.846 2.524 107.139 2.18051C106.233 2.12091 105.326 2.05723 104.42 1.99763C103.357 2.04554 102.292 2.09672 101.229 2.14463C101.007 2.09448 100.789 2.04512 100.568 1.99497C99.7452 2.05605 98.9255 2.11792 98.1025 2.17899C97.3919 2.23606 96.6781 2.29232 95.9675 2.34938C95.2537 2.40565 94.5407 2.45863 93.8268 2.5149C93.4163 2.51267 93.0033 2.50636 92.5928 2.50413C92.2985 2.5683 92.0035 2.63575 91.706 2.69912C91.3523 2.72109 90.9945 2.74554 90.6408 2.76751L90.6424 2.76095C90.518 2.81418 90.3863 2.8691 90.2553 2.92073C90.0376 2.89922 89.8191 2.881 89.598 2.85869C89.4581 2.91858 89.319 2.97517 89.1791 3.03506C87.9992 3.13123 86.8193 3.2274 85.6395 3.32356C85.506 3.37112 85.3718 3.42196 85.2383 3.46951C83.6406 3.56514 82.0446 3.68205 80.4481 3.72934C80.206 3.73666 79.9531 3.42872 79.7039 3.2641C78.2353 2.55379 77.0494 2.71797 76.0534 4.16841C75.6532 4.7558 74.8676 5.07953 74.2553 5.5217C74.1645 5.66644 74.0762 5.81526 73.9853 5.96C72.2947 7.81875 70.6231 9.69949 68.8927 11.5208C68.4383 12.0013 67.8003 12.3052 67.2467 12.6921C66.3403 13.8447 65.6957 12.8964 64.9941 12.4136C64.7618 12.3087 64.5319 12.2078 64.2996 12.1029C61.7531 11.0966 59.2244 10.0459 56.6603 9.0979C54.3137 8.23035 51.9403 7.41539 49.547 6.68246C48.2335 6.28072 47.0706 6.65197 46.236 7.85319C45.5573 8.82815 44.9219 9.88311 44.0603 10.6783C42.32 12.2818 41.6784 14.1099 42.367 16.3856C42.3482 16.6068 42.3261 16.8273 42.3073 17.0486C42.9312 17.9814 43.3618 19.1801 44.2171 19.7904C46.2275 21.2261 48.4507 22.359 50.5683 23.6539C51.3454 24.1271 52.0634 24.7007 52.8097 25.229C53.2473 25.335 53.6857 25.4378 54.1241 25.5406C55.2633 25.7993 56.811 25.709 55.9906 27.6709C55.9532 27.8252 55.9092 27.9778 55.8686 28.1312C54.0509 31.8073 52.234 35.4802 50.4131 39.1556C50.3606 39.3721 50.3073 39.592 50.2581 39.8093C50.0466 40.6821 49.8342 41.5582 49.6194 42.4302C48.7557 45.6775 47.8927 48.9216 47.029 52.1689C46.9227 52.8518 46.8131 53.5339 46.7068 54.2169C46.667 54.8985 46.6231 55.5827 46.5833 56.2644C46.7162 56.7795 46.8491 57.2946 46.9821 57.8097C47.1015 58.2799 47.2243 58.7508 47.3445 59.2177C47.4936 59.4935 47.6468 59.7669 47.796 60.0428C48.8536 60.9105 50.6056 61.6305 50.833 62.6757C51.3731 65.1759 52.9338 65.9085 55.0362 66.3034L56.9959 66.6117C58.4991 66.705 60.0056 66.7992 61.5088 66.8926C61.6062 66.8502 61.7087 66.8438 61.8124 66.8759C63.269 66.673 64.7288 66.471 66.1845 66.2715C67.5205 65.9908 68.8591 65.7143 70.1951 65.4336C70.9823 65.2041 71.772 64.9786 72.5592 64.749C73.2293 64.5571 73.8961 64.3644 74.5662 64.1724C75.2188 63.9519 75.8681 63.7307 76.5207 63.5102C76.5645 63.6459 76.6115 63.7823 76.6553 63.918L74.8876 64.6429C73.6355 65.5831 72.3835 66.5234 71.1314 67.4636C70.9408 67.7613 70.7535 68.0598 70.5621 68.3608C69.8283 68.916 69.0946 69.4712 68.3641 70.0272C68.3285 70.088 68.2746 70.1236 68.2024 70.1339C66.3202 71.7482 64.467 73.4008 62.5383 74.9621C61.7021 75.6384 60.7133 76.1248 59.79 76.7C59.2997 77.1996 58.8069 77.695 58.3166 78.1945C56.1152 80.263 53.8287 82.2518 51.7381 84.4235C48.6614 87.6173 45.4509 90.7162 43.3822 94.738C42.2961 96.8475 43.0123 98.765 45.3333 99.2928C46.7036 99.6041 48.1493 99.5897 49.5625 99.7238C49.7252 99.7424 49.8912 99.7618 50.0539 99.7804L50.0455 99.7575C50.6768 99.5388 51.3114 99.3209 51.9426 99.1022C52.0364 99.2326 52.1335 99.3638 52.2265 99.4976C52.0049 99.8225 51.7833 100.147 51.5625 100.469C50.5646 102.201 49.5626 103.934 48.5647 105.666C48.5273 105.82 48.4899 105.974 48.4526 106.128C47.6219 107.73 46.788 109.331 45.9582 110.929C45.8573 111.159 45.7532 111.387 45.6516 111.619C45.2699 112.892 44.8883 114.165 44.5033 115.437C44.45 115.657 44.3976 115.873 44.341 116.092C43.9803 117.738 43.6196 119.385 43.259 121.031C43.2878 121.257 43.3159 121.486 43.3448 121.712C43.4141 121.857 43.4808 121.998 43.5501 122.143C43.5239 122.252 43.4968 122.363 43.4706 122.472C43.4476 122.581 43.4239 122.693 43.4009 122.802C43.3714 122.91 43.3419 123.017 43.3115 123.128C43.4314 123.654 43.6424 124.177 43.6506 124.704C43.6786 126.802 44.7467 128.576 46.2654 129.611C47.9823 130.777 48.0936 131.885 47.3984 133.488C47.3057 133.813 47.2171 134.135 47.1244 134.46C47.0051 135.685 46.7012 136.925 46.8173 138.127C46.948 139.5 46.3054 139.434 45.3878 139.254C44.9481 140.248 45.4574 140.705 46.3485 140.953C46.415 141.052 46.4774 141.154 46.5438 141.254C45.9719 141.817 45.3959 142.382 44.8239 142.945C44.4268 143.089 44.0306 143.229 43.6335 143.373C43.4867 143.389 43.3407 143.402 43.1913 143.415C43.1921 143.411 43.1738 143.487 43.1738 143.487C42.9373 143.687 42.6967 143.889 42.4601 144.089C41.6981 144.387 40.9328 144.684 40.1716 144.979L39.7579 145.205C39.5137 145.264 39.2687 145.327 39.0245 145.386C38.2672 145.65 37.509 145.918 36.7516 146.183C36.53 146.191 36.3125 146.198 36.0909 146.207C35.9974 146.319 35.9031 146.435 35.8095 146.548C35.6007 146.619 35.3952 146.691 35.1864 146.762C34.1743 146.885 33.2157 147.879 32.1135 146.879C31.9423 146.723 31.1879 146.845 31.0844 147.043C30.5084 148.14 29.5528 147.728 28.7017 147.761C27.8552 147.862 27.0128 147.96 26.1663 148.06C25.2378 148.068 24.306 148.075 23.3775 148.082L22.6423 148.241C22.3086 148.195 21.9782 148.15 21.6478 148.104C21.405 148.129 21.1621 148.153 20.9193 148.178C20.6958 148.152 20.4731 148.122 20.2495 148.096C20.0092 148.124 19.7648 148.155 19.5244 148.184L16.801 147.951C16.5606 147.98 16.317 148.007 16.0759 148.039C15.1706 147.966 14.2611 147.895 13.3558 147.821C12.1845 147.853 11.0132 147.886 9.83934 147.914C8.11466 147.843 6.39328 147.773 4.6686 147.703C4.44769 147.694 4.22348 147.685 4.00336 147.674C3.8682 147.714 3.73633 147.755 3.60198 147.792C2.99863 147.909 2.39449 148.03 1.78786 148.147C1.71231 148.459 1.64335 148.773 1.5703 149.088L1.57109 149.085ZM138.28 58.5141C138.216 58.3598 138.15 58.2013 138.087 58.0469C137.995 57.9206 137.901 57.7934 137.809 57.6671C137.728 57.3867 137.647 57.103 137.565 56.8226C137.629 56.8173 137.689 56.8112 137.753 56.8058C137.762 57.0998 137.768 57.393 137.785 57.682C137.884 57.6748 137.983 57.6709 138.082 57.6637C138.07 57.7997 138.058 57.9357 138.051 58.066C138.121 58.222 138.192 58.3747 138.27 58.5257C138.387 58.5192 138.502 58.516 138.619 58.5095C138.608 58.6283 138.592 58.7496 138.581 58.8684C139.088 59.4917 139.595 60.1149 140.099 60.7406C140.043 61.0571 139.99 61.3744 139.943 61.6859C140.111 61.6955 140.28 61.7018 140.001 61.6897C140.242 61.8314 140.105 61.7496 139.967 61.6711C140.012 61.3587 140.057 61.0431 140.098 60.73C139.606 60.1001 139.113 59.4735 138.626 58.8411C138.509 58.733 138.393 58.6215 138.28 58.5141ZM91.8388 73.841C92.0402 73.4555 92.2449 73.0709 92.4463 72.6855C93.1184 71.0627 93.7928 69.444 94.4649 67.8213L94.8281 67.1276C95.0866 66.6935 95.3443 66.2626 95.6028 65.8285C95.6964 65.5142 95.6931 65.0966 95.9009 64.9003C98.2423 62.6851 98.9204 59.7437 99.54 56.7707C99.3633 56.4361 99.0438 56.1015 99.0387 55.7633C99.0092 53.2549 98.2252 50.7546 99.07 48.2323C99.5513 46.7926 99.7931 45.2775 100.187 43.8097C100.45 42.8243 99.7561 42.2253 99.1243 42.3744C98.3711 42.5496 97.2109 42.4213 96.9688 43.6931C96.7268 44.9789 96.1003 46.2271 96.0578 47.5091C95.945 50.7196 96.3793 53.9723 95.4171 57.1089C94.9863 58.5122 94.3186 59.8442 93.7579 61.2091C93.2308 60.8972 93.1407 60.7086 93.0554 60.5142C91.9733 57.9938 91.0343 55.4004 89.7771 52.9696C88.425 50.356 85.5713 50.1715 83.1569 49.9858C80.7327 49.7978 77.9865 49.6011 76.1616 52.0423C75.4864 52.9451 74.6106 53.6986 73.6586 54.6942C72.4687 52.4603 71.3838 50.4256 70.2372 48.2718C69.5811 48.7798 69.1184 49.1366 68.6288 49.5182C66.346 47.7976 64.1825 46.0017 61.8487 44.4633C59.9291 43.1991 57.8131 42.2276 55.7751 41.15C55.006 40.7447 54.4826 40.2739 54.9045 39.3236C56.0009 36.8553 57.1188 34.3991 58.174 31.9139C59.064 29.8229 61.0224 28.1819 60.8371 25.7989C61.45 25.541 62.2006 25.4624 62.5496 25.0432C64.9743 22.1396 67.2246 19.0929 69.7063 16.2412C71.8578 13.775 74.2679 11.5348 76.5087 9.14584C77.4295 8.16356 78.1933 7.03898 79.0662 6.01032C79.2549 5.79205 79.6058 5.62349 79.8987 5.59373C81.8166 5.38463 83.7356 5.21401 85.6554 5.04011C89.6148 4.68662 93.5677 4.23079 97.5357 4.02876C100.763 3.86269 104.017 3.83486 107.237 4.05951C110.557 4.29087 113.846 4.93522 117.152 5.33375C121.499 5.85571 125.906 6.04147 130.19 6.86442C136.068 7.99389 141.889 9.47427 147.366 12.0282C151.57 13.9884 154.269 17.269 155.32 21.6823C156.697 27.4703 156.708 33.3785 155.897 39.2512C155.266 43.823 154.51 48.3817 153.648 52.9148C152.422 59.3676 150.48 65.5843 146.802 71.2555C146.606 71.0586 146.363 70.9127 146.264 70.7012C145.192 68.3986 144.163 66.0753 143.08 63.7768C141.91 61.3012 140.806 58.7859 139.465 56.4007C137.573 53.0379 134.599 50.6462 131.576 48.3432C130.453 47.4873 129.374 46.5206 128.127 45.8883C126.933 45.2827 126.295 46.3753 125.829 47.2489C125.343 48.1629 125.541 48.9683 126.636 49.3518C127.577 49.6806 128.496 50.157 129.464 50.3047C131.161 50.5598 132.25 51.4282 133.167 52.8489C137.795 60.012 141.531 67.5806 143.953 75.7689C144.498 77.6138 144.524 77.6374 146.485 76.577C148.012 81.6302 148.73 86.7026 148.457 91.8961C147.162 90.7694 146.088 89.6232 145.036 88.4614C143.855 87.1538 142.837 85.6633 141.492 84.5557C139.553 82.9566 137.371 81.6531 135.32 80.1833C129.72 76.1682 123.556 73.455 116.764 72.2291C114.027 71.736 111.268 71.3486 108.508 70.9817C107.293 70.8193 106.508 71.6991 106.992 72.678C107.627 73.9679 108.277 75.3412 110.036 75.4828C111.359 75.588 112.686 75.9061 114 75.8599C118.424 75.7024 122.704 76.5417 126.849 77.8799C129.178 78.6321 131.51 79.7602 133.449 81.234C135.741 82.9742 137.585 85.2971 139.67 87.3171C144.331 91.8305 147.857 97.0589 149.965 103.208C150.898 105.929 152.046 108.607 151.891 111.818C151.379 111.329 150.995 111.017 150.68 110.649C148.049 107.593 145.535 104.424 142.76 101.503C141.313 99.9822 139.93 98.2017 137.613 97.7304C136.53 97.5098 135.792 97.7234 135.251 98.6934C134.71 99.6601 134.749 100.548 135.498 101.38C137.606 103.721 139.797 105.993 141.81 108.412C144.71 111.898 146.953 115.78 148.676 119.995C150.164 123.631 149.872 127.452 150.28 131.198C150.43 132.565 150.094 133.981 149.936 135.853C149.315 135.067 148.922 134.645 148.616 134.168C145.541 129.365 142.503 124.537 139.394 119.757C138.839 118.9 138.112 118.046 137.264 117.507C135.695 116.508 133.97 115.75 132.316 114.883C129.265 113.286 126.261 111.925 122.683 113.566C120.687 114.483 119.044 113.702 117.851 111.857C117.118 110.724 116.464 109.53 115.619 108.488C115.083 107.826 114.338 107.146 113.552 106.896C110.344 105.889 107.109 104.949 103.839 104.17C99.802 103.205 95.7155 102.43 91.6553 101.561C89.2177 101.039 87.1059 99.8641 85.2475 98.2325C82.4847 95.805 82.0398 94.2485 83.185 91.191C83.7481 89.7155 84.2108 88.1949 84.8959 86.7768C86.1974 84.0803 87.6234 81.4452 88.9958 78.7867C89.9483 77.1277 90.9041 75.4695 91.8566 73.8105L91.8249 73.841L91.8388 73.841ZM51.3802 140.286C48.2549 139.699 48.2648 139.701 48.7458 136.753C48.8383 136.185 48.8066 135.597 48.8364 135C50.1454 135.147 51.3459 135.282 52.5432 135.416C52.8978 135.404 53.2524 135.393 53.6095 135.386L54.944 135.643C55.1843 135.615 55.4246 135.586 55.669 135.555C56.1585 135.576 56.6508 135.63 57.1383 135.616C59.6171 135.536 60.2087 136.214 59.8108 138.661C59.7488 139.031 59.8348 139.424 59.8123 139.804C59.7332 141.122 59.2422 141.854 57.7942 141.16C57.3312 141.158 56.8648 141.157 56.4018 141.156C55.4139 140.92 54.4293 140.684 53.4406 140.452C52.7571 140.397 52.0736 140.343 51.3893 140.291L51.3802 140.286ZM53.9829 12.9582C54.1323 12.7443 54.3622 12.3276 54.419 12.3518C55.0869 12.6144 55.7315 12.9443 56.3801 13.2579C58.3585 14.0639 60.2961 15.0095 62.3297 15.631C63.9386 16.1217 63.7937 16.9064 63.0999 17.9437C62.3241 19.1036 61.5501 20.2848 60.6206 21.3171C59.1644 22.9269 59.0367 23.0801 56.6951 22.2346C54.4309 21.4149 52.3386 20.1157 49.9565 18.9199C50.3902 18.3094 50.6527 17.8589 50.9913 17.4824C52.2195 16.123 53.9149 15.0783 53.9894 12.9598L53.9829 12.9582ZM85.0941 76.8614C85.223 76.976 85.3487 77.0898 85.4777 77.2045C85.3328 77.6731 85.2554 78.1789 85.0355 78.612C83.3997 81.8111 81.7729 85.0159 80.067 88.1737C78.0883 91.8386 76.0272 95.4557 74.0023 99.0955C72.8915 101.091 71.9276 103.185 70.6402 105.062C68.3495 108.405 66.1985 111.76 65.3156 115.805C64.8306 118.036 64.1467 120.24 63.3713 122.39C62.6939 124.265 61.5451 125.814 59.3854 126.287C57.4684 126.709 55.554 127.162 53.6548 127.653C49.3401 128.768 46.656 125.498 47.4585 121.354C47.9169 118.974 48.589 116.632 49.2711 114.307C49.8165 112.445 50.2576 110.481 51.206 108.825C53.1628 105.408 55.276 102.05 57.624 98.8881C59.361 96.5508 61.0698 93.8557 64.7144 94.0825C65.3666 94.1225 66.1685 93.7888 66.7006 93.3758C68.407 92.0559 70.0744 90.6813 71.6532 89.2123C75.7897 85.3687 79.865 81.4615 83.9766 77.591C84.2969 77.29 84.7191 77.1005 85.0916 76.8573L85.0941 76.8614ZM70.998 59.0311L71.3788 59.3283C71.8854 59.1211 72.5342 59.0456 72.8762 58.6838C73.802 57.6958 74.6631 56.6295 75.4318 55.5131C77.3395 52.7446 79.4928 50.6159 83.275 51.9564C83.5154 52.0425 83.8408 51.8643 84.0917 51.9355C85.5778 52.3583 87.4537 51.9201 88.3299 53.7236C89.1953 55.514 89.9813 57.3443 90.8386 59.1397C91.4771 60.4721 91.8847 61.7799 91.3011 63.2677C90.5421 65.2064 90.1318 67.3303 89.1005 69.0988C87.8505 71.238 86.2826 73.2655 84.5304 75.019C82.3928 77.155 79.8215 78.8524 77.612 80.9259C74.1669 84.159 70.9048 87.5857 67.4903 90.8505C66.7871 91.5243 65.7803 91.9125 64.8656 92.3231C64.0924 92.6672 63.5695 92.4675 63.3443 91.4853C63.0323 90.1278 61.4543 89.596 60.3826 90.3958C59.4847 91.0675 58.6792 91.8901 57.718 92.4493C56.2142 93.3215 54.6633 94.158 53.04 94.7616C51.7154 95.2535 50.2681 95.4759 48.8531 95.6367C47.6571 95.7706 47.2904 95.2857 48.2242 94.2788C51.1143 91.1509 53.8372 87.8505 56.9078 84.9123C60.178 81.7827 63.6873 78.8883 67.2391 76.0772C71.2691 72.8886 75.4559 69.9014 79.5837 66.8407C82.1876 64.908 84.9458 63.1725 86.814 60.3945C88.0435 58.5699 87.4507 57.0922 85.3689 56.6119C82.9179 56.0456 81.2788 57.8926 79.1967 58.4058C76.0886 59.1706 73.1279 60.52 70.0181 61.2775C67.141 61.9802 64.1557 62.2814 61.208 62.6578C59.853 62.8296 58.4683 62.765 56.77 62.8154C57.1421 62.2143 57.2379 61.8623 57.4618 61.729C60.3139 60.0371 63.2731 58.5066 66.0147 56.6525C67.6097 55.5765 70.3185 55.1943 69.7557 52.0981C71.8119 54.1354 72.6557 56.3167 71.0038 59.036L70.998 59.0311ZM12.5827 149.847C12.5967 149.746 12.6132 149.649 12.6272 149.548C13.0315 149.49 13.437 149.383 13.8402 149.387C17.9776 149.435 22.1153 149.51 26.2527 149.558C33.5242 149.639 40.152 147.403 46.3996 143.904C47.2742 143.414 47.9099 142.502 48.6555 141.783C48.5959 141.612 48.5362 141.441 48.4766 141.27C52.0632 141.952 55.6539 142.631 59.437 143.35L56.317 156.223C51.3992 155.816 46.6439 155.601 41.942 154.979C36.8046 154.3 31.7167 153.244 26.6071 152.35C26.3868 152.31 26.1655 152.26 25.9444 152.224C21.9272 151.594 17.9068 150.977 13.8943 150.328C13.4455 150.254 13.0199 150.012 12.5827 149.847ZM109.234 73.3325C109.238 73.1285 109.242 72.9245 109.246 72.7206C112.386 73.1202 115.524 73.5231 118.664 73.9227C118.637 74.1178 118.614 74.3137 118.588 74.5088C115.483 74.0099 112.223 74.7691 109.23 73.3349L109.234 73.3325Z" fill="#060606"/>
<path d="M47.0282 52.1721C47.8919 48.9248 48.7549 45.6808 49.6186 42.4335C49.311 42.3659 49.0034 42.2983 48.6958 42.2307C48.3341 43.6369 47.9716 45.0463 47.6066 46.4517C47.5434 46.6691 47.4835 46.8874 47.4204 47.1048C47.0506 48.7452 46.6801 50.389 46.3137 52.0302C46.5529 52.0778 46.7897 52.1213 47.029 52.1689L47.0282 52.1721Z" fill="#E6D9C0"/>
<path d="M68.192 122.565C68.6061 120.928 69.0194 119.295 69.4368 117.659C69.5097 117.329 69.5852 117.003 69.6581 116.674C69.4541 116.624 69.2501 116.575 69.0461 116.525C68.5041 118.704 67.9646 120.887 67.4225 123.066C67.679 122.899 67.9363 122.728 68.1928 122.561L68.192 122.565Z" fill="#E6D9C0"/>
<path d="M67.2476 12.7028C66.8363 12.6031 66.425 12.5034 66.0105 12.4029C65.6706 12.4109 65.3316 12.4155 64.9917 12.4235C65.6959 12.9103 66.3404 13.8586 67.2443 12.702L67.2476 12.7028Z" fill="#E6D9C0"/>
<path d="M71.5994 65.4752C71.9193 65.2332 72.2385 64.9944 72.5617 64.7531C71.7745 64.9827 70.9848 65.2082 70.1976 65.4377C70.6649 65.4502 71.1321 65.4627 71.5994 65.4752Z" fill="#E6D9C0"/>
<path d="M46.978 57.8122C46.9163 58.0092 46.8506 58.2086 46.7889 58.4056C46.9741 58.6763 47.1552 58.9495 47.3404 59.2202C47.221 58.75 47.0982 58.2791 46.978 57.8122Z" fill="#E6D9C0"/>
<path d="M66.7049 124.633C66.9713 124.468 67.2384 124.3 67.5048 124.135C67.4325 123.916 67.3601 123.697 67.2845 123.477C67.0905 123.861 66.8957 124.248 66.7049 124.633Z" fill="#E6D9C0"/>
<path d="M83.1981 91.1942C82.053 94.2517 82.4971 95.8114 85.2607 98.2357C87.1191 99.8673 89.2309 101.043 91.6685 101.564C95.7286 102.433 99.8151 103.209 103.852 104.173C107.122 104.955 110.357 105.892 113.566 106.899C114.352 107.145 115.093 107.825 115.632 108.491C116.477 109.533 117.132 110.727 117.864 111.86C119.057 113.705 120.7 114.486 122.696 113.569C126.274 111.928 129.278 113.289 132.329 114.886C133.983 115.753 135.707 116.515 137.277 117.51C138.126 118.049 138.849 118.902 139.407 119.76C142.516 124.54 145.554 129.368 148.63 134.172C148.935 134.649 149.329 135.067 149.949 135.857C150.103 133.983 150.44 132.564 150.293 131.202C149.885 127.455 150.177 123.635 148.689 119.998C146.962 115.783 144.723 111.901 141.823 108.416C139.81 105.996 137.619 103.725 135.512 101.383C134.762 100.552 134.723 99.6633 135.264 98.6966C135.806 97.7266 136.544 97.5129 137.626 97.7336C139.946 98.209 141.326 99.9854 142.773 101.507C145.548 104.427 148.062 107.597 150.693 110.652C151.011 111.021 151.392 111.333 151.904 111.821C152.059 108.611 150.914 105.933 149.978 103.211C147.869 97.0654 144.344 91.8337 139.683 87.3203C137.598 85.3003 135.754 82.9774 133.462 81.2372C131.523 79.7666 129.191 78.6353 126.862 77.8831C122.717 76.5449 118.436 75.7088 114.013 75.8631C112.699 75.9093 111.375 75.592 110.049 75.486C108.286 75.3436 107.64 73.971 107.005 72.6812C106.521 71.7023 107.306 70.8225 108.521 70.9849C111.278 71.351 114.037 71.7384 116.778 72.2323C123.57 73.4582 129.733 76.1714 135.333 80.1865C137.384 81.6563 139.566 82.9598 141.505 84.5589C142.846 85.6657 143.868 87.1569 145.049 88.4646C146.101 89.6297 147.175 90.7726 148.47 91.8992C148.743 86.7057 148.025 81.6334 146.498 76.5802C144.537 77.6406 144.512 77.617 143.966 75.772C141.543 67.5871 137.804 60.0177 133.18 52.8521C132.263 51.4313 131.171 50.5621 129.477 50.3079C128.509 50.1635 127.59 49.6838 126.649 49.355C125.551 48.9707 125.352 48.1653 125.842 47.2521C126.309 46.3752 126.946 45.2826 128.14 45.8915C129.384 46.523 130.463 47.4897 131.589 48.3464C134.612 50.6494 137.583 53.037 139.478 56.4039C140.816 58.7883 141.923 61.3044 143.093 63.78C144.177 66.0752 145.205 68.4018 146.278 70.7044C146.376 70.9159 146.62 71.0617 146.816 71.2587C150.493 65.5875 152.435 59.3708 153.661 52.918C154.523 48.3848 155.283 43.827 155.911 39.2544C156.718 33.3809 156.711 27.4734 155.334 21.6855C154.283 17.2689 151.586 13.9924 147.38 12.0314C141.902 9.47746 136.081 7.99708 130.203 6.86761C125.916 6.04387 121.512 5.8589 117.166 5.33694C113.855 4.93761 110.566 4.29327 107.25 4.06269C104.03 3.83805 100.776 3.86915 97.5489 4.03194C93.5809 4.23398 89.628 4.68981 85.6686 5.0433C83.7495 5.21392 81.8264 5.38702 79.9119 5.59692C79.6182 5.62996 79.2648 5.79444 79.0793 6.01351C78.2039 7.03808 77.4427 8.16675 76.5218 9.14903C74.2811 11.538 71.8709 13.7782 69.7195 16.2444C67.2352 19.092 64.9841 22.1419 62.5627 25.0464C62.2146 25.4623 61.4632 25.5442 60.8503 25.8021C61.0356 28.185 59.0764 29.8293 58.1872 31.9171C57.1287 34.4015 56.0141 36.8585 54.9177 39.3268C54.4949 40.2804 55.0191 40.7479 55.7883 41.1532C57.8296 42.2316 59.943 43.199 61.8618 44.4665C64.1957 46.0049 66.3592 47.8008 68.6419 49.5214C69.1315 49.1398 69.5943 48.7829 70.2504 48.275C71.3969 50.4288 72.4826 52.4603 73.6718 54.6974C74.6245 53.6985 75.4963 52.9475 76.1748 52.0454C78.0029 49.6051 80.7491 49.8017 83.1701 49.989C85.5804 50.1772 88.4373 50.3625 89.7903 52.9728C91.0474 55.4036 91.9864 57.997 93.0686 60.5174C93.1505 60.711 93.2407 60.8996 93.7711 61.2123C94.3318 59.8474 95.0028 58.5162 95.4302 57.1121C96.39 53.9714 95.9582 50.7228 96.0709 47.5123C96.1167 46.2311 96.7399 44.9821 96.9819 43.6963C97.224 42.4245 98.3843 42.5528 99.1374 42.3775C99.7693 42.2285 100.466 42.8316 100.2 43.8129C99.8063 45.2807 99.5637 46.7991 99.0831 48.2355C98.2384 50.7578 99.019 53.2573 99.0518 55.7665C99.0569 56.1047 99.3765 56.4392 99.5532 56.7739C100.147 59.1238 97.7769 64.5768 95.6159 65.8317C95.3574 66.2658 95.0997 66.6967 94.8412 67.1308C94.7191 67.3618 94.6002 67.5935 94.478 67.8244C93.806 69.4472 93.1315 71.0659 92.4595 72.6886C92.2581 73.0741 92.0534 73.4587 91.852 73.8441L91.8838 73.8136C91.1112 75.4919 90.3386 77.1702 89.5694 78.8493C89.4798 79.2619 89.4703 79.7181 89.2901 80.0878C87.482 83.7246 85.6491 87.3485 83.8006 90.965C83.7286 91.1039 83.4143 91.1215 83.2121 91.1941L83.1981 91.1942ZM77.2963 33.1894C78.0344 35.2755 78.6591 37.1535 80.5494 38.0355C81.6099 38.5322 82.1297 39.3773 81.7765 40.2019C81.3791 41.1374 80.4003 41.6401 79.1406 41.2896C76.4969 40.5551 75.1635 38.4532 74.1974 36.2735C72.9637 33.4871 72.0236 30.5391 71.2812 27.58C70.4786 24.3804 70.657 22.2072 74.1069 19.9029C75.9445 18.6738 77.8502 17.5377 79.6165 16.2149C81.5396 14.7772 83.5688 14.4249 85.828 15.1218C87.0567 15.4996 88.126 15.9602 87.7687 17.6211C87.4114 19.2819 86.1834 18.7862 85.1334 18.7923C84.6031 18.7958 84.0746 18.8344 83.5428 18.8584C83.7508 19.5237 84.0083 19.798 84.3207 19.9606C85.4327 20.5324 85.9281 21.4063 86.253 22.6384C87.2464 26.4018 86.2083 29.5061 83.431 32.0395C82.6304 32.7695 81.5025 33.3126 80.4386 33.5341C79.5214 33.7252 78.4822 33.3413 77.2938 33.1853L77.2963 33.1894Z" fill="#0146FE"/>
<path d="M85.0933 76.8646C84.7175 77.1071 84.2978 77.3006 83.9783 77.5984C79.8674 81.4656 75.7881 85.3752 71.6549 89.2197C70.0769 90.6854 68.4054 92.0624 66.7023 93.3832C66.1669 93.7953 65.3683 94.1298 64.7161 94.0899C61.0722 93.8598 59.3635 96.5549 57.6257 98.8955C55.2777 102.057 53.1686 105.413 51.2077 108.832C50.2593 110.488 49.8182 112.452 49.2728 114.314C48.5899 116.643 47.9178 118.985 47.4602 121.361C46.661 125.506 49.3451 128.776 53.6565 127.661C55.559 127.17 57.4701 126.716 59.3871 126.295C61.5468 125.821 62.6923 124.271 63.373 122.397C64.1517 120.248 64.8323 118.044 65.3173 115.813C66.2002 111.768 68.3512 108.412 70.6419 105.069C71.926 103.192 72.8932 101.099 74.004 99.1029C76.0289 95.4631 78.0867 91.8451 80.0687 88.181C81.7754 85.0199 83.4022 81.8151 85.0372 78.6193C85.2571 78.1863 85.337 77.6845 85.4794 77.2118C85.3504 77.0972 85.2247 76.9834 85.0958 76.8687L85.0933 76.8646Z" fill="#0146FE"/>
<path d="M70.9972 59.0343C72.6491 56.3151 71.8078 54.1379 69.7491 52.0965C70.312 55.1928 67.604 55.5716 66.0082 56.6509C63.2665 58.505 60.3081 60.0322 57.4552 61.7274C57.228 61.8599 57.1348 62.2159 56.7634 62.8138C58.4617 62.7634 59.8497 62.8288 61.2014 62.6562C64.1491 62.2798 67.1352 61.9753 70.0115 61.2759C73.1213 60.5184 76.082 59.169 79.1901 58.4042C81.2722 57.891 82.9113 56.044 85.3623 56.6103C87.4408 57.0898 88.0369 58.5683 86.8074 60.3929C84.9392 63.1709 82.1811 64.9064 79.5772 66.8391C75.4485 69.903 71.2618 72.8903 67.2326 76.0756C63.6807 78.8867 60.1673 81.7836 56.9012 84.9107C53.8307 87.8489 51.1078 91.1493 48.2177 94.2772C47.2831 95.2874 47.653 95.7731 48.8465 95.6351C50.2615 95.4743 51.7089 95.2519 53.0334 94.76C54.6568 94.1564 56.2109 93.3207 57.7115 92.4477C58.6726 91.8886 59.4781 91.0659 60.376 90.3942C61.4477 89.5944 63.0258 90.1262 63.3377 91.4837C63.563 92.4659 64.0859 92.6656 64.859 92.3215C65.777 91.9117 66.7805 91.5227 67.4837 90.8489C70.8982 87.5841 74.1636 84.1582 77.6054 80.9243C79.8149 78.8509 82.3862 77.1534 84.5238 75.0174C86.2793 73.2647 87.8439 71.2364 89.094 69.0972C90.1285 67.3295 90.5355 65.2048 91.2946 63.2661C91.8774 61.7816 91.4697 60.4738 90.832 59.1381C89.9715 57.3419 89.1887 55.5124 88.3233 53.722C87.4512 51.916 85.5712 52.3567 84.0852 51.9339C83.8342 51.8627 83.5096 52.0376 83.2684 51.9548C79.4895 50.6151 77.3362 52.7438 75.4252 55.5115C74.6565 56.6279 73.7962 57.6909 72.8697 58.6822C72.531 59.0448 71.8821 59.1203 71.3723 59.3267L70.9914 59.0295L70.9972 59.0343Z" fill="#E6D9C0"/>
<path d="M12.5819 149.85C13.0191 150.015 13.4406 150.26 13.8935 150.331C17.906 150.981 21.9264 151.597 25.9436 152.227C26.1647 152.263 26.386 152.313 26.6063 152.353C31.7167 153.244 36.8038 154.304 41.9412 154.982C46.6431 155.604 51.3992 155.816 56.3162 156.226L59.4362 143.354C55.6531 142.635 52.0657 141.956 48.4758 141.274C48.5354 141.444 48.5951 141.615 48.6547 141.786C47.9091 142.505 47.2734 143.418 46.3988 143.907C40.1512 147.406 33.5234 149.642 26.2519 149.561C22.1145 149.513 17.9768 149.438 13.8394 149.391C13.4362 149.387 13.0299 149.497 12.6264 149.552C12.6124 149.652 12.5959 149.749 12.5819 149.85Z" fill="#F90405"/>
<path d="M60.9404 132.261C60.9988 132.164 61.0604 132.068 61.1188 131.971C60.9551 130.778 60.455 130.038 59.0649 130.024C57.9113 130.012 56.7316 129.504 55.6111 129.628C53.3208 129.879 51.0309 130.286 48.8049 130.876C47.7742 131.147 48.2102 132.208 48.7798 132.603C49.5698 133.153 50.5454 133.597 51.4906 133.736C53.7855 134.07 56.1072 134.265 58.4266 134.368C58.93 134.39 59.508 133.859 59.9631 133.476C60.3521 133.15 60.6177 132.672 60.9396 132.264L60.9404 132.261Z" fill="#0146FE"/>
<path d="M83.1981 91.1942C83.4004 91.1216 83.7147 91.104 83.7867 90.9651C85.6351 87.3485 87.468 83.7247 89.2761 80.0879C89.4596 79.719 89.4684 79.266 89.5554 78.8494C89.3722 78.8293 89.1922 78.81 89.009 78.7899C87.6357 81.4517 86.2098 84.0867 84.909 86.78C84.2247 88.1948 83.7613 89.7187 83.1981 91.1942Z" fill="#35CDFB"/>
<path d="M95.602 65.8318C97.7621 64.5801 100.133 59.1239 99.5392 56.774C98.9196 59.747 98.2415 62.6884 95.9001 64.9035C95.6923 65.0998 95.6956 65.5175 95.602 65.8318Z" fill="#E6D9C0"/>
<path d="M89.0057 78.7891C89.1889 78.8092 89.3689 78.8285 89.5521 78.8486C90.3247 77.1703 91.0972 75.492 91.8665 73.8129C90.914 75.4719 89.9582 77.1301 89.0057 78.7891Z" fill="#E6D9C0"/>
<path d="M50.0455 99.7575C50.5523 99.995 51.0591 100.232 51.5658 100.47C51.7874 100.145 52.009 99.82 52.2298 99.4984C52.136 99.3679 52.0389 99.2367 51.9459 99.103C51.3146 99.3217 50.6801 99.5396 50.0488 99.7583L50.0455 99.7575Z" fill="#E6D9C0"/>
<path d="M53.9788 12.9607C54.7768 13.0603 55.5748 13.1599 56.3727 13.2596C55.7242 12.946 55.0828 12.6169 54.4116 12.3534C54.354 12.3325 54.1241 12.7493 53.9755 12.9599L53.9788 12.9607Z" fill="#E6D9C0"/>
<path d="M74.8901 64.647L76.6578 63.9221C76.614 63.7864 76.567 63.6499 76.5232 63.5143C75.8706 63.7347 75.2213 63.956 74.5687 64.1765C74.6774 64.3314 74.7854 64.4896 74.8909 64.6437L74.8901 64.647Z" fill="#E6D9C0"/>
<path d="M140.099 60.7406C139.591 60.1174 139.084 59.4942 138.58 58.8717L138.625 58.8444C139.117 59.4743 139.609 60.1009 140.101 60.7308L140.099 60.7406Z" fill="#E6D9C0"/>
<path d="M137.773 57.6862C137.765 57.3922 137.759 57.099 137.749 56.8083C137.685 56.8137 137.625 56.8198 137.561 56.8251C137.642 57.1055 137.723 57.3892 137.805 57.6696L137.773 57.6894L137.773 57.6862Z" fill="#E6D9C0"/>
<path d="M94.4641 67.8245C94.5862 67.5936 94.7059 67.3586 94.8273 67.1309C94.7051 67.3618 94.5862 67.5936 94.4641 67.8245Z" fill="#E6D9C0"/>
<path d="M140.097 60.7332C140.053 61.0456 140.007 61.3612 139.966 61.6743L139.933 61.6975C139.989 61.381 140.041 61.0637 140.098 60.7439L140.1 60.734L140.097 60.7332Z" fill="#E6D9C0"/>
<path d="M139.966 61.6743C140.103 61.7561 140.244 61.8355 140 61.6929C140.275 61.7075 140.11 61.6988 139.938 61.6917C139.937 61.695 139.967 61.6711 139.967 61.6711L139.966 61.6743Z" fill="#E6D9C0"/>
<path d="M137.806 57.6663C137.897 57.7926 137.992 57.9198 138.083 58.0461L138.042 58.071C138.055 57.9349 138.067 57.7989 138.079 57.6629C137.979 57.6701 137.881 57.674 137.778 57.6804L137.807 57.663L137.806 57.6663Z" fill="#E6D9C0"/>
<path d="M138.087 58.0469C138.15 58.2013 138.216 58.3598 138.284 58.5117C138.288 58.5092 138.261 58.5339 138.261 58.5339C138.191 58.3779 138.12 58.2252 138.046 58.0718L138.087 58.0469Z" fill="#E6D9C0"/>
<path d="M138.577 58.8709L138.615 58.5119C138.498 58.5184 138.383 58.5217 138.262 58.5306C138.261 58.5339 138.285 58.5084 138.281 58.5109C138.392 58.6248 138.509 58.733 138.622 58.8436L138.577 58.8709Z" fill="#E6D9C0"/>
<path d="M77.2931 33.1886C78.4815 33.3446 79.5206 33.7285 80.4378 33.5374C81.5017 33.3158 82.6296 32.7728 83.4302 32.0428C86.2083 29.5061 87.2456 26.4051 86.2522 22.6417C85.9273 21.4096 85.4327 20.5324 84.3199 19.9639C84.0042 19.8005 83.7467 19.5262 83.542 18.8617C84.0738 18.8377 84.6023 18.799 85.1326 18.7956C86.1859 18.7903 87.4106 19.2852 87.7679 17.6244C88.1252 15.9635 87.0551 15.5061 85.8272 15.1251C83.568 14.4282 81.5396 14.7772 79.6157 16.2182C77.8494 17.541 75.9437 18.6771 74.1061 19.9062C70.6595 22.2113 70.4778 24.3837 71.2804 27.5832C72.0228 30.5424 72.9629 33.4904 74.1966 36.2768C75.1627 38.4565 76.4961 40.5583 79.1398 41.2929C80.4028 41.6442 81.3783 41.1407 81.7757 40.2052C82.1289 39.3806 81.6058 38.5347 80.5486 38.0388C78.6583 37.1568 78.0344 35.2755 77.2955 33.1926L77.2931 33.1886Z" fill="#060606"/>
</svg>
