<svg width="311" height="167" viewBox="0 0 311 167" fill="none" xmlns="http://www.w3.org/2000/svg">
<path d="M18.0036 17.5454L12.0188 16.4346L7.47849 20.9588L6.95383 14.6653L1.50095 11.3817L7.38498 9.4766L8.5131 2.75828L12.6482 7.77249L18.5331 5.86709L15.4688 11.9039L18.0036 17.5454Z" fill="#2A2AFF"/>
<path d="M307.004 21.5454L301.019 20.4346L296.478 24.9588L295.954 18.6653L290.501 15.3817L296.385 13.4766L297.513 6.75828L301.648 11.7725L307.533 9.86709L304.469 15.9039L307.004 21.5454Z" fill="#2A2AFF"/>
<path d="M20.0036 161.545L14.0188 160.435L9.47849 164.959L8.95383 158.665L3.50095 155.382L9.38498 153.477L10.5131 146.758L14.6482 151.772L20.5331 149.867L17.4688 155.904L20.0036 161.545Z" fill="#2A2AFF"/>
<path d="M264.004 120.545L258.019 119.435L253.478 123.959L252.954 117.665L247.501 114.382L253.385 112.477L254.513 105.758L258.648 110.772L264.533 108.867L261.469 114.904L264.004 120.545Z" fill="#2A2AFF"/>
</svg>
