<svg width="63" height="60" viewBox="0 0 63 60" fill="none" xmlns="http://www.w3.org/2000/svg">
<path d="M0.00903816 30.0371C-0.407372 14.1997 13.6165 -0.0201964 31.4233 2.15333e-05C48.849 0.0202394 62.9647 13.3573 63 29.9562C63.0282 46.5281 48.9196 60 31.5151 60C14.0399 60 -0.0121353 46.6427 0.00903816 30.0371ZM15.3174 41.1637C27.5556 48.1051 43.8168 40.1932 45.2778 26.5259C45.5178 24.3019 46.0048 22.4284 47.8821 21.0064C47.9951 20.9188 47.9527 20.6425 47.988 20.3931L46.3294 20.009C46.8164 19.1868 47.2893 18.3848 48.1997 16.8483C45.2284 18.6274 43.2945 18.0479 41.029 16.9494C36.9072 14.9478 31.995 17.657 31.1834 22.0308C31.0281 22.8867 30.9716 23.756 30.8587 24.7198C24.9019 24.4569 20.3426 21.7477 16.2631 17.9333C14.3787 21.0401 15.5644 23.5269 17.103 25.9868L15.2962 26.6674C15.5574 29.5249 17.2936 31.2906 19.8979 32.6384L18.0065 33.2517C18.8887 36.1227 21.4295 36.9651 23.808 38.6027C20.9778 39.4586 18.1546 40.3145 15.3174 41.1704V41.1637Z" fill="#3F47CB"/>
</svg>
