<svg width="185" height="41" viewBox="0 0 185 41" fill="none" xmlns="http://www.w3.org/2000/svg">
<path d="M170.652 7.03477C166.734 7.03477 163.804 5.58774 160.162 4.7092C156.591 3.84802 153.204 3.59419 149.256 3.59419C141.301 3.59419 133.951 3.02076 126.163 3.02076C106.679 3.02076 87.1954 3.02076 67.7117 3.02076C57.4227 3.02076 47.1337 3.02076 36.8447 3.02076C32.9354 3.02076 27.5641 2.78803 23.9394 3.88091C19.9148 5.09439 16.6732 3.66746 13.1096 6.17463C10.6523 7.90343 8.37222 9.9795 5.93998 11.6222C3.8006 13.0671 5.15536 16.8859 3.90231 18.7901C0.321556 24.2315 8.37546 29.1659 11.0342 33.094C14.7812 38.63 26.5006 36.8531 32.7694 36.8531C42.2914 36.8531 51.7056 37.4266 61.2968 37.4266C83.662 37.4266 106.39 38 129.068 38C139.277 38 149.008 37.0835 159.105 36.8531C163.626 36.75 167.812 34.7679 172.01 34.5594C176.154 34.3536 176.013 30.3516 177.972 28.6977C181.619 25.6194 183.816 17.6137 180.01 14.0434C175.926 10.2119 174.211 7.65418 167.935 5.88791" stroke="#1400FF" stroke-width="5" stroke-linecap="round"/>
</svg>
