<svg width="70" height="63" viewBox="0 0 70 63" fill="none" xmlns="http://www.w3.org/2000/svg">
<path d="M67.2377 10.4237C63.0244 10.4237 59.795 4.45999 54.9792 4.45999C52.2179 4.45999 49.4574 4.45999 46.6961 4.45999C43.4751 4.45999 40.2999 3.13475 37.0882 3.13475C32.4912 3.13475 27.3386 2.43898 22.9889 3.94464C20.7266 4.72775 17.9713 5.1226 15.5528 5.1226C13.9542 5.1226 12.6383 6.34646 10.9144 6.44792C1.08878 7.02588 2.30012 20.959 2.30012 28.3147C2.30012 38.2991 0.992619 50.8211 9.92038 57.765C13.287 60.3835 20.7675 59.458 24.8296 59.458C30.3024 59.458 35.7753 59.458 41.248 59.458C45.8074 59.458 62.4926 61.8517 64.5877 57.1388C68.1709 49.0761 66.5754 38.1935 66.5754 29.4927C66.5754 25.7054 65.8379 20.5318 67.3851 17.0499C69.1909 12.9875 66.3567 9.43123 63.2623 7.11054" stroke="#1400FF" stroke-width="4" stroke-linecap="round"/>
</svg>
