<svg width="80" height="39" viewBox="0 0 80 39" fill="none" xmlns="http://www.w3.org/2000/svg">
<path d="M69.3153 6.03478C66.3169 6.03478 64.0744 4.58774 61.287 3.7092C58.5547 2.84802 55.9625 2.59419 52.9411 2.59419C46.8528 2.59419 41.2276 2.02076 35.2674 2.02076H52.5243H28.9016C25.9097 2.02076 21.799 1.78803 19.0251 2.88091C15.945 4.09439 13.4642 2.66746 10.7369 5.17463C8.85633 6.90343 7.1114 8.97949 5.24999 10.6222C3.6127 12.0671 4.64951 15.8859 3.69054 17.7901C0.950171 23.2315 7.11387 28.1659 9.14859 32.094C12.0163 37.63 20.9851 35.8531 25.7827 35.8531C33.07 35.8531 40.2747 36.4266 47.6149 36.4266C64.7311 36.4266 20.135 37 37.491 37C45.3042 37 52.7511 36.0835 60.4784 35.8531C63.9384 35.75 67.1415 33.7679 70.3549 33.5594C73.5263 33.3536 73.4185 29.3516 74.9177 27.6977C77.7082 24.6194 79.39 16.6137 76.4772 13.0434C73.3513 9.2119 72.0394 6.65418 67.236 4.88791" stroke="#0146FE" stroke-width="4" stroke-linecap="round"/>
</svg>
