<?xml version="1.0" encoding="utf-8"?>
<!-- Generator: Adobe Illustrator 18.0.0, SVG Export Plug-In . SVG Version: 6.00 Build 0)  -->
<!DOCTYPE svg PUBLIC "-//W3C//DTD SVG 1.1//EN" "http://www.w3.org/Graphics/SVG/1.1/DTD/svg11.dtd">
<svg version="1.1" id="Layer_1" xmlns="http://www.w3.org/2000/svg" xmlns:xlink="http://www.w3.org/1999/xlink" x="0px" y="0px"
	 viewBox="0 0 440 506" enable-background="new 0 0 440 506" xml:space="preserve">
<g>
	<path fill="none" stroke="#FFFFFF" stroke-width="72.729" stroke-linecap="round" d="M146.9,110.1c0,1.8,3,18.4,2.1,18.4
		c-1.5,0-5.5-8-6-8.8c-3.4-5.9-7.9-12.1-10.3-18.5c-3.2-8.1-3.6-17.5-0.9-25.7c1.7-5.3,4-10.3,6.4-15.2c1.4-2.8,4.6-7.7,4.8-10.9
		c0.1-1.6-4.7-9.4-6.6-9.4c-12.2,0-24.5,4.7-36.9,4.7c-9.1,0-18.2,0-27.3,0c-7.9,0-18.7,3-26.4,0.6c-2-0.6-7.6-4.4-5.8-0.6
		c3.1,6.2,2.5,12.7,2.5,19.9c0,10.3-1.5,20.5-1.5,30.8c0,7.3,0,14.6,0,21.9c0,17.2-3.1,34.3-3.1,51.6c0,20.8,0.8,40.1,6.2,60.3
		c1.2,4.3,4.4,17.4,3.9,12.9c-1.3-10.4-1.1-21.3,0-31.9c1.2-11.3,5-22.5,7.7-33.5c3.3-13.1,5.4-26.5,8.5-39.6
		c5.1-21.5,11.3-42.8,17.7-63.9c2.3-7.5,5.6-15,7-22.7c0.5-2.9,1.6,6.7,1.6,8c1.6,29.8,3.5,59.4,4.2,89.2
		c0.9,34.2,0.8,68.5,1.2,102.7c0.1,6.3,0.8,12.6,0.8,19c0,4.4,0-0.2,0-1.9c0.8-29.3,13.3-59.7,23.5-86.8c4.5-12,9.5-23.8,15.4-35.2
		c0.6-1.2,2.3-6.4,3.6-7.1c2.1-1.1,2,7,2,7.3c2.5,23.2,5.8,46.3,8.4,69.5c2.2,19.6,4.3,39.3,8.2,58.6c2.2,11.2,6,21.5,9.6,32.3
		c1.9,5.7,3.3,11.6,5.7,17.1c0.1,0.2,0.9,2.7,1.4,1.2c1.8-5.3,1.5-11.7,1.9-17.2c4.6-59,11.3-117.9,16.9-176.8
		c1.9-20.3,2-41.3,5.7-61.4c0.2-1.1,0.8-4.7,1.8-1.9c4.4,12.3,3.8,27.9,4.8,40.6c4.8,59.7,4.3,119.5,12.7,179
		c2.6,18.3,4.1,37,7.9,55.1c0.8,3.7,1.3,10.8,4.2,13.8c1.1,1.1,0.7-1.4,0.7-1.9c0.3-14.6,0-29.2,0-43.7c0-42.3-1.5-84.8,2.7-127
		c2-19.5,4.8-38.9,7.9-58.3c0.9-5.5,1.8-11.1,3.6-16.4c1.1-3,1.5-2.4,1.9,0.7c3,21.6,3.2,44,3.9,65.7c1.6,51.6,0.8,103.3,0.8,155
		c0,3.1-0.9,7.8,0.8,10.7c0.3,0.5,0.7,0.9,0.8,0c1-7.4,1.1-15.1,1.6-22.6c1.6-22.1,2.3-44.2,2.3-66.4c0-3.1,0.8-7.7,0-10.7
		c-0.4-1.5-3.7,0.5-4.2,0.9c-7.3,6.3-12.6,15.3-19.6,22.2c-12.3,12.1-25.9,22.4-39.4,33.1c-8.4,6.6-17.1,16.2-26.9,20.9
		c-10.2,4.8-17.5-11.1-21.2-17.8c-7.2-13.2-14.9-26.4-20.3-40.4c-4.4-11.4-6.4-23.6-10.6-35.2c-1.4-3.8-4.8-3.8-8.2-3.3
		c-7.1,1-13.4,3.7-20.6,3.7c-5,0-7.8-3.9-11-7.4c-5.5-6-11.6-12.8-20.4-7c-7.3,4.8-17,7.7-17,17.5c0,11,0,22.1,0,33.1
		c0,5.1,0,10.2,0,15.2c0,2.1-1.1,4.5-1.6,6.6c-0.6,2.5-0.7,4.7-0.7,7.4c0,2.6-0.1,5.2,0,7.8c0.1,1,1.3,1.3,1.5,2.4
		c0.5,2.1,1.2,4.1,1.7,6.1c1.1,4.4,2.9,8.6,2.9,13.2c0,7.8,0,15.6,0,23.4c0,12,1.5,23.8,1.5,35.8c0,11.6-3.9,22.6-3.9,34.3
		c0,6.1,0.8,12.1,0.8,18.1c0,6.4-1,14,1.2,20.1c0.3,0.8,0.2,3.5,0.4,2.6c0.7-3.7,3-7.6,4.2-11.2c5.5-15.4,14.8-28.8,20-44.4
		c8.2-24.4,10.5-52.5,8.8-78.1c-1.1-16.7-5.5-33-6.6-49.7c-0.3-4.4-0.2-8.8-0.2-13.2c0-2.1,0.3-0.7,0.9,0.6
		c7.8,16.3,17.5,31.3,26.3,47.2c8.2,14.9,14.6,30.6,23.8,45c5.4,8.5,11.1,19.4,18.8,26.1c0.7,0.6,2.9,2.8,2.8,0.6
		c-0.3-12.4-6.4-25.9-9.6-37.7c-6.3-22.7-11.7-45.6-18.2-68.2c-0.7-2.5-2.1-13.7-5.5-14.5c-4.8-1.2-8.4-3.1-13.6-3.1
		c-4.1,0-8-0.7-12.1-1.6c-2.1-0.5-6.3-0.6-8.2-1.7c-0.5-0.3,0.9,2.3,1,2.6c3,6,2.7,14.3,3.5,20.8c3.7,32.5,5,65.2,8.5,97.8
		c1.3,12.5,3,25,4.2,37.6c0.6,5.9,0.7,12,1.9,17.8c0.6,2.9,2.2,13.2,6.3,9.9c3.5-2.9,8.6-4.5,12.7-6.2c12.5-5,25.4-9.3,38.5-12.7
		c19.3-5.1,39.2-8.1,58.9-10.8c10.1-1.4,20.1-2.9,30.3-2.9c17.1,0,34.8-0.5,51.3,4.7c1.3,0.4,0.9,0.7-0.3,0.2
		c-4-1.9-8.9-2.5-13.2-3.5c-30.3-6.9-59.7-17-88.1-29.7c-5.7-2.6-16.8-4.5-16.1-12.6c0.3-3.4,3.4-5,6.2-6.1
		c6.7-2.7,13.7-5.1,20.6-7.5c18.5-6.5,37.8-9.4,57.4-9.4"/>
	<path fill="none" stroke="#FFFFFF" stroke-width="72.729" stroke-linecap="round" d="M55.7,448.3c-1.3,0.2-2.8,3.6-3.9,4.7
		c-1,1-3.1,1.8-3.9,2.7c-1,1.3-7.2,3.1-8.8,3.5c-2,0.6-1.5,1.5-2.1,3.1c-0.3,0.6-2.4,2.9-1.7,3.1c3.3,1,7.4-0.7,10.8-0.7
		c3.5,0,7.1-0.8,10.8-0.8c3.5,0,6.1,2.3,9.3,2.3c9,0,18,0,27,0c8.4,0,16.8-0.3,24.4-3.7c2.5-1.1,7.3-0.2,10-0.2
		c2.2,0,5.3-0.2,7.3-1.2c2.7-1.2,6.8-0.3,9.7-0.4c14.3-0.3,28.6-3.6,42.8-4.5c13.6-0.9,27.4,0.2,41-0.2c5.4-0.2,11-1.6,16.6-1.6
		c5.3,0,10.3,0.8,15.5,0.8"/>
	<path fill="none" stroke="#FFFFFF" stroke-width="72.729" stroke-linecap="round" d="M142.3,463.1c0,6.7,5,9,10.2,4.8
		c1.9-1.5,7-1.5,9.5-2.9c3.3-1.9,9.1-2.5,12.7-2.7c14.6-0.8,29.5-0.8,44-0.8c10.1,0,20.1,3.1,30.1,3.1c9.7,0,19.1,0.8,28.7,0.8
		c6.8,0,13.2-1.6,20-1.6c5.3,0,11,0.7,16.2,0c5.8-0.8,11.9-1.9,17.6-3.2c7.9-1.8,15.8-1.4,24.1-1.4"/>
	<path fill="none" stroke="#FFFFFF" stroke-width="72.729" stroke-linecap="round" d="M347,460.8c4.8,0,8.3,0.6,12.7,1.6
		c5.5,1.2-2.6,0.7-4.4,0.7c-3.2,0-5.4,1.6-8.7,1.6c-5.9,0,5.2,0.1,6.6,0.4c8.4,1.9,15.5,3,24,3.5c2.9,0.2,5.8,0.8,8.9,0.8
		c2.5,0,5.1,1.6,7.7,1.6c2.8,0,5.8,2.3,5.8-1.6c0-4.7,0-9.4,0-14c0-5.5-1.8-10.2-3.1-15.5c-1.3-5.1-1.5-9.4-1.5-14.8
		c0-7.7,1.3-15,1.5-22.5c0.3-7.3,2.3-14.8,2.3-22c0-6.3,0.8-13,0.8-19.5c0-2.5,3.5-21.2,0-21c-2.1,0.1-5.2,5.2-6.4,6.6
		c-9.3,11.2-15.6,25.5-23,37.9c-6.1,10.3-11.1,21.4-18.4,30.9c-3.7,4.9-8.5,7.9-13.7,11c-9.2,5.5-24.9,6.5-35.2,3.9
		c-1.4-0.3-8.7-1.7-9.2-3.6c-1.2-4.4,4.6-8.1,7.5-9.9c9.4-5.7,20.3-7,30.1-11.7c6.9-3.3,11.1-10.5,14.8-16.9
		c2.2-3.7,3.9-7.9,3.9-12.3c0-3.9-10.3-1.1-12.1-0.7c-6.7,1.5-85.1,25.3-86,14.4c-0.1-1.1,0-1.9,0.9-2.6c5.2-4.1,10.5-8.1,15.8-12
		c13.3-9.7,27.2-19.5,42.4-25.7c6.5-2.7,13.2-5,19.7-7.8c5-2.1,11.1-3.4,15.1-7.4c4.1-4.1,10.5-2.5,14.6-5.8c0.7-0.6-1.6-0.8-2.5-1
		c-4-0.6-7.9-1.4-11.9-1.7c-16.4-1.4-33.1-0.4-49.6-0.4c-12,0-24,0-36,0"/>
	<path fill="none" stroke="#FFFFFF" stroke-width="72.729" stroke-linecap="round" d="M291.2,361.4c0-34.4,0-68.9,0-103.3
		c0-18.2,0.8-36.3-1.9-54.3c-1.6-10.8-3.4-21.5-4.2-32.4c-0.9-10.7-1.5-21.2-2.7-31.9c-0.7-5.9-2-12.2-2-18.1c0-2.9,0-5.9,0-8.8
		c0-1.7,0.2,3.4,0.7,5.1c2.7,10.3,6.4,20.2,9,30.5c16.5,64.5,14.3,130.7,22.4,196.2c0.1,1.1,2.7,14.4,2.7,9c0-27.7,0-55.5,0-83.2
		c0-30.1,0.6-60.4,5-90.2c0.9-6.2,0.9-14.3,3.9-19.9c0.9-1.7,1.7-2.7,2.4,0c8.3,30.3,8.8,63.2,10.4,94.3c1.5,27.6,1.7,56.2,8.5,83.2
		c1.5,6.2,3.3,12.3,5.4,18.3c0.1,0.4,1.8,6,2.2,2.9c2.7-21.8,1.3-45.2-0.3-66.9c-2.2-29-7.3-60.5-0.6-89.3
		c2.2-9.2,3.6-18.6,5.8-27.8c0.8-3.5,1.5-9.6,1.5-1.6c0,34.8,0,69.7,0,104.5c0,14.5-0.1,29,0,43.6c0.1,7.8,0,16,1.8,23.6
		c1,4.2,2.6,11.7,6,14.8c0.6,0.5,4.1-10.3,4.3-11.1c1.4-6.8,0.9-13.9,0.9-20.8c0-10.3,0.3-20.6-0.3-30.8
		c-1.3-20.5-2.7-40.9-2.7-61.5c0-10.5-0.7-21,2.1-31.2c1.1-3.9,2.5-7.4,3.9-11.1c0.8-2.1,1.3-4.2,1.9-6.4c1.3-5.2,1.5,8.2,1.5,9.1
		c1.6,29.4,1.6,58.9,4.1,88.2c1,12.2-0.5,25,1.5,37.1c0.8,4.7,0.6,13.2,3.1,17.2c1.8,2.8,1.9,7.9,4.6,10c2.7,2.1,7.3-7.5,7.3-10.1
		c0-5.3,0.8-10.2,0.8-15.6c0-17.2,2.3-33.8,2.3-51c0-11.2,3.1-22.2,3.1-33.5c0-6.5-1.7-13-2.5-19.5c-0.3-2.7-0.3-14-4.5-14"/>
	<path fill="none" stroke="#FFFFFF" stroke-width="72.729" stroke-linecap="round" d="M401.9,207.5c0,11.2,0.8-22.4,0.8-33.6
		c0-6.6-2.3-12.7-2.3-19.3c0-16.7-1.5-33.9,3.5-50c1.4-4.4,1.6-16.2,0.2-20.9c-1.6-5.4-0.6-12.1-0.6-17.7c0-6.7,0.8-13.2,0.8-19.9
		c0-2.4,2.3-4,0.8-3.9c-2,0.1-4.7,1.4-7,1.6c-2.9,0.2-5.5,0.8-8.5,0.8c-2,0-3.8,1.2-5.8,1.5c-2,0.3-3.9-0.3-5.8,0.4
		c-4.3,1.6-10.7,0.4-15.2,0.4c-9.1,0-18.2,0-27.3,0c-10.2,0-20,3.1-30.1,3.1c-7.1,0-15.2-0.5-21.6,2.8c-14.7,7.4-7.3,27.9-2.1,38.4
		c4.2,8.3,13.2,29.2,25.8,23.6c11.4-5,16.6-15.2,24.9-23.6c6.4-6.4,4.5,14.4,4.6,16.8c0.2,9.2,0,18.5,0,27.8c0,4.4,0-7.5,0.2-8.5
		c1.4-11.4,9.7-21.8,14.5-32c0.6-1.3,4.3-12,6.2-11.9c1.1,0.1,2,5.5,2.1,5.9c2.9,9.4,5.8,18.7,8,28.3c1.7,7.7,2.9,15.5,4.1,23.2
		c0.4,2.6,3.3,9.2,1.2,7.7c-1.8-1.3-3.4-6.2-4.3-8.2c-3.9-8.6-7.5-17.5-11.4-26.1c-3.4-7.4-7-14.8-13-20.4c-6-5.7-14.1-7.8-22-9.1
		c-19.6-3.3-40,1.3-59.5-3.2c-11.4-2.7-20.1-9.4-28.2-17.6"/>
	<path fill="none" stroke="#FFFFFF" stroke-width="72.729" stroke-linecap="round" d="M297.6,61c-38.5,0-77,0-115.5,0
		c-13,0-25.9,0-38.9,0c-1.9,0-6.6-1.1-5.2,2c3.6,8,11,9.8,19.6,8.1c6.1-1.2-2.7-21.7-4.1-24.8c-1-2.3-1.7-4.5-2-7
		c-0.2-1.3-2.2-4.6-1.5-3.5c0.8,1.3,4.3,3.5,5.8,3.5c8,0,15.7-2.3,23.9-2.3c6.4,0,12.5-0.8,19-0.8c11.7,0,22.6,3,34.2,4.5
		c14.1,1.8,28,3.3,42.1,3.3c5,0,22.5-2.5,24.9,2.3"/>
	<path fill="none" stroke="#FFFFFF" stroke-width="2.3089" stroke-linecap="round" d="M14,18.2c0,4.4,0,8.8,0,13.2
		c0,6.7-1.3-3.4-1.5-5.4c-0.3-2.8,0-5.8,0-8.6c0-0.4,3.4,2.2,4.5,2.5c2.5,0.8,4.8,1.4,7.4,1.4c2.6,0-5.1-0.8-7.6-0.8
		c-6.7,0,8.4-1.3,7.7-1.5c-2.9-0.8-7.7,1.4-8.1,4.6c-0.1,1-2,4.4-1.5,1.9c0.1-0.8,2.7-5.5,2.2-3.9c-0.3,1.1-1.9,4.9-2.4,5.7
		C13.5,28.9,14,25,14,24.2c0-2.5-0.6-4.5,0.2-1c0.8,3.5,0.2,7.1,1.4,10.6"/>
	<path fill="none" stroke="#FFFFFF" stroke-width="2.3089" stroke-linecap="round" d="M14.3,21.3c1.2,0.2,2.4,1,3.6,1.3
		c1.3,0.3,2.8,0.6,4.2,0.7c1.1,0-2.2,0.2-3.3,0.2c-1.5,0-3.2,0.2-4.7-0.2c-2.1-0.6,8.7-1.2,6.5-1.2c-1.3,0-2.5,0-3.8,0
		c-0.6,0-1.1,0-1.7,0c-0.3,0,0.6,0.3,0.9,0.4c2,1.2,1.7,4.4,1.2,6.4c-0.2,0.8-1,3.2-1,1c0-1.8,0.4-5.5,0.4-5.5S16,26.2,15.5,27
		c-0.5,0.7,0-0.5,0.5-0.7c0.6-0.3,1.5-0.5,1.9-1.2c0.8-1.5,1.6-4.1,3.5-4.1c1.5,0-1,1.7-1.1,1.8c-1,1-0.1,0.1,0.5-0.4
		c0.6-0.6,1.3-1.2,1.9-1.7c0.2-0.2,0.6-0.9,0.6-0.7c-0.1,0.4-0.8,0.8-1.1,0.9c-0.9,0.5-1.7,1.2-2.5,1.7c-1.5,0.9-3,2-4,3.5
		c-1.3,1.8-1.6,3.1-1.6,5.3c0,1-0.4,1.9-0.4,2.9c0,0.9-0.4-1.8-0.4-0.9c0,1.2-0.2,2.4-0.2,3.7c0,2,0-0.4,0-1.1c0-2.6,0-5.3,0-7.9"/>
	<path fill="none" stroke="#FFFFFF" stroke-width="2.3089" stroke-linecap="round" d="M14.1,44.4c0,3.1,0,6.2,0,9.3c0,2.3,0,4.6,0,7
		c0,0.6-0.1,2.2,0.6,2.5"/>
	<path fill="none" stroke="#FFFFFF" stroke-width="2.3089" stroke-linecap="round" d="M14.7,63.1v16"/>
	<path fill="none" stroke="#FFFFFF" stroke-width="2.3089" stroke-linecap="round" d="M423.5,275.9c0,7.4,0,14.8,0,22.1
		c0,1-0.4,6.1,0.2,2.4c0.7-4.5,2.7-8.9,3.7-13.4c0.6-2.6,1.3-5.3,1.8-7.9c0.2-1.2-0.5,5.8-0.7,7c-1.1,6.3-2.1,25.5-2.1,19.1
		c0-5.7-2.7-11-3.5-16.7c-0.6-3.8-0.8,15.3-0.8,11.5c0-4.4,0.8-8.5,2-12.7c1.9-6.6,0.9,1.5,0.8,4c-0.2,4.5-0.2,9.8-1.4,14.2
		c-0.4,1.4-0.7-3.8-0.7-4.5"/>
	<path fill="none" stroke="#1400FF" stroke-width="5.7721" stroke-linecap="round" d="M17.1,14.6c4.6,0,9.3,0.3,14,0
		c5.5-0.3,11-2,16.7-2.1c9.8-0.3,19.5-1.4,29.5-1.4c10.2,0,20.4,0.7,30.5,0.7c18,0,36.1,0,54.1,0c9.4,0,19,0.5,28.2-1.6
		C195.5,9,201.5,9,207.1,9c3,0,6,0,9,0c3.2,0,6,1.1,9.1,1.4c7.7,0.7,15.5,0.7,23.4,0.7c10,0,20.9-1.2,30.8,0.4
		c3.9,0.6,8.5,1.1,12.4,1.1c4.7,0,9.3,2,14,2.1c11.5,0.2,22.9,1.4,34.6,1.4c12.2,0,24.4,0,36.6,0c4.8,0,9.4-0.7,14.3-0.7
		c3.5,0,8.4,0.9,11.5-0.5c3.5-1.6,10.1-0.2,14-0.2c3.2,0,7.5,1,9.6,3.7c1.7,2.2,2.3,5.3,4.5,7.4c1.8,1.8,0.5,9.3,0.5,11.8
		c0,9.1-0.7,18.1-0.7,27.1c0,8.8-1.7,20.3,0.7,28.5c0.6,2.1,0,5.2,0,7.3c0,5.4,1.4,10.8,1.4,16.2c0,8.7,0.7,17.3,0.7,26
		c0,10.8-0.4,21.3-1.4,32c-0.4,5-0.8,10.3-1.8,15.2c-1,5,0,10.2-0.9,15.3c-1.5,8.3-0.2,18-0.2,26.5c0,4,0.4,8.5,1.2,12.4
		c0.8,3.4,0.1,7.3,1.2,10.6c1.3,3.8,0.3,9.4,0.3,13.4c0,3.4-2,16.6,1.4,18.3"/>
	<path fill="none" stroke="#1400FF" stroke-width="5.7721" stroke-linecap="round" d="M433.5,286.2c0,2.4-0.7,4.6-0.7,7
		c0,2.2-1.4,3.8-1.4,6c0,1.7-0.6,3.7-0.9,5.4c-0.6,3.4-0.3,6.7-0.9,10.1c-1.2,7.2-0.8,15.4-1,22.7c-0.3,7.6-1.8,16-0.7,23.7
		c0.8,5.6,2.8,10.6,2.8,16.2c0,6.8,0,13.6,0,20.4c0,3.9-0.6,7.7-0.7,11.6c-0.1,4.1,0.6,8.7-0.3,12.7c-1.3,5.4-0.3,12-0.3,17.6
		c0,5.2-0.7,10.3-0.7,15.5c0,6-0.7,12.1-0.7,18.1c0,2.9,0.7,11.6-1.7,13.5c-1.2,1-1.1,4.3-2.8,5.6c-1.6,1.3-3.8,1.4-5.4,2.7
		c-1.5,1.2-6.4,1-8.2,1.4c-3.4,0.8-7,0.9-10.5,0.9c-7.4,0-14.9,0-22.3,0c-7,0-14-0.4-20.9-0.7c-7-0.4-14.2-2.1-21.2-2.1
		c-6.5,0-12.7,0.7-19.1,0.7c-2.2,0-13.2-1.2-14.1,0.7"/>
	<path fill="none" stroke="#1400FF" stroke-width="5.7721" stroke-linecap="round" d="M301.7,495.9c-7,0-13.7,3.5-20.6,3.5
		c-6.2,0-11.2-1.9-17.1-2.8c-3.2-0.5-6.6-0.7-9.8-0.7c-2.1,0-4-1.4-6.3-1.4c-6.9,0-14.3-0.7-21.5-0.7c-12.7,0-25.3,2.1-37.9,2.1
		c-11.8,0-23.4,0.7-35.2,0.7c-6.4,0-12.2-1.4-18.5-1.4c-2.8,0-5.2-0.7-7.7-0.7c-4.5,0-8.3,2.1-12.7,2.1c-17.5,0-35,0-52.5,0
		c-4.7,0-9.4,0-14.1,0c-5.2,0-10.3-1.8-15.5-2.1c-5.3-0.3-14.8-1.4-19-4.8c-4.5-3.6-4.7-8.3-4.7-14.3c0-7.3-1.6-16.8,0.3-23.9
		c1.4-4.9,0.9-10.9,1-16c0.1-5.1,1.4-9.9,1.4-15.1c0-6.3,0-12.6,0-18.8"/>
	<path fill="none" stroke="#1400FF" stroke-width="4.6177" stroke-linecap="round" d="M10.3,401.7c0-13.6,2.2-26.9,2.2-40.4
		c0-5.1,0.6-11.3-0.1-16.3c-0.5-3.8-1.6-7.9-1.6-11.7c-0.1-6.4-1.7-12.9-1.7-19.2c0-5.3,0-10.6,0-15.8c0-13.4,0.4-27.2,0.4-40.8
		c0-15.8-0.9-31.4-0.9-47.2c0-12.3,0-24.7,0-37c0-8.1,0.9-15.9,0.9-23.9c0-7.9,0-15.7,0-23.6c0-2.9-0.4-4.9-0.4-7.7
		c0-2.7,0.4-5.1,0.4-7.7c0-2.3-0.2-5.1,0.2-7.4c1.3-6.1,0.7-13.5,0.7-19.9c0-4.8,0.4-10.3-0.4-14.6c-0.4-2.1,0-5.2,0-7.4
		c0-1.3-0.4-1.8-0.4-3.2c0-2.1,0,1.6,0,0.4c-0.2-5.4-1.3-10.9-1.3-16.5c0-6.6-1.1-27.8,5.2-27.8"/>
</g>
</svg>
